<svg width="888" height="250" xmlns="http://www.w3.org/2000/svg" xmlns:xlink="http://www.w3.org/1999/xlink" overflow="hidden"><defs><clipPath id="clip0"><rect x="2648" y="1446" width="888" height="250"/></clipPath><clipPath id="clip1"><rect x="2650" y="1204" width="409" height="617"/></clipPath><clipPath id="clip2"><rect x="3058" y="1204" width="473" height="617"/></clipPath></defs><g clip-path="url(#clip0)" transform="translate(-2648 -1446)"><path d="M2650.68 1464.84 3058.6 1464.84 3058.6 1557.66 2650.68 1557.66Z" fill="#FFFF00" fill-rule="evenodd"/><path d="M3058.6 1464.84 3530.68 1464.84 3530.68 1557.66 3058.6 1557.66Z" fill="#FFFF00" fill-rule="evenodd"/><path d="M3058.6 1557.66 3530.68 1557.66 3530.68 1653.91 3058.6 1653.91Z" fill="#92D050" fill-rule="evenodd"/><path d="M3058.6 1462.55 3058.6 1656.2" stroke="#000000" stroke-width="2.29167" stroke-linejoin="round" stroke-miterlimit="10" fill="none" fill-rule="evenodd"/><path d="M2648.39 1557.66 3532.97 1557.66" stroke="#000000" stroke-width="2.29167" stroke-linejoin="round" stroke-miterlimit="10" fill="none" fill-rule="evenodd"/><path d="M2650.68 1462.55 2650.68 1656.2" stroke="#000000" stroke-width="4.58333" stroke-linejoin="round" stroke-miterlimit="10" fill="none" fill-rule="evenodd"/><path d="M3530.68 1462.55 3530.68 1656.2" stroke="#000000" stroke-width="4.58333" stroke-linejoin="round" stroke-miterlimit="10" fill="none" fill-rule="evenodd"/><path d="M2648.39 1464.84 3532.97 1464.84" stroke="#000000" stroke-width="4.58333" stroke-linejoin="round" stroke-miterlimit="10" fill="none" fill-rule="evenodd"/><path d="M2648.39 1653.91 3532.97 1653.91" stroke="#000000" stroke-width="4.58333" stroke-linejoin="round" stroke-miterlimit="10" fill="none" fill-rule="evenodd"/><g clip-path="url(#clip1)"><text fill="#3333FF" font-family="Century Gothic,Century Gothic_MSFontService,sans-serif" font-weight="700" font-size="73" transform="matrix(1 0 0 1 2667.58 1541)">PACIENTES</text></g><g clip-path="url(#clip2)"><text fill="#3333FF" font-family="Century Gothic,Century Gothic_MSFontService,sans-serif" font-weight="700" font-size="73" transform="matrix(1 0 0 1 3085.81 1541)">VARIACION </text></g><text font-family="Century Gothic,Century Gothic_MSFontService,sans-serif" font-weight="700" font-size="73" transform="matrix(1 0 0 1 2772.14 1636)">2987<tspan font-size="73" x="449.739" y="0">24%</tspan></text></g></svg>