<svg width="3452" height="1932" xmlns="http://www.w3.org/2000/svg" xmlns:xlink="http://www.w3.org/1999/xlink" overflow="hidden"><defs><clipPath id="clip0"><rect x="722" y="372" width="3452" height="1932"/></clipPath><clipPath id="clip1"><rect x="724" y="356" width="228" height="540"/></clipPath><clipPath id="clip2"><rect x="951" y="356" width="2020" height="540"/></clipPath><clipPath id="clip3"><rect x="2970" y="356" width="406" height="540"/></clipPath><clipPath id="clip4"><rect x="3375" y="356" width="488" height="540"/></clipPath><clipPath id="clip5"><rect x="3862" y="356" width="310" height="540"/></clipPath><clipPath id="clip6"><rect x="724" y="436" width="228" height="540"/></clipPath><clipPath id="clip7"><rect x="951" y="436" width="2020" height="540"/></clipPath><clipPath id="clip8"><rect x="2970" y="436" width="406" height="540"/></clipPath><clipPath id="clip9"><rect x="3375" y="436" width="488" height="540"/></clipPath><clipPath id="clip10"><rect x="3862" y="436" width="310" height="540"/></clipPath><clipPath id="clip11"><rect x="724" y="516" width="228" height="540"/></clipPath><clipPath id="clip12"><rect x="951" y="285" width="2020" height="1079"/></clipPath><clipPath id="clip13"><rect x="951" y="285" width="2020" height="1079"/></clipPath><clipPath id="clip14"><rect x="2970" y="516" width="406" height="540"/></clipPath><clipPath id="clip15"><rect x="3375" y="593" width="488" height="540"/></clipPath><clipPath id="clip16"><rect x="3862" y="593" width="310" height="540"/></clipPath><clipPath id="clip17"><rect x="724" y="672" width="228" height="540"/></clipPath><clipPath id="clip18"><rect x="951" y="672" width="2020" height="540"/></clipPath><clipPath id="clip19"><rect x="2970" y="672" width="406" height="540"/></clipPath><clipPath id="clip20"><rect x="3375" y="672" width="488" height="540"/></clipPath><clipPath id="clip21"><rect x="3862" y="672" width="310" height="540"/></clipPath><clipPath id="clip22"><rect x="724" y="752" width="228" height="540"/></clipPath><clipPath id="clip23"><rect x="951" y="752" width="2020" height="540"/></clipPath><clipPath id="clip24"><rect x="2970" y="752" width="406" height="540"/></clipPath><clipPath id="clip25"><rect x="3375" y="809" width="488" height="540"/></clipPath><clipPath id="clip26"><rect x="3862" y="809" width="310" height="540"/></clipPath><clipPath id="clip27"><rect x="724" y="889" width="228" height="540"/></clipPath><clipPath id="clip28"><rect x="951" y="889" width="2020" height="540"/></clipPath><clipPath id="clip29"><rect x="2970" y="889" width="406" height="540"/></clipPath><clipPath id="clip30"><rect x="3375" y="889" width="488" height="540"/></clipPath><clipPath id="clip31"><rect x="3862" y="889" width="310" height="540"/></clipPath><clipPath id="clip32"><rect x="724" y="968" width="228" height="540"/></clipPath><clipPath id="clip33"><rect x="951" y="737" width="2020" height="1079"/></clipPath><clipPath id="clip34"><rect x="951" y="737" width="2020" height="1079"/></clipPath><clipPath id="clip35"><rect x="2970" y="968" width="406" height="540"/></clipPath><clipPath id="clip36"><rect x="3375" y="1045" width="488" height="540"/></clipPath><clipPath id="clip37"><rect x="3862" y="1045" width="310" height="540"/></clipPath><clipPath id="clip38"><rect x="724" y="1125" width="228" height="540"/></clipPath><clipPath id="clip39"><rect x="951" y="1125" width="2020" height="540"/></clipPath><clipPath id="clip40"><rect x="2970" y="1125" width="406" height="540"/></clipPath><clipPath id="clip41"><rect x="3375" y="1125" width="488" height="540"/></clipPath><clipPath id="clip42"><rect x="3862" y="1125" width="310" height="540"/></clipPath><clipPath id="clip43"><rect x="724" y="1205" width="228" height="540"/></clipPath><clipPath id="clip44"><rect x="951" y="1205" width="2020" height="540"/></clipPath><clipPath id="clip45"><rect x="2970" y="1205" width="406" height="540"/></clipPath><clipPath id="clip46"><rect x="3375" y="1262" width="488" height="540"/></clipPath><clipPath id="clip47"><rect x="3862" y="1262" width="310" height="540"/></clipPath><clipPath id="clip48"><rect x="724" y="1342" width="228" height="540"/></clipPath><clipPath id="clip49"><rect x="951" y="1342" width="2020" height="540"/></clipPath><clipPath id="clip50"><rect x="2970" y="1342" width="406" height="540"/></clipPath><clipPath id="clip51"><rect x="3375" y="1399" width="488" height="540"/></clipPath><clipPath id="clip52"><rect x="3862" y="1399" width="310" height="540"/></clipPath><clipPath id="clip53"><rect x="724" y="1478" width="228" height="540"/></clipPath><clipPath id="clip54"><rect x="951" y="1478" width="2020" height="540"/></clipPath><clipPath id="clip55"><rect x="2970" y="1478" width="406" height="540"/></clipPath><clipPath id="clip56"><rect x="3375" y="1478" width="488" height="540"/></clipPath><clipPath id="clip57"><rect x="3862" y="1478" width="310" height="540"/></clipPath><clipPath id="clip58"><rect x="724" y="1558" width="228" height="540"/></clipPath><clipPath id="clip59"><rect x="951" y="1558" width="2020" height="540"/></clipPath><clipPath id="clip60"><rect x="2970" y="1558" width="406" height="540"/></clipPath><clipPath id="clip61"><rect x="3375" y="1558" width="488" height="540"/></clipPath><clipPath id="clip62"><rect x="3862" y="1558" width="310" height="540"/></clipPath><clipPath id="clip63"><rect x="724" y="1638" width="228" height="540"/></clipPath><clipPath id="clip64"><rect x="951" y="1638" width="2020" height="540"/></clipPath><clipPath id="clip65"><rect x="2970" y="1638" width="406" height="540"/></clipPath><clipPath id="clip66"><rect x="3375" y="1638" width="488" height="540"/></clipPath><clipPath id="clip67"><rect x="3862" y="1638" width="310" height="540"/></clipPath><clipPath id="clip68"><rect x="724" y="1717" width="228" height="540"/></clipPath><clipPath id="clip69"><rect x="951" y="1717" width="2020" height="540"/></clipPath><clipPath id="clip70"><rect x="2970" y="1717" width="406" height="540"/></clipPath><clipPath id="clip71"><rect x="3375" y="1717" width="488" height="540"/></clipPath><clipPath id="clip72"><rect x="3862" y="1717" width="310" height="540"/></clipPath><clipPath id="clip73"><rect x="724" y="1797" width="228" height="540"/></clipPath><clipPath id="clip74"><rect x="951" y="1797" width="2020" height="540"/></clipPath><clipPath id="clip75"><rect x="2970" y="1797" width="406" height="540"/></clipPath><clipPath id="clip76"><rect x="3375" y="1797" width="488" height="540"/></clipPath><clipPath id="clip77"><rect x="3862" y="1797" width="310" height="540"/></clipPath><clipPath id="clip78"><rect x="951" y="1877" width="2020" height="540"/></clipPath><clipPath id="clip79"><rect x="2970" y="1877" width="406" height="540"/></clipPath><clipPath id="clip80"><rect x="3375" y="1877" width="488" height="540"/></clipPath><clipPath id="clip81"><rect x="3862" y="1877" width="310" height="540"/></clipPath><clipPath id="clip82"><rect x="2970" y="1956" width="406" height="540"/></clipPath><clipPath id="clip83"><rect x="3375" y="1956" width="488" height="540"/></clipPath><clipPath id="clip84"><rect x="3862" y="1956" width="310" height="540"/></clipPath></defs><g clip-path="url(#clip0)" transform="translate(-722 -372)"><path d="M724.078 391.444 4171.46 391.444 4171.46 505.489 724.078 505.489Z" fill="#92D050" fill-rule="evenodd"/><path d="M724.078 505.489 951.929 505.489 951.929 585.142 724.078 585.142Z" fill="#FFFF00" fill-rule="evenodd"/><path d="M951.929 505.489 2970.41 505.489 2970.41 585.142 951.929 585.142Z" fill="#FFFF00" fill-rule="evenodd"/><path d="M2970.41 505.489 3375.91 505.489 3375.91 585.142 2970.41 585.142Z" fill="#FFFF00" fill-rule="evenodd"/><path d="M3375.91 505.489 3862.51 505.489 3862.51 585.142 3375.91 585.142Z" fill="#FFFF00" fill-rule="evenodd"/><path d="M3862.51 505.489 4171.46 505.489 4171.46 585.142 3862.51 585.142Z" fill="#FFFF00" fill-rule="evenodd"/><path d="M724.078 2185.19 2970.41 2185.19 2970.41 2264.84 724.078 2264.84Z" fill="#BFBFBF" fill-rule="evenodd"/><path d="M2970.41 2185.19 3375.91 2185.19 3375.91 2264.84 2970.41 2264.84Z" fill="#BFBFBF" fill-rule="evenodd"/><path d="M3375.91 2185.19 3862.51 2185.19 3862.51 2264.84 3375.91 2264.84Z" fill="#BFBFBF" fill-rule="evenodd"/><path d="M3862.51 2185.19 4171.46 2185.19 4171.46 2264.84 3862.51 2264.84Z" fill="#BFBFBF" fill-rule="evenodd"/><path d="M951.929 504.344 951.929 2186.33" stroke="#000000" stroke-width="2.29167" stroke-linejoin="round" stroke-miterlimit="10" fill="none" fill-rule="evenodd"/><path d="M2970.41 504.344 2970.41 2265.99" stroke="#000000" stroke-width="2.29167" stroke-linejoin="round" stroke-miterlimit="10" fill="none" fill-rule="evenodd"/><path d="M3375.91 504.344 3375.91 2265.99" stroke="#000000" stroke-width="2.29167" stroke-linejoin="round" stroke-miterlimit="10" fill="none" fill-rule="evenodd"/><path d="M3862.51 504.344 3862.51 2265.99" stroke="#000000" stroke-width="2.29167" stroke-linejoin="round" stroke-miterlimit="10" fill="none" fill-rule="evenodd"/><path d="M722.932 505.489 4172.6 505.489" stroke="#000000" stroke-width="2.29167" stroke-linejoin="round" stroke-miterlimit="10" fill="none" fill-rule="evenodd"/><path d="M722.932 585.142 4172.6 585.142" stroke="#000000" stroke-width="2.29167" stroke-linejoin="round" stroke-miterlimit="10" fill="none" fill-rule="evenodd"/><path d="M722.932 664.794 4172.6 664.794" stroke="#000000" stroke-width="2.29167" stroke-linejoin="round" stroke-miterlimit="10" fill="none" fill-rule="evenodd"/><path d="M722.932 744.447 4172.6 744.447" stroke="#000000" stroke-width="2.29167" stroke-linejoin="round" stroke-miterlimit="10" fill="none" fill-rule="evenodd"/><path d="M722.932 901.1 4172.6 901.1" stroke="#000000" stroke-width="2.29167" stroke-linejoin="round" stroke-miterlimit="10" fill="none" fill-rule="evenodd"/><path d="M722.932 980.752 4172.6 980.752" stroke="#000000" stroke-width="2.29167" stroke-linejoin="round" stroke-miterlimit="10" fill="none" fill-rule="evenodd"/><path d="M722.932 1117.61 4172.6 1117.61" stroke="#000000" stroke-width="2.29167" stroke-linejoin="round" stroke-miterlimit="10" fill="none" fill-rule="evenodd"/><path d="M722.932 1197.26 4172.6 1197.26" stroke="#000000" stroke-width="2.29167" stroke-linejoin="round" stroke-miterlimit="10" fill="none" fill-rule="evenodd"/><path d="M722.932 1353.91 4172.6 1353.91" stroke="#000000" stroke-width="2.29167" stroke-linejoin="round" stroke-miterlimit="10" fill="none" fill-rule="evenodd"/><path d="M722.932 1433.56 4172.6 1433.56" stroke="#000000" stroke-width="2.29167" stroke-linejoin="round" stroke-miterlimit="10" fill="none" fill-rule="evenodd"/><path d="M722.932 1570.42 4172.6 1570.42" stroke="#000000" stroke-width="2.29167" stroke-linejoin="round" stroke-miterlimit="10" fill="none" fill-rule="evenodd"/><path d="M722.932 1707.27 4172.6 1707.27" stroke="#000000" stroke-width="2.29167" stroke-linejoin="round" stroke-miterlimit="10" fill="none" fill-rule="evenodd"/><path d="M722.932 1786.93 4172.6 1786.93" stroke="#000000" stroke-width="2.29167" stroke-linejoin="round" stroke-miterlimit="10" fill="none" fill-rule="evenodd"/><path d="M722.932 1866.58 4172.6 1866.58" stroke="#000000" stroke-width="2.29167" stroke-linejoin="round" stroke-miterlimit="10" fill="none" fill-rule="evenodd"/><path d="M722.932 1946.23 4172.6 1946.23" stroke="#000000" stroke-width="2.29167" stroke-linejoin="round" stroke-miterlimit="10" fill="none" fill-rule="evenodd"/><path d="M722.932 2025.88 4172.6 2025.88" stroke="#000000" stroke-width="2.29167" stroke-linejoin="round" stroke-miterlimit="10" fill="none" fill-rule="evenodd"/><path d="M722.932 2105.54 4172.6 2105.54" stroke="#000000" stroke-width="2.29167" stroke-linejoin="round" stroke-miterlimit="10" fill="none" fill-rule="evenodd"/><path d="M722.932 2185.19 4172.6 2185.19" stroke="#000000" stroke-width="2.29167" stroke-linejoin="round" stroke-miterlimit="10" fill="none" fill-rule="evenodd"/><path d="M724.078 390.298 724.078 2265.99" stroke="#000000" stroke-width="2.29167" stroke-linejoin="round" stroke-miterlimit="10" fill="none" fill-rule="evenodd"/><path d="M4171.46 390.298 4171.46 2265.99" stroke="#000000" stroke-width="2.29167" stroke-linejoin="round" stroke-miterlimit="10" fill="none" fill-rule="evenodd"/><path d="M722.932 391.444 4172.6 391.444" stroke="#000000" stroke-width="2.29167" stroke-linejoin="round" stroke-miterlimit="10" fill="none" fill-rule="evenodd"/><path d="M722.932 2264.84 4172.6 2264.84" stroke="#000000" stroke-width="2.29167" stroke-linejoin="round" stroke-miterlimit="10" fill="none" fill-rule="evenodd"/><text font-family="Century Gothic,Century Gothic_MSFontService,sans-serif" font-weight="700" font-size="73" transform="matrix(1 0 0 1 1688.94 467)">MOTIVOS DE REMISIÓN AMBULATORIA 2022<tspan fill="#3333FF" font-size="64" x="-895.05" y="105">DX</tspan><tspan fill="#3333FF" font-size="64" x="61.6835" y="105">DESCRIPCIÓN</tspan><tspan fill="#3333FF" font-size="64" x="1320.94" y="105">CANTIDAD</tspan><tspan fill="#3333FF" font-size="64" x="1736.05" y="104">FRECUENCIA</tspan><tspan fill="#3333FF" font-size="64" x="2250.41" y="104">TASA</tspan></text><g clip-path="url(#clip1)"><text font-family="Century Gothic,Century Gothic_MSFontService,sans-serif" font-weight="400" font-size="64" transform="matrix(1 0 0 1 726.73 650)">Z000</text></g><g clip-path="url(#clip2)"><text font-family="Century Gothic,Century Gothic_MSFontService,sans-serif" font-weight="400" font-size="64" transform="matrix(1 0 0 1 954.582 650)">EXAMEN MEDICO GENERAL</text></g><g clip-path="url(#clip3)"><text font-family="Century Gothic,Century Gothic_MSFontService,sans-serif" font-weight="400" font-size="64" transform="matrix(1 0 0 1 3266.4 650)">237</text></g><g clip-path="url(#clip4)"><text font-family="Century Gothic,Century Gothic_MSFontService,sans-serif" font-weight="400" font-size="64" transform="matrix(1 0 0 1 3685.64 651)">8,01%</text></g><g clip-path="url(#clip5)"><text font-family="Century Gothic,Century Gothic_MSFontService,sans-serif" font-weight="400" font-size="64" transform="matrix(1 0 0 1 4008.96 651)">43,89</text></g><g clip-path="url(#clip6)"><text font-family="Century Gothic,Century Gothic_MSFontService,sans-serif" font-weight="400" font-size="64" transform="matrix(1 0 0 1 726.73 729)">I10X</text></g><g clip-path="url(#clip7)"><text font-family="Century Gothic,Century Gothic_MSFontService,sans-serif" font-weight="400" font-size="64" transform="matrix(1 0 0 1 954.582 729)">HIPERTENSION ESENCIAL (PRIMARIA)</text></g><g clip-path="url(#clip8)"><text font-family="Century Gothic,Century Gothic_MSFontService,sans-serif" font-weight="400" font-size="64" transform="matrix(1 0 0 1 3266.4 729)">233</text></g><g clip-path="url(#clip9)"><text font-family="Century Gothic,Century Gothic_MSFontService,sans-serif" font-weight="400" font-size="64" transform="matrix(1 0 0 1 3685.64 730)">7,88%</text></g><g clip-path="url(#clip10)"><text font-family="Century Gothic,Century Gothic_MSFontService,sans-serif" font-weight="400" font-size="64" transform="matrix(1 0 0 1 4008.96 730)">43,15</text></g><g clip-path="url(#clip11)"><text font-family="Century Gothic,Century Gothic_MSFontService,sans-serif" font-weight="400" font-size="64" transform="matrix(1 0 0 1 726.73 809)">Z359</text></g><g clip-path="url(#clip12)"><text font-family="Century Gothic,Century Gothic_MSFontService,sans-serif" font-weight="400" font-size="64" transform="matrix(1 0 0 1 954.582 809)">SUPERVISION DE EMBARAZO DE ALTO RIESGO</text></g><text font-family="Century Gothic,Century Gothic_MSFontService,sans-serif" font-weight="400" font-size="64" transform="matrix(1 0 0 1 2343.9 809)">-<tspan font-size="64" x="38.9583" y="0">SIN OTRA </tspan></text><g clip-path="url(#clip13)"><text font-family="Century Gothic,Century Gothic_MSFontService,sans-serif" font-weight="400" font-size="64" transform="matrix(1 0 0 1 954.582 886)">ESPECIFICACION</text></g><g clip-path="url(#clip14)"><text font-family="Century Gothic,Century Gothic_MSFontService,sans-serif" font-weight="400" font-size="64" transform="matrix(1 0 0 1 3266.4 809)">228</text></g><g clip-path="url(#clip15)"><text font-family="Century Gothic,Century Gothic_MSFontService,sans-serif" font-weight="400" font-size="64" transform="matrix(1 0 0 1 3685.64 887)">7,71%</text></g><g clip-path="url(#clip16)"><text font-family="Century Gothic,Century Gothic_MSFontService,sans-serif" font-weight="400" font-size="64" transform="matrix(1 0 0 1 4008.96 887)">42,22</text></g><g clip-path="url(#clip17)"><text font-family="Century Gothic,Century Gothic_MSFontService,sans-serif" font-weight="400" font-size="64" transform="matrix(1 0 0 1 726.73 966)">Z001</text></g><g clip-path="url(#clip18)"><text font-family="Century Gothic,Century Gothic_MSFontService,sans-serif" font-weight="400" font-size="64" transform="matrix(1 0 0 1 954.582 966)">CONTROL DE SALUD DE RUTINA DEL NIÑO</text></g><g clip-path="url(#clip19)"><text font-family="Century Gothic,Century Gothic_MSFontService,sans-serif" font-weight="400" font-size="64" transform="matrix(1 0 0 1 3266.4 966)">117</text></g><g clip-path="url(#clip20)"><text font-family="Century Gothic,Century Gothic_MSFontService,sans-serif" font-weight="400" font-size="64" transform="matrix(1 0 0 1 3685.64 967)">3,96%</text></g><g clip-path="url(#clip21)"><text font-family="Century Gothic,Century Gothic_MSFontService,sans-serif" font-weight="400" font-size="64" transform="matrix(1 0 0 1 4008.96 967)">21,67</text></g><g clip-path="url(#clip22)"><text font-family="Century Gothic,Century Gothic_MSFontService,sans-serif" font-weight="400" font-size="64" transform="matrix(1 0 0 1 726.73 1045)">Z349</text></g><g clip-path="url(#clip23)"><text font-family="Century Gothic,Century Gothic_MSFontService,sans-serif" font-weight="400" font-size="64" transform="matrix(1 0 0 1 954.582 1045)">SUPERVISIÓN DE EMBARAZO NORMAL NO ESPECIFICADO</text></g><g clip-path="url(#clip24)"><text font-family="Century Gothic,Century Gothic_MSFontService,sans-serif" font-weight="400" font-size="64" transform="matrix(1 0 0 1 3301.92 1045)">89</text></g><g clip-path="url(#clip25)"><text font-family="Century Gothic,Century Gothic_MSFontService,sans-serif" font-weight="400" font-size="64" transform="matrix(1 0 0 1 3685.64 1104)">3,01%</text></g><g clip-path="url(#clip26)"><text font-family="Century Gothic,Century Gothic_MSFontService,sans-serif" font-weight="400" font-size="64" transform="matrix(1 0 0 1 4008.96 1104)">16,48</text></g><g clip-path="url(#clip27)"><text font-family="Century Gothic,Century Gothic_MSFontService,sans-serif" font-weight="400" font-size="64" transform="matrix(1 0 0 1 726.73 1182)">M545</text></g><g clip-path="url(#clip28)"><text font-family="Century Gothic,Century Gothic_MSFontService,sans-serif" font-weight="400" font-size="64" transform="matrix(1 0 0 1 954.582 1182)">LUMBAGO NO ESPECIFICADO</text></g><g clip-path="url(#clip29)"><text font-family="Century Gothic,Century Gothic_MSFontService,sans-serif" font-weight="400" font-size="64" transform="matrix(1 0 0 1 3301.92 1182)">63</text></g><g clip-path="url(#clip30)"><text font-family="Century Gothic,Century Gothic_MSFontService,sans-serif" font-weight="400" font-size="64" transform="matrix(1 0 0 1 3685.64 1183)">2,13%</text></g><g clip-path="url(#clip31)"><text font-family="Century Gothic,Century Gothic_MSFontService,sans-serif" font-weight="400" font-size="64" transform="matrix(1 0 0 1 4008.96 1183)">11,67</text></g><g clip-path="url(#clip32)"><text font-family="Century Gothic,Century Gothic_MSFontService,sans-serif" font-weight="400" font-size="64" transform="matrix(1 0 0 1 726.73 1262)">Z108</text></g><g clip-path="url(#clip33)"><text font-family="Century Gothic,Century Gothic_MSFontService,sans-serif" font-weight="400" font-size="64" transform="matrix(1 0 0 1 954.582 1262)">OTROS CONTROLES GENERALES DE SALUD DE RUTINA DE OTRAS </text></g><g clip-path="url(#clip34)"><text font-family="Century Gothic,Century Gothic_MSFontService,sans-serif" font-weight="400" font-size="64" transform="matrix(1 0 0 1 954.582 1339)">SUBPOBLACIONES DEFINIDAS</text></g><g clip-path="url(#clip35)"><text font-family="Century Gothic,Century Gothic_MSFontService,sans-serif" font-weight="400" font-size="64" transform="matrix(1 0 0 1 3301.92 1262)">55</text></g><g clip-path="url(#clip36)"><text font-family="Century Gothic,Century Gothic_MSFontService,sans-serif" font-weight="400" font-size="64" transform="matrix(1 0 0 1 3685.64 1340)">1,86%</text></g><g clip-path="url(#clip37)"><text font-family="Century Gothic,Century Gothic_MSFontService,sans-serif" font-weight="400" font-size="64" transform="matrix(1 0 0 1 4008.96 1340)">10,19</text></g><g clip-path="url(#clip38)"><text font-family="Century Gothic,Century Gothic_MSFontService,sans-serif" font-weight="400" font-size="64" transform="matrix(1 0 0 1 726.73 1419)">Z321</text></g><g clip-path="url(#clip39)"><text font-family="Century Gothic,Century Gothic_MSFontService,sans-serif" font-weight="400" font-size="64" transform="matrix(1 0 0 1 954.582 1419)">EMBARAZO CONFIRMADO</text></g><g clip-path="url(#clip40)"><text font-family="Century Gothic,Century Gothic_MSFontService,sans-serif" font-weight="400" font-size="64" transform="matrix(1 0 0 1 3301.92 1419)">51</text></g><g clip-path="url(#clip41)"><text font-family="Century Gothic,Century Gothic_MSFontService,sans-serif" font-weight="400" font-size="64" transform="matrix(1 0 0 1 3685.64 1420)">1,72%</text></g><g clip-path="url(#clip42)"><text font-family="Century Gothic,Century Gothic_MSFontService,sans-serif" font-weight="400" font-size="64" transform="matrix(1 0 0 1 4044.48 1420)">9,44</text></g><g clip-path="url(#clip43)"><text font-family="Century Gothic,Century Gothic_MSFontService,sans-serif" font-weight="400" font-size="64" transform="matrix(1 0 0 1 726.73 1498)">Z003</text></g><g clip-path="url(#clip44)"><text font-family="Century Gothic,Century Gothic_MSFontService,sans-serif" font-weight="400" font-size="64" transform="matrix(1 0 0 1 954.582 1498)">EXAMEN DEL ESTADO DE DESARROLLO DEL ADOLESCENTE</text></g><g clip-path="url(#clip45)"><text font-family="Century Gothic,Century Gothic_MSFontService,sans-serif" font-weight="400" font-size="64" transform="matrix(1 0 0 1 3301.92 1498)">46</text></g><g clip-path="url(#clip46)"><text font-family="Century Gothic,Century Gothic_MSFontService,sans-serif" font-weight="400" font-size="64" transform="matrix(1 0 0 1 3685.64 1556)">1,56%</text></g><g clip-path="url(#clip47)"><text font-family="Century Gothic,Century Gothic_MSFontService,sans-serif" font-weight="400" font-size="64" transform="matrix(1 0 0 1 4044.48 1556)">8,52</text></g><g clip-path="url(#clip48)"><text font-family="Century Gothic,Century Gothic_MSFontService,sans-serif" font-weight="400" font-size="64" transform="matrix(1 0 0 1 726.73 1635)">R104</text></g><g clip-path="url(#clip49)"><text font-family="Century Gothic,Century Gothic_MSFontService,sans-serif" font-weight="400" font-size="64" transform="matrix(1 0 0 1 954.582 1635)">OTROS DOLORES ABDOMINALES Y LOS NO ESPECIFICADOS</text></g><g clip-path="url(#clip50)"><text font-family="Century Gothic,Century Gothic_MSFontService,sans-serif" font-weight="400" font-size="64" transform="matrix(1 0 0 1 3301.92 1635)">44</text></g><g clip-path="url(#clip51)"><text font-family="Century Gothic,Century Gothic_MSFontService,sans-serif" font-weight="400" font-size="64" transform="matrix(1 0 0 1 3685.64 1693)">1,49%</text></g><g clip-path="url(#clip52)"><text font-family="Century Gothic,Century Gothic_MSFontService,sans-serif" font-weight="400" font-size="64" transform="matrix(1 0 0 1 4044.48 1693)">8,15</text></g><g clip-path="url(#clip53)"><text font-family="Century Gothic,Century Gothic_MSFontService,sans-serif" font-weight="400" font-size="64" transform="matrix(1 0 0 1 726.73 1772)">K297</text></g><g clip-path="url(#clip54)"><text font-family="Century Gothic,Century Gothic_MSFontService,sans-serif" font-weight="400" font-size="64" transform="matrix(1 0 0 1 954.582 1772)">GASTRITIS</text></g><text font-family="Century Gothic,Century Gothic_MSFontService,sans-serif" font-weight="400" font-size="64" transform="matrix(1 0 0 1 1245.05 1772)">-<tspan font-size="64" x="38.9584" y="0">NO ESPECIFICADA</tspan></text><g clip-path="url(#clip55)"><text font-family="Century Gothic,Century Gothic_MSFontService,sans-serif" font-weight="400" font-size="64" transform="matrix(1 0 0 1 3301.92 1772)">41</text></g><g clip-path="url(#clip56)"><text font-family="Century Gothic,Century Gothic_MSFontService,sans-serif" font-weight="400" font-size="64" transform="matrix(1 0 0 1 3685.64 1773)">1,39%</text></g><g clip-path="url(#clip57)"><text font-family="Century Gothic,Century Gothic_MSFontService,sans-serif" font-weight="400" font-size="64" transform="matrix(1 0 0 1 4044.48 1773)">7,59</text></g><g clip-path="url(#clip58)"><text font-family="Century Gothic,Century Gothic_MSFontService,sans-serif" font-weight="400" font-size="64" transform="matrix(1 0 0 1 726.73 1852)">N40X</text></g><g clip-path="url(#clip59)"><text font-family="Century Gothic,Century Gothic_MSFontService,sans-serif" font-weight="400" font-size="64" transform="matrix(1 0 0 1 954.582 1852)">HIPERPLASIA DE LA PROSTATA</text></g><g clip-path="url(#clip60)"><text font-family="Century Gothic,Century Gothic_MSFontService,sans-serif" font-weight="400" font-size="64" transform="matrix(1 0 0 1 3301.92 1852)">41</text></g><g clip-path="url(#clip61)"><text font-family="Century Gothic,Century Gothic_MSFontService,sans-serif" font-weight="400" font-size="64" transform="matrix(1 0 0 1 3685.64 1853)">1,39%</text></g><g clip-path="url(#clip62)"><text font-family="Century Gothic,Century Gothic_MSFontService,sans-serif" font-weight="400" font-size="64" transform="matrix(1 0 0 1 4044.48 1853)">7,59</text></g><g clip-path="url(#clip63)"><text font-family="Century Gothic,Century Gothic_MSFontService,sans-serif" font-weight="400" font-size="64" transform="matrix(1 0 0 1 726.73 1931)">E039</text></g><g clip-path="url(#clip64)"><text font-family="Century Gothic,Century Gothic_MSFontService,sans-serif" font-weight="400" font-size="64" transform="matrix(1 0 0 1 954.582 1931)">HIPOTIROIDISMO</text></g><text font-family="Century Gothic,Century Gothic_MSFontService,sans-serif" font-weight="400" font-size="64" transform="matrix(1 0 0 1 1465.62 1931)">-<tspan font-size="64" x="38.9583" y="0">NO ESPECIFICADO</tspan></text><g clip-path="url(#clip65)"><text font-family="Century Gothic,Century Gothic_MSFontService,sans-serif" font-weight="400" font-size="64" transform="matrix(1 0 0 1 3301.92 1931)">39</text></g><g clip-path="url(#clip66)"><text font-family="Century Gothic,Century Gothic_MSFontService,sans-serif" font-weight="400" font-size="64" transform="matrix(1 0 0 1 3685.64 1932)">1,32%</text></g><g clip-path="url(#clip67)"><text font-family="Century Gothic,Century Gothic_MSFontService,sans-serif" font-weight="400" font-size="64" transform="matrix(1 0 0 1 4044.48 1932)">7,22</text></g><g clip-path="url(#clip68)"><text font-family="Century Gothic,Century Gothic_MSFontService,sans-serif" font-weight="400" font-size="64" transform="matrix(1 0 0 1 726.73 2011)">Z008</text></g><g clip-path="url(#clip69)"><text font-family="Century Gothic,Century Gothic_MSFontService,sans-serif" font-weight="400" font-size="64" transform="matrix(1 0 0 1 954.582 2011)">OTROS EXAMENES GENERALES</text></g><g clip-path="url(#clip70)"><text font-family="Century Gothic,Century Gothic_MSFontService,sans-serif" font-weight="400" font-size="64" transform="matrix(1 0 0 1 3301.92 2011)">38</text></g><g clip-path="url(#clip71)"><text font-family="Century Gothic,Century Gothic_MSFontService,sans-serif" font-weight="400" font-size="64" transform="matrix(1 0 0 1 3685.64 2012)">1,28%</text></g><g clip-path="url(#clip72)"><text font-family="Century Gothic,Century Gothic_MSFontService,sans-serif" font-weight="400" font-size="64" transform="matrix(1 0 0 1 4044.48 2012)">7,04</text></g><g clip-path="url(#clip73)"><text font-family="Century Gothic,Century Gothic_MSFontService,sans-serif" font-weight="400" font-size="64" transform="matrix(1 0 0 1 726.73 2091)">M255</text></g><g clip-path="url(#clip74)"><text font-family="Century Gothic,Century Gothic_MSFontService,sans-serif" font-weight="400" font-size="64" transform="matrix(1 0 0 1 954.582 2091)">DOLOR EN ARTICULACIÓN</text></g><g clip-path="url(#clip75)"><text font-family="Century Gothic,Century Gothic_MSFontService,sans-serif" font-weight="400" font-size="64" transform="matrix(1 0 0 1 3301.92 2091)">31</text></g><g clip-path="url(#clip76)"><text font-family="Century Gothic,Century Gothic_MSFontService,sans-serif" font-weight="400" font-size="64" transform="matrix(1 0 0 1 3685.64 2092)">1,05%</text></g><g clip-path="url(#clip77)"><text font-family="Century Gothic,Century Gothic_MSFontService,sans-serif" font-weight="400" font-size="64" transform="matrix(1 0 0 1 4044.48 2092)">5,74</text></g><g clip-path="url(#clip78)"><text font-family="Century Gothic,Century Gothic_MSFontService,sans-serif" font-weight="400" font-size="64" transform="matrix(1 0 0 1 954.582 2170)">OTROS</text></g><g clip-path="url(#clip79)"><text font-family="Century Gothic,Century Gothic_MSFontService,sans-serif" font-weight="400" font-size="64" transform="matrix(1 0 0 1 3213.11 2170)">1.605</text></g><g clip-path="url(#clip80)"><text font-family="Century Gothic,Century Gothic_MSFontService,sans-serif" font-weight="400" font-size="64" transform="matrix(1 0 0 1 3650.12 2171)">54,26%</text></g><g clip-path="url(#clip81)"><text font-family="Century Gothic,Century Gothic_MSFontService,sans-serif" font-weight="400" font-size="64" transform="matrix(1 0 0 1 3973.44 2171)">297,22</text></g><text font-family="Century Gothic,Century Gothic_MSFontService,sans-serif" font-weight="700" font-size="64" transform="matrix(1 0 0 1 1755.58 2252)">TOTAL</text><g clip-path="url(#clip82)"><text font-family="Century Gothic,Century Gothic_MSFontService,sans-serif" font-weight="700" font-size="64" transform="matrix(1 0 0 1 3210.82 2252)">2.958</text></g><g clip-path="url(#clip83)"><text font-family="Century Gothic,Century Gothic_MSFontService,sans-serif" font-weight="700" font-size="64" transform="matrix(1 0 0 1 3606.58 2251)">100,00%</text></g><g clip-path="url(#clip84)"><text font-family="Century Gothic,Century Gothic_MSFontService,sans-serif" font-weight="700" font-size="64" transform="matrix(1 0 0 1 3970.57 2251)">547,78</text></g></g></svg>