<svg width="2212" height="530" xmlns="http://www.w3.org/2000/svg" xmlns:xlink="http://www.w3.org/1999/xlink" overflow="hidden"><defs><clipPath id="clip0"><rect x="1960" y="810" width="2212" height="530"/></clipPath><clipPath id="clip1"><rect x="3369" y="568" width="249" height="617"/></clipPath><clipPath id="clip2"><rect x="1962" y="661" width="1408" height="617"/></clipPath><clipPath id="clip3"><rect x="3369" y="661" width="249" height="617"/></clipPath><clipPath id="clip4"><rect x="3892" y="661" width="276" height="617"/></clipPath><clipPath id="clip5"><rect x="1962" y="754" width="1408" height="617"/></clipPath><clipPath id="clip6"><rect x="3369" y="754" width="249" height="617"/></clipPath><clipPath id="clip7"><rect x="3369" y="847" width="249" height="617"/></clipPath><clipPath id="clip8"><rect x="3617" y="847" width="276" height="617"/></clipPath><clipPath id="clip9"><rect x="3892" y="847" width="276" height="617"/></clipPath></defs><g clip-path="url(#clip0)" transform="translate(-1960 -810)"><path d="M1962.76 829.518 3369.84 829.518 3369.84 920.956 1962.76 920.956Z" fill="#D9D9D9" fill-rule="evenodd"/><path d="M3369.84 829.518 3617.34 829.518 3617.34 920.956 3369.84 920.956Z" fill="#D9D9D9" fill-rule="evenodd"/><path d="M3617.34 829.518 3892.34 829.518 3892.34 920.956 3617.34 920.956Z" fill="#D9D9D9" fill-rule="evenodd"/><path d="M3892.34 829.518 4167.34 829.518 4167.34 920.956 3892.34 920.956Z" fill="#D9D9D9" fill-rule="evenodd"/><path d="M1962.76 1106.58 3369.84 1106.58 3369.84 1199.39 1962.76 1199.39Z" fill="#D9D9D9" fill-rule="evenodd"/><path d="M3369.84 1106.58 3617.34 1106.58 3617.34 1199.39 3369.84 1199.39Z" fill="#D9D9D9" fill-rule="evenodd"/><path d="M3617.34 1106.58 3892.34 1106.58 3892.34 1199.39 3617.34 1199.39Z" fill="#D9D9D9" fill-rule="evenodd"/><path d="M3892.34 1106.58 4167.34 1106.58 4167.34 1199.39 3892.34 1199.39Z" fill="#D9D9D9" fill-rule="evenodd"/><path d="M1962.76 1199.39 3369.84 1199.39 3369.84 1295.64 1962.76 1295.64Z" fill="#D9D9D9" fill-rule="evenodd"/><path d="M3369.84 1199.39 3617.34 1199.39 3617.34 1295.64 3369.84 1295.64Z" fill="#D9D9D9" fill-rule="evenodd"/><path d="M3617.34 1199.39 3892.34 1199.39 3892.34 1295.64 3617.34 1295.64Z" fill="#D9D9D9" fill-rule="evenodd"/><path d="M3892.34 1199.39 4167.34 1199.39 4167.34 1295.64 3892.34 1295.64Z" fill="#D9D9D9" fill-rule="evenodd"/><path d="M3369.84 827.226 3369.84 1297.93" stroke="#000000" stroke-width="2.29167" stroke-linejoin="round" stroke-miterlimit="10" fill="none" fill-rule="evenodd"/><path d="M3617.34 827.226 3617.34 1297.93" stroke="#000000" stroke-width="2.29167" stroke-linejoin="round" stroke-miterlimit="10" fill="none" fill-rule="evenodd"/><path d="M3892.34 827.226 3892.34 1297.93" stroke="#000000" stroke-width="2.29167" stroke-linejoin="round" stroke-miterlimit="10" fill="none" fill-rule="evenodd"/><path d="M1960.47 920.956 4169.63 920.956" stroke="#000000" stroke-width="2.29167" stroke-linejoin="round" stroke-miterlimit="10" fill="none" fill-rule="evenodd"/><path d="M1960.47 1013.77 4169.63 1013.77" stroke="#000000" stroke-width="2.29167" stroke-linejoin="round" stroke-miterlimit="10" fill="none" fill-rule="evenodd"/><path d="M1960.47 1106.58 4169.63 1106.58" stroke="#000000" stroke-width="2.29167" stroke-linejoin="round" stroke-miterlimit="10" fill="none" fill-rule="evenodd"/><path d="M1960.47 1199.39 4169.63 1199.39" stroke="#000000" stroke-width="2.29167" stroke-linejoin="round" stroke-miterlimit="10" fill="none" fill-rule="evenodd"/><path d="M1962.76 827.226 1962.76 1297.93" stroke="#000000" stroke-width="4.58333" stroke-linejoin="round" stroke-miterlimit="10" fill="none" fill-rule="evenodd"/><path d="M4167.34 827.226 4167.34 1297.93" stroke="#000000" stroke-width="4.58333" stroke-linejoin="round" stroke-miterlimit="10" fill="none" fill-rule="evenodd"/><path d="M1960.47 829.518 4169.63 829.518" stroke="#000000" stroke-width="4.58333" stroke-linejoin="round" stroke-miterlimit="10" fill="none" fill-rule="evenodd"/><path d="M1960.47 1295.64 4169.63 1295.64" stroke="#000000" stroke-width="4.58333" stroke-linejoin="round" stroke-miterlimit="10" fill="none" fill-rule="evenodd"/><text fill="#FF0000" font-family="Century Gothic,Century Gothic_MSFontService,sans-serif" font-weight="700" font-size="73" transform="matrix(1 0 0 1 2424.24 905)">DESCRIPCION</text><g clip-path="url(#clip1)"><text fill="#FF0000" font-family="Century Gothic,Century Gothic_MSFontService,sans-serif" font-weight="700" font-size="73" transform="matrix(1 0 0 1 3411.09 905)">2020</text></g><text fill="#FF0000" font-family="Century Gothic,Century Gothic_MSFontService,sans-serif" font-weight="700" font-size="73" transform="matrix(1 0 0 1 3672.34 905)">2021<tspan font-size="73" x="275" y="0">2022</tspan></text><g clip-path="url(#clip2)"><text font-family="Century Gothic,Century Gothic_MSFontService,sans-serif" font-weight="400" font-size="73" transform="matrix(1 0 0 1 1966.19 998)">PACIENTES ATENDIDOS AMBULATORIA</text></g><g clip-path="url(#clip3)"><text font-family="Century Gothic,Century Gothic_MSFontService,sans-serif" font-weight="400" font-size="73" transform="matrix(1 0 0 1 3412.24 998)">7828</text></g><text font-family="Century Gothic,Century Gothic_MSFontService,sans-serif" font-weight="400" font-size="73" transform="matrix(1 0 0 1 3673.49 998)">9587</text><g clip-path="url(#clip4)"><text font-family="Century Gothic,Century Gothic_MSFontService,sans-serif" font-weight="400" font-size="73" transform="matrix(1 0 0 1 3928.15 998)">12574</text></g><g clip-path="url(#clip5)"><text font-family="Century Gothic,Century Gothic_MSFontService,sans-serif" font-weight="400" font-size="73" transform="matrix(1 0 0 1 1966.19 1091)">PACIENTES REMITIDOS</text></g><g clip-path="url(#clip6)"><text font-family="Century Gothic,Century Gothic_MSFontService,sans-serif" font-weight="400" font-size="73" transform="matrix(1 0 0 1 3412.24 1091)">1070</text></g><text font-family="Century Gothic,Century Gothic_MSFontService,sans-serif" font-weight="400" font-size="73" transform="matrix(1 0 0 1 3673.49 1091)">3360<tspan font-size="73" x="275" y="0">2958</tspan><tspan fill="#FF0000" font-weight="700" font-size="73" x="-1205.7" y="92">RESULTADO</tspan></text><g clip-path="url(#clip7)"><text fill="#FF0000" font-family="Century Gothic,Century Gothic_MSFontService,sans-serif" font-weight="700" font-size="73" transform="matrix(1 0 0 1 3442.03 1183)">0,14 </text></g><g clip-path="url(#clip8)"><text fill="#FF0000" font-family="Century Gothic,Century Gothic_MSFontService,sans-serif" font-weight="700" font-size="73" transform="matrix(1 0 0 1 3723.9 1183)">0,35 </text></g><g clip-path="url(#clip9)"><text fill="#FF0000" font-family="Century Gothic,Century Gothic_MSFontService,sans-serif" font-weight="700" font-size="73" transform="matrix(1 0 0 1 3998.9 1183)">0,24 </text></g><text fill="#FF0000" font-family="Century Gothic,Century Gothic_MSFontService,sans-serif" font-weight="700" font-size="73" transform="matrix(1 0 0 1 2395.6 1277)">RESOLUTIVIDAD<tspan font-size="73" x="1025.23" y="3">86%</tspan><tspan font-size="73" x="1286.48" y="3">65%</tspan><tspan font-size="73" x="1561.48" y="3">76%</tspan></text></g></svg>