<svg width="4703" height="1796" xmlns="http://www.w3.org/2000/svg" xmlns:xlink="http://www.w3.org/1999/xlink" overflow="hidden"><defs><clipPath id="clip0"><rect x="-3" y="491" width="4703" height="1796"/></clipPath><clipPath id="clip1"><rect x="1098" y="430" width="589" height="540"/></clipPath><clipPath id="clip2"><rect x="1686" y="430" width="589" height="540"/></clipPath><clipPath id="clip3"><rect x="2274" y="430" width="574" height="540"/></clipPath><clipPath id="clip4"><rect x="2847" y="430" width="639" height="540"/></clipPath><clipPath id="clip5"><rect x="4123" y="430" width="573" height="540"/></clipPath><clipPath id="clip6"><rect x="-1" y="587" width="1100" height="540"/></clipPath><clipPath id="clip7"><rect x="1098" y="587" width="589" height="540"/></clipPath><clipPath id="clip8"><rect x="1686" y="587" width="589" height="540"/></clipPath><clipPath id="clip9"><rect x="2274" y="587" width="574" height="540"/></clipPath><clipPath id="clip10"><rect x="2847" y="587" width="639" height="540"/></clipPath><clipPath id="clip11"><rect x="3485" y="587" width="639" height="540"/></clipPath><clipPath id="clip12"><rect x="4123" y="587" width="573" height="540"/></clipPath><clipPath id="clip13"><rect x="-1" y="722" width="1100" height="540"/></clipPath><clipPath id="clip14"><rect x="1098" y="722" width="589" height="540"/></clipPath><clipPath id="clip15"><rect x="1686" y="722" width="589" height="540"/></clipPath><clipPath id="clip16"><rect x="2274" y="722" width="574" height="540"/></clipPath><clipPath id="clip17"><rect x="2847" y="722" width="639" height="540"/></clipPath><clipPath id="clip18"><rect x="3485" y="722" width="639" height="540"/></clipPath><clipPath id="clip19"><rect x="4123" y="722" width="573" height="540"/></clipPath><clipPath id="clip20"><rect x="-1" y="879" width="1100" height="540"/></clipPath><clipPath id="clip21"><rect x="1098" y="879" width="589" height="540"/></clipPath><clipPath id="clip22"><rect x="1686" y="879" width="589" height="540"/></clipPath><clipPath id="clip23"><rect x="1686" y="879" width="589" height="540"/></clipPath><clipPath id="clip24"><rect x="2274" y="879" width="574" height="540"/></clipPath><clipPath id="clip25"><rect x="2847" y="879" width="639" height="540"/></clipPath><clipPath id="clip26"><rect x="3485" y="610" width="639" height="1079"/></clipPath><clipPath id="clip27"><rect x="3485" y="610" width="639" height="1079"/></clipPath><clipPath id="clip28"><rect x="4123" y="879" width="573" height="540"/></clipPath><clipPath id="clip29"><rect x="-1" y="1015" width="1100" height="540"/></clipPath><clipPath id="clip30"><rect x="1098" y="1015" width="589" height="540"/></clipPath><clipPath id="clip31"><rect x="1686" y="1015" width="589" height="540"/></clipPath><clipPath id="clip32"><rect x="2274" y="1015" width="574" height="540"/></clipPath><clipPath id="clip33"><rect x="2847" y="1015" width="639" height="540"/></clipPath><clipPath id="clip34"><rect x="3485" y="1015" width="639" height="540"/></clipPath><clipPath id="clip35"><rect x="4123" y="1015" width="573" height="540"/></clipPath><clipPath id="clip36"><rect x="-1" y="1130" width="1100" height="540"/></clipPath><clipPath id="clip37"><rect x="1098" y="1130" width="589" height="540"/></clipPath><clipPath id="clip38"><rect x="1686" y="1130" width="589" height="540"/></clipPath><clipPath id="clip39"><rect x="2274" y="1130" width="574" height="540"/></clipPath><clipPath id="clip40"><rect x="2847" y="1130" width="639" height="540"/></clipPath><clipPath id="clip41"><rect x="3485" y="1130" width="639" height="540"/></clipPath><clipPath id="clip42"><rect x="4123" y="1130" width="573" height="540"/></clipPath><clipPath id="clip43"><rect x="-1" y="1266" width="1100" height="540"/></clipPath><clipPath id="clip44"><rect x="1098" y="1266" width="589" height="540"/></clipPath><clipPath id="clip45"><rect x="1686" y="1266" width="589" height="540"/></clipPath><clipPath id="clip46"><rect x="2274" y="1266" width="574" height="540"/></clipPath><clipPath id="clip47"><rect x="2847" y="1266" width="639" height="540"/></clipPath><clipPath id="clip48"><rect x="3485" y="996" width="639" height="1079"/></clipPath><clipPath id="clip49"><rect x="3485" y="996" width="639" height="1079"/></clipPath><clipPath id="clip50"><rect x="4123" y="1266" width="573" height="540"/></clipPath><clipPath id="clip51"><rect x="-1" y="1190" width="1100" height="1079"/></clipPath><clipPath id="clip52"><rect x="-1" y="1190" width="1100" height="1079"/></clipPath><clipPath id="clip53"><rect x="3485" y="1190" width="639" height="1079"/></clipPath><clipPath id="clip54"><rect x="3485" y="1190" width="639" height="1079"/></clipPath><clipPath id="clip55"><rect x="4123" y="1459" width="573" height="540"/></clipPath><clipPath id="clip56"><rect x="-1" y="1652" width="1100" height="540"/></clipPath><clipPath id="clip57"><rect x="3485" y="1383" width="639" height="1079"/></clipPath><clipPath id="clip58"><rect x="3485" y="1383" width="639" height="1079"/></clipPath><clipPath id="clip59"><rect x="4123" y="1652" width="573" height="540"/></clipPath><clipPath id="clip60"><rect x="1098" y="1809" width="589" height="540"/></clipPath><clipPath id="clip61"><rect x="1686" y="1809" width="589" height="540"/></clipPath><clipPath id="clip62"><rect x="2274" y="1809" width="574" height="540"/></clipPath><clipPath id="clip63"><rect x="2847" y="1809" width="639" height="540"/></clipPath><clipPath id="clip64"><rect x="3485" y="1809" width="639" height="540"/></clipPath><clipPath id="clip65"><rect x="4123" y="1809" width="573" height="540"/></clipPath></defs><g clip-path="url(#clip0)" transform="translate(3 -491)"><path d="M-0.000360892 497.212 1098.81 497.212 1098.81 797.819-0.000360892 797.819Z" fill="#92D050" fill-rule="evenodd"/><path d="M1098.81 497.212 2274.84 497.212 2274.84 598.272 1098.81 598.272Z" fill="#92D050" fill-rule="evenodd"/><path d="M2274.84 497.212 3485.05 497.212 3485.05 598.272 2274.84 598.272Z" fill="#92D050" fill-rule="evenodd"/><path d="M3485.05 497.212 4695.26 497.212 4695.26 598.272 3485.05 598.272Z" fill="#92D050" fill-rule="evenodd"/><path d="M1098.81 598.272 1686.19 598.272 1686.19 797.819 1098.81 797.819Z" fill="#FFFF00" fill-rule="evenodd"/><path d="M1686.19 598.272 2274.84 598.272 2274.84 797.819 1686.19 797.819Z" fill="#FFFF00" fill-rule="evenodd"/><path d="M2274.84 598.272 2847.03 598.272 2847.03 797.819 2274.84 797.819Z" fill="#FFFF00" fill-rule="evenodd"/><path d="M2847.03 598.272 3485.05 598.272 3485.05 797.819 2847.03 797.819Z" fill="#FFFF00" fill-rule="evenodd"/><path d="M3485.05 598.272 4123.07 598.272 4123.07 797.819 3485.05 797.819Z" fill="#FFFF00" fill-rule="evenodd"/><path d="M4123.07 598.272 4695.26 598.272 4695.26 797.819 4123.07 797.819Z" fill="#FFFF00" fill-rule="evenodd"/><path d="M-0.000360892 1999.43 1098.81 1999.43 1098.81 2155.92-0.000360892 2155.92Z" fill="#D9D9D9" fill-rule="evenodd"/><path d="M1098.81 1999.43 1686.19 1999.43 1686.19 2155.92 1098.81 2155.92Z" fill="#D9D9D9" fill-rule="evenodd"/><path d="M1686.19 1999.43 2274.84 1999.43 2274.84 2155.92 1686.19 2155.92Z" fill="#D9D9D9" fill-rule="evenodd"/><path d="M2274.84 1999.43 2847.03 1999.43 2847.03 2155.92 2274.84 2155.92Z" fill="#D9D9D9" fill-rule="evenodd"/><path d="M2847.03 1999.43 3485.05 1999.43 3485.05 2155.92 2847.03 2155.92Z" fill="#D9D9D9" fill-rule="evenodd"/><path d="M3485.05 1999.43 4123.07 1999.43 4123.07 2155.92 3485.05 2155.92Z" fill="#D9D9D9" fill-rule="evenodd"/><path d="M4123.07 1999.43 4695.26 1999.43 4695.26 2155.92 4123.07 2155.92Z" fill="#92D050" fill-rule="evenodd"/><path d="M-0.000360892 2155.92 1098.81 2155.92 1098.81 2260.68-0.000360892 2260.68Z" fill="#D9D9D9" fill-rule="evenodd"/><path d="M1098.81 2155.92 2274.84 2155.92 2274.84 2260.68 1098.81 2260.68Z" fill="#D9D9D9" fill-rule="evenodd"/><path d="M2274.84 2155.92 3485.05 2155.92 3485.05 2260.68 2274.84 2260.68Z" fill="#D9D9D9" fill-rule="evenodd"/><path d="M3485.05 2155.92 4695.26 2155.92 4695.26 2260.68 3485.05 2260.68Z" fill="#92D050" fill-rule="evenodd"/><path d="M1098.81 494.92 1098.81 2262.97" stroke="#000000" stroke-width="2.29167" stroke-linejoin="round" stroke-miterlimit="10" fill="none" fill-rule="evenodd"/><path d="M1686.19 597.126 1686.19 2158.21" stroke="#000000" stroke-width="2.29167" stroke-linejoin="round" stroke-miterlimit="10" fill="none" fill-rule="evenodd"/><path d="M2274.84 494.92 2274.84 2262.97" stroke="#000000" stroke-width="2.29167" stroke-linejoin="round" stroke-miterlimit="10" fill="none" fill-rule="evenodd"/><path d="M2847.03 597.126 2847.03 2158.21" stroke="#000000" stroke-width="2.29167" stroke-linejoin="round" stroke-miterlimit="10" fill="none" fill-rule="evenodd"/><path d="M3485.05 494.92 3485.05 2262.97" stroke="#000000" stroke-width="2.29167" stroke-linejoin="round" stroke-miterlimit="10" fill="none" fill-rule="evenodd"/><path d="M4123.07 597.126 4123.07 2158.21" stroke="#000000" stroke-width="2.29167" stroke-linejoin="round" stroke-miterlimit="10" fill="none" fill-rule="evenodd"/><path d="M1097.66 598.272 4697.55 598.272" stroke="#000000" stroke-width="2.29167" stroke-linejoin="round" stroke-miterlimit="10" fill="none" fill-rule="evenodd"/><path d="M-2.29203 797.819 4697.55 797.819" stroke="#000000" stroke-width="2.29167" stroke-linejoin="round" stroke-miterlimit="10" fill="none" fill-rule="evenodd"/><path d="M-2.29203 912.559 4697.55 912.559" stroke="#000000" stroke-width="2.29167" stroke-linejoin="round" stroke-miterlimit="10" fill="none" fill-rule="evenodd"/><path d="M-2.29203 1069.05 4697.55 1069.05" stroke="#000000" stroke-width="2.29167" stroke-linejoin="round" stroke-miterlimit="10" fill="none" fill-rule="evenodd"/><path d="M-2.29203 1226.19 4697.55 1226.19" stroke="#000000" stroke-width="2.29167" stroke-linejoin="round" stroke-miterlimit="10" fill="none" fill-rule="evenodd"/><path d="M-2.29203 1340.93 4697.55 1340.93" stroke="#000000" stroke-width="2.29167" stroke-linejoin="round" stroke-miterlimit="10" fill="none" fill-rule="evenodd"/><path d="M-2.29203 1455.67 4697.55 1455.67" stroke="#000000" stroke-width="2.29167" stroke-linejoin="round" stroke-miterlimit="10" fill="none" fill-rule="evenodd"/><path d="M-2.29203 1612.81 4697.55 1612.81" stroke="#000000" stroke-width="2.29167" stroke-linejoin="round" stroke-miterlimit="10" fill="none" fill-rule="evenodd"/><path d="M-2.29203 1842.29 4697.55 1842.29" stroke="#000000" stroke-width="2.29167" stroke-linejoin="round" stroke-miterlimit="10" fill="none" fill-rule="evenodd"/><path d="M-2.29203 1999.43 4697.55 1999.43" stroke="#000000" stroke-width="2.29167" stroke-linejoin="round" stroke-miterlimit="10" fill="none" fill-rule="evenodd"/><path d="M-2.29203 2155.92 4697.55 2155.92" stroke="#000000" stroke-width="4.58333" stroke-linejoin="round" stroke-miterlimit="10" fill="none" fill-rule="evenodd"/><path d="M-0.000360892 494.92-0.000360892 2262.97" stroke="#000000" stroke-width="4.58333" stroke-linejoin="round" stroke-miterlimit="10" fill="none" fill-rule="evenodd"/><path d="M4695.26 494.92 4695.26 2262.97" stroke="#000000" stroke-width="4.58333" stroke-linejoin="round" stroke-miterlimit="10" fill="none" fill-rule="evenodd"/><path d="M-2.29203 497.212 4697.55 497.212" stroke="#000000" stroke-width="4.58333" stroke-linejoin="round" stroke-miterlimit="10" fill="none" fill-rule="evenodd"/><path d="M-2.29203 2260.68 4697.55 2260.68" stroke="#000000" stroke-width="4.58333" stroke-linejoin="round" stroke-miterlimit="10" fill="none" fill-rule="evenodd"/><text font-family="Arial,Arial_MSFontService,sans-serif" font-weight="700" font-size="64" transform="matrix(1 0 0 1 460.415 672)">EAPB<tspan font-size="64" x="1080.75" y="-103">AÑO 2020 </tspan><tspan font-size="64" x="2274.68" y="-103">AÑO 2021 </tspan><tspan font-size="64" x="3477.91" y="-103">AÑO 2022</tspan></text><g clip-path="url(#clip1)"><text fill="#0000CC" font-family="Arial,Arial_MSFontService,sans-serif" font-weight="700" font-size="64" transform="matrix(1 0 0 1 1160.03 722)">VR. CONTRATO </text></g><g clip-path="url(#clip2)"><text fill="#0000CC" font-family="Arial,Arial_MSFontService,sans-serif" font-weight="700" font-size="64" transform="matrix(1 0 0 1 1727.47 722)">VR. FACTURADO </text></g><g clip-path="url(#clip3)"><text fill="#0000CC" font-family="Arial,Arial_MSFontService,sans-serif" font-weight="700" font-size="64" transform="matrix(1 0 0 1 2328.21 722)">VR. CONTRATO </text></g><g clip-path="url(#clip4)"><text fill="#0000CC" font-family="Arial,Arial_MSFontService,sans-serif" font-weight="700" font-size="64" transform="matrix(1 0 0 1 2912.36 722)">VR. FACTURADO </text></g><text fill="#0000CC" font-family="Arial,Arial_MSFontService,sans-serif" font-weight="700" font-size="64" transform="matrix(1 0 0 1 3571.38 722)">VR. CONTRATO </text><g clip-path="url(#clip5)"><text fill="#0000CC" font-family="Arial,Arial_MSFontService,sans-serif" font-weight="700" font-size="64" transform="matrix(1 0 0 1 4155.44 722)">VR. FACTURADO </text></g><g clip-path="url(#clip6)"><text font-family="Arial,Arial_MSFontService,sans-serif" font-weight="400" font-size="64" transform="matrix(1 0 0 1 3.14121 876)">Régimen Contributivo</text></g><g clip-path="url(#clip7)"><text font-family="Arial,Arial_MSFontService,sans-serif" font-weight="400" font-size="64" transform="matrix(1 0 0 1 1217.95 876)">$ 66.121.819,00</text></g><g clip-path="url(#clip8)"><text font-family="Arial,Arial_MSFontService,sans-serif" font-weight="400" font-size="64" transform="matrix(1 0 0 1 1806.33 876)">$ 60.527.293,00</text></g><g clip-path="url(#clip9)"><text font-family="Arial,Arial_MSFontService,sans-serif" font-weight="400" font-size="64" transform="matrix(1 0 0 1 2377.98 876)">$ 68.303.839,00</text></g><g clip-path="url(#clip10)"><text font-family="Arial,Arial_MSFontService,sans-serif" font-weight="400" font-size="64" transform="matrix(1 0 0 1 3016.17 876)">$ 99.271.198,00</text></g><g clip-path="url(#clip11)"><text font-family="Arial,Arial_MSFontService,sans-serif" font-weight="400" font-size="64" transform="matrix(1 0 0 1 3619.19 876)">$ 217.854.199,00</text></g><g clip-path="url(#clip12)"><text font-family="Arial,Arial_MSFontService,sans-serif" font-weight="400" font-size="64" transform="matrix(1 0 0 1 4191.21 876)">$ 228.592.933,25</text></g><g clip-path="url(#clip13)"><text font-family="Arial,Arial_MSFontService,sans-serif" font-weight="400" font-size="64" transform="matrix(1 0 0 1 3.14121 1012)">Régimen Subsidiado</text></g><g clip-path="url(#clip14)"><text font-family="Arial,Arial_MSFontService,sans-serif" font-weight="400" font-size="64" transform="matrix(1 0 0 1 1128.95 1012)">$ 1.497.361.895,00</text></g><g clip-path="url(#clip15)"><text font-family="Arial,Arial_MSFontService,sans-serif" font-weight="400" font-size="64" transform="matrix(1 0 0 1 1717.33 1012)">$ 1.949.724.286,00</text></g><g clip-path="url(#clip16)"><text font-family="Arial,Arial_MSFontService,sans-serif" font-weight="400" font-size="64" transform="matrix(1 0 0 1 2288.98 1012)">$ 1.824.804.838,00</text></g><g clip-path="url(#clip17)"><text font-family="Arial,Arial_MSFontService,sans-serif" font-weight="400" font-size="64" transform="matrix(1 0 0 1 2927.17 1012)">$ 1.872.605.625,00</text></g><g clip-path="url(#clip18)"><text font-family="Arial,Arial_MSFontService,sans-serif" font-weight="400" font-size="64" transform="matrix(1 0 0 1 3565.19 1012)">$ 1.830.333.134,50</text></g><g clip-path="url(#clip19)"><text font-family="Arial,Arial_MSFontService,sans-serif" font-weight="400" font-size="64" transform="matrix(1 0 0 1 4137.21 1012)">$ 1.785.700.830,00</text></g><g clip-path="url(#clip20)"><text font-family="Arial,Arial_MSFontService,sans-serif" font-weight="400" font-size="64" transform="matrix(1 0 0 1 3.14121 1169)">Población Pobre no afiliada </text></g><g clip-path="url(#clip21)"><text font-family="Arial,Arial_MSFontService,sans-serif" font-weight="400" font-size="64" transform="matrix(1 0 0 1 1182.95 1169)">$ 135.434.351,00</text></g><g clip-path="url(#clip22)"><text font-family="Arial,Arial_MSFontService,sans-serif" font-weight="400" font-size="64" transform="matrix(1 0 0 1 1707.33 1169)">$                           </text></g><g clip-path="url(#clip23)"><text font-family="Arial,Arial_MSFontService,sans-serif" font-weight="400" font-size="64" transform="matrix(1 0 0 1 2222.33 1169)">-</text></g><g clip-path="url(#clip24)"><text font-family="Arial,Arial_MSFontService,sans-serif" font-weight="400" font-size="64" transform="matrix(1 0 0 1 2806.98 1169)">0</text></g><g clip-path="url(#clip25)"><text font-family="Arial,Arial_MSFontService,sans-serif" font-weight="400" font-size="64" transform="matrix(1 0 0 1 3052.17 1169)">$ 2.179.073,00</text></g><g clip-path="url(#clip26)"><text font-family="Arial,Arial_MSFontService,sans-serif" font-weight="400" font-size="64" transform="matrix(1 0 0 1 3506.19 1130)">$        </text></g><g clip-path="url(#clip27)"><text font-family="Arial,Arial_MSFontService,sans-serif" font-weight="400" font-size="64" transform="matrix(1 0 0 1 3488.19 1207)">375.639.451,00 </text></g><g clip-path="url(#clip28)"><text font-family="Arial,Arial_MSFontService,sans-serif" font-weight="400" font-size="64" transform="matrix(1 0 0 1 4144.21 1169)">$   375.639.451,00 </text></g><g clip-path="url(#clip29)"><text font-family="Arial,Arial_MSFontService,sans-serif" font-weight="400" font-size="64" transform="matrix(1 0 0 1 3.14121 1305)">SOAT (Diferentes a ECAT)</text></g><g clip-path="url(#clip30)"><text font-family="Arial,Arial_MSFontService,sans-serif" font-weight="400" font-size="64" transform="matrix(1 0 0 1 1253.95 1305)">$ 7.295.522,00</text></g><g clip-path="url(#clip31)"><text font-family="Arial,Arial_MSFontService,sans-serif" font-weight="400" font-size="64" transform="matrix(1 0 0 1 1842.33 1305)">$ 9.414.678,00</text></g><g clip-path="url(#clip32)"><text font-family="Arial,Arial_MSFontService,sans-serif" font-weight="400" font-size="64" transform="matrix(1 0 0 1 2413.98 1305)">$ 7.536.274,00</text></g><g clip-path="url(#clip33)"><text font-family="Arial,Arial_MSFontService,sans-serif" font-weight="400" font-size="64" transform="matrix(1 0 0 1 3052.17 1305)">$ 4.488.865,00</text></g><g clip-path="url(#clip34)"><text font-family="Arial,Arial_MSFontService,sans-serif" font-weight="400" font-size="64" transform="matrix(1 0 0 1 3690.19 1305)">$ 5.165.000,00</text></g><g clip-path="url(#clip35)"><text font-family="Arial,Arial_MSFontService,sans-serif" font-weight="400" font-size="64" transform="matrix(1 0 0 1 4262.21 1305)">$ 6.783.972,00</text></g><g clip-path="url(#clip36)"><text font-family="Arial,Arial_MSFontService,sans-serif" font-weight="400" font-size="64" transform="matrix(1 0 0 1 3.14121 1419)">Plan de intervenciones colectivas</text></g><g clip-path="url(#clip37)"><text font-family="Arial,Arial_MSFontService,sans-serif" font-weight="400" font-size="64" transform="matrix(1 0 0 1 1217.95 1419)">$ 68.495.492,00</text></g><g clip-path="url(#clip38)"><text font-family="Arial,Arial_MSFontService,sans-serif" font-weight="400" font-size="64" transform="matrix(1 0 0 1 1806.33 1419)">$ 68.495.492,00</text></g><g clip-path="url(#clip39)"><text font-family="Arial,Arial_MSFontService,sans-serif" font-weight="400" font-size="64" transform="matrix(1 0 0 1 2342.98 1419)">$ 121.601.906,00</text></g><g clip-path="url(#clip40)"><text font-family="Arial,Arial_MSFontService,sans-serif" font-weight="400" font-size="64" transform="matrix(1 0 0 1 3016.17 1419)">$ 25.764.857,00</text></g><g clip-path="url(#clip41)"><text font-family="Arial,Arial_MSFontService,sans-serif" font-weight="400" font-size="64" transform="matrix(1 0 0 1 3619.19 1419)">$ 147.853.940,00</text></g><g clip-path="url(#clip42)"><text font-family="Arial,Arial_MSFontService,sans-serif" font-weight="400" font-size="64" transform="matrix(1 0 0 1 4191.21 1419)">$ 147.853.940,00</text></g><g clip-path="url(#clip43)"><text font-family="Arial,Arial_MSFontService,sans-serif" font-weight="400" font-size="64" transform="matrix(1 0 0 1 3.14121 1555)">Otras Ventas de Servicios de Salud</text></g><g clip-path="url(#clip44)"><text font-family="Arial,Arial_MSFontService,sans-serif" font-weight="400" font-size="64" transform="matrix(1 0 0 1 1217.95 1555)">$ 15.928.574,00</text></g><g clip-path="url(#clip45)"><text font-family="Arial,Arial_MSFontService,sans-serif" font-weight="400" font-size="64" transform="matrix(1 0 0 1 1806.33 1555)">$ 16.530.069,00</text></g><g clip-path="url(#clip46)"><text font-family="Arial,Arial_MSFontService,sans-serif" font-weight="400" font-size="64" transform="matrix(1 0 0 1 2342.98 1555)">$ 185.454.220,00</text></g><g clip-path="url(#clip47)"><text font-family="Arial,Arial_MSFontService,sans-serif" font-weight="400" font-size="64" transform="matrix(1 0 0 1 3016.17 1555)">$ 81.277.795,00</text></g><g clip-path="url(#clip48)"><text font-family="Arial,Arial_MSFontService,sans-serif" font-weight="400" font-size="64" transform="matrix(1 0 0 1 3506.19 1517)">$          </text></g><g clip-path="url(#clip49)"><text font-family="Arial,Arial_MSFontService,sans-serif" font-weight="400" font-size="64" transform="matrix(1 0 0 1 3488.19 1594)">38.733.489,00 </text></g><g clip-path="url(#clip50)"><text font-family="Arial,Arial_MSFontService,sans-serif" font-weight="400" font-size="64" transform="matrix(1 0 0 1 4226.21 1555)">$ 38.733.489,00</text></g><g clip-path="url(#clip51)"><text font-family="Arial,Arial_MSFontService,sans-serif" font-weight="400" font-size="64" transform="matrix(1 0 0 1 3.14121 1710)">Actividades asociadas a la aplicacion </text></g><g clip-path="url(#clip52)"><text font-family="Arial,Arial_MSFontService,sans-serif" font-weight="400" font-size="64" transform="matrix(1 0 0 1 3.14121 1787)">de la vacuna Covid</text></g><text font-family="Arial,Arial_MSFontService,sans-serif" font-weight="400" font-size="64" transform="matrix(1 0 0 1 548.141 1787)">-<tspan font-size="64" x="21" y="0">19</tspan></text><g clip-path="url(#clip53)"><text font-family="Arial,Arial_MSFontService,sans-serif" font-weight="400" font-size="64" transform="matrix(1 0 0 1 3506.19 1710)">$        </text></g><g clip-path="url(#clip54)"><text font-family="Arial,Arial_MSFontService,sans-serif" font-weight="400" font-size="64" transform="matrix(1 0 0 1 3488.19 1787)">120.523.115,50 </text></g><g clip-path="url(#clip55)"><text font-family="Arial,Arial_MSFontService,sans-serif" font-weight="400" font-size="64" transform="matrix(1 0 0 1 4144.21 1749)">$   147.203.837,42 </text></g><g clip-path="url(#clip56)"><text font-family="Arial,Arial_MSFontService,sans-serif" font-weight="400" font-size="64" transform="matrix(1 0 0 1 3.14121 1942)">Recursos de capital</text></g><g clip-path="url(#clip57)"><text font-family="Arial,Arial_MSFontService,sans-serif" font-weight="400" font-size="64" transform="matrix(1 0 0 1 3506.19 1903)">$        </text></g><g clip-path="url(#clip58)"><text font-family="Arial,Arial_MSFontService,sans-serif" font-weight="400" font-size="64" transform="matrix(1 0 0 1 3488.19 1980)">341.415.289,83 </text></g><g clip-path="url(#clip59)"><text font-family="Arial,Arial_MSFontService,sans-serif" font-weight="400" font-size="64" transform="matrix(1 0 0 1 4144.21 1942)">$   341.415.289,83 </text></g><text font-family="Arial,Arial_MSFontService,sans-serif" font-weight="700" font-size="64" transform="matrix(1 0 0 1 445.426 2099)">TOTAL</text><g clip-path="url(#clip60)"><text font-family="Arial,Arial_MSFontService,sans-serif" font-weight="700" font-size="64" transform="matrix(1 0 0 1 1128.95 2099)">$ 1.790.637.653,00</text></g><g clip-path="url(#clip61)"><text font-family="Arial,Arial_MSFontService,sans-serif" font-weight="700" font-size="64" transform="matrix(1 0 0 1 1717.33 2099)">$ 2.104.691.818,00</text></g><g clip-path="url(#clip62)"><text font-family="Arial,Arial_MSFontService,sans-serif" font-weight="700" font-size="64" transform="matrix(1 0 0 1 2288.98 2099)">$ 2.207.701.077,00</text></g><g clip-path="url(#clip63)"><text font-family="Arial,Arial_MSFontService,sans-serif" font-weight="700" font-size="64" transform="matrix(1 0 0 1 2927.17 2099)">$ 2.085.587.413,00</text></g><g clip-path="url(#clip64)"><text font-family="Arial,Arial_MSFontService,sans-serif" font-weight="700" font-size="64" transform="matrix(1 0 0 1 3565.19 2099)">$ 3.077.517.618,83</text></g><g clip-path="url(#clip65)"><text font-family="Arial,Arial_MSFontService,sans-serif" font-weight="700" font-size="64" transform="matrix(1 0 0 1 4137.21 2099)">$ 3.071.923.742,50</text></g><text font-family="Arial,Arial_MSFontService,sans-serif" font-weight="700" font-size="64" transform="matrix(1 0 0 1 368.426 2229)">EFICIENCIA<tspan font-size="64" x="1192.74" y="0">118,00%</tspan><tspan font-size="64" x="2402.67" y="0">94,00%</tspan><tspan font-size="64" x="3612.88" y="0">99,82%</tspan></text></g></svg>