<svg width="3704" height="812" xmlns="http://www.w3.org/2000/svg" xmlns:xlink="http://www.w3.org/1999/xlink" overflow="hidden"><defs><clipPath id="clip0"><rect x="399" y="713" width="3704" height="812"/></clipPath><clipPath id="clip1"><rect x="401" y="673" width="763" height="540"/></clipPath><clipPath id="clip2"><rect x="1163" y="673" width="655" height="540"/></clipPath><clipPath id="clip3"><rect x="2016" y="673" width="671" height="540"/></clipPath><clipPath id="clip4"><rect x="2972" y="673" width="672" height="540"/></clipPath><clipPath id="clip5"><rect x="401" y="761" width="763" height="540"/></clipPath><clipPath id="clip6"><rect x="1163" y="761" width="655" height="540"/></clipPath><clipPath id="clip7"><rect x="1817" y="761" width="200" height="540"/></clipPath><clipPath id="clip8"><rect x="2016" y="761" width="671" height="540"/></clipPath><clipPath id="clip9"><rect x="2686" y="761" width="287" height="540"/></clipPath><clipPath id="clip10"><rect x="2972" y="761" width="672" height="540"/></clipPath><clipPath id="clip11"><rect x="3643" y="761" width="455" height="540"/></clipPath><clipPath id="clip12"><rect x="401" y="848" width="763" height="540"/></clipPath><clipPath id="clip13"><rect x="1163" y="848" width="655" height="540"/></clipPath><clipPath id="clip14"><rect x="1817" y="848" width="200" height="540"/></clipPath><clipPath id="clip15"><rect x="2016" y="848" width="671" height="540"/></clipPath><clipPath id="clip16"><rect x="2686" y="848" width="287" height="540"/></clipPath><clipPath id="clip17"><rect x="2972" y="848" width="672" height="540"/></clipPath><clipPath id="clip18"><rect x="3643" y="848" width="455" height="540"/></clipPath><clipPath id="clip19"><rect x="401" y="698" width="763" height="1079"/></clipPath><clipPath id="clip20"><rect x="401" y="698" width="763" height="1079"/></clipPath><clipPath id="clip21"><rect x="1163" y="1006" width="655" height="540"/></clipPath><clipPath id="clip22"><rect x="1817" y="1006" width="200" height="540"/></clipPath><clipPath id="clip23"><rect x="2016" y="1006" width="671" height="540"/></clipPath><clipPath id="clip24"><rect x="2686" y="1006" width="287" height="540"/></clipPath><clipPath id="clip25"><rect x="2972" y="1006" width="672" height="540"/></clipPath><clipPath id="clip26"><rect x="3643" y="1006" width="455" height="540"/></clipPath><clipPath id="clip27"><rect x="1163" y="1090" width="655" height="540"/></clipPath><clipPath id="clip28"><rect x="1817" y="1090" width="200" height="540"/></clipPath><clipPath id="clip29"><rect x="2016" y="1090" width="671" height="540"/></clipPath><clipPath id="clip30"><rect x="2686" y="1090" width="287" height="540"/></clipPath><clipPath id="clip31"><rect x="2972" y="1090" width="672" height="540"/></clipPath><clipPath id="clip32"><rect x="3643" y="1090" width="455" height="540"/></clipPath></defs><g clip-path="url(#clip0)" transform="translate(-399 -713)"><path d="M401.556 726.049 1163.71 726.049 1163.71 893.8 401.556 893.8Z" fill="#92D050" fill-rule="evenodd"/><path d="M1163.71 726.049 2016.21 726.049 2016.21 809.925 1163.71 809.925Z" fill="#92D050" fill-rule="evenodd"/><path d="M2016.21 726.049 2972.32 726.049 2972.32 809.925 2016.21 809.925Z" fill="#92D050" fill-rule="evenodd"/><path d="M2972.32 726.049 4097.5 726.049 4097.5 809.925 2972.32 809.925Z" fill="#92D050" fill-rule="evenodd"/><path d="M1163.71 809.925 1817.4 809.925 1817.4 893.8 1163.71 893.8Z" fill="#FFFF00" fill-rule="evenodd"/><path d="M1817.4 809.925 2016.21 809.925 2016.21 893.8 1817.4 893.8Z" fill="#FFFF00" fill-rule="evenodd"/><path d="M2016.21 809.925 2686.52 809.925 2686.52 893.8 2016.21 893.8Z" fill="#FFFF00" fill-rule="evenodd"/><path d="M2686.52 809.925 2972.32 809.925 2972.32 893.8 2686.52 893.8Z" fill="#FFFF00" fill-rule="evenodd"/><path d="M2972.32 809.925 3643.78 809.925 3643.78 893.8 2972.32 893.8Z" fill="#FFFF00" fill-rule="evenodd"/><path d="M3643.78 809.925 4097.5 809.925 4097.5 893.8 3643.78 893.8Z" fill="#FFFF00" fill-rule="evenodd"/><path d="M1163.71 893.8 1817.4 893.8 1817.4 981.488 1163.71 981.488Z" fill="#D9D9D9" fill-rule="evenodd"/><path d="M2016.21 893.8 2686.52 893.8 2686.52 981.488 2016.21 981.488Z" fill="#D9D9D9" fill-rule="evenodd"/><path d="M2972.32 893.8 3643.78 893.8 3643.78 981.488 2972.32 981.488Z" fill="#D9D9D9" fill-rule="evenodd"/><path d="M401.556 1314.3 1163.71 1314.3 1163.71 1398.18 401.556 1398.18Z" fill="#D9D9D9" fill-rule="evenodd"/><path d="M1163.71 1314.3 1817.4 1314.3 1817.4 1398.18 1163.71 1398.18Z" fill="#D9D9D9" fill-rule="evenodd"/><path d="M1817.4 1314.3 2016.21 1314.3 2016.21 1398.18 1817.4 1398.18Z" fill="#D9D9D9" fill-rule="evenodd"/><path d="M2016.21 1314.3 2686.52 1314.3 2686.52 1398.18 2016.21 1398.18Z" fill="#D9D9D9" fill-rule="evenodd"/><path d="M2686.52 1314.3 2972.32 1314.3 2972.32 1398.18 2686.52 1398.18Z" fill="#D9D9D9" fill-rule="evenodd"/><path d="M2972.32 1314.3 3643.78 1314.3 3643.78 1398.18 2972.32 1398.18Z" fill="#D9D9D9" fill-rule="evenodd"/><path d="M3643.78 1314.3 4097.5 1314.3 4097.5 1398.18 3643.78 1398.18Z" fill="#D9D9D9" fill-rule="evenodd"/><path d="M401.556 1398.18 1163.71 1398.18 1163.71 1485.87 401.556 1485.87Z" fill="#D9D9D9" fill-rule="evenodd"/><path d="M1163.71 1398.18 2016.21 1398.18 2016.21 1485.87 1163.71 1485.87Z" fill="#D9D9D9" fill-rule="evenodd"/><path d="M2016.21 1398.18 2972.32 1398.18 2972.32 1485.87 2016.21 1485.87Z" fill="#D9D9D9" fill-rule="evenodd"/><path d="M2972.32 1398.18 4097.5 1398.18 4097.5 1485.87 2972.32 1485.87Z" fill="#FFFF00" fill-rule="evenodd"/><path d="M1163.71 723.758 1163.71 1488.16" stroke="#000000" stroke-width="2.29167" stroke-linejoin="round" stroke-miterlimit="10" fill="none" fill-rule="evenodd"/><path d="M1817.4 808.779 1817.4 1399.32" stroke="#000000" stroke-width="2.29167" stroke-linejoin="round" stroke-miterlimit="10" fill="none" fill-rule="evenodd"/><path d="M2016.21 723.758 2016.21 1488.16" stroke="#000000" stroke-width="2.29167" stroke-linejoin="round" stroke-miterlimit="10" fill="none" fill-rule="evenodd"/><path d="M2686.52 808.779 2686.52 1399.32" stroke="#000000" stroke-width="2.29167" stroke-linejoin="round" stroke-miterlimit="10" fill="none" fill-rule="evenodd"/><path d="M2972.32 723.758 2972.32 1488.16" stroke="#000000" stroke-width="2.29167" stroke-linejoin="round" stroke-miterlimit="10" fill="none" fill-rule="evenodd"/><path d="M3643.78 808.779 3643.78 1399.32" stroke="#000000" stroke-width="2.29167" stroke-linejoin="round" stroke-miterlimit="10" fill="none" fill-rule="evenodd"/><path d="M1162.56 809.925 4099.79 809.925" stroke="#000000" stroke-width="2.29167" stroke-linejoin="round" stroke-miterlimit="10" fill="none" fill-rule="evenodd"/><path d="M399.264 893.8 4099.79 893.8" stroke="#000000" stroke-width="2.29167" stroke-linejoin="round" stroke-miterlimit="10" fill="none" fill-rule="evenodd"/><path d="M399.264 981.488 4099.79 981.488" stroke="#000000" stroke-width="2.29167" stroke-linejoin="round" stroke-miterlimit="10" fill="none" fill-rule="evenodd"/><path d="M399.264 1069.18 4099.79 1069.18" stroke="#000000" stroke-width="2.29167" stroke-linejoin="round" stroke-miterlimit="10" fill="none" fill-rule="evenodd"/><path d="M399.264 1156.86 4099.79 1156.86" stroke="#000000" stroke-width="2.29167" stroke-linejoin="round" stroke-miterlimit="10" fill="none" fill-rule="evenodd"/><path d="M399.264 1314.3 4099.79 1314.3" stroke="#000000" stroke-width="2.29167" stroke-linejoin="round" stroke-miterlimit="10" fill="none" fill-rule="evenodd"/><path d="M399.264 1398.18 4099.79 1398.18" stroke="#000000" stroke-width="2.29167" stroke-linejoin="round" stroke-miterlimit="10" fill="none" fill-rule="evenodd"/><path d="M401.556 723.758 401.556 1488.16" stroke="#000000" stroke-width="4.58333" stroke-linejoin="round" stroke-miterlimit="10" fill="none" fill-rule="evenodd"/><path d="M4097.5 723.758 4097.5 1488.16" stroke="#000000" stroke-width="4.58333" stroke-linejoin="round" stroke-miterlimit="10" fill="none" fill-rule="evenodd"/><path d="M399.264 726.049 4099.79 726.049" stroke="#000000" stroke-width="4.58333" stroke-linejoin="round" stroke-miterlimit="10" fill="none" fill-rule="evenodd"/><path d="M399.264 1485.87 4099.79 1485.87" stroke="#000000" stroke-width="4.58333" stroke-linejoin="round" stroke-miterlimit="10" fill="none" fill-rule="evenodd"/><text font-family="Century Gothic,Century Gothic_MSFontService,sans-serif" font-weight="700" font-size="64" transform="matrix(1 0 0 1 572.084 837)">DESCRIPCION<tspan font-size="64" x="862.325" y="-41">AÑO 2020</tspan><tspan font-size="64" x="1766.63" y="-41">AÑO 2021</tspan><tspan font-size="64" x="2807.28" y="-41">AÑO 2021</tspan><tspan fill="#0000CC" font-size="64" x="812.768" y="43">VALOR</tspan><tspan fill="#0000CC" font-size="64" x="1289.72" y="43">IND</tspan><tspan fill="#0000CC" font-size="64" x="1673.58" y="43">VALOR</tspan><tspan fill="#0000CC" font-size="64" x="2202.34" y="43">IND</tspan><tspan fill="#0000CC" font-size="64" x="2630.27" y="43">VALOR</tspan><tspan fill="#0000CC" font-size="64" x="3243.56" y="43">IND</tspan></text><g clip-path="url(#clip1)"><text font-family="Century Gothic,Century Gothic_MSFontService,sans-serif" font-weight="400" font-size="64" transform="matrix(1 0 0 1 404.993 967)">VR. FACTURADO</text></g><g clip-path="url(#clip2)"><text font-family="Century Gothic,Century Gothic_MSFontService,sans-serif" font-weight="700" font-size="64" transform="matrix(1 0 0 1 1184.9 967)">$   2.104.691.818,00 </text></g><g clip-path="url(#clip3)"><text font-family="Century Gothic,Century Gothic_MSFontService,sans-serif" font-weight="700" font-size="64" transform="matrix(1 0 0 1 2037.4 967)">$   2.085.587.413,00 </text></g><g clip-path="url(#clip4)"><text font-family="Century Gothic,Century Gothic_MSFontService,sans-serif" font-weight="700" font-size="64" transform="matrix(1 0 0 1 2993.52 967)">$    2.046.543.538,00 </text></g><g clip-path="url(#clip5)"><text font-family="Century Gothic,Century Gothic_MSFontService,sans-serif" font-weight="400" font-size="64" transform="matrix(1 0 0 1 404.993 1055)">VR. GLOSA</text></g><g clip-path="url(#clip6)"><text font-family="Century Gothic,Century Gothic_MSFontService,sans-serif" font-weight="400" font-size="64" transform="matrix(1 0 0 1 1184.9 1055)">$        35.512.341,00 </text></g><g clip-path="url(#clip7)"><text font-family="Century Gothic,Century Gothic_MSFontService,sans-serif" font-weight="400" font-size="64" transform="matrix(1 0 0 1 1838.6 1055)">1,69%</text></g><g clip-path="url(#clip8)"><text font-family="Century Gothic,Century Gothic_MSFontService,sans-serif" font-weight="400" font-size="64" transform="matrix(1 0 0 1 2037.4 1055)">$         21.080.858,00 </text></g><g clip-path="url(#clip9)"><text font-family="Century Gothic,Century Gothic_MSFontService,sans-serif" font-weight="400" font-size="64" transform="matrix(1 0 0 1 2794.23 1055)">1,01%</text></g><g clip-path="url(#clip10)"><text font-family="Century Gothic,Century Gothic_MSFontService,sans-serif" font-weight="400" font-size="64" transform="matrix(1 0 0 1 2993.52 1055)">$         47.184.519,00 </text></g><g clip-path="url(#clip11)"><text font-family="Century Gothic,Century Gothic_MSFontService,sans-serif" font-weight="400" font-size="64" transform="matrix(1 0 0 1 3919.36 1055)">2,31%</text></g><g clip-path="url(#clip12)"><text font-family="Century Gothic,Century Gothic_MSFontService,sans-serif" font-weight="400" font-size="64" transform="matrix(1 0 0 1 404.993 1143)">VR. DEVOLUCIONES</text></g><g clip-path="url(#clip13)"><text font-family="Century Gothic,Century Gothic_MSFontService,sans-serif" font-weight="400" font-size="64" transform="matrix(1 0 0 1 1206.39 1143)">$        12.538.400,00 </text></g><g clip-path="url(#clip14)"><text font-family="Century Gothic,Century Gothic_MSFontService,sans-serif" font-weight="400" font-size="64" transform="matrix(1 0 0 1 1838.6 1143)">0,60%</text></g><g clip-path="url(#clip15)"><text font-family="Century Gothic,Century Gothic_MSFontService,sans-serif" font-weight="400" font-size="64" transform="matrix(1 0 0 1 2037.4 1143)">$           1.852.112,00 </text></g><g clip-path="url(#clip16)"><text font-family="Century Gothic,Century Gothic_MSFontService,sans-serif" font-weight="400" font-size="64" transform="matrix(1 0 0 1 2794.23 1143)">0,09%</text></g><g clip-path="url(#clip17)"><text font-family="Century Gothic,Century Gothic_MSFontService,sans-serif" font-weight="400" font-size="64" transform="matrix(1 0 0 1 2993.52 1143)">$           3.749.878,00 </text></g><g clip-path="url(#clip18)"><text font-family="Century Gothic,Century Gothic_MSFontService,sans-serif" font-weight="400" font-size="64" transform="matrix(1 0 0 1 3919.36 1143)">0,18%</text></g><g clip-path="url(#clip19)"><text font-family="Century Gothic,Century Gothic_MSFontService,sans-serif" font-weight="400" font-size="64" transform="matrix(1 0 0 1 404.993 1223)">VR. DESCUENTOS </text></g><g clip-path="url(#clip20)"><text font-family="Century Gothic,Century Gothic_MSFontService,sans-serif" font-weight="400" font-size="64" transform="matrix(1 0 0 1 404.993 1300)">CAPITA</text></g><g clip-path="url(#clip21)"><text font-family="Century Gothic,Century Gothic_MSFontService,sans-serif" font-weight="400" font-size="64" transform="matrix(1 0 0 1 1184.9 1300)">$        93.455.399,00 </text></g><g clip-path="url(#clip22)"><text font-family="Century Gothic,Century Gothic_MSFontService,sans-serif" font-weight="400" font-size="64" transform="matrix(1 0 0 1 1838.6 1300)">4,44%</text></g><g clip-path="url(#clip23)"><text font-family="Century Gothic,Century Gothic_MSFontService,sans-serif" font-weight="400" font-size="64" transform="matrix(1 0 0 1 2037.4 1300)">$         67.000.000,00 </text></g><g clip-path="url(#clip24)"><text font-family="Century Gothic,Century Gothic_MSFontService,sans-serif" font-weight="400" font-size="64" transform="matrix(1 0 0 1 2794.23 1300)">3,21%</text></g><g clip-path="url(#clip25)"><text font-family="Century Gothic,Century Gothic_MSFontService,sans-serif" font-weight="400" font-size="64" transform="matrix(1 0 0 1 2993.52 1300)">$         82.322.049,00 </text></g><g clip-path="url(#clip26)"><text font-family="Century Gothic,Century Gothic_MSFontService,sans-serif" font-weight="400" font-size="64" transform="matrix(1 0 0 1 3919.36 1300)">4,02%</text></g><text font-family="Century Gothic,Century Gothic_MSFontService,sans-serif" font-weight="700" font-size="64" transform="matrix(1 0 0 1 483.568 1383)">TOTAL DESCUENTOS</text><g clip-path="url(#clip27)"><text font-family="Century Gothic,Century Gothic_MSFontService,sans-serif" font-weight="700" font-size="64" transform="matrix(1 0 0 1 1184.9 1384)">$      141.506.140,00 </text></g><g clip-path="url(#clip28)"><text font-family="Century Gothic,Century Gothic_MSFontService,sans-serif" font-weight="700" font-size="64" transform="matrix(1 0 0 1 1921.67 1384)">7%</text></g><g clip-path="url(#clip29)"><text font-family="Century Gothic,Century Gothic_MSFontService,sans-serif" font-weight="700" font-size="64" transform="matrix(1 0 0 1 2037.4 1384)">$         89.932.970,00 </text></g><g clip-path="url(#clip30)"><text font-family="Century Gothic,Century Gothic_MSFontService,sans-serif" font-weight="700" font-size="64" transform="matrix(1 0 0 1 2877.3 1384)">4%</text></g><g clip-path="url(#clip31)"><text font-family="Century Gothic,Century Gothic_MSFontService,sans-serif" font-weight="700" font-size="64" transform="matrix(1 0 0 1 2993.52 1384)">$       133.256.446,00 </text></g><g clip-path="url(#clip32)"><text font-family="Century Gothic,Century Gothic_MSFontService,sans-serif" font-weight="700" font-size="64" transform="matrix(1 0 0 1 3912.48 1384)">6,51%</text></g><text font-family="Century Gothic,Century Gothic_MSFontService,sans-serif" font-weight="700" font-size="64" transform="matrix(1 0 0 1 635.391 1469)">EFICACIA<tspan font-size="64" x="890.971" y="3">93%</tspan><tspan font-size="64" x="1795.28" y="3">96%</tspan><tspan font-size="64" x="2835.93" y="3">93%</tspan></text></g></svg>