<svg width="919" height="246" xmlns="http://www.w3.org/2000/svg" xmlns:xlink="http://www.w3.org/1999/xlink" overflow="hidden"><defs><clipPath id="clip0"><rect x="1822" y="1407" width="919" height="246"/></clipPath><clipPath id="clip1"><rect x="1825" y="1256" width="636" height="617"/></clipPath><clipPath id="clip2"><rect x="1825" y="1256" width="636" height="617"/></clipPath></defs><g clip-path="url(#clip0)" transform="translate(-1822 -1407)"><path d="M1825.01 1425.64 2735.95 1425.64 2735.95 1517.07 1825.01 1517.07Z" fill="#FFFF00" fill-rule="evenodd"/><path d="M2460.95 1517.07 2735.95 1517.07 2735.95 1608.51 2460.95 1608.51Z" fill="#FF0000" fill-rule="evenodd"/><path d="M2460.95 1515.93 2460.95 1610.8" stroke="#000000" stroke-width="2.29167" stroke-linejoin="round" stroke-miterlimit="10" fill="none" fill-rule="evenodd"/><path d="M1822.72 1517.07 2738.24 1517.07" stroke="#000000" stroke-width="2.29167" stroke-linejoin="round" stroke-miterlimit="10" fill="none" fill-rule="evenodd"/><path d="M1825.01 1423.34 1825.01 1610.8" stroke="#000000" stroke-width="4.58333" stroke-linejoin="round" stroke-miterlimit="10" fill="none" fill-rule="evenodd"/><path d="M2735.95 1423.34 2735.95 1610.8" stroke="#000000" stroke-width="4.58333" stroke-linejoin="round" stroke-miterlimit="10" fill="none" fill-rule="evenodd"/><path d="M1822.72 1425.64 2738.24 1425.64" stroke="#000000" stroke-width="4.58333" stroke-linejoin="round" stroke-miterlimit="10" fill="none" fill-rule="evenodd"/><path d="M1822.72 1608.51 2738.24 1608.51" stroke="#000000" stroke-width="4.58333" stroke-linejoin="round" stroke-miterlimit="10" fill="none" fill-rule="evenodd"/><text fill="#0000CC" font-family="Century Gothic,Century Gothic_MSFontService,sans-serif" font-weight="700" font-size="73" transform="matrix(1 0 0 1 2071.65 1501)">VARIACION</text><g clip-path="url(#clip1)"><text font-family="Century Gothic,Century Gothic_MSFontService,sans-serif" font-weight="700" font-size="73" transform="matrix(1 0 0 1 1828.45 1593)">-</text></g><g clip-path="url(#clip2)"><text font-family="Century Gothic,Century Gothic_MSFontService,sans-serif" font-weight="700" font-size="73" transform="matrix(1 0 0 1 1859.39 1593)">$  90.132.951,00 </text></g><text font-family="Century Gothic,Century Gothic_MSFontService,sans-serif" font-weight="700" font-size="73" transform="matrix(1 0 0 1 2530.85 1593)">-<tspan font-size="73" x="30.9375" y="0">5%</tspan></text></g></svg>