<svg width="1070" height="263" xmlns="http://www.w3.org/2000/svg" xmlns:xlink="http://www.w3.org/1999/xlink" overflow="hidden"><defs><clipPath id="clip0"><rect x="1543" y="1611" width="1070" height="263"/></clipPath><clipPath id="clip1"><rect x="1545" y="1477" width="600" height="617"/></clipPath></defs><g clip-path="url(#clip0)" transform="translate(-1543 -1611)"><path d="M1545.96 1617.25 2607.96 1617.25 2607.96 1721.25 1545.96 1721.25Z" fill="#FFFF00" fill-rule="evenodd"/><path d="M2144.48 1721.25 2607.96 1721.25 2607.96 1829.42 2144.48 1829.42Z" fill="#FF0000" fill-rule="evenodd"/><path d="M2144.48 1720.11 2144.48 1831.71" stroke="#000000" stroke-width="2.29167" stroke-linejoin="round" stroke-miterlimit="10" fill="none" fill-rule="evenodd"/><path d="M1543.67 1721.25 2610.25 1721.25" stroke="#000000" stroke-width="2.29167" stroke-linejoin="round" stroke-miterlimit="10" fill="none" fill-rule="evenodd"/><path d="M1545.96 1614.96 1545.96 1831.71" stroke="#000000" stroke-width="4.58333" stroke-linejoin="round" stroke-miterlimit="10" fill="none" fill-rule="evenodd"/><path d="M2607.96 1614.96 2607.96 1831.71" stroke="#000000" stroke-width="4.58333" stroke-linejoin="round" stroke-miterlimit="10" fill="none" fill-rule="evenodd"/><path d="M1543.67 1617.25 2610.25 1617.25" stroke="#000000" stroke-width="4.58333" stroke-linejoin="round" stroke-miterlimit="10" fill="none" fill-rule="evenodd"/><path d="M1543.67 1829.42 2610.25 1829.42" stroke="#000000" stroke-width="4.58333" stroke-linejoin="round" stroke-miterlimit="10" fill="none" fill-rule="evenodd"/><text fill="#0000CC" font-family="Century Gothic,Century Gothic_MSFontService,sans-serif" font-weight="700" font-size="73" transform="matrix(1 0 0 1 1868.13 1705)">VARIACION</text><g clip-path="url(#clip1)"><text font-family="Century Gothic,Century Gothic_MSFontService,sans-serif" font-weight="700" font-size="73" transform="matrix(1 0 0 1 1570.03 1813)">$  43.323.476,00 </text></g><text font-family="Century Gothic,Century Gothic_MSFontService,sans-serif" font-weight="700" font-size="73" transform="matrix(1 0 0 1 2303.46 1813)">33%</text></g></svg>