<svg width="1103" height="219" xmlns="http://www.w3.org/2000/svg" xmlns:xlink="http://www.w3.org/1999/xlink" overflow="hidden"><defs><clipPath id="clip0"><rect x="2688" y="1830" width="1103" height="219"/></clipPath><clipPath id="clip1"><rect x="2690" y="1701" width="580" height="540"/></clipPath></defs><g clip-path="url(#clip0)" transform="translate(-2688 -1830)"><path d="M2690.35 1846.81 3785.77 1846.81 3785.77 1929.31 2690.35 1929.31Z" fill="#FFFF00" fill-rule="evenodd"/><path d="M3269.06 1929.31 3785.77 1929.31 3785.77 2015.25 3269.06 2015.25Z" fill="#92D050" fill-rule="evenodd"/><path d="M3269.06 1928.16 3269.06 2017.54" stroke="#000000" stroke-width="2.29167" stroke-linejoin="round" stroke-miterlimit="10" fill="none" fill-rule="evenodd"/><path d="M2688.06 1929.31 3788.06 1929.31" stroke="#000000" stroke-width="2.29167" stroke-linejoin="round" stroke-miterlimit="10" fill="none" fill-rule="evenodd"/><path d="M2690.35 1844.52 2690.35 2017.54" stroke="#000000" stroke-width="4.58333" stroke-linejoin="round" stroke-miterlimit="10" fill="none" fill-rule="evenodd"/><path d="M3785.77 1844.52 3785.77 2017.54" stroke="#000000" stroke-width="4.58333" stroke-linejoin="round" stroke-miterlimit="10" fill="none" fill-rule="evenodd"/><path d="M2688.06 1846.81 3788.06 1846.81" stroke="#000000" stroke-width="4.58333" stroke-linejoin="round" stroke-miterlimit="10" fill="none" fill-rule="evenodd"/><path d="M2688.06 2015.25 3788.06 2015.25" stroke="#000000" stroke-width="4.58333" stroke-linejoin="round" stroke-miterlimit="10" fill="none" fill-rule="evenodd"/><text fill="#3333FF" font-family="Century Gothic,Century Gothic_MSFontService,sans-serif" font-weight="700" font-size="64" transform="matrix(1 0 0 1 3065.04 1914)">VARIACION </text><g clip-path="url(#clip1)"><text font-family="Century Gothic,Century Gothic_MSFontService,sans-serif" font-weight="700" font-size="64" transform="matrix(1 0 0 1 2779.15 1997)">$986.336.329,50 </text></g><text font-family="Century Gothic,Century Gothic_MSFontService,sans-serif" font-weight="700" font-size="64" transform="matrix(1 0 0 1 3463.82 1997)">32%</text></g></svg>