<svg width="3144" height="619" xmlns="http://www.w3.org/2000/svg" xmlns:xlink="http://www.w3.org/1999/xlink" overflow="hidden"><defs><clipPath id="clip0"><rect x="790" y="712" width="3144" height="619"/></clipPath><clipPath id="clip1"><rect x="2020" y="581" width="146" height="540"/></clipPath><clipPath id="clip2"><rect x="2829" y="581" width="136" height="540"/></clipPath><clipPath id="clip3"><rect x="793" y="661" width="574" height="540"/></clipPath><clipPath id="clip4"><rect x="1366" y="661" width="655" height="540"/></clipPath><clipPath id="clip5"><rect x="2165" y="661" width="665" height="540"/></clipPath><clipPath id="clip6"><rect x="2964" y="661" width="690" height="540"/></clipPath><clipPath id="clip7"><rect x="793" y="742" width="574" height="540"/></clipPath><clipPath id="clip8"><rect x="1366" y="742" width="655" height="540"/></clipPath><clipPath id="clip9"><rect x="2165" y="742" width="665" height="540"/></clipPath><clipPath id="clip10"><rect x="2964" y="742" width="690" height="540"/></clipPath><clipPath id="clip11"><rect x="793" y="822" width="574" height="540"/></clipPath><clipPath id="clip12"><rect x="1366" y="822" width="655" height="540"/></clipPath><clipPath id="clip13"><rect x="2020" y="822" width="146" height="540"/></clipPath><clipPath id="clip14"><rect x="2165" y="822" width="665" height="540"/></clipPath><clipPath id="clip15"><rect x="2829" y="822" width="136" height="540"/></clipPath><clipPath id="clip16"><rect x="1366" y="903" width="655" height="540"/></clipPath><clipPath id="clip17"><rect x="2165" y="903" width="665" height="540"/></clipPath><clipPath id="clip18"><rect x="2964" y="903" width="690" height="540"/></clipPath></defs><g clip-path="url(#clip0)" transform="translate(-790 -712)"><path d="M793.095 728.619 1366.58 728.619 1366.58 889.494 793.095 889.494Z" fill="#92D050" fill-rule="evenodd"/><path d="M1366.58 728.619 2165.8 728.619 2165.8 809.057 1366.58 809.057Z" fill="#92D050" fill-rule="evenodd"/><path d="M2165.8 728.619 2964.45 728.619 2964.45 809.057 2165.8 809.057Z" fill="#92D050" fill-rule="evenodd"/><path d="M2964.45 728.619 3928.86 728.619 3928.86 809.057 2964.45 809.057Z" fill="#92D050" fill-rule="evenodd"/><path d="M1366.58 809.057 2020.28 809.057 2020.28 889.494 1366.58 889.494Z" fill="#FFFF00" fill-rule="evenodd"/><path d="M2020.28 809.057 2165.8 809.057 2165.8 889.494 2020.28 889.494Z" fill="#FFFF00" fill-rule="evenodd"/><path d="M2165.8 809.057 2829.81 809.057 2829.81 889.494 2165.8 889.494Z" fill="#FFFF00" fill-rule="evenodd"/><path d="M2829.81 809.057 2964.45 809.057 2964.45 889.494 2829.81 889.494Z" fill="#FFFF00" fill-rule="evenodd"/><path d="M2964.45 809.057 3653.67 809.057 3653.67 889.494 2964.45 889.494Z" fill="#FFFF00" fill-rule="evenodd"/><path d="M3653.67 809.057 3928.86 809.057 3928.86 889.494 3653.67 889.494Z" fill="#FFFF00" fill-rule="evenodd"/><path d="M1366.58 889.494 2020.28 889.494 2020.28 969.932 1366.58 969.932Z" fill="#FFFFFF" fill-rule="evenodd"/><path d="M2165.8 889.494 2829.81 889.494 2829.81 969.932 2165.8 969.932Z" fill="#FFFFFF" fill-rule="evenodd"/><path d="M2829.81 889.494 2964.45 889.494 2964.45 969.932 2829.81 969.932Z" fill="#FFFFFF" fill-rule="evenodd"/><path d="M3653.67 889.494 3928.86 889.494 3928.86 969.932 3653.67 969.932Z" fill="#FFFFFF" fill-rule="evenodd"/><path d="M1366.58 969.932 2020.28 969.932 2020.28 1050.37 1366.58 1050.37Z" fill="#FFFFFF" fill-rule="evenodd"/><path d="M2165.8 969.932 2829.81 969.932 2829.81 1050.37 2165.8 1050.37Z" fill="#FFFFFF" fill-rule="evenodd"/><path d="M2829.81 969.932 2964.45 969.932 2964.45 1050.37 2829.81 1050.37Z" fill="#FFFFFF" fill-rule="evenodd"/><path d="M3653.67 969.932 3928.86 969.932 3928.86 1050.37 3653.67 1050.37Z" fill="#FFFFFF" fill-rule="evenodd"/><path d="M1366.58 1050.37 2020.28 1050.37 2020.28 1130.81 1366.58 1130.81Z" fill="#FFFFFF" fill-rule="evenodd"/><path d="M2165.8 1050.37 2829.81 1050.37 2829.81 1130.81 2165.8 1130.81Z" fill="#FFFFFF" fill-rule="evenodd"/><path d="M2829.81 1050.37 2964.45 1050.37 2964.45 1130.81 2829.81 1130.81Z" fill="#FFFFFF" fill-rule="evenodd"/><path d="M3653.67 1050.37 3928.86 1050.37 3928.86 1130.81 3653.67 1130.81Z" fill="#FFFFFF" fill-rule="evenodd"/><path d="M793.095 1130.81 1366.58 1130.81 1366.58 1211.24 793.095 1211.24Z" fill="#BFBFBF" fill-rule="evenodd"/><path d="M1366.58 1130.81 2020.28 1130.81 2020.28 1211.24 1366.58 1211.24Z" fill="#BFBFBF" fill-rule="evenodd"/><path d="M2020.28 1130.81 2165.8 1130.81 2165.8 1211.24 2020.28 1211.24Z" fill="#BFBFBF" fill-rule="evenodd"/><path d="M2165.8 1130.81 2829.81 1130.81 2829.81 1211.24 2165.8 1211.24Z" fill="#BFBFBF" fill-rule="evenodd"/><path d="M2829.81 1130.81 2964.45 1130.81 2964.45 1211.24 2829.81 1211.24Z" fill="#BFBFBF" fill-rule="evenodd"/><path d="M2964.45 1130.81 3653.67 1130.81 3653.67 1211.24 2964.45 1211.24Z" fill="#BFBFBF" fill-rule="evenodd"/><path d="M3653.67 1130.81 3928.86 1130.81 3928.86 1211.24 3653.67 1211.24Z" fill="#BFBFBF" fill-rule="evenodd"/><path d="M793.095 1211.24 1366.58 1211.24 1366.58 1291.68 793.095 1291.68Z" fill="#BFBFBF" fill-rule="evenodd"/><path d="M1366.58 1211.24 2165.8 1211.24 2165.8 1291.68 1366.58 1291.68Z" fill="#BFBFBF" fill-rule="evenodd"/><path d="M2165.8 1211.24 2964.45 1211.24 2964.45 1291.68 2165.8 1291.68Z" fill="#BFBFBF" fill-rule="evenodd"/><path d="M2964.45 1211.24 3928.86 1211.24 3928.86 1291.68 2964.45 1291.68Z" fill="#00FF00" fill-rule="evenodd"/><path d="M1366.58 726.327 1366.58 1293.97" stroke="#000000" stroke-width="2.29167" stroke-linejoin="round" stroke-miterlimit="10" fill="none" fill-rule="evenodd"/><path d="M2020.28 807.911 2020.28 1212.39" stroke="#000000" stroke-width="2.29167" stroke-linejoin="round" stroke-miterlimit="10" fill="none" fill-rule="evenodd"/><path d="M2165.8 726.327 2165.8 1293.97" stroke="#000000" stroke-width="2.29167" stroke-linejoin="round" stroke-miterlimit="10" fill="none" fill-rule="evenodd"/><path d="M2829.81 807.911 2829.81 1212.39" stroke="#000000" stroke-width="2.29167" stroke-linejoin="round" stroke-miterlimit="10" fill="none" fill-rule="evenodd"/><path d="M2964.45 726.327 2964.45 1293.97" stroke="#000000" stroke-width="2.29167" stroke-linejoin="round" stroke-miterlimit="10" fill="none" fill-rule="evenodd"/><path d="M3653.67 807.911 3653.67 1212.39" stroke="#000000" stroke-width="2.29167" stroke-linejoin="round" stroke-miterlimit="10" fill="none" fill-rule="evenodd"/><path d="M1365.44 809.057 3931.16 809.057" stroke="#000000" stroke-width="2.29167" stroke-linejoin="round" stroke-miterlimit="10" fill="none" fill-rule="evenodd"/><path d="M790.803 889.494 3931.16 889.494" stroke="#000000" stroke-width="2.29167" stroke-linejoin="round" stroke-miterlimit="10" fill="none" fill-rule="evenodd"/><path d="M790.803 969.932 3931.16 969.932" stroke="#000000" stroke-width="2.29167" stroke-linejoin="round" stroke-miterlimit="10" fill="none" fill-rule="evenodd"/><path d="M790.803 1050.37 3931.16 1050.37" stroke="#000000" stroke-width="2.29167" stroke-linejoin="round" stroke-miterlimit="10" fill="none" fill-rule="evenodd"/><path d="M790.803 1130.81 3931.16 1130.81" stroke="#000000" stroke-width="2.29167" stroke-linejoin="round" stroke-miterlimit="10" fill="none" fill-rule="evenodd"/><path d="M790.803 1211.24 3931.16 1211.24" stroke="#000000" stroke-width="2.29167" stroke-linejoin="round" stroke-miterlimit="10" fill="none" fill-rule="evenodd"/><path d="M793.095 726.327 793.095 1293.97" stroke="#000000" stroke-width="4.58333" stroke-linejoin="round" stroke-miterlimit="10" fill="none" fill-rule="evenodd"/><path d="M3928.86 726.327 3928.86 1293.97" stroke="#000000" stroke-width="4.58333" stroke-linejoin="round" stroke-miterlimit="10" fill="none" fill-rule="evenodd"/><path d="M790.803 728.619 3931.16 728.619" stroke="#000000" stroke-width="4.58333" stroke-linejoin="round" stroke-miterlimit="10" fill="none" fill-rule="evenodd"/><path d="M790.803 1291.68 3931.16 1291.68" stroke="#000000" stroke-width="4.58333" stroke-linejoin="round" stroke-miterlimit="10" fill="none" fill-rule="evenodd"/><text font-family="Century Gothic,Century Gothic_MSFontService,sans-serif" font-weight="700" font-size="64" transform="matrix(1 0 0 1 869.292 836)">DESCRIPCION<tspan font-size="64" x="741.354" y="-41">AÑO 2020</tspan><tspan font-size="64" x="1540.29" y="-41">AÑO 2021</tspan><tspan font-size="64" x="2421.82" y="-41">AÑO 2022</tspan><tspan fill="#0000CC" font-size="64" x="718.438" y="40">VALOR</tspan></text><g clip-path="url(#clip1)"><text fill="#0000CC" font-family="Century Gothic,Century Gothic_MSFontService,sans-serif" font-weight="700" font-size="64" transform="matrix(1 0 0 1 2038.04 876)">IND</text></g><text fill="#0000CC" font-family="Century Gothic,Century Gothic_MSFontService,sans-serif" font-weight="700" font-size="64" transform="matrix(1 0 0 1 2392.1 876)">VALOR</text><g clip-path="url(#clip2)"><text fill="#0000CC" font-family="Century Gothic,Century Gothic_MSFontService,sans-serif" font-weight="700" font-size="64" transform="matrix(1 0 0 1 2842.13 876)">IND</text></g><text fill="#0000CC" font-family="Century Gothic,Century Gothic_MSFontService,sans-serif" font-weight="700" font-size="64" transform="matrix(1 0 0 1 3203.36 876)">VALOR<tspan font-size="64" x="532.911" y="0">IND</tspan></text><g clip-path="url(#clip3)"><text font-family="Century Gothic,Century Gothic_MSFontService,sans-serif" font-weight="400" font-size="64" transform="matrix(1 0 0 1 825.178 956)">VR. FACTURADO</text></g><g clip-path="url(#clip4)"><text font-family="Century Gothic,Century Gothic_MSFontService,sans-serif" font-weight="700" font-size="64" transform="matrix(1 0 0 1 1387.78 956)">$   2.104.691.818,00 </text></g><g clip-path="url(#clip5)"><text font-family="Century Gothic,Century Gothic_MSFontService,sans-serif" font-weight="700" font-size="64" transform="matrix(1 0 0 1 2187 956)">$   2.085.587.413,00 </text></g><g clip-path="url(#clip6)"><text font-family="Century Gothic,Century Gothic_MSFontService,sans-serif" font-weight="700" font-size="64" transform="matrix(1 0 0 1 2985.65 956)">$     2.046.543.538,00 </text></g><g clip-path="url(#clip7)"><text font-family="Century Gothic,Century Gothic_MSFontService,sans-serif" font-weight="400" font-size="64" transform="matrix(1 0 0 1 817.443 1036)">VR. DESCUENTOS</text></g><g clip-path="url(#clip8)"><text font-family="Century Gothic,Century Gothic_MSFontService,sans-serif" font-weight="400" font-size="64" transform="matrix(1 0 0 1 1387.78 1036)">$      141.506.140,00 </text></g><g clip-path="url(#clip9)"><text font-family="Century Gothic,Century Gothic_MSFontService,sans-serif" font-weight="400" font-size="64" transform="matrix(1 0 0 1 2187 1036)">$         89.932.970,00 </text></g><g clip-path="url(#clip10)"><text font-family="Century Gothic,Century Gothic_MSFontService,sans-serif" font-weight="400" font-size="64" transform="matrix(1 0 0 1 2985.65 1036)">$        133.256.446,00 </text></g><g clip-path="url(#clip11)"><text font-family="Century Gothic,Century Gothic_MSFontService,sans-serif" font-weight="400" font-size="64" transform="matrix(1 0 0 1 805.412 1117)">VR. RECUPERADO</text></g><g clip-path="url(#clip12)"><text font-family="Century Gothic,Century Gothic_MSFontService,sans-serif" font-weight="400" font-size="64" transform="matrix(1 0 0 1 1387.78 1117)">$        30.522.788,00 </text></g><g clip-path="url(#clip13)"><text font-family="Century Gothic,Century Gothic_MSFontService,sans-serif" font-weight="400" font-size="64" transform="matrix(1 0 0 1 2032.6 1117)">22%</text></g><g clip-path="url(#clip14)"><text font-family="Century Gothic,Century Gothic_MSFontService,sans-serif" font-weight="400" font-size="64" transform="matrix(1 0 0 1 2187 1117)">$           7.765.600,00 </text></g><g clip-path="url(#clip15)"><text font-family="Century Gothic,Century Gothic_MSFontService,sans-serif" font-weight="400" font-size="64" transform="matrix(1 0 0 1 2854.45 1117)">9%</text></g><text font-family="Century Gothic,Century Gothic_MSFontService,sans-serif" font-weight="400" font-size="64" transform="matrix(1 0 0 1 3748.58 1117)">0%<tspan font-weight="700" font-size="64" x="-2841.77" y="81">RESULTADO</tspan></text><g clip-path="url(#clip16)"><text font-family="Century Gothic,Century Gothic_MSFontService,sans-serif" font-weight="700" font-size="64" transform="matrix(1 0 0 1 1387.78 1197)">$   1.993.708.466,00 </text></g><g clip-path="url(#clip17)"><text font-family="Century Gothic,Century Gothic_MSFontService,sans-serif" font-weight="700" font-size="64" transform="matrix(1 0 0 1 2187 1197)">$   2.003.420.043,00 </text></g><g clip-path="url(#clip18)"><text font-family="Century Gothic,Century Gothic_MSFontService,sans-serif" font-weight="700" font-size="64" transform="matrix(1 0 0 1 2985.65 1197)">$     1.913.287.092,00 </text></g><text font-family="Century Gothic,Century Gothic_MSFontService,sans-serif" font-weight="700" font-size="64" transform="matrix(1 0 0 1 884.188 1279)">EFECTIVIDAD<tspan font-size="64" x="818.412" y="-1">95%</tspan><tspan font-size="64" x="1617.34" y="-1">96%</tspan><tspan font-size="64" x="2498.87" y="-1">93%</tspan></text></g></svg>