<svg width="3403" height="1686" xmlns="http://www.w3.org/2000/svg" xmlns:xlink="http://www.w3.org/1999/xlink" overflow="hidden"><defs><clipPath id="clip0"><rect x="724" y="563" width="3403" height="1686"/></clipPath><clipPath id="clip1"><rect x="1738" y="457" width="276" height="463"/></clipPath><clipPath id="clip2"><rect x="725" y="606" width="1997" height="463"/></clipPath><clipPath id="clip3"><rect x="725" y="681" width="1014" height="463"/></clipPath><clipPath id="clip4"><rect x="1738" y="681" width="276" height="463"/></clipPath><clipPath id="clip5"><rect x="2013" y="681" width="241" height="463"/></clipPath><clipPath id="clip6"><rect x="2253" y="681" width="469" height="463"/></clipPath><clipPath id="clip7"><rect x="2721" y="681" width="468" height="463"/></clipPath><clipPath id="clip8"><rect x="3188" y="681" width="469" height="463"/></clipPath><clipPath id="clip9"><rect x="3656" y="681" width="468" height="463"/></clipPath><clipPath id="clip10"><rect x="725" y="757" width="1014" height="463"/></clipPath><clipPath id="clip11"><rect x="1738" y="757" width="276" height="463"/></clipPath><clipPath id="clip12"><rect x="2013" y="757" width="241" height="463"/></clipPath><clipPath id="clip13"><rect x="2253" y="757" width="469" height="463"/></clipPath><clipPath id="clip14"><rect x="2721" y="757" width="468" height="463"/></clipPath><clipPath id="clip15"><rect x="3188" y="757" width="469" height="463"/></clipPath><clipPath id="clip16"><rect x="3656" y="757" width="468" height="463"/></clipPath><clipPath id="clip17"><rect x="725" y="833" width="1014" height="463"/></clipPath><clipPath id="clip18"><rect x="1738" y="833" width="276" height="463"/></clipPath><clipPath id="clip19"><rect x="2013" y="833" width="241" height="463"/></clipPath><clipPath id="clip20"><rect x="2253" y="833" width="469" height="463"/></clipPath><clipPath id="clip21"><rect x="2721" y="833" width="468" height="463"/></clipPath><clipPath id="clip22"><rect x="3188" y="833" width="469" height="463"/></clipPath><clipPath id="clip23"><rect x="3656" y="833" width="468" height="463"/></clipPath><clipPath id="clip24"><rect x="725" y="908" width="3399" height="463"/></clipPath><clipPath id="clip25"><rect x="725" y="984" width="1014" height="463"/></clipPath><clipPath id="clip26"><rect x="1738" y="984" width="276" height="463"/></clipPath><clipPath id="clip27"><rect x="2013" y="984" width="241" height="463"/></clipPath><clipPath id="clip28"><rect x="2253" y="984" width="469" height="463"/></clipPath><clipPath id="clip29"><rect x="2721" y="984" width="468" height="463"/></clipPath><clipPath id="clip30"><rect x="3188" y="984" width="469" height="463"/></clipPath><clipPath id="clip31"><rect x="3656" y="984" width="468" height="463"/></clipPath><clipPath id="clip32"><rect x="725" y="1060" width="1014" height="463"/></clipPath><clipPath id="clip33"><rect x="1738" y="1060" width="276" height="463"/></clipPath><clipPath id="clip34"><rect x="2013" y="1060" width="241" height="463"/></clipPath><clipPath id="clip35"><rect x="2253" y="1060" width="469" height="463"/></clipPath><clipPath id="clip36"><rect x="2721" y="1060" width="468" height="463"/></clipPath><clipPath id="clip37"><rect x="3188" y="1060" width="469" height="463"/></clipPath><clipPath id="clip38"><rect x="3656" y="1060" width="468" height="463"/></clipPath><clipPath id="clip39"><rect x="725" y="1135" width="1014" height="463"/></clipPath><clipPath id="clip40"><rect x="1738" y="1135" width="276" height="463"/></clipPath><clipPath id="clip41"><rect x="2013" y="1135" width="241" height="463"/></clipPath><clipPath id="clip42"><rect x="2253" y="1135" width="469" height="463"/></clipPath><clipPath id="clip43"><rect x="2721" y="1135" width="468" height="463"/></clipPath><clipPath id="clip44"><rect x="3188" y="1135" width="469" height="463"/></clipPath><clipPath id="clip45"><rect x="3656" y="1135" width="468" height="463"/></clipPath><clipPath id="clip46"><rect x="725" y="1211" width="1997" height="463"/></clipPath><clipPath id="clip47"><rect x="725" y="1286" width="1014" height="463"/></clipPath><clipPath id="clip48"><rect x="1738" y="1286" width="276" height="463"/></clipPath><clipPath id="clip49"><rect x="2013" y="1286" width="241" height="463"/></clipPath><clipPath id="clip50"><rect x="2253" y="1286" width="469" height="463"/></clipPath><clipPath id="clip51"><rect x="2721" y="1286" width="468" height="463"/></clipPath><clipPath id="clip52"><rect x="3188" y="1286" width="469" height="463"/></clipPath><clipPath id="clip53"><rect x="3656" y="1286" width="468" height="463"/></clipPath><clipPath id="clip54"><rect x="725" y="1362" width="1014" height="463"/></clipPath><clipPath id="clip55"><rect x="1738" y="1362" width="276" height="463"/></clipPath><clipPath id="clip56"><rect x="2013" y="1362" width="241" height="463"/></clipPath><clipPath id="clip57"><rect x="2253" y="1362" width="469" height="463"/></clipPath><clipPath id="clip58"><rect x="2721" y="1362" width="468" height="463"/></clipPath><clipPath id="clip59"><rect x="3188" y="1362" width="469" height="463"/></clipPath><clipPath id="clip60"><rect x="3656" y="1362" width="468" height="463"/></clipPath><clipPath id="clip61"><rect x="725" y="1438" width="1014" height="463"/></clipPath><clipPath id="clip62"><rect x="1738" y="1438" width="276" height="463"/></clipPath><clipPath id="clip63"><rect x="2013" y="1438" width="241" height="463"/></clipPath><clipPath id="clip64"><rect x="2253" y="1438" width="469" height="463"/></clipPath><clipPath id="clip65"><rect x="2721" y="1438" width="468" height="463"/></clipPath><clipPath id="clip66"><rect x="3188" y="1438" width="469" height="463"/></clipPath><clipPath id="clip67"><rect x="3656" y="1438" width="468" height="463"/></clipPath><clipPath id="clip68"><rect x="725" y="1513" width="1014" height="463"/></clipPath><clipPath id="clip69"><rect x="1738" y="1513" width="276" height="463"/></clipPath><clipPath id="clip70"><rect x="2013" y="1513" width="241" height="463"/></clipPath><clipPath id="clip71"><rect x="2253" y="1513" width="469" height="463"/></clipPath><clipPath id="clip72"><rect x="2721" y="1513" width="468" height="463"/></clipPath><clipPath id="clip73"><rect x="3188" y="1513" width="469" height="463"/></clipPath><clipPath id="clip74"><rect x="3656" y="1513" width="468" height="463"/></clipPath><clipPath id="clip75"><rect x="725" y="1589" width="1014" height="463"/></clipPath><clipPath id="clip76"><rect x="1738" y="1589" width="276" height="463"/></clipPath><clipPath id="clip77"><rect x="2013" y="1589" width="241" height="463"/></clipPath><clipPath id="clip78"><rect x="2253" y="1589" width="469" height="463"/></clipPath><clipPath id="clip79"><rect x="2721" y="1589" width="468" height="463"/></clipPath><clipPath id="clip80"><rect x="3188" y="1589" width="469" height="463"/></clipPath><clipPath id="clip81"><rect x="3656" y="1589" width="468" height="463"/></clipPath><clipPath id="clip82"><rect x="725" y="1460" width="1014" height="925"/></clipPath><clipPath id="clip83"><rect x="725" y="1460" width="1014" height="925"/></clipPath><clipPath id="clip84"><rect x="1738" y="1724" width="276" height="463"/></clipPath><clipPath id="clip85"><rect x="2013" y="1724" width="241" height="463"/></clipPath><clipPath id="clip86"><rect x="2253" y="1724" width="469" height="463"/></clipPath><clipPath id="clip87"><rect x="2721" y="1724" width="468" height="463"/></clipPath><clipPath id="clip88"><rect x="3188" y="1724" width="469" height="463"/></clipPath><clipPath id="clip89"><rect x="3656" y="1724" width="468" height="463"/></clipPath><clipPath id="clip90"><rect x="725" y="1800" width="1014" height="463"/></clipPath><clipPath id="clip91"><rect x="1738" y="1800" width="276" height="463"/></clipPath><clipPath id="clip92"><rect x="2013" y="1800" width="241" height="463"/></clipPath><clipPath id="clip93"><rect x="2253" y="1800" width="469" height="463"/></clipPath><clipPath id="clip94"><rect x="2721" y="1800" width="468" height="463"/></clipPath><clipPath id="clip95"><rect x="3188" y="1800" width="469" height="463"/></clipPath><clipPath id="clip96"><rect x="3656" y="1800" width="468" height="463"/></clipPath><clipPath id="clip97"><rect x="725" y="1876" width="1014" height="463"/></clipPath><clipPath id="clip98"><rect x="1738" y="1876" width="276" height="463"/></clipPath><clipPath id="clip99"><rect x="2013" y="1876" width="241" height="463"/></clipPath><clipPath id="clip100"><rect x="2253" y="1876" width="469" height="463"/></clipPath><clipPath id="clip101"><rect x="2721" y="1876" width="468" height="463"/></clipPath><clipPath id="clip102"><rect x="3188" y="1876" width="469" height="463"/></clipPath><clipPath id="clip103"><rect x="3656" y="1876" width="468" height="463"/></clipPath><clipPath id="clip104"><rect x="2013" y="1951" width="241" height="463"/></clipPath><clipPath id="clip105"><rect x="2253" y="1951" width="469" height="463"/></clipPath><clipPath id="clip106"><rect x="2721" y="1951" width="468" height="463"/></clipPath><clipPath id="clip107"><rect x="3188" y="1951" width="469" height="463"/></clipPath><clipPath id="clip108"><rect x="3656" y="1951" width="468" height="463"/></clipPath></defs><g clip-path="url(#clip0)" transform="translate(-724 -563)"><path d="M725.775 578.854 1738.69 578.854 1738.69 794.729 725.775 794.729Z" fill="#FFFF00" fill-rule="evenodd"/><path d="M1738.69 578.854 2013.69 578.854 2013.69 794.729 1738.69 794.729Z" fill="#FFFF00" fill-rule="evenodd"/><path d="M2013.69 578.854 2253.74 578.854 2253.74 794.729 2013.69 794.729Z" fill="#FFFF00" fill-rule="evenodd"/><path d="M2253.74 578.854 2721.24 578.854 2721.24 659.292 2253.74 659.292Z" fill="#FFFF00" fill-rule="evenodd"/><path d="M2721.24 578.854 3188.74 578.854 3188.74 659.292 2721.24 659.292Z" fill="#FFFF00" fill-rule="evenodd"/><path d="M3188.74 578.854 3656.24 578.854 3656.24 659.292 3188.74 659.292Z" fill="#FFFF00" fill-rule="evenodd"/><path d="M3656.24 578.854 4123.74 578.854 4123.74 659.292 3656.24 659.292Z" fill="#FFFF00" fill-rule="evenodd"/><path d="M2253.74 659.292 2721.24 659.292 2721.24 794.729 2253.74 794.729Z" fill="#FFFF00" fill-rule="evenodd"/><path d="M2721.24 659.292 3188.74 659.292 3188.74 794.729 2721.24 794.729Z" fill="#FFFF00" fill-rule="evenodd"/><path d="M3188.74 659.292 3656.24 659.292 3656.24 794.729 3188.74 794.729Z" fill="#FFFF00" fill-rule="evenodd"/><path d="M3656.24 659.292 4123.74 659.292 4123.74 794.729 3656.24 794.729Z" fill="#FFFF00" fill-rule="evenodd"/><path d="M725.775 794.729 2721.24 794.729 2721.24 870.354 725.775 870.354Z" fill="#92D050" fill-rule="evenodd"/><path d="M2721.24 794.729 3188.74 794.729 3188.74 870.354 2721.24 870.354Z" fill="#92D050" fill-rule="evenodd"/><path d="M3188.74 794.729 3656.24 794.729 3656.24 870.354 3188.74 870.354Z" fill="#92D050" fill-rule="evenodd"/><path d="M3656.24 794.729 4123.74 794.729 4123.74 870.354 3656.24 870.354Z" fill="#92D050" fill-rule="evenodd"/><path d="M725.775 1021.6 1738.69 1021.6 1738.69 1097.23 725.775 1097.23Z" fill="#D9D9D9" fill-rule="evenodd"/><path d="M1738.69 1021.6 2013.69 1021.6 2013.69 1097.23 1738.69 1097.23Z" fill="#D9D9D9" fill-rule="evenodd"/><path d="M2013.69 1021.6 2253.74 1021.6 2253.74 1097.23 2013.69 1097.23Z" fill="#D9D9D9" fill-rule="evenodd"/><path d="M2253.74 1021.6 2721.24 1021.6 2721.24 1097.23 2253.74 1097.23Z" fill="#D9D9D9" fill-rule="evenodd"/><path d="M2721.24 1021.6 3188.74 1021.6 3188.74 1097.23 2721.24 1097.23Z" fill="#D9D9D9" fill-rule="evenodd"/><path d="M3188.74 1021.6 3656.24 1021.6 3656.24 1097.23 3188.74 1097.23Z" fill="#D9D9D9" fill-rule="evenodd"/><path d="M3656.24 1021.6 4123.74 1021.6 4123.74 1097.23 3656.24 1097.23Z" fill="#D9D9D9" fill-rule="evenodd"/><path d="M725.775 1097.23 4123.74 1097.23 4123.74 1172.85 725.775 1172.85Z" fill="#92D050" fill-rule="evenodd"/><path d="M725.775 1324.1 1738.69 1324.1 1738.69 1399.73 725.775 1399.73Z" fill="#D9D9D9" fill-rule="evenodd"/><path d="M1738.69 1324.1 2013.69 1324.1 2013.69 1399.73 1738.69 1399.73Z" fill="#D9D9D9" fill-rule="evenodd"/><path d="M2013.69 1324.1 2253.74 1324.1 2253.74 1399.73 2013.69 1399.73Z" fill="#D9D9D9" fill-rule="evenodd"/><path d="M2253.74 1324.1 2721.24 1324.1 2721.24 1399.73 2253.74 1399.73Z" fill="#D9D9D9" fill-rule="evenodd"/><path d="M2721.24 1324.1 3188.74 1324.1 3188.74 1399.73 2721.24 1399.73Z" fill="#D9D9D9" fill-rule="evenodd"/><path d="M3188.74 1324.1 3656.24 1324.1 3656.24 1399.73 3188.74 1399.73Z" fill="#D9D9D9" fill-rule="evenodd"/><path d="M3656.24 1324.1 4123.74 1324.1 4123.74 1399.73 3656.24 1399.73Z" fill="#D9D9D9" fill-rule="evenodd"/><path d="M725.775 1399.73 2721.24 1399.73 2721.24 1475.35 725.775 1475.35Z" fill="#92D050" fill-rule="evenodd"/><path d="M2721.24 1399.73 3188.74 1399.73 3188.74 1475.35 2721.24 1475.35Z" fill="#92D050" fill-rule="evenodd"/><path d="M3188.74 1399.73 3656.24 1399.73 3656.24 1475.35 3188.74 1475.35Z" fill="#92D050" fill-rule="evenodd"/><path d="M3656.24 1399.73 4123.74 1399.73 4123.74 1475.35 3656.24 1475.35Z" fill="#92D050" fill-rule="evenodd"/><path d="M725.775 2064.54 1738.69 2064.54 1738.69 2140.17 725.775 2140.17Z" fill="#D9D9D9" fill-rule="evenodd"/><path d="M1738.69 2064.54 2013.69 2064.54 2013.69 2140.17 1738.69 2140.17Z" fill="#D9D9D9" fill-rule="evenodd"/><path d="M2013.69 2064.54 2253.74 2064.54 2253.74 2140.17 2013.69 2140.17Z" fill="#D9D9D9" fill-rule="evenodd"/><path d="M2253.74 2064.54 2721.24 2064.54 2721.24 2140.17 2253.74 2140.17Z" fill="#D9D9D9" fill-rule="evenodd"/><path d="M2721.24 2064.54 3188.74 2064.54 3188.74 2140.17 2721.24 2140.17Z" fill="#D9D9D9" fill-rule="evenodd"/><path d="M3188.74 2064.54 3656.24 2064.54 3656.24 2140.17 3188.74 2140.17Z" fill="#D9D9D9" fill-rule="evenodd"/><path d="M3656.24 2064.54 4123.74 2064.54 4123.74 2140.17 3656.24 2140.17Z" fill="#D9D9D9" fill-rule="evenodd"/><path d="M725.775 2140.17 2013.69 2140.17 2013.69 2215.79 725.775 2215.79Z" fill="#D9D9D9" fill-rule="evenodd"/><path d="M2013.69 2140.17 2253.74 2140.17 2253.74 2215.79 2013.69 2215.79Z" fill="#D9D9D9" fill-rule="evenodd"/><path d="M2253.74 2140.17 2721.24 2140.17 2721.24 2215.79 2253.74 2215.79Z" fill="#D9D9D9" fill-rule="evenodd"/><path d="M2721.24 2140.17 3188.74 2140.17 3188.74 2215.79 2721.24 2215.79Z" fill="#D9D9D9" fill-rule="evenodd"/><path d="M3188.74 2140.17 3656.24 2140.17 3656.24 2215.79 3188.74 2215.79Z" fill="#D9D9D9" fill-rule="evenodd"/><path d="M3656.24 2140.17 4123.74 2140.17 4123.74 2215.79 3656.24 2215.79Z" fill="#D9D9D9" fill-rule="evenodd"/><path d="M1738.69 577.709 1738.69 795.875" stroke="#000000" stroke-width="2.29167" stroke-linejoin="round" stroke-miterlimit="10" fill="none" fill-rule="evenodd"/><path d="M1738.69 869.209 1738.69 1098.38" stroke="#000000" stroke-width="2.29167" stroke-linejoin="round" stroke-miterlimit="10" fill="none" fill-rule="evenodd"/><path d="M1738.69 1171.71 1738.69 1400.88" stroke="#000000" stroke-width="2.29167" stroke-linejoin="round" stroke-miterlimit="10" fill="none" fill-rule="evenodd"/><path d="M1738.69 1474.21 1738.69 2141.31" stroke="#000000" stroke-width="2.29167" stroke-linejoin="round" stroke-miterlimit="10" fill="none" fill-rule="evenodd"/><path d="M2013.69 577.709 2013.69 795.875" stroke="#000000" stroke-width="2.29167" stroke-linejoin="round" stroke-miterlimit="10" fill="none" fill-rule="evenodd"/><path d="M2013.69 869.209 2013.69 1098.38" stroke="#000000" stroke-width="2.29167" stroke-linejoin="round" stroke-miterlimit="10" fill="none" fill-rule="evenodd"/><path d="M2013.69 1171.71 2013.69 1400.88" stroke="#000000" stroke-width="2.29167" stroke-linejoin="round" stroke-miterlimit="10" fill="none" fill-rule="evenodd"/><path d="M2013.69 1474.21 2013.69 2216.94" stroke="#000000" stroke-width="2.29167" stroke-linejoin="round" stroke-miterlimit="10" fill="none" fill-rule="evenodd"/><path d="M2253.74 577.709 2253.74 795.875" stroke="#000000" stroke-width="2.29167" stroke-linejoin="round" stroke-miterlimit="10" fill="none" fill-rule="evenodd"/><path d="M2253.74 869.209 2253.74 1098.38" stroke="#000000" stroke-width="2.29167" stroke-linejoin="round" stroke-miterlimit="10" fill="none" fill-rule="evenodd"/><path d="M2253.74 1171.71 2253.74 1400.88" stroke="#000000" stroke-width="2.29167" stroke-linejoin="round" stroke-miterlimit="10" fill="none" fill-rule="evenodd"/><path d="M2253.74 1474.21 2253.74 2216.94" stroke="#000000" stroke-width="2.29167" stroke-linejoin="round" stroke-miterlimit="10" fill="none" fill-rule="evenodd"/><path d="M2721.24 577.709 2721.24 1098.38" stroke="#000000" stroke-width="2.29167" stroke-linejoin="round" stroke-miterlimit="10" fill="none" fill-rule="evenodd"/><path d="M2721.24 1171.71 2721.24 2216.94" stroke="#000000" stroke-width="2.29167" stroke-linejoin="round" stroke-miterlimit="10" fill="none" fill-rule="evenodd"/><path d="M3188.74 577.709 3188.74 1098.38" stroke="#000000" stroke-width="2.29167" stroke-linejoin="round" stroke-miterlimit="10" fill="none" fill-rule="evenodd"/><path d="M3188.74 1171.71 3188.74 2216.94" stroke="#000000" stroke-width="2.29167" stroke-linejoin="round" stroke-miterlimit="10" fill="none" fill-rule="evenodd"/><path d="M3656.24 577.709 3656.24 1098.38" stroke="#000000" stroke-width="2.29167" stroke-linejoin="round" stroke-miterlimit="10" fill="none" fill-rule="evenodd"/><path d="M3656.24 1171.71 3656.24 2216.94" stroke="#000000" stroke-width="2.29167" stroke-linejoin="round" stroke-miterlimit="10" fill="none" fill-rule="evenodd"/><path d="M2252.6 659.292 4124.89 659.292" stroke="#000000" stroke-width="2.29167" stroke-linejoin="round" stroke-miterlimit="10" fill="none" fill-rule="evenodd"/><path d="M724.629 794.729 4124.89 794.729" stroke="#000000" stroke-width="2.29167" stroke-linejoin="round" stroke-miterlimit="10" fill="none" fill-rule="evenodd"/><path d="M724.629 870.354 4124.89 870.354" stroke="#000000" stroke-width="2.29167" stroke-linejoin="round" stroke-miterlimit="10" fill="none" fill-rule="evenodd"/><path d="M724.629 945.979 4124.89 945.979" stroke="#000000" stroke-width="2.29167" stroke-linejoin="round" stroke-miterlimit="10" fill="none" fill-rule="evenodd"/><path d="M724.629 1021.6 4124.89 1021.6" stroke="#000000" stroke-width="2.29167" stroke-linejoin="round" stroke-miterlimit="10" fill="none" fill-rule="evenodd"/><path d="M724.629 1097.23 4124.89 1097.23" stroke="#000000" stroke-width="2.29167" stroke-linejoin="round" stroke-miterlimit="10" fill="none" fill-rule="evenodd"/><path d="M724.629 1172.85 4124.89 1172.85" stroke="#000000" stroke-width="2.29167" stroke-linejoin="round" stroke-miterlimit="10" fill="none" fill-rule="evenodd"/><path d="M724.629 1248.48 4124.89 1248.48" stroke="#000000" stroke-width="2.29167" stroke-linejoin="round" stroke-miterlimit="10" fill="none" fill-rule="evenodd"/><path d="M724.629 1324.1 4124.89 1324.1" stroke="#000000" stroke-width="2.29167" stroke-linejoin="round" stroke-miterlimit="10" fill="none" fill-rule="evenodd"/><path d="M724.629 1399.73 4124.89 1399.73" stroke="#000000" stroke-width="2.29167" stroke-linejoin="round" stroke-miterlimit="10" fill="none" fill-rule="evenodd"/><path d="M724.629 1475.35 4124.89 1475.35" stroke="#000000" stroke-width="2.29167" stroke-linejoin="round" stroke-miterlimit="10" fill="none" fill-rule="evenodd"/><path d="M724.629 1550.98 4124.89 1550.98" stroke="#000000" stroke-width="2.29167" stroke-linejoin="round" stroke-miterlimit="10" fill="none" fill-rule="evenodd"/><path d="M724.629 1626.6 4124.89 1626.6" stroke="#000000" stroke-width="2.29167" stroke-linejoin="round" stroke-miterlimit="10" fill="none" fill-rule="evenodd"/><path d="M724.629 1702.23 4124.89 1702.23" stroke="#000000" stroke-width="2.29167" stroke-linejoin="round" stroke-miterlimit="10" fill="none" fill-rule="evenodd"/><path d="M724.629 1777.85 4124.89 1777.85" stroke="#000000" stroke-width="2.29167" stroke-linejoin="round" stroke-miterlimit="10" fill="none" fill-rule="evenodd"/><path d="M724.629 1853.48 4124.89 1853.48" stroke="#000000" stroke-width="2.29167" stroke-linejoin="round" stroke-miterlimit="10" fill="none" fill-rule="evenodd"/><path d="M724.629 1988.92 4124.89 1988.92" stroke="#000000" stroke-width="2.29167" stroke-linejoin="round" stroke-miterlimit="10" fill="none" fill-rule="evenodd"/><path d="M724.629 2064.54 4124.89 2064.54" stroke="#000000" stroke-width="2.29167" stroke-linejoin="round" stroke-miterlimit="10" fill="none" fill-rule="evenodd"/><path d="M724.629 2140.17 4124.89 2140.17" stroke="#000000" stroke-width="2.29167" stroke-linejoin="round" stroke-miterlimit="10" fill="none" fill-rule="evenodd"/><path d="M725.775 577.709 725.775 2216.94" stroke="#000000" stroke-width="2.29167" stroke-linejoin="round" stroke-miterlimit="10" fill="none" fill-rule="evenodd"/><path d="M4123.74 577.709 4123.74 2216.94" stroke="#000000" stroke-width="2.29167" stroke-linejoin="round" stroke-miterlimit="10" fill="none" fill-rule="evenodd"/><path d="M724.629 578.854 4124.89 578.854" stroke="#000000" stroke-width="2.29167" stroke-linejoin="round" stroke-miterlimit="10" fill="none" fill-rule="evenodd"/><path d="M724.629 2215.79 4124.89 2215.79" stroke="#000000" stroke-width="2.29167" stroke-linejoin="round" stroke-miterlimit="10" fill="none" fill-rule="evenodd"/><text fill="#3333FF" font-family="Century Gothic,Century Gothic_MSFontService,sans-serif" font-weight="700" font-size="55" transform="matrix(1 0 0 1 1094.21 710)">ESTANDAR</text><g clip-path="url(#clip1)"><text fill="#3333FF" font-family="Century Gothic,Century Gothic_MSFontService,sans-serif" font-weight="700" font-size="55" transform="matrix(1 0 0 1 1744.13 710)">CRITERIOS</text></g><text fill="#3333FF" font-family="Century Gothic,Century Gothic_MSFontService,sans-serif" font-weight="700" font-size="55" transform="matrix(1 0 0 1 2066.13 710)">PESO <tspan font-size="64" x="266.064" y="-64">AÑO 2019</tspan><tspan font-size="64" x="733.564" y="-64">AÑO 2020</tspan><tspan font-size="64" x="1201.06" y="-64">AÑO 2021</tspan><tspan font-size="64" x="1668.56" y="-64">AÑO 2022</tspan><tspan font-size="55" x="398.052" y="7">% </tspan><tspan font-size="55" x="221.052" y="73">CUMPLIMIENTO</tspan><tspan font-size="55" x="865.552" y="7">% </tspan><tspan font-size="55" x="688.552" y="73">CUMPLIMIENTO</tspan><tspan font-size="55" x="1333.05" y="7">% </tspan><tspan font-size="55" x="1156.05" y="73">CUMPLIMIENTO</tspan><tspan font-size="55" x="1800.55" y="7">% </tspan><tspan font-size="55" x="1623.55" y="73">CUMPLIMIENTO</tspan></text><g clip-path="url(#clip2)"><text font-family="Century Gothic,Century Gothic_MSFontService,sans-serif" font-weight="700" font-size="55" transform="matrix(1 0 0 1 729.213 858)">CONDICIONES DE CAPACIDAD TECNICO ADMINISTRATIVA</text></g><g clip-path="url(#clip3)"><text font-family="Century Gothic,Century Gothic_MSFontService,sans-serif" font-weight="400" font-size="55" transform="matrix(1 0 0 1 729.213 934)">Existencia y representación legal</text></g><g clip-path="url(#clip4)"><text font-family="Century Gothic,Century Gothic_MSFontService,sans-serif" font-weight="400" font-size="55" transform="matrix(1 0 0 1 1950.13 934)">20</text></g><g clip-path="url(#clip5)"><text font-family="Century Gothic,Century Gothic_MSFontService,sans-serif" font-weight="400" font-size="55" transform="matrix(1 0 0 1 2073.13 934)">44,44%</text></g><g clip-path="url(#clip6)"><text font-family="Century Gothic,Century Gothic_MSFontService,sans-serif" font-weight="400" font-size="55" transform="matrix(1 0 0 1 2584.18 934)">28,89</text></g><g clip-path="url(#clip7)"><text font-family="Century Gothic,Century Gothic_MSFontService,sans-serif" font-weight="400" font-size="55" transform="matrix(1 0 0 1 3051.68 934)">37,77</text></g><g clip-path="url(#clip8)"><text font-family="Century Gothic,Century Gothic_MSFontService,sans-serif" font-weight="400" font-size="55" transform="matrix(1 0 0 1 3519.18 934)">37,77</text></g><g clip-path="url(#clip9)"><text font-family="Century Gothic,Century Gothic_MSFontService,sans-serif" font-weight="400" font-size="55" transform="matrix(1 0 0 1 3986.68 934)">33,33</text></g><g clip-path="url(#clip10)"><text font-family="Century Gothic,Century Gothic_MSFontService,sans-serif" font-weight="400" font-size="55" transform="matrix(1 0 0 1 729.213 1010)">Sistema contable</text></g><g clip-path="url(#clip11)"><text font-family="Century Gothic,Century Gothic_MSFontService,sans-serif" font-weight="400" font-size="55" transform="matrix(1 0 0 1 1950.13 1010)">25</text></g><g clip-path="url(#clip12)"><text font-family="Century Gothic,Century Gothic_MSFontService,sans-serif" font-weight="400" font-size="55" transform="matrix(1 0 0 1 2073.13 1010)">55,56%</text></g><g clip-path="url(#clip13)"><text font-family="Century Gothic,Century Gothic_MSFontService,sans-serif" font-weight="400" font-size="55" transform="matrix(1 0 0 1 2584.18 1010)">26,67</text></g><g clip-path="url(#clip14)"><text font-family="Century Gothic,Century Gothic_MSFontService,sans-serif" font-weight="400" font-size="55" transform="matrix(1 0 0 1 3051.68 1010)">26,67</text></g><g clip-path="url(#clip15)"><text font-family="Century Gothic,Century Gothic_MSFontService,sans-serif" font-weight="400" font-size="55" transform="matrix(1 0 0 1 3519.18 1010)">55,56</text></g><g clip-path="url(#clip16)"><text font-family="Century Gothic,Century Gothic_MSFontService,sans-serif" font-weight="400" font-size="55" transform="matrix(1 0 0 1 3986.68 1010)">55,56</text></g><g clip-path="url(#clip17)"><text font-family="Century Gothic,Century Gothic_MSFontService,sans-serif" font-weight="700" font-size="55" transform="matrix(1 0 0 1 729.213 1085)">SUTOTAL </text></g><g clip-path="url(#clip18)"><text font-family="Century Gothic,Century Gothic_MSFontService,sans-serif" font-weight="700" font-size="55" transform="matrix(1 0 0 1 1948.13 1085)">45</text></g><g clip-path="url(#clip19)"><text font-family="Century Gothic,Century Gothic_MSFontService,sans-serif" font-weight="700" font-size="55" transform="matrix(1 0 0 1 2033.13 1085)">100,00%</text></g><g clip-path="url(#clip20)"><text font-family="Century Gothic,Century Gothic_MSFontService,sans-serif" font-weight="700" font-size="55" transform="matrix(1 0 0 1 2579.18 1085)">55,55</text></g><g clip-path="url(#clip21)"><text font-family="Century Gothic,Century Gothic_MSFontService,sans-serif" font-weight="700" font-size="55" transform="matrix(1 0 0 1 3046.68 1085)">64,44</text></g><g clip-path="url(#clip22)"><text font-family="Century Gothic,Century Gothic_MSFontService,sans-serif" font-weight="700" font-size="55" transform="matrix(1 0 0 1 3514.18 1085)">93,33</text></g><g clip-path="url(#clip23)"><text font-family="Century Gothic,Century Gothic_MSFontService,sans-serif" font-weight="700" font-size="55" transform="matrix(1 0 0 1 3981.68 1085)">88,89</text></g><g clip-path="url(#clip24)"><text font-family="Century Gothic,Century Gothic_MSFontService,sans-serif" font-weight="700" font-size="55" transform="matrix(1 0 0 1 729.213 1161)">CONDICIONES DE SUFICIENCIA PATRIMONIAL Y FINANCIERA</text></g><g clip-path="url(#clip25)"><text font-family="Century Gothic,Century Gothic_MSFontService,sans-serif" font-weight="400" font-size="55" transform="matrix(1 0 0 1 729.213 1236)">Suficiencia patrimonial</text></g><g clip-path="url(#clip26)"><text font-family="Century Gothic,Century Gothic_MSFontService,sans-serif" font-weight="400" font-size="55" transform="matrix(1 0 0 1 1980.13 1236)">2</text></g><g clip-path="url(#clip27)"><text font-family="Century Gothic,Century Gothic_MSFontService,sans-serif" font-weight="400" font-size="55" transform="matrix(1 0 0 1 2073.13 1236)">33,33%</text></g><g clip-path="url(#clip28)"><text font-family="Century Gothic,Century Gothic_MSFontService,sans-serif" font-weight="400" font-size="55" transform="matrix(1 0 0 1 2584.18 1236)">16,67</text></g><g clip-path="url(#clip29)"><text font-family="Century Gothic,Century Gothic_MSFontService,sans-serif" font-weight="400" font-size="55" transform="matrix(1 0 0 1 3051.68 1236)">33,33</text></g><g clip-path="url(#clip30)"><text font-family="Century Gothic,Century Gothic_MSFontService,sans-serif" font-weight="400" font-size="55" transform="matrix(1 0 0 1 3519.18 1236)">33,33</text></g><g clip-path="url(#clip31)"><text font-family="Century Gothic,Century Gothic_MSFontService,sans-serif" font-weight="400" font-size="55" transform="matrix(1 0 0 1 3986.68 1236)">33,33</text></g><g clip-path="url(#clip32)"><text font-family="Century Gothic,Century Gothic_MSFontService,sans-serif" font-weight="400" font-size="55" transform="matrix(1 0 0 1 729.213 1312)">Indicadores financieros</text></g><g clip-path="url(#clip33)"><text font-family="Century Gothic,Century Gothic_MSFontService,sans-serif" font-weight="400" font-size="55" transform="matrix(1 0 0 1 1980.13 1312)">4</text></g><g clip-path="url(#clip34)"><text font-family="Century Gothic,Century Gothic_MSFontService,sans-serif" font-weight="400" font-size="55" transform="matrix(1 0 0 1 2073.13 1312)">66,67%</text></g><g clip-path="url(#clip35)"><text font-family="Century Gothic,Century Gothic_MSFontService,sans-serif" font-weight="400" font-size="55" transform="matrix(1 0 0 1 2614.18 1312)">0,00</text></g><g clip-path="url(#clip36)"><text font-family="Century Gothic,Century Gothic_MSFontService,sans-serif" font-weight="400" font-size="55" transform="matrix(1 0 0 1 3051.68 1312)">33,34</text></g><g clip-path="url(#clip37)"><text font-family="Century Gothic,Century Gothic_MSFontService,sans-serif" font-weight="400" font-size="55" transform="matrix(1 0 0 1 3519.18 1312)">33,34</text></g><g clip-path="url(#clip38)"><text font-family="Century Gothic,Century Gothic_MSFontService,sans-serif" font-weight="400" font-size="55" transform="matrix(1 0 0 1 3986.68 1312)">33,34</text></g><g clip-path="url(#clip39)"><text font-family="Century Gothic,Century Gothic_MSFontService,sans-serif" font-weight="700" font-size="55" transform="matrix(1 0 0 1 729.213 1388)">SUBTOTAL</text></g><g clip-path="url(#clip40)"><text font-family="Century Gothic,Century Gothic_MSFontService,sans-serif" font-weight="700" font-size="55" transform="matrix(1 0 0 1 1979.13 1388)">6</text></g><g clip-path="url(#clip41)"><text font-family="Century Gothic,Century Gothic_MSFontService,sans-serif" font-weight="700" font-size="55" transform="matrix(1 0 0 1 2033.13 1388)">100,00%</text></g><g clip-path="url(#clip42)"><text font-family="Century Gothic,Century Gothic_MSFontService,sans-serif" font-weight="700" font-size="55" transform="matrix(1 0 0 1 2579.18 1388)">16,67</text></g><g clip-path="url(#clip43)"><text font-family="Century Gothic,Century Gothic_MSFontService,sans-serif" font-weight="700" font-size="55" transform="matrix(1 0 0 1 3046.68 1388)">66,67</text></g><g clip-path="url(#clip44)"><text font-family="Century Gothic,Century Gothic_MSFontService,sans-serif" font-weight="700" font-size="55" transform="matrix(1 0 0 1 3514.18 1388)">66,67</text></g><g clip-path="url(#clip45)"><text font-family="Century Gothic,Century Gothic_MSFontService,sans-serif" font-weight="700" font-size="55" transform="matrix(1 0 0 1 3981.68 1388)">66,67</text></g><g clip-path="url(#clip46)"><text font-family="Century Gothic,Century Gothic_MSFontService,sans-serif" font-weight="700" font-size="55" transform="matrix(1 0 0 1 729.213 1463)">CONDICIONES DE CAPACIDAD TECNICO CIENTIFICA</text></g><g clip-path="url(#clip47)"><text font-family="Century Gothic,Century Gothic_MSFontService,sans-serif" font-weight="400" font-size="55" transform="matrix(1 0 0 1 729.213 1539)">Talento humano</text></g><g clip-path="url(#clip48)"><text font-family="Century Gothic,Century Gothic_MSFontService,sans-serif" font-weight="400" font-size="55" transform="matrix(1 0 0 1 1950.13 1539)">40</text></g><g clip-path="url(#clip49)"><text font-family="Century Gothic,Century Gothic_MSFontService,sans-serif" font-weight="400" font-size="55" transform="matrix(1 0 0 1 2073.13 1539)">11,59%</text></g><g clip-path="url(#clip50)"><text font-family="Century Gothic,Century Gothic_MSFontService,sans-serif" font-weight="400" font-size="55" transform="matrix(1 0 0 1 2614.18 1539)">0,58</text></g><g clip-path="url(#clip51)"><text font-family="Century Gothic,Century Gothic_MSFontService,sans-serif" font-weight="400" font-size="55" transform="matrix(1 0 0 1 3081.68 1539)">5,80</text></g><g clip-path="url(#clip52)"><text font-family="Century Gothic,Century Gothic_MSFontService,sans-serif" font-weight="400" font-size="55" transform="matrix(1 0 0 1 3549.18 1539)">5,80</text></g><g clip-path="url(#clip53)"><text font-family="Century Gothic,Century Gothic_MSFontService,sans-serif" font-weight="400" font-size="55" transform="matrix(1 0 0 1 4016.68 1539)">7,82</text></g><g clip-path="url(#clip54)"><text font-family="Century Gothic,Century Gothic_MSFontService,sans-serif" font-weight="400" font-size="55" transform="matrix(1 0 0 1 729.213 1615)">Infraestructura</text></g><g clip-path="url(#clip55)"><text font-family="Century Gothic,Century Gothic_MSFontService,sans-serif" font-weight="400" font-size="55" transform="matrix(1 0 0 1 1950.13 1615)">60</text></g><g clip-path="url(#clip56)"><text font-family="Century Gothic,Century Gothic_MSFontService,sans-serif" font-weight="400" font-size="55" transform="matrix(1 0 0 1 2073.13 1615)">17,39%</text></g><g clip-path="url(#clip57)"><text font-family="Century Gothic,Century Gothic_MSFontService,sans-serif" font-weight="400" font-size="55" transform="matrix(1 0 0 1 2614.18 1615)">1,45</text></g><g clip-path="url(#clip58)"><text font-family="Century Gothic,Century Gothic_MSFontService,sans-serif" font-weight="400" font-size="55" transform="matrix(1 0 0 1 3081.68 1615)">9,27</text></g><g clip-path="url(#clip59)"><text font-family="Century Gothic,Century Gothic_MSFontService,sans-serif" font-weight="400" font-size="55" transform="matrix(1 0 0 1 3549.18 1615)">9,27</text></g><g clip-path="url(#clip60)"><text font-family="Century Gothic,Century Gothic_MSFontService,sans-serif" font-weight="400" font-size="55" transform="matrix(1 0 0 1 3986.68 1615)">13,04</text></g><g clip-path="url(#clip61)"><text font-family="Century Gothic,Century Gothic_MSFontService,sans-serif" font-weight="400" font-size="55" transform="matrix(1 0 0 1 729.213 1690)">Dotacion </text></g><g clip-path="url(#clip62)"><text font-family="Century Gothic,Century Gothic_MSFontService,sans-serif" font-weight="400" font-size="55" transform="matrix(1 0 0 1 1950.13 1690)">50</text></g><g clip-path="url(#clip63)"><text font-family="Century Gothic,Century Gothic_MSFontService,sans-serif" font-weight="400" font-size="55" transform="matrix(1 0 0 1 2073.13 1690)">14,49%</text></g><g clip-path="url(#clip64)"><text font-family="Century Gothic,Century Gothic_MSFontService,sans-serif" font-weight="400" font-size="55" transform="matrix(1 0 0 1 2614.18 1690)">1,74</text></g><g clip-path="url(#clip65)"><text font-family="Century Gothic,Century Gothic_MSFontService,sans-serif" font-weight="400" font-size="55" transform="matrix(1 0 0 1 3081.68 1690)">8,69</text></g><g clip-path="url(#clip66)"><text font-family="Century Gothic,Century Gothic_MSFontService,sans-serif" font-weight="400" font-size="55" transform="matrix(1 0 0 1 3549.18 1690)">8,69</text></g><g clip-path="url(#clip67)"><text font-family="Century Gothic,Century Gothic_MSFontService,sans-serif" font-weight="400" font-size="55" transform="matrix(1 0 0 1 3986.68 1690)">13,04</text></g><g clip-path="url(#clip68)"><text font-family="Century Gothic,Century Gothic_MSFontService,sans-serif" font-weight="400" font-size="55" transform="matrix(1 0 0 1 729.213 1766)">Medicamentos y Dispositivos medicos</text></g><g clip-path="url(#clip69)"><text font-family="Century Gothic,Century Gothic_MSFontService,sans-serif" font-weight="400" font-size="55" transform="matrix(1 0 0 1 1950.13 1766)">50</text></g><g clip-path="url(#clip70)"><text font-family="Century Gothic,Century Gothic_MSFontService,sans-serif" font-weight="400" font-size="55" transform="matrix(1 0 0 1 2073.13 1766)">14,49%</text></g><g clip-path="url(#clip71)"><text font-family="Century Gothic,Century Gothic_MSFontService,sans-serif" font-weight="400" font-size="55" transform="matrix(1 0 0 1 2614.18 1766)">0,29</text></g><g clip-path="url(#clip72)"><text font-family="Century Gothic,Century Gothic_MSFontService,sans-serif" font-weight="400" font-size="55" transform="matrix(1 0 0 1 3081.68 1766)">4,64</text></g><g clip-path="url(#clip73)"><text font-family="Century Gothic,Century Gothic_MSFontService,sans-serif" font-weight="400" font-size="55" transform="matrix(1 0 0 1 3549.18 1766)">4,64</text></g><g clip-path="url(#clip74)"><text font-family="Century Gothic,Century Gothic_MSFontService,sans-serif" font-weight="400" font-size="55" transform="matrix(1 0 0 1 3986.68 1766)">11,30</text></g><g clip-path="url(#clip75)"><text font-family="Century Gothic,Century Gothic_MSFontService,sans-serif" font-weight="400" font-size="55" transform="matrix(1 0 0 1 729.213 1841)">Procesos prioritarios</text></g><g clip-path="url(#clip76)"><text font-family="Century Gothic,Century Gothic_MSFontService,sans-serif" font-weight="400" font-size="55" transform="matrix(1 0 0 1 1950.13 1841)">85</text></g><g clip-path="url(#clip77)"><text font-family="Century Gothic,Century Gothic_MSFontService,sans-serif" font-weight="400" font-size="55" transform="matrix(1 0 0 1 2073.13 1841)">24,64%</text></g><g clip-path="url(#clip78)"><text font-family="Century Gothic,Century Gothic_MSFontService,sans-serif" font-weight="400" font-size="55" transform="matrix(1 0 0 1 2614.18 1841)">2,61</text></g><g clip-path="url(#clip79)"><text font-family="Century Gothic,Century Gothic_MSFontService,sans-serif" font-weight="400" font-size="55" transform="matrix(1 0 0 1 3081.68 1841)">8,12</text></g><g clip-path="url(#clip80)"><text font-family="Century Gothic,Century Gothic_MSFontService,sans-serif" font-weight="400" font-size="55" transform="matrix(1 0 0 1 3549.18 1841)">8,12</text></g><g clip-path="url(#clip81)"><text font-family="Century Gothic,Century Gothic_MSFontService,sans-serif" font-weight="400" font-size="55" transform="matrix(1 0 0 1 3986.68 1841)">18,55</text></g><g clip-path="url(#clip82)"><text font-family="Century Gothic,Century Gothic_MSFontService,sans-serif" font-weight="400" font-size="55" transform="matrix(1 0 0 1 729.213 1911)">Historia Clinica y Registros </text></g><g clip-path="url(#clip83)"><text font-family="Century Gothic,Century Gothic_MSFontService,sans-serif" font-weight="400" font-size="55" transform="matrix(1 0 0 1 729.213 1977)">asistenciales</text></g><g clip-path="url(#clip84)"><text font-family="Century Gothic,Century Gothic_MSFontService,sans-serif" font-weight="400" font-size="55" transform="matrix(1 0 0 1 1950.13 1977)">55</text></g><g clip-path="url(#clip85)"><text font-family="Century Gothic,Century Gothic_MSFontService,sans-serif" font-weight="400" font-size="55" transform="matrix(1 0 0 1 2073.13 1977)">15,94%</text></g><g clip-path="url(#clip86)"><text font-family="Century Gothic,Century Gothic_MSFontService,sans-serif" font-weight="400" font-size="55" transform="matrix(1 0 0 1 2614.18 1977)">2,03</text></g><g clip-path="url(#clip87)"><text font-family="Century Gothic,Century Gothic_MSFontService,sans-serif" font-weight="400" font-size="55" transform="matrix(1 0 0 1 3081.68 1977)">2,90</text></g><g clip-path="url(#clip88)"><text font-family="Century Gothic,Century Gothic_MSFontService,sans-serif" font-weight="400" font-size="55" transform="matrix(1 0 0 1 3549.18 1977)">2,90</text></g><g clip-path="url(#clip89)"><text font-family="Century Gothic,Century Gothic_MSFontService,sans-serif" font-weight="400" font-size="55" transform="matrix(1 0 0 1 4016.68 1977)">4,35</text></g><g clip-path="url(#clip90)"><text font-family="Century Gothic,Century Gothic_MSFontService,sans-serif" font-weight="400" font-size="55" transform="matrix(1 0 0 1 729.213 2053)">Interdependencia de servicios</text></g><g clip-path="url(#clip91)"><text font-family="Century Gothic,Century Gothic_MSFontService,sans-serif" font-weight="400" font-size="55" transform="matrix(1 0 0 1 1980.13 2053)">5</text></g><g clip-path="url(#clip92)"><text font-family="Century Gothic,Century Gothic_MSFontService,sans-serif" font-weight="400" font-size="55" transform="matrix(1 0 0 1 2103.13 2053)">1,45%</text></g><g clip-path="url(#clip93)"><text font-family="Century Gothic,Century Gothic_MSFontService,sans-serif" font-weight="400" font-size="55" transform="matrix(1 0 0 1 2614.18 2053)">0,87</text></g><g clip-path="url(#clip94)"><text font-family="Century Gothic,Century Gothic_MSFontService,sans-serif" font-weight="400" font-size="55" transform="matrix(1 0 0 1 3081.68 2053)">0,87</text></g><g clip-path="url(#clip95)"><text font-family="Century Gothic,Century Gothic_MSFontService,sans-serif" font-weight="400" font-size="55" transform="matrix(1 0 0 1 3549.18 2053)">0,87</text></g><g clip-path="url(#clip96)"><text font-family="Century Gothic,Century Gothic_MSFontService,sans-serif" font-weight="400" font-size="55" transform="matrix(1 0 0 1 4016.68 2053)">1,16</text></g><g clip-path="url(#clip97)"><text font-family="Century Gothic,Century Gothic_MSFontService,sans-serif" font-weight="700" font-size="55" transform="matrix(1 0 0 1 729.213 2128)">SUBTOTAL</text></g><g clip-path="url(#clip98)"><text font-family="Century Gothic,Century Gothic_MSFontService,sans-serif" font-weight="700" font-size="55" transform="matrix(1 0 0 1 1917.13 2128)">345</text></g><g clip-path="url(#clip99)"><text font-family="Century Gothic,Century Gothic_MSFontService,sans-serif" font-weight="700" font-size="55" transform="matrix(1 0 0 1 2033.13 2128)">100,00%</text></g><g clip-path="url(#clip100)"><text font-family="Century Gothic,Century Gothic_MSFontService,sans-serif" font-weight="700" font-size="55" transform="matrix(1 0 0 1 2610.18 2128)">9,56</text></g><g clip-path="url(#clip101)"><text font-family="Century Gothic,Century Gothic_MSFontService,sans-serif" font-weight="700" font-size="55" transform="matrix(1 0 0 1 3046.68 2128)">40,29</text></g><g clip-path="url(#clip102)"><text font-family="Century Gothic,Century Gothic_MSFontService,sans-serif" font-weight="700" font-size="55" transform="matrix(1 0 0 1 3514.18 2128)">40,29</text></g><g clip-path="url(#clip103)"><text font-family="Century Gothic,Century Gothic_MSFontService,sans-serif" font-weight="700" font-size="55" transform="matrix(1 0 0 1 3981.68 2128)">69,26</text></g><text fill="#FF0000" font-family="Century Gothic,Century Gothic_MSFontService,sans-serif" font-weight="700" font-size="55" transform="matrix(1 0 0 1 1162.21 2204)">TOTAL GENERAL</text><g clip-path="url(#clip104)"><text fill="#FF0000" font-family="Century Gothic,Century Gothic_MSFontService,sans-serif" font-weight="700" font-size="55" transform="matrix(1 0 0 1 2033.13 2204)">100,00%</text></g><g clip-path="url(#clip105)"><text fill="#FF0000" font-family="Century Gothic,Century Gothic_MSFontService,sans-serif" font-weight="700" font-size="55" transform="matrix(1 0 0 1 2579.18 2204)">27,26</text></g><g clip-path="url(#clip106)"><text fill="#FF0000" font-family="Century Gothic,Century Gothic_MSFontService,sans-serif" font-weight="700" font-size="55" transform="matrix(1 0 0 1 3046.68 2204)">57,13</text></g><g clip-path="url(#clip107)"><text fill="#FF0000" font-family="Century Gothic,Century Gothic_MSFontService,sans-serif" font-weight="700" font-size="55" transform="matrix(1 0 0 1 3514.18 2204)">66,76</text></g><g clip-path="url(#clip108)"><text fill="#FF0000" font-family="Century Gothic,Century Gothic_MSFontService,sans-serif" font-weight="700" font-size="55" transform="matrix(1 0 0 1 3981.68 2204)">74,94</text></g></g></svg>