<svg width="944" height="246" xmlns="http://www.w3.org/2000/svg" xmlns:xlink="http://www.w3.org/1999/xlink" overflow="hidden"><defs><clipPath id="clip0"><rect x="2523" y="1657" width="944" height="246"/></clipPath><clipPath id="clip1"><rect x="2524" y="1506" width="511" height="617"/></clipPath><clipPath id="clip2"><rect x="3034" y="1506" width="431" height="617"/></clipPath></defs><g clip-path="url(#clip0)" transform="translate(-2523 -1657)"><path d="M2524.77 1675.63 3464.35 1675.63 3464.35 1767.07 2524.77 1767.07Z" fill="#FFFF00" fill-rule="evenodd"/><path d="M3034.14 1767.07 3464.35 1767.07 3464.35 1859.88 3034.14 1859.88Z" fill="#92D050" fill-rule="evenodd"/><path d="M3034.14 1765.92 3034.14 1861.03" stroke="#000000" stroke-width="2.29167" stroke-linejoin="round" stroke-miterlimit="10" fill="none" fill-rule="evenodd"/><path d="M2523.63 1767.07 3465.5 1767.07" stroke="#000000" stroke-width="2.29167" stroke-linejoin="round" stroke-miterlimit="10" fill="none" fill-rule="evenodd"/><path d="M2524.77 1674.49 2524.77 1861.03" stroke="#000000" stroke-width="2.29167" stroke-linejoin="round" stroke-miterlimit="10" fill="none" fill-rule="evenodd"/><path d="M3464.35 1674.49 3464.35 1861.03" stroke="#000000" stroke-width="2.29167" stroke-linejoin="round" stroke-miterlimit="10" fill="none" fill-rule="evenodd"/><path d="M2523.63 1675.63 3465.5 1675.63" stroke="#000000" stroke-width="2.29167" stroke-linejoin="round" stroke-miterlimit="10" fill="none" fill-rule="evenodd"/><path d="M2523.63 1859.88 3465.5 1859.88" stroke="#000000" stroke-width="2.29167" stroke-linejoin="round" stroke-miterlimit="10" fill="none" fill-rule="evenodd"/><text fill="#3333FF" font-family="Century Gothic,Century Gothic_MSFontService,sans-serif" font-weight="700" font-size="73" transform="matrix(1 0 0 1 2785.74 1752)">VARIACION</text><g clip-path="url(#clip1)"><text font-family="Century Gothic,Century Gothic_MSFontService,sans-serif" font-weight="400" font-size="73" transform="matrix(1 0 0 1 2548.26 1842)">$ 12.515.750 </text></g><g clip-path="url(#clip2)"><text font-family="Century Gothic,Century Gothic_MSFontService,sans-serif" font-weight="700" font-size="73" transform="matrix(1 0 0 1 3314.87 1844)">14%</text></g></g></svg>