<svg width="3376" height="1175" xmlns="http://www.w3.org/2000/svg" xmlns:xlink="http://www.w3.org/1999/xlink" overflow="hidden"><defs><clipPath id="clip0"><rect x="936" y="135" width="3376" height="1175"/></clipPath><clipPath id="clip1"><rect x="2106" y="131" width="409" height="463"/></clipPath><clipPath id="clip2"><rect x="2514" y="131" width="424" height="463"/></clipPath><clipPath id="clip3"><rect x="2937" y="131" width="217" height="463"/></clipPath><clipPath id="clip4"><rect x="3661" y="131" width="430" height="463"/></clipPath><clipPath id="clip5"><rect x="4090" y="131" width="218" height="463"/></clipPath><clipPath id="clip6"><rect x="938" y="222" width="1169" height="425"/></clipPath><clipPath id="clip7"><rect x="2106" y="222" width="409" height="425"/></clipPath><clipPath id="clip8"><rect x="2514" y="222" width="424" height="425"/></clipPath><clipPath id="clip9"><rect x="2937" y="222" width="217" height="425"/></clipPath><clipPath id="clip10"><rect x="3153" y="222" width="509" height="425"/></clipPath><clipPath id="clip11"><rect x="3661" y="222" width="430" height="425"/></clipPath><clipPath id="clip12"><rect x="4090" y="222" width="218" height="425"/></clipPath><clipPath id="clip13"><rect x="938" y="303" width="1169" height="424"/></clipPath><clipPath id="clip14"><rect x="2106" y="303" width="409" height="424"/></clipPath><clipPath id="clip15"><rect x="2514" y="303" width="424" height="424"/></clipPath><clipPath id="clip16"><rect x="2937" y="303" width="217" height="424"/></clipPath><clipPath id="clip17"><rect x="3153" y="303" width="509" height="424"/></clipPath><clipPath id="clip18"><rect x="3661" y="303" width="430" height="424"/></clipPath><clipPath id="clip19"><rect x="4090" y="303" width="218" height="424"/></clipPath><clipPath id="clip20"><rect x="938" y="383" width="1169" height="425"/></clipPath><clipPath id="clip21"><rect x="2106" y="383" width="409" height="425"/></clipPath><clipPath id="clip22"><rect x="2514" y="383" width="424" height="425"/></clipPath><clipPath id="clip23"><rect x="2937" y="383" width="217" height="425"/></clipPath><clipPath id="clip24"><rect x="3153" y="383" width="509" height="425"/></clipPath><clipPath id="clip25"><rect x="3661" y="383" width="430" height="425"/></clipPath><clipPath id="clip26"><rect x="4090" y="383" width="218" height="425"/></clipPath><clipPath id="clip27"><rect x="938" y="464" width="1169" height="424"/></clipPath><clipPath id="clip28"><rect x="2106" y="464" width="409" height="424"/></clipPath><clipPath id="clip29"><rect x="2514" y="464" width="424" height="424"/></clipPath><clipPath id="clip30"><rect x="2937" y="464" width="217" height="424"/></clipPath><clipPath id="clip31"><rect x="3153" y="464" width="509" height="424"/></clipPath><clipPath id="clip32"><rect x="3661" y="464" width="430" height="424"/></clipPath><clipPath id="clip33"><rect x="4090" y="464" width="218" height="424"/></clipPath><clipPath id="clip34"><rect x="938" y="444" width="1169" height="848"/></clipPath><clipPath id="clip35"><rect x="938" y="444" width="1169" height="848"/></clipPath><clipPath id="clip36"><rect x="2106" y="625" width="409" height="425"/></clipPath><clipPath id="clip37"><rect x="2514" y="625" width="424" height="425"/></clipPath><clipPath id="clip38"><rect x="2937" y="625" width="217" height="425"/></clipPath><clipPath id="clip39"><rect x="3153" y="625" width="509" height="425"/></clipPath><clipPath id="clip40"><rect x="3661" y="625" width="430" height="425"/></clipPath><clipPath id="clip41"><rect x="4090" y="625" width="218" height="425"/></clipPath><clipPath id="clip42"><rect x="938" y="786" width="1169" height="425"/></clipPath><clipPath id="clip43"><rect x="2106" y="786" width="409" height="425"/></clipPath><clipPath id="clip44"><rect x="2514" y="786" width="424" height="425"/></clipPath><clipPath id="clip45"><rect x="2937" y="786" width="217" height="425"/></clipPath><clipPath id="clip46"><rect x="3153" y="786" width="509" height="425"/></clipPath><clipPath id="clip47"><rect x="3661" y="786" width="430" height="425"/></clipPath><clipPath id="clip48"><rect x="4090" y="786" width="218" height="425"/></clipPath><clipPath id="clip49"><rect x="938" y="948" width="1169" height="424"/></clipPath><clipPath id="clip50"><rect x="2106" y="948" width="409" height="424"/></clipPath><clipPath id="clip51"><rect x="2514" y="948" width="424" height="424"/></clipPath><clipPath id="clip52"><rect x="2937" y="948" width="217" height="424"/></clipPath><clipPath id="clip53"><rect x="3153" y="948" width="509" height="424"/></clipPath><clipPath id="clip54"><rect x="3661" y="948" width="430" height="424"/></clipPath><clipPath id="clip55"><rect x="4090" y="948" width="218" height="424"/></clipPath><clipPath id="clip56"><rect x="2106" y="1012" width="409" height="463"/></clipPath><clipPath id="clip57"><rect x="2514" y="1012" width="424" height="463"/></clipPath><clipPath id="clip58"><rect x="2937" y="1028" width="217" height="425"/></clipPath><clipPath id="clip59"><rect x="3153" y="1012" width="509" height="463"/></clipPath><clipPath id="clip60"><rect x="3661" y="1012" width="430" height="463"/></clipPath><clipPath id="clip61"><rect x="4090" y="1028" width="218" height="425"/></clipPath></defs><g clip-path="url(#clip0)" transform="translate(-936 -135)"><path d="M938.537 140.471 4307.29 140.471 4307.29 232.086 938.537 232.086Z" fill="#92D050" fill-rule="evenodd"/><path d="M938.537 232.086 2106.1 232.086 2106.1 400.659 938.537 400.659Z" fill="#92D050" fill-rule="evenodd"/><path d="M2106.1 232.086 3153.46 232.086 3153.46 320.038 2106.1 320.038Z" fill="#92D050" fill-rule="evenodd"/><path d="M3153.46 232.086 4307.29 232.086 4307.29 320.038 3153.46 320.038Z" fill="#92D050" fill-rule="evenodd"/><path d="M2106.1 320.038 2514.74 320.038 2514.74 400.659 2106.1 400.659Z" fill="#FFFF00" fill-rule="evenodd"/><path d="M2514.74 320.038 2937.12 320.038 2937.12 400.659 2514.74 400.659Z" fill="#FFFF00" fill-rule="evenodd"/><path d="M2937.12 320.038 3153.46 320.038 3153.46 400.659 2937.12 400.659Z" fill="#FFFF00" fill-rule="evenodd"/><path d="M3153.46 320.038 3661.7 320.038 3661.7 400.659 3153.46 400.659Z" fill="#FFFF00" fill-rule="evenodd"/><path d="M3661.7 320.038 4090.95 320.038 4090.95 400.659 3661.7 400.659Z" fill="#FFFF00" fill-rule="evenodd"/><path d="M4090.95 320.038 4307.29 320.038 4307.29 400.659 4090.95 400.659Z" fill="#FFFF00" fill-rule="evenodd"/><path d="M2106.1 400.659 2514.74 400.659 2514.74 481.281 2106.1 481.281Z" fill="#FFF2CC" fill-rule="evenodd"/><path d="M2514.74 400.659 2937.12 400.659 2937.12 481.281 2514.74 481.281Z" fill="#FFF2CC" fill-rule="evenodd"/><path d="M2937.12 400.659 3153.46 400.659 3153.46 481.281 2937.12 481.281Z" fill="#FFF2CC" fill-rule="evenodd"/><path d="M3153.46 400.659 3661.7 400.659 3661.7 481.281 3153.46 481.281Z" fill="#DDEBF7" fill-rule="evenodd"/><path d="M3661.7 400.659 4090.95 400.659 4090.95 481.281 3661.7 481.281Z" fill="#DDEBF7" fill-rule="evenodd"/><path d="M4090.95 400.659 4307.29 400.659 4307.29 481.281 4090.95 481.281Z" fill="#DDEBF7" fill-rule="evenodd"/><path d="M2106.1 481.281 2514.74 481.281 2514.74 561.903 2106.1 561.903Z" fill="#FFF2CC" fill-rule="evenodd"/><path d="M2514.74 481.281 2937.12 481.281 2937.12 561.903 2514.74 561.903Z" fill="#FFF2CC" fill-rule="evenodd"/><path d="M2937.12 481.281 3153.46 481.281 3153.46 561.903 2937.12 561.903Z" fill="#FFF2CC" fill-rule="evenodd"/><path d="M3153.46 481.281 3661.7 481.281 3661.7 561.903 3153.46 561.903Z" fill="#DDEBF7" fill-rule="evenodd"/><path d="M3661.7 481.281 4090.95 481.281 4090.95 561.903 3661.7 561.903Z" fill="#DDEBF7" fill-rule="evenodd"/><path d="M4090.95 481.281 4307.29 481.281 4307.29 561.903 4090.95 561.903Z" fill="#DDEBF7" fill-rule="evenodd"/><path d="M2106.1 561.903 2514.74 561.903 2514.74 642.525 2106.1 642.525Z" fill="#FFF2CC" fill-rule="evenodd"/><path d="M2514.74 561.903 2937.12 561.903 2937.12 642.525 2514.74 642.525Z" fill="#FFF2CC" fill-rule="evenodd"/><path d="M2937.12 561.903 3153.46 561.903 3153.46 642.525 2937.12 642.525Z" fill="#FFF2CC" fill-rule="evenodd"/><path d="M3153.46 561.903 3661.7 561.903 3661.7 642.525 3153.46 642.525Z" fill="#DDEBF7" fill-rule="evenodd"/><path d="M3661.7 561.903 4090.95 561.903 4090.95 642.525 3661.7 642.525Z" fill="#DDEBF7" fill-rule="evenodd"/><path d="M4090.95 561.903 4307.29 561.903 4307.29 642.525 4090.95 642.525Z" fill="#DDEBF7" fill-rule="evenodd"/><path d="M2106.1 642.525 2514.74 642.525 2514.74 803.769 2106.1 803.769Z" fill="#FFF2CC" fill-rule="evenodd"/><path d="M2514.74 642.525 2937.12 642.525 2937.12 803.769 2514.74 803.769Z" fill="#FFF2CC" fill-rule="evenodd"/><path d="M2937.12 642.525 3153.46 642.525 3153.46 803.769 2937.12 803.769Z" fill="#FFF2CC" fill-rule="evenodd"/><path d="M3153.46 642.525 3661.7 642.525 3661.7 803.769 3153.46 803.769Z" fill="#DDEBF7" fill-rule="evenodd"/><path d="M3661.7 642.525 4090.95 642.525 4090.95 803.769 3661.7 803.769Z" fill="#DDEBF7" fill-rule="evenodd"/><path d="M4090.95 642.525 4307.29 642.525 4307.29 803.769 4090.95 803.769Z" fill="#DDEBF7" fill-rule="evenodd"/><path d="M2106.1 803.769 2514.74 803.769 2514.74 965.013 2106.1 965.013Z" fill="#FFF2CC" fill-rule="evenodd"/><path d="M2514.74 803.769 2937.12 803.769 2937.12 965.013 2514.74 965.013Z" fill="#FFF2CC" fill-rule="evenodd"/><path d="M2937.12 803.769 3153.46 803.769 3153.46 965.013 2937.12 965.013Z" fill="#FFF2CC" fill-rule="evenodd"/><path d="M3153.46 803.769 3661.7 803.769 3661.7 965.013 3153.46 965.013Z" fill="#DDEBF7" fill-rule="evenodd"/><path d="M3661.7 803.769 4090.95 803.769 4090.95 965.013 3661.7 965.013Z" fill="#DDEBF7" fill-rule="evenodd"/><path d="M4090.95 803.769 4307.29 803.769 4307.29 965.013 4090.95 965.013Z" fill="#DDEBF7" fill-rule="evenodd"/><path d="M2106.1 965.013 2514.74 965.013 2514.74 1126.26 2106.1 1126.26Z" fill="#FFF2CC" fill-rule="evenodd"/><path d="M2514.74 965.013 2937.12 965.013 2937.12 1126.26 2514.74 1126.26Z" fill="#FFF2CC" fill-rule="evenodd"/><path d="M2937.12 965.013 3153.46 965.013 3153.46 1126.26 2937.12 1126.26Z" fill="#FFF2CC" fill-rule="evenodd"/><path d="M3153.46 965.013 3661.7 965.013 3661.7 1126.26 3153.46 1126.26Z" fill="#DDEBF7" fill-rule="evenodd"/><path d="M3661.7 965.013 4090.95 965.013 4090.95 1126.26 3661.7 1126.26Z" fill="#DDEBF7" fill-rule="evenodd"/><path d="M4090.95 965.013 4307.29 965.013 4307.29 1126.26 4090.95 1126.26Z" fill="#DDEBF7" fill-rule="evenodd"/><path d="M2106.1 1126.26 2514.74 1126.26 2514.74 1206.88 2106.1 1206.88Z" fill="#FFF2CC" fill-rule="evenodd"/><path d="M2514.74 1126.26 2937.12 1126.26 2937.12 1206.88 2514.74 1206.88Z" fill="#FFF2CC" fill-rule="evenodd"/><path d="M2937.12 1126.26 3153.46 1126.26 3153.46 1206.88 2937.12 1206.88Z" fill="#FFF2CC" fill-rule="evenodd"/><path d="M3153.46 1126.26 3661.7 1126.26 3661.7 1206.88 3153.46 1206.88Z" fill="#DDEBF7" fill-rule="evenodd"/><path d="M3661.7 1126.26 4090.95 1126.26 4090.95 1206.88 3661.7 1206.88Z" fill="#DDEBF7" fill-rule="evenodd"/><path d="M4090.95 1126.26 4307.29 1126.26 4307.29 1206.88 4090.95 1206.88Z" fill="#DDEBF7" fill-rule="evenodd"/><path d="M938.537 1206.88 2106.1 1206.88 2106.1 1291.17 938.537 1291.17Z" fill="#BFBFBF" fill-rule="evenodd"/><path d="M2106.1 1206.88 2514.74 1206.88 2514.74 1291.17 2106.1 1291.17Z" fill="#BFBFBF" fill-rule="evenodd"/><path d="M2514.74 1206.88 2937.12 1206.88 2937.12 1291.17 2514.74 1291.17Z" fill="#BFBFBF" fill-rule="evenodd"/><path d="M2937.12 1206.88 3153.46 1206.88 3153.46 1291.17 2937.12 1291.17Z" fill="#BFBFBF" fill-rule="evenodd"/><path d="M3153.46 1206.88 3661.7 1206.88 3661.7 1291.17 3153.46 1291.17Z" fill="#BFBFBF" fill-rule="evenodd"/><path d="M3661.7 1206.88 4090.95 1206.88 4090.95 1291.17 3661.7 1291.17Z" fill="#BFBFBF" fill-rule="evenodd"/><path d="M4090.95 1206.88 4307.29 1206.88 4307.29 1291.17 4090.95 1291.17Z" fill="#BFBFBF" fill-rule="evenodd"/><path d="M2514.74 318.892 2514.74 1205.73" stroke="#000000" stroke-width="2.29167" stroke-linejoin="round" stroke-miterlimit="10" fill="none" fill-rule="evenodd"/><path d="M2514.74 1205.73 2514.74 1293.46" stroke="#000000" stroke-width="4.58333" stroke-linejoin="round" stroke-miterlimit="10" fill="none" fill-rule="evenodd"/><path d="M2937.12 318.892 2937.12 1293.46" stroke="#000000" stroke-width="2.29167" stroke-linejoin="round" stroke-miterlimit="10" fill="none" fill-rule="evenodd"/><path d="M3153.46 229.795 3153.46 1293.46" stroke="#000000" stroke-width="4.58333" stroke-linejoin="round" stroke-miterlimit="10" fill="none" fill-rule="evenodd"/><path d="M3661.7 318.892 3661.7 1293.46" stroke="#000000" stroke-width="2.29167" stroke-linejoin="round" stroke-miterlimit="10" fill="none" fill-rule="evenodd"/><path d="M4090.95 318.892 4090.95 1293.46" stroke="#000000" stroke-width="2.29167" stroke-linejoin="round" stroke-miterlimit="10" fill="none" fill-rule="evenodd"/><path d="M936.245 232.086 2106.1 232.086" stroke="#000000" stroke-width="2.29167" stroke-linejoin="round" stroke-miterlimit="10" fill="none" fill-rule="evenodd"/><path d="M2106.1 232.086 4309.58 232.086" stroke="#000000" stroke-width="4.58333" stroke-linejoin="round" stroke-miterlimit="10" fill="none" fill-rule="evenodd"/><path d="M2106.1 320.038 4309.58 320.038" stroke="#000000" stroke-width="2.29167" stroke-linejoin="round" stroke-miterlimit="10" fill="none" fill-rule="evenodd"/><path d="M936.245 400.659 4309.58 400.659" stroke="#000000" stroke-width="2.29167" stroke-linejoin="round" stroke-miterlimit="10" fill="none" fill-rule="evenodd"/><path d="M936.245 481.281 4309.58 481.281" stroke="#000000" stroke-width="2.29167" stroke-linejoin="round" stroke-miterlimit="10" fill="none" fill-rule="evenodd"/><path d="M936.245 561.903 4309.58 561.903" stroke="#000000" stroke-width="2.29167" stroke-linejoin="round" stroke-miterlimit="10" fill="none" fill-rule="evenodd"/><path d="M936.245 642.525 4309.58 642.525" stroke="#000000" stroke-width="2.29167" stroke-linejoin="round" stroke-miterlimit="10" fill="none" fill-rule="evenodd"/><path d="M936.245 803.769 4309.58 803.769" stroke="#000000" stroke-width="2.29167" stroke-linejoin="round" stroke-miterlimit="10" fill="none" fill-rule="evenodd"/><path d="M936.245 965.013 4309.58 965.013" stroke="#000000" stroke-width="2.29167" stroke-linejoin="round" stroke-miterlimit="10" fill="none" fill-rule="evenodd"/><path d="M936.245 1126.26 4309.58 1126.26" stroke="#000000" stroke-width="2.29167" stroke-linejoin="round" stroke-miterlimit="10" fill="none" fill-rule="evenodd"/><path d="M936.245 1206.88 4309.58 1206.88" stroke="#000000" stroke-width="2.29167" stroke-linejoin="round" stroke-miterlimit="10" fill="none" fill-rule="evenodd"/><path d="M938.537 138.179 938.537 1293.46" stroke="#000000" stroke-width="4.58333" stroke-linejoin="round" stroke-miterlimit="10" fill="none" fill-rule="evenodd"/><path d="M4307.29 138.179 4307.29 229.795" stroke="#000000" stroke-width="2.29167" stroke-linejoin="round" stroke-miterlimit="10" fill="none" fill-rule="evenodd"/><path d="M4307.29 229.795 4307.29 1293.46" stroke="#000000" stroke-width="4.58333" stroke-linejoin="round" stroke-miterlimit="10" fill="none" fill-rule="evenodd"/><path d="M936.245 140.471 4308.43 140.471" stroke="#000000" stroke-width="4.58333" stroke-linejoin="round" stroke-miterlimit="10" fill="none" fill-rule="evenodd"/><path d="M936.245 1291.17 4309.58 1291.17" stroke="#000000" stroke-width="4.58333" stroke-linejoin="round" stroke-miterlimit="10" fill="none" fill-rule="evenodd"/><text font-family="Century Gothic,Century Gothic_MSFontService,sans-serif" font-weight="700" font-size="64" transform="matrix(1 0 0 1 2023.35 218)">PLAN DE INTERVENCIONES COLECTIVAS<tspan fill="#3333FF" font-size="55" x="-732.783" y="121">DIMENSION  PDSP</tspan><tspan font-size="64" x="450.879" y="88">AÑO 2021</tspan><tspan font-size="64" x="1551.47" y="88">AÑO 2022</tspan></text><g clip-path="url(#clip1)"><text fill="#3333FF" font-family="Century Gothic,Century Gothic_MSFontService,sans-serif" font-weight="700" font-size="55" transform="matrix(1 0 0 1 2119.92 383)">VR CONTRATO</text></g><g clip-path="url(#clip2)"><text fill="#3333FF" font-family="Century Gothic,Century Gothic_MSFontService,sans-serif" font-weight="700" font-size="55" transform="matrix(1 0 0 1 2527.99 383)">VR EJECUTADO</text></g><g clip-path="url(#clip3)"><text fill="#3333FF" font-family="Century Gothic,Century Gothic_MSFontService,sans-serif" font-weight="700" font-size="55" transform="matrix(1 0 0 1 2950.48 383)">% EJEC</text></g><text fill="#3333FF" font-family="Century Gothic,Century Gothic_MSFontService,sans-serif" font-weight="700" font-size="55" transform="matrix(1 0 0 1 3217.09 383)">VR CONTRATO</text><g clip-path="url(#clip4)"><text fill="#3333FF" font-family="Century Gothic,Century Gothic_MSFontService,sans-serif" font-weight="700" font-size="55" transform="matrix(1 0 0 1 3678.38 383)">VR EJECUTADO</text></g><g clip-path="url(#clip5)"><text fill="#3333FF" font-family="Century Gothic,Century Gothic_MSFontService,sans-serif" font-weight="700" font-size="55" transform="matrix(1 0 0 1 4104.3 383)">% EJEC</text></g><g clip-path="url(#clip6)"><text font-family="Century Gothic,Century Gothic_MSFontService,sans-serif" font-weight="400" font-size="50" transform="matrix(1 0 0 1 941.975 453)">Convivencia social y salud mental</text></g><g clip-path="url(#clip7)"><text font-family="Century Gothic,Century Gothic_MSFontService,sans-serif" font-weight="400" font-size="50" transform="matrix(1 0 0 1 2123.28 453)">$      12.100.000 </text></g><g clip-path="url(#clip8)"><text font-family="Century Gothic,Century Gothic_MSFontService,sans-serif" font-weight="400" font-size="50" transform="matrix(1 0 0 1 2531.93 453)">$       12.100.000 </text></g><g clip-path="url(#clip9)"><text font-family="Century Gothic,Century Gothic_MSFontService,sans-serif" font-weight="700" font-size="50" transform="matrix(1 0 0 1 3021.91 454)">100%</text></g><g clip-path="url(#clip10)"><text font-family="Century Gothic,Century Gothic_MSFontService,sans-serif" font-weight="400" font-size="50" transform="matrix(1 0 0 1 3170.65 453)">$             19.300.000 </text></g><g clip-path="url(#clip11)"><text font-family="Century Gothic,Century Gothic_MSFontService,sans-serif" font-weight="400" font-size="50" transform="matrix(1 0 0 1 3678.88 453)">$        19.000.042 </text></g><g clip-path="url(#clip12)"><text font-family="Century Gothic,Century Gothic_MSFontService,sans-serif" font-weight="700" font-size="50" transform="matrix(1 0 0 1 4203.81 454)">98%</text></g><g clip-path="url(#clip13)"><text font-family="Century Gothic,Century Gothic_MSFontService,sans-serif" font-weight="400" font-size="50" transform="matrix(1 0 0 1 941.975 534)">Salud y ámbito laboral</text></g><g clip-path="url(#clip14)"><text font-family="Century Gothic,Century Gothic_MSFontService,sans-serif" font-weight="400" font-size="50" transform="matrix(1 0 0 1 2123.28 534)">$        6.600.000 </text></g><g clip-path="url(#clip15)"><text font-family="Century Gothic,Century Gothic_MSFontService,sans-serif" font-weight="400" font-size="50" transform="matrix(1 0 0 1 2531.93 534)">$         6.300.000 </text></g><g clip-path="url(#clip16)"><text font-family="Century Gothic,Century Gothic_MSFontService,sans-serif" font-weight="700" font-size="50" transform="matrix(1 0 0 1 3049.99 535)">95%</text></g><g clip-path="url(#clip17)"><text font-family="Century Gothic,Century Gothic_MSFontService,sans-serif" font-weight="400" font-size="50" transform="matrix(1 0 0 1 3170.65 534)">$               7.900.000 </text></g><g clip-path="url(#clip18)"><text font-family="Century Gothic,Century Gothic_MSFontService,sans-serif" font-weight="400" font-size="50" transform="matrix(1 0 0 1 3678.88 534)">$          7.900.000 </text></g><g clip-path="url(#clip19)"><text font-family="Century Gothic,Century Gothic_MSFontService,sans-serif" font-weight="700" font-size="50" transform="matrix(1 0 0 1 4175.74 535)">100%</text></g><g clip-path="url(#clip20)"><text font-family="Century Gothic,Century Gothic_MSFontService,sans-serif" font-weight="400" font-size="50" transform="matrix(1 0 0 1 941.975 614)">Seguridad alimentaria y nutricional</text></g><g clip-path="url(#clip21)"><text font-family="Century Gothic,Century Gothic_MSFontService,sans-serif" font-weight="400" font-size="50" transform="matrix(1 0 0 1 2123.28 614)">$      12.700.000 </text></g><g clip-path="url(#clip22)"><text font-family="Century Gothic,Century Gothic_MSFontService,sans-serif" font-weight="400" font-size="50" transform="matrix(1 0 0 1 2531.93 614)">$       12.700.000 </text></g><g clip-path="url(#clip23)"><text font-family="Century Gothic,Century Gothic_MSFontService,sans-serif" font-weight="700" font-size="50" transform="matrix(1 0 0 1 3021.91 615)">100%</text></g><g clip-path="url(#clip24)"><text font-family="Century Gothic,Century Gothic_MSFontService,sans-serif" font-weight="400" font-size="50" transform="matrix(1 0 0 1 3170.65 614)">$             11.500.000 </text></g><g clip-path="url(#clip25)"><text font-family="Century Gothic,Century Gothic_MSFontService,sans-serif" font-weight="400" font-size="50" transform="matrix(1 0 0 1 3793.47 614)">$ 11.500.000</text></g><g clip-path="url(#clip26)"><text font-family="Century Gothic,Century Gothic_MSFontService,sans-serif" font-weight="700" font-size="50" transform="matrix(1 0 0 1 4175.74 615)">100%</text></g><g clip-path="url(#clip27)"><text font-family="Century Gothic,Century Gothic_MSFontService,sans-serif" font-weight="400" font-size="50" transform="matrix(1 0 0 1 941.975 695)">Sexualidad, derechos sexuales y reproductivos</text></g><g clip-path="url(#clip28)"><text font-family="Century Gothic,Century Gothic_MSFontService,sans-serif" font-weight="400" font-size="50" transform="matrix(1 0 0 1 2123.28 695)">$      15.700.000 </text></g><g clip-path="url(#clip29)"><text font-family="Century Gothic,Century Gothic_MSFontService,sans-serif" font-weight="400" font-size="50" transform="matrix(1 0 0 1 2531.93 695)">$       15.100.000 </text></g><g clip-path="url(#clip30)"><text font-family="Century Gothic,Century Gothic_MSFontService,sans-serif" font-weight="700" font-size="50" transform="matrix(1 0 0 1 3049.99 696)">96%</text></g><g clip-path="url(#clip31)"><text font-family="Century Gothic,Century Gothic_MSFontService,sans-serif" font-weight="400" font-size="50" transform="matrix(1 0 0 1 3170.65 695)">$             18.051.306 </text></g><g clip-path="url(#clip32)"><text font-family="Century Gothic,Century Gothic_MSFontService,sans-serif" font-weight="400" font-size="50" transform="matrix(1 0 0 1 3678.88 695)">$        16.051.306 </text></g><g clip-path="url(#clip33)"><text font-family="Century Gothic,Century Gothic_MSFontService,sans-serif" font-weight="700" font-size="50" transform="matrix(1 0 0 1 4203.81 696)">89%</text></g><g clip-path="url(#clip34)"><text font-family="Century Gothic,Century Gothic_MSFontService,sans-serif" font-weight="400" font-size="50" transform="matrix(1 0 0 1 941.975 856)">Transversal gestión diferencial de poblaciones </text></g><g clip-path="url(#clip35)"><text font-family="Century Gothic,Century Gothic_MSFontService,sans-serif" font-weight="400" font-size="50" transform="matrix(1 0 0 1 941.975 917)">vulnerables</text></g><g clip-path="url(#clip36)"><text font-family="Century Gothic,Century Gothic_MSFontService,sans-serif" font-weight="400" font-size="50" transform="matrix(1 0 0 1 2123.28 856)">$      13.900.000 </text></g><g clip-path="url(#clip37)"><text font-family="Century Gothic,Century Gothic_MSFontService,sans-serif" font-weight="400" font-size="50" transform="matrix(1 0 0 1 2531.93 856)">$       10.700.000 </text></g><g clip-path="url(#clip38)"><text font-family="Century Gothic,Century Gothic_MSFontService,sans-serif" font-weight="700" font-size="50" transform="matrix(1 0 0 1 3049.99 857)">77%</text></g><g clip-path="url(#clip39)"><text font-family="Century Gothic,Century Gothic_MSFontService,sans-serif" font-weight="400" font-size="50" transform="matrix(1 0 0 1 3170.65 856)">$             13.500.000 </text></g><g clip-path="url(#clip40)"><text font-family="Century Gothic,Century Gothic_MSFontService,sans-serif" font-weight="400" font-size="50" transform="matrix(1 0 0 1 3678.88 856)">$          9.000.000 </text></g><g clip-path="url(#clip41)"><text font-family="Century Gothic,Century Gothic_MSFontService,sans-serif" font-weight="700" font-size="50" transform="matrix(1 0 0 1 4203.81 857)">67%</text></g><g clip-path="url(#clip42)"><text font-family="Century Gothic,Century Gothic_MSFontService,sans-serif" font-weight="400" font-size="50" transform="matrix(1 0 0 1 941.975 1017)">Vida saludable y condiciones no transmisibles</text></g><g clip-path="url(#clip43)"><text font-family="Century Gothic,Century Gothic_MSFontService,sans-serif" font-weight="400" font-size="50" transform="matrix(1 0 0 1 2123.28 1017)">$        7.772.289 </text></g><g clip-path="url(#clip44)"><text font-family="Century Gothic,Century Gothic_MSFontService,sans-serif" font-weight="400" font-size="50" transform="matrix(1 0 0 1 2531.93 1017)">$         7.772.289 </text></g><g clip-path="url(#clip45)"><text font-family="Century Gothic,Century Gothic_MSFontService,sans-serif" font-weight="700" font-size="50" transform="matrix(1 0 0 1 3021.91 1018)">100%</text></g><g clip-path="url(#clip46)"><text font-family="Century Gothic,Century Gothic_MSFontService,sans-serif" font-weight="400" font-size="50" transform="matrix(1 0 0 1 3170.65 1017)">$             19.000.000 </text></g><g clip-path="url(#clip47)"><text font-family="Century Gothic,Century Gothic_MSFontService,sans-serif" font-weight="400" font-size="50" transform="matrix(1 0 0 1 3678.88 1017)">$        16.528.000 </text></g><g clip-path="url(#clip48)"><text font-family="Century Gothic,Century Gothic_MSFontService,sans-serif" font-weight="700" font-size="50" transform="matrix(1 0 0 1 4203.81 1018)">87%</text></g><g clip-path="url(#clip49)"><text font-family="Century Gothic,Century Gothic_MSFontService,sans-serif" font-weight="400" font-size="50" transform="matrix(1 0 0 1 941.975 1179)">Vida saludable y enfermedades transmisibles</text></g><g clip-path="url(#clip50)"><text font-family="Century Gothic,Century Gothic_MSFontService,sans-serif" font-weight="400" font-size="50" transform="matrix(1 0 0 1 2123.28 1179)">$      13.600.000 </text></g><g clip-path="url(#clip51)"><text font-family="Century Gothic,Century Gothic_MSFontService,sans-serif" font-weight="400" font-size="50" transform="matrix(1 0 0 1 2531.93 1179)">$       13.300.000 </text></g><g clip-path="url(#clip52)"><text font-family="Century Gothic,Century Gothic_MSFontService,sans-serif" font-weight="700" font-size="50" transform="matrix(1 0 0 1 3049.99 1180)">98%</text></g><g clip-path="url(#clip53)"><text font-family="Century Gothic,Century Gothic_MSFontService,sans-serif" font-weight="400" font-size="50" transform="matrix(1 0 0 1 3170.65 1179)">$             10.498.956 </text></g><g clip-path="url(#clip54)"><text font-family="Century Gothic,Century Gothic_MSFontService,sans-serif" font-weight="400" font-size="50" transform="matrix(1 0 0 1 3678.88 1179)">$        10.508.691 </text></g><g clip-path="url(#clip55)"><text font-family="Century Gothic,Century Gothic_MSFontService,sans-serif" font-weight="700" font-size="50" transform="matrix(1 0 0 1 4175.74 1180)">100%</text></g><text font-family="Century Gothic,Century Gothic_MSFontService,sans-serif" font-weight="700" font-size="55" transform="matrix(1 0 0 1 1391.4 1265)">TOTAL PIC</text><g clip-path="url(#clip56)"><text font-family="Century Gothic,Century Gothic_MSFontService,sans-serif" font-weight="700" font-size="55" transform="matrix(1 0 0 1 2140.26 1265)">$   82.372.289 </text></g><g clip-path="url(#clip57)"><text font-family="Century Gothic,Century Gothic_MSFontService,sans-serif" font-weight="700" font-size="55" transform="matrix(1 0 0 1 2548.04 1265)">$    77.972.289 </text></g><g clip-path="url(#clip58)"><text font-family="Century Gothic,Century Gothic_MSFontService,sans-serif" font-weight="700" font-size="50" transform="matrix(1 0 0 1 3049.99 1260)">95%</text></g><g clip-path="url(#clip59)"><text font-family="Century Gothic,Century Gothic_MSFontService,sans-serif" font-weight="700" font-size="55" transform="matrix(1 0 0 1 3175.55 1265)">$           99.750.262 </text></g><g clip-path="url(#clip60)"><text font-family="Century Gothic,Century Gothic_MSFontService,sans-serif" font-weight="700" font-size="55" transform="matrix(1 0 0 1 3690.7 1265)">$     90.488.039 </text></g><g clip-path="url(#clip61)"><text font-family="Century Gothic,Century Gothic_MSFontService,sans-serif" font-weight="700" font-size="50" transform="matrix(1 0 0 1 4203.81 1260)">91%</text></g></g></svg>