<svg width="3190" height="2273" xmlns="http://www.w3.org/2000/svg" xmlns:xlink="http://www.w3.org/1999/xlink" overflow="hidden"><defs><clipPath id="clip0"><rect x="1009" y="39" width="3190" height="2273"/></clipPath></defs><g clip-path="url(#clip0)" transform="translate(-1009 -39)"><path d="M1211.5 99.8349C1211.5 68.1698 1237.17 42.5001 1268.83 42.5001L3883.17 42.5001C3914.83 42.5001 3940.5 68.1698 3940.5 99.8349L3940.5 329.165C3940.5 360.83 3914.83 386.5 3883.17 386.5L1268.83 386.5C1237.17 386.5 1211.5 360.83 1211.5 329.165Z" stroke="#70AD47" stroke-width="6.875" stroke-linejoin="round" stroke-miterlimit="10" fill="#FFFFFF" fill-rule="evenodd"/><path d="M1403.5 137.5 2158.5 137.5 2266.5 245.5 2158.5 353.5 1403.5 353.5 1511.5 245.5Z" stroke="#FFFFFF" stroke-width="6.875" stroke-miterlimit="8" fill="#5B9BD5" fill-rule="evenodd"/><text font-family="Century Gothic,Century Gothic_MSFontService,sans-serif" font-weight="400" font-size="55" transform="matrix(1 0 0 1 1643.12 233)">GESTIÓN DE LA <tspan font-size="55" x="20" y="60">PLANEACIÓN</tspan></text><path d="M2180.5 137.5 2935.5 137.5 3043.5 245.5 2935.5 353.5 2180.5 353.5 2288.5 245.5Z" stroke="#FFFFFF" stroke-width="6.875" stroke-miterlimit="8" fill="#4DC58D" fill-rule="evenodd"/><text font-family="Century Gothic,Century Gothic_MSFontService,sans-serif" font-weight="400" font-size="55" transform="matrix(1 0 0 1 2339.71 233)">DIRECCIONAMIENTO <tspan font-size="55" x="97" y="60">ESTRATÉGICO</tspan></text><path d="M2957.5 137.5 3711.5 137.5 3819.5 245.5 3711.5 353.5 2957.5 353.5 3065.5 245.5Z" stroke="#FFFFFF" stroke-width="6.875" stroke-miterlimit="8" fill="#70AD47" fill-rule="evenodd"/><text font-family="Century Gothic,Century Gothic_MSFontService,sans-serif" font-weight="400" font-size="55" transform="matrix(1 0 0 1 3196.3 233)">GESTIÓN DE LA <tspan font-size="55" x="75" y="60">CALIDAD</tspan><tspan font-family="Arial,Arial_MSFontService,sans-serif" font-weight="700" font-size="64" x="-1044.92" y="-113">PROCESOS DE DIRECCIÓN</tspan></text><path d="M1289.5 569.669C1289.5 501.092 1345.09 445.5 1413.67 445.5L3776.33 445.5C3844.91 445.5 3900.5 501.092 3900.5 569.669L3900.5 1066.33C3900.5 1134.91 3844.91 1190.5 3776.33 1190.5L1413.67 1190.5C1345.09 1190.5 1289.5 1134.91 1289.5 1066.33Z" stroke="#A5A5A5" stroke-width="6.875" stroke-linejoin="round" stroke-miterlimit="10" fill="#FFFFFF" fill-rule="evenodd"/><rect x="1338.5" y="573.5" width="613" height="271" stroke="#FFFFFF" stroke-width="6.875" stroke-linejoin="round" stroke-miterlimit="10" fill="#A5A5A5"/><text font-family="Century Gothic,Century Gothic_MSFontService,sans-serif" font-weight="400" font-size="55" transform="matrix(1 0 0 1 1408.79 727)">GESTIÓN DEL SIAU</text><rect x="1988.5" y="577.5" width="613" height="270" stroke="#FFFFFF" stroke-width="6.875" stroke-linejoin="round" stroke-miterlimit="10" fill="#AE935E"/><text font-family="Century Gothic,Century Gothic_MSFontService,sans-serif" font-weight="400" font-size="55" transform="matrix(1 0 0 1 2097.64 670)">GESTIÓN DE LA <tspan font-size="55" x="-70.0001" y="60">PRESTACIÓN DE LOS </tspan><tspan font-size="55" x="59" y="121">SERVICIOS</tspan></text><rect x="2628.5" y="571.5" width="613" height="271" stroke="#FFFFFF" stroke-width="6.875" stroke-linejoin="round" stroke-miterlimit="10" fill="#AD7E21"/><text font-family="Century Gothic,Century Gothic_MSFontService,sans-serif" font-weight="400" font-size="55" transform="matrix(1 0 0 1 2707.56 725)">GESTIÓN CLINCA</text><rect x="3264.5" y="562.5" width="613" height="271" stroke="#FFFFFF" stroke-width="6.875" stroke-linejoin="round" stroke-miterlimit="10" fill="#AB6A00"/><text font-family="Century Gothic,Century Gothic_MSFontService,sans-serif" font-weight="400" font-size="55" transform="matrix(1 0 0 1 3321.97 686)">GESTIÓN EN SALUD <tspan font-size="55" x="137" y="60">PUBLICA</tspan></text><rect x="1338.5" y="853.5" width="613" height="271" stroke="#FFFFFF" stroke-width="6.875" stroke-linejoin="round" stroke-miterlimit="10" fill="#AE5B00"/><text font-family="Century Gothic,Century Gothic_MSFontService,sans-serif" font-weight="400" font-size="55" transform="matrix(1 0 0 1 1367.81 977)">GESTIÓN DEL RIESGO <tspan font-size="55" x="150" y="60">EN SALUD</tspan></text><rect x="1993.5" y="854.5" width="613" height="271" stroke="#FFFFFF" stroke-width="6.875" stroke-linejoin="round" stroke-miterlimit="10" fill="#B04D00"/><text font-family="Century Gothic,Century Gothic_MSFontService,sans-serif" font-weight="400" font-size="55" transform="matrix(1 0 0 1 2142.48 948)">GESTIÓN DE <tspan font-size="55" x="-35" y="60">LABORATORIO </tspan><tspan font-size="55" x="41" y="121">CLINICO</tspan></text><rect x="2629.5" y="858.5" width="613" height="271" stroke="#FFFFFF" stroke-width="6.875" stroke-linejoin="round" stroke-miterlimit="10" fill="#B24100"/><text font-family="Century Gothic,Century Gothic_MSFontService,sans-serif" font-weight="400" font-size="55" transform="matrix(1 0 0 1 2778.76 951)">GESTIÓN DE <tspan font-size="55" x="-125" y="60">COMPLEMENTACIÓN </tspan><tspan font-size="55" x="-16" y="121">TERAPEUTICA</tspan></text><rect x="3270.5" y="861.5" width="612" height="271" stroke="#FFFFFF" stroke-width="6.875" stroke-linejoin="round" stroke-miterlimit="10" fill="#B43500"/><text font-family="Century Gothic,Century Gothic_MSFontService,sans-serif" font-weight="400" font-size="55" transform="matrix(1 0 0 1 3419.21 924)">GESTIÓN DE <tspan font-size="55" x="-45" y="60">PROGRAMAS Y </tspan><tspan font-size="55" x="23" y="121">POLITICAS </tspan><tspan font-size="55" x="-72" y="182">INSTIITUCIONALES</tspan><tspan font-family="Arial,Arial_MSFontService,sans-serif" font-weight="700" font-size="64" x="-1214.89" y="-400">PROCESOS MISIONALES</tspan></text><path d="M1289.5 1340.67C1289.5 1278.72 1339.72 1228.5 1401.67 1228.5L3788.33 1228.5C3850.28 1228.5 3900.5 1278.72 3900.5 1340.67L3900.5 1789.33C3900.5 1851.28 3850.28 1901.5 3788.33 1901.5L1401.67 1901.5C1339.72 1901.5 1289.5 1851.28 1289.5 1789.33Z" stroke="#5B9BD5" stroke-width="6.875" stroke-linejoin="round" stroke-miterlimit="10" fill="#FFFFFF" fill-rule="evenodd"/><rect x="1518.5" y="1323.5" width="514" height="257" stroke="#FFFFFF" stroke-width="6.875" stroke-linejoin="round" stroke-miterlimit="10" fill="#ED7D31"/><text font-family="Century Gothic,Century Gothic_MSFontService,sans-serif" font-weight="400" font-size="50" transform="matrix(1 0 0 1 1593.81 1441)">GESTIÓN DE LA <tspan font-size="50" x="-19" y="55">CONTRATACIÓN</tspan></text><rect x="2075.5" y="1323.5" width="514" height="257" stroke="#FFFFFF" stroke-width="6.875" stroke-linejoin="round" stroke-miterlimit="10" fill="#A5A5A5"/><text font-family="Century Gothic,Century Gothic_MSFontService,sans-serif" font-weight="400" font-size="50" transform="matrix(1 0 0 1 2175.89 1441)">GESTIÓN DEL <tspan font-size="50" x="-71" y="55">TALENTO HUMANO</tspan></text><rect x="2632.5" y="1323.5" width="514" height="257" stroke="#FFFFFF" stroke-width="6.875" stroke-linejoin="round" stroke-miterlimit="10" fill="#FFC000"/><text font-family="Century Gothic,Century Gothic_MSFontService,sans-serif" font-weight="400" font-size="50" transform="matrix(1 0 0 1 2783.97 1441)">GESTIÓN <tspan font-size="50" x="-93" y="55">ADMINISTRATIVA</tspan></text><rect x="3189.5" y="1323.5" width="514" height="257" stroke="#FFFFFF" stroke-width="6.875" stroke-linejoin="round" stroke-miterlimit="10" fill="#5B9BD5"/><text font-family="Century Gothic,Century Gothic_MSFontService,sans-serif" font-weight="400" font-size="50" transform="matrix(1 0 0 1 3302.05 1441)">GESTIÓN DE <tspan font-size="50" x="-83" y="55">RECURSOS FISICOS</tspan></text><rect x="1518.5" y="1623.5" width="514" height="258" stroke="#FFFFFF" stroke-width="6.875" stroke-linejoin="round" stroke-miterlimit="10" fill="#70AD47"/><text font-family="Century Gothic,Century Gothic_MSFontService,sans-serif" font-weight="400" font-size="50" transform="matrix(1 0 0 1 1669.81 1741)">GESTIÓN <tspan font-size="50" x="-41" y="55">FINANCIERA</tspan></text><rect x="2075.5" y="1623.5" width="514" height="258" stroke="#FFFFFF" stroke-width="6.875" stroke-linejoin="round" stroke-miterlimit="10" fill="#ED7D31"/><text font-family="Century Gothic,Century Gothic_MSFontService,sans-serif" font-weight="400" font-size="50" transform="matrix(1 0 0 1 2226.9 1741)">GESTIÓN <tspan font-size="50" x="-67" y="55">DOCUMENTAL</tspan></text><rect x="2632.5" y="1623.5" width="514" height="258" stroke="#FFFFFF" stroke-width="6.875" stroke-linejoin="round" stroke-miterlimit="10" fill="#A5A5A5"/><text font-family="Century Gothic,Century Gothic_MSFontService,sans-serif" font-weight="400" font-size="50" transform="matrix(1 0 0 1 2695.97 1741)">GESTIÓN DE LAS <tspan font-size="50" x="143" y="55">TICS</tspan></text><rect x="3189.5" y="1623.5" width="514" height="258" stroke="#FFFFFF" stroke-width="6.875" stroke-linejoin="round" stroke-miterlimit="10" fill="#FFC000"/><text font-family="Century Gothic,Century Gothic_MSFontService,sans-serif" font-weight="400" font-size="50" transform="matrix(1 0 0 1 3221.06 1769)">GESTIÓN JURÍDICA<tspan font-family="Arial,Arial_MSFontService,sans-serif" font-weight="700" font-size="64" x="-986.733" y="-462">PROCESOS DE APOYO</tspan></text><path d="M1289.5 2018.5C1289.5 1986.47 1315.47 1960.5 1347.5 1960.5L3882.5 1960.5C3914.53 1960.5 3940.5 1986.47 3940.5 2018.5L3940.5 2250.5C3940.5 2282.53 3914.53 2308.5 3882.5 2308.5L1347.5 2308.5C1315.47 2308.5 1289.5 2282.53 1289.5 2250.5Z" stroke="#ED7D31" stroke-width="6.875" stroke-linejoin="round" stroke-miterlimit="10" fill="#FFFFFF" fill-rule="evenodd"/><path d="M1477.5 2055.5 2601.5 2055.5 2711.5 2165.5 2601.5 2275.5 1477.5 2275.5 1587.5 2165.5Z" stroke="#FFFFFF" stroke-width="6.875" stroke-miterlimit="8" fill="#5B9BD5" fill-rule="evenodd"/><text font-family="Century Gothic,Century Gothic_MSFontService,sans-serif" font-weight="400" font-size="55" transform="matrix(1 0 0 1 1956.21 2184)">AUDITORIA</text><path d="M2588.5 2055.5 3712.5 2055.5 3822.5 2165.5 3712.5 2275.5 2588.5 2275.5 2698.5 2165.5Z" stroke="#FFFFFF" stroke-width="6.875" stroke-miterlimit="8" fill="#70AD47" fill-rule="evenodd"/><text font-family="Century Gothic,Century Gothic_MSFontService,sans-serif" font-weight="400" font-size="55" transform="matrix(1 0 0 1 2956.65 2184)">CONTROL INTERNO<tspan font-family="Arial,Arial_MSFontService,sans-serif" font-weight="700" font-size="64" x="-797.325" y="-146">PROCESOS DE EVALUACION</tspan></text><rect x="1022.5" y="42.4998" width="144" height="2197" stroke="#4472C4" stroke-width="6.875" stroke-linejoin="round" stroke-miterlimit="10" fill="#FFFFFF"/><text font-family="Arial,Arial_MSFontService,sans-serif" font-weight="700" font-size="92" transform="matrix(-1.83697e-16 -1 1 -1.83697e-16 1127.32 1909)">NECESIDADES DE LOS USUARIOS</text><rect x="4018.5" y="81.4998" width="144" height="2197" stroke="#4472C4" stroke-width="6.875" stroke-linejoin="round" stroke-miterlimit="10" fill="#FFFFFF"/><text font-family="Arial,Arial_MSFontService,sans-serif" font-weight="700" font-size="92" transform="matrix(-1.83697e-16 -1 1 -1.83697e-16 4123.35 1760)">USUARIOS SATISFECHOS</text></g></svg>