<svg width="888" height="250" xmlns="http://www.w3.org/2000/svg" xmlns:xlink="http://www.w3.org/1999/xlink" overflow="hidden"><defs><clipPath id="clip0"><rect x="2712" y="1536" width="888" height="250"/></clipPath><clipPath id="clip1"><rect x="2714" y="1294" width="409" height="617"/></clipPath><clipPath id="clip2"><rect x="3122" y="1294" width="473" height="617"/></clipPath></defs><g clip-path="url(#clip0)" transform="translate(-2712 -1536)"><path d="M2714.76 1554.55 3122.67 1554.55 3122.67 1647.37 2714.76 1647.37Z" fill="#FFFF00" fill-rule="evenodd"/><path d="M3122.67 1554.55 3594.76 1554.55 3594.76 1647.37 3122.67 1647.37Z" fill="#FFFF00" fill-rule="evenodd"/><path d="M3122.67 1647.37 3594.76 1647.37 3594.76 1743.62 3122.67 1743.62Z" fill="#92D050" fill-rule="evenodd"/><path d="M3122.67 1552.26 3122.67 1745.91" stroke="#000000" stroke-width="2.29167" stroke-linejoin="round" stroke-miterlimit="10" fill="none" fill-rule="evenodd"/><path d="M2712.47 1647.37 3597.05 1647.37" stroke="#000000" stroke-width="2.29167" stroke-linejoin="round" stroke-miterlimit="10" fill="none" fill-rule="evenodd"/><path d="M2714.76 1552.26 2714.76 1745.91" stroke="#000000" stroke-width="4.58333" stroke-linejoin="round" stroke-miterlimit="10" fill="none" fill-rule="evenodd"/><path d="M3594.76 1552.26 3594.76 1745.91" stroke="#000000" stroke-width="4.58333" stroke-linejoin="round" stroke-miterlimit="10" fill="none" fill-rule="evenodd"/><path d="M2712.47 1554.55 3597.05 1554.55" stroke="#000000" stroke-width="4.58333" stroke-linejoin="round" stroke-miterlimit="10" fill="none" fill-rule="evenodd"/><path d="M2712.47 1743.62 3597.05 1743.62" stroke="#000000" stroke-width="4.58333" stroke-linejoin="round" stroke-miterlimit="10" fill="none" fill-rule="evenodd"/><g clip-path="url(#clip1)"><text fill="#3333FF" font-family="Century Gothic,Century Gothic_MSFontService,sans-serif" font-weight="700" font-size="73" transform="matrix(1 0 0 1 2731.66 1631)">PACIENTES</text></g><g clip-path="url(#clip2)"><text fill="#3333FF" font-family="Century Gothic,Century Gothic_MSFontService,sans-serif" font-weight="700" font-size="73" transform="matrix(1 0 0 1 3149.89 1631)">VARIACION </text></g><text font-family="Century Gothic,Century Gothic_MSFontService,sans-serif" font-weight="700" font-size="73" transform="matrix(1 0 0 1 2898.09 1725)">1<tspan font-size="73" x="387.865" y="0">33%</tspan></text></g></svg>