<svg width="2212" height="532" xmlns="http://www.w3.org/2000/svg" xmlns:xlink="http://www.w3.org/1999/xlink" overflow="hidden"><defs><clipPath id="clip0"><rect x="1752" y="894" width="2212" height="532"/></clipPath><clipPath id="clip1"><rect x="3161" y="654" width="249" height="617"/></clipPath><clipPath id="clip2"><rect x="1754" y="747" width="1408" height="617"/></clipPath><clipPath id="clip3"><rect x="1754" y="840" width="1408" height="617"/></clipPath><clipPath id="clip4"><rect x="3161" y="933" width="249" height="617"/></clipPath><clipPath id="clip5"><rect x="3409" y="933" width="276" height="617"/></clipPath><clipPath id="clip6"><rect x="3684" y="933" width="276" height="617"/></clipPath></defs><g clip-path="url(#clip0)" transform="translate(-1752 -894)"><path d="M1754.5 909.903 3161.59 909.903 3161.59 1006.85 1754.5 1006.85Z" fill="#D9D9D9" fill-rule="evenodd"/><path d="M3161.59 909.903 3409.09 909.903 3409.09 1006.85 3161.59 1006.85Z" fill="#D9D9D9" fill-rule="evenodd"/><path d="M3409.09 909.903 3684.09 909.903 3684.09 1006.85 3409.09 1006.85Z" fill="#D9D9D9" fill-rule="evenodd"/><path d="M3684.09 909.903 3959.09 909.903 3959.09 1006.85 3684.09 1006.85Z" fill="#D9D9D9" fill-rule="evenodd"/><path d="M1754.5 1192.48 3161.59 1192.48 3161.59 1285.29 1754.5 1285.29Z" fill="#D9D9D9" fill-rule="evenodd"/><path d="M3161.59 1192.48 3409.09 1192.48 3409.09 1285.29 3161.59 1285.29Z" fill="#D9D9D9" fill-rule="evenodd"/><path d="M3409.09 1192.48 3684.09 1192.48 3684.09 1285.29 3409.09 1285.29Z" fill="#D9D9D9" fill-rule="evenodd"/><path d="M3684.09 1192.48 3959.09 1192.48 3959.09 1285.29 3684.09 1285.29Z" fill="#D9D9D9" fill-rule="evenodd"/><path d="M1754.5 1285.29 3161.59 1285.29 3161.59 1381.54 1754.5 1381.54Z" fill="#D9D9D9" fill-rule="evenodd"/><path d="M3161.59 1285.29 3409.09 1285.29 3409.09 1381.54 3161.59 1381.54Z" fill="#D9D9D9" fill-rule="evenodd"/><path d="M3409.09 1285.29 3684.09 1285.29 3684.09 1381.54 3409.09 1381.54Z" fill="#D9D9D9" fill-rule="evenodd"/><path d="M3684.09 1285.29 3959.09 1285.29 3959.09 1381.54 3684.09 1381.54Z" fill="#D9D9D9" fill-rule="evenodd"/><path d="M3161.59 907.611 3161.59 1383.83" stroke="#000000" stroke-width="2.29167" stroke-linejoin="round" stroke-miterlimit="10" fill="none" fill-rule="evenodd"/><path d="M3409.09 907.611 3409.09 1383.83" stroke="#000000" stroke-width="2.29167" stroke-linejoin="round" stroke-miterlimit="10" fill="none" fill-rule="evenodd"/><path d="M3684.09 907.611 3684.09 1383.83" stroke="#000000" stroke-width="2.29167" stroke-linejoin="round" stroke-miterlimit="10" fill="none" fill-rule="evenodd"/><path d="M1752.21 1006.85 3961.38 1006.85" stroke="#000000" stroke-width="2.29167" stroke-linejoin="round" stroke-miterlimit="10" fill="none" fill-rule="evenodd"/><path d="M1752.21 1099.67 3961.38 1099.67" stroke="#000000" stroke-width="2.29167" stroke-linejoin="round" stroke-miterlimit="10" fill="none" fill-rule="evenodd"/><path d="M1752.21 1192.48 3961.38 1192.48" stroke="#000000" stroke-width="2.29167" stroke-linejoin="round" stroke-miterlimit="10" fill="none" fill-rule="evenodd"/><path d="M1752.21 1285.29 3961.38 1285.29" stroke="#000000" stroke-width="2.29167" stroke-linejoin="round" stroke-miterlimit="10" fill="none" fill-rule="evenodd"/><path d="M1754.5 907.611 1754.5 1383.83" stroke="#000000" stroke-width="4.58333" stroke-linejoin="round" stroke-miterlimit="10" fill="none" fill-rule="evenodd"/><path d="M3959.09 907.611 3959.09 1383.83" stroke="#000000" stroke-width="4.58333" stroke-linejoin="round" stroke-miterlimit="10" fill="none" fill-rule="evenodd"/><path d="M1752.21 909.903 3961.38 909.903" stroke="#000000" stroke-width="4.58333" stroke-linejoin="round" stroke-miterlimit="10" fill="none" fill-rule="evenodd"/><path d="M1752.21 1381.54 3961.38 1381.54" stroke="#000000" stroke-width="4.58333" stroke-linejoin="round" stroke-miterlimit="10" fill="none" fill-rule="evenodd"/><text fill="#FF0000" font-family="Century Gothic,Century Gothic_MSFontService,sans-serif" font-weight="700" font-size="73" transform="matrix(1 0 0 1 2215.99 988)">DESCRIPCION</text><g clip-path="url(#clip1)"><text fill="#FF0000" font-family="Century Gothic,Century Gothic_MSFontService,sans-serif" font-weight="700" font-size="73" transform="matrix(1 0 0 1 3202.84 991)">2020</text></g><text fill="#FF0000" font-family="Century Gothic,Century Gothic_MSFontService,sans-serif" font-weight="700" font-size="73" transform="matrix(1 0 0 1 3464.09 991)">2021<tspan font-size="73" x="275" y="0">2022</tspan></text><g clip-path="url(#clip2)"><text font-family="Century Gothic,Century Gothic_MSFontService,sans-serif" font-weight="400" font-size="73" transform="matrix(1 0 0 1 1757.94 1084)">PARTOS ATENDIDOS</text></g><text font-family="Century Gothic,Century Gothic_MSFontService,sans-serif" font-weight="400" font-size="73" transform="matrix(1 0 0 1 3265 1084)">5<tspan font-size="73" x="261.25" y="0">2</tspan><tspan font-size="73" x="536.25" y="0">3</tspan></text><g clip-path="url(#clip3)"><text font-family="Century Gothic,Century Gothic_MSFontService,sans-serif" font-weight="400" font-size="73" transform="matrix(1 0 0 1 1757.94 1176)">REMISION DE PARTOS</text></g><text font-family="Century Gothic,Century Gothic_MSFontService,sans-serif" font-weight="400" font-size="73" transform="matrix(1 0 0 1 3244.66 1176)">44<tspan font-size="73" x="281.589" y="0">4</tspan><tspan font-size="73" x="536.25" y="0">11</tspan><tspan fill="#FF0000" font-weight="700" font-size="73" x="-985.13" y="93">RESULTADO</tspan></text><g clip-path="url(#clip4)"><text fill="#FF0000" font-family="Century Gothic,Century Gothic_MSFontService,sans-serif" font-weight="700" font-size="73" transform="matrix(1 0 0 1 3233.78 1269)">0,11 </text></g><g clip-path="url(#clip5)"><text fill="#FF0000" font-family="Century Gothic,Century Gothic_MSFontService,sans-serif" font-weight="700" font-size="73" transform="matrix(1 0 0 1 3515.65 1269)">0,50 </text></g><g clip-path="url(#clip6)"><text fill="#FF0000" font-family="Century Gothic,Century Gothic_MSFontService,sans-serif" font-weight="700" font-size="73" transform="matrix(1 0 0 1 3790.65 1269)">0,27 </text></g><text fill="#FF0000" font-family="Century Gothic,Century Gothic_MSFontService,sans-serif" font-weight="700" font-size="73" transform="matrix(1 0 0 1 2187.34 1363)">RESOLUTIVIDAD<tspan font-size="73" x="1025.23" y="3">89%</tspan><tspan font-size="73" x="1286.48" y="3">50%</tspan><tspan font-size="73" x="1561.48" y="3">73%</tspan></text></g></svg>