<svg width="2088" height="899" xmlns="http://www.w3.org/2000/svg" xmlns:xlink="http://www.w3.org/1999/xlink" overflow="hidden"><defs><clipPath id="clip0"><rect x="558" y="662" width="2088" height="899"/></clipPath><clipPath id="clip1"><rect x="560" y="609" width="1257" height="540"/></clipPath><clipPath id="clip2"><rect x="1816" y="609" width="276" height="540"/></clipPath><clipPath id="clip3"><rect x="2091" y="609" width="276" height="540"/></clipPath><clipPath id="clip4"><rect x="2366" y="609" width="276" height="540"/></clipPath><clipPath id="clip5"><rect x="560" y="695" width="1257" height="540"/></clipPath><clipPath id="clip6"><rect x="1816" y="695" width="276" height="540"/></clipPath><clipPath id="clip7"><rect x="2091" y="695" width="276" height="540"/></clipPath><clipPath id="clip8"><rect x="2366" y="695" width="276" height="540"/></clipPath><clipPath id="clip9"><rect x="560" y="781" width="1257" height="540"/></clipPath><clipPath id="clip10"><rect x="1816" y="781" width="276" height="540"/></clipPath><clipPath id="clip11"><rect x="2091" y="781" width="276" height="540"/></clipPath><clipPath id="clip12"><rect x="2366" y="781" width="276" height="540"/></clipPath><clipPath id="clip13"><rect x="560" y="867" width="1257" height="540"/></clipPath><clipPath id="clip14"><rect x="1816" y="867" width="276" height="540"/></clipPath><clipPath id="clip15"><rect x="2091" y="867" width="276" height="540"/></clipPath><clipPath id="clip16"><rect x="2366" y="867" width="276" height="540"/></clipPath><clipPath id="clip17"><rect x="560" y="953" width="1257" height="540"/></clipPath><clipPath id="clip18"><rect x="1816" y="953" width="276" height="540"/></clipPath><clipPath id="clip19"><rect x="2091" y="953" width="276" height="540"/></clipPath><clipPath id="clip20"><rect x="2366" y="953" width="276" height="540"/></clipPath><clipPath id="clip21"><rect x="560" y="1038" width="1257" height="540"/></clipPath><clipPath id="clip22"><rect x="1816" y="1038" width="276" height="540"/></clipPath><clipPath id="clip23"><rect x="2091" y="1038" width="276" height="540"/></clipPath><clipPath id="clip24"><rect x="2366" y="1038" width="276" height="540"/></clipPath><clipPath id="clip25"><rect x="560" y="1124" width="1257" height="540"/></clipPath><clipPath id="clip26"><rect x="1816" y="1124" width="276" height="540"/></clipPath><clipPath id="clip27"><rect x="2091" y="1124" width="276" height="540"/></clipPath><clipPath id="clip28"><rect x="2366" y="1124" width="276" height="540"/></clipPath><clipPath id="clip29"><rect x="1816" y="1214" width="276" height="540"/></clipPath><clipPath id="clip30"><rect x="2091" y="1214" width="276" height="540"/></clipPath><clipPath id="clip31"><rect x="2366" y="1214" width="276" height="540"/></clipPath></defs><g clip-path="url(#clip0)" transform="translate(-558 -662)"><path d="M560.457 666.319 1816.29 666.319 1816.29 831.319 560.457 831.319Z" fill="#92D050" fill-rule="evenodd"/><path d="M1816.29 666.319 2641.29 666.319 2641.29 745.381 1816.29 745.381Z" fill="#92D050" fill-rule="evenodd"/><path d="M1816.29 745.381 2091.29 745.381 2091.29 831.319 1816.29 831.319Z" fill="#FFFF00" fill-rule="evenodd"/><path d="M2091.29 745.381 2366.29 745.381 2366.29 831.319 2091.29 831.319Z" fill="#FFFF00" fill-rule="evenodd"/><path d="M2366.29 745.381 2641.29 745.381 2641.29 831.319 2366.29 831.319Z" fill="#FFFF00" fill-rule="evenodd"/><path d="M560.457 1432.88 1816.29 1432.88 1816.29 1522.26 560.457 1522.26Z" fill="#D9D9D9" fill-rule="evenodd"/><path d="M1816.29 1432.88 2091.29 1432.88 2091.29 1522.26 1816.29 1522.26Z" fill="#D9D9D9" fill-rule="evenodd"/><path d="M2091.29 1432.88 2366.29 1432.88 2366.29 1522.26 2091.29 1522.26Z" fill="#D9D9D9" fill-rule="evenodd"/><path d="M2366.29 1432.88 2641.29 1432.88 2641.29 1522.26 2366.29 1522.26Z" fill="#D9D9D9" fill-rule="evenodd"/><path d="M1816.29 664.027 1816.29 1524.55" stroke="#000000" stroke-width="2.29167" stroke-linejoin="round" stroke-miterlimit="10" fill="none" fill-rule="evenodd"/><path d="M2091.29 744.236 2091.29 1524.55" stroke="#000000" stroke-width="2.29167" stroke-linejoin="round" stroke-miterlimit="10" fill="none" fill-rule="evenodd"/><path d="M2366.29 744.236 2366.29 1524.55" stroke="#000000" stroke-width="2.29167" stroke-linejoin="round" stroke-miterlimit="10" fill="none" fill-rule="evenodd"/><path d="M1815.14 745.381 2643.58 745.381" stroke="#000000" stroke-width="2.29167" stroke-linejoin="round" stroke-miterlimit="10" fill="none" fill-rule="evenodd"/><path d="M558.166 831.319 2643.58 831.319" stroke="#000000" stroke-width="2.29167" stroke-linejoin="round" stroke-miterlimit="10" fill="none" fill-rule="evenodd"/><path d="M558.166 917.256 2643.58 917.256" stroke="#000000" stroke-width="2.29167" stroke-linejoin="round" stroke-miterlimit="10" fill="none" fill-rule="evenodd"/><path d="M558.166 1003.19 2643.58 1003.19" stroke="#000000" stroke-width="2.29167" stroke-linejoin="round" stroke-miterlimit="10" fill="none" fill-rule="evenodd"/><path d="M558.166 1089.13 2643.58 1089.13" stroke="#000000" stroke-width="2.29167" stroke-linejoin="round" stroke-miterlimit="10" fill="none" fill-rule="evenodd"/><path d="M558.166 1175.07 2643.58 1175.07" stroke="#000000" stroke-width="2.29167" stroke-linejoin="round" stroke-miterlimit="10" fill="none" fill-rule="evenodd"/><path d="M558.166 1261.01 2643.58 1261.01" stroke="#000000" stroke-width="2.29167" stroke-linejoin="round" stroke-miterlimit="10" fill="none" fill-rule="evenodd"/><path d="M558.166 1346.94 2643.58 1346.94" stroke="#000000" stroke-width="2.29167" stroke-linejoin="round" stroke-miterlimit="10" fill="none" fill-rule="evenodd"/><path d="M558.166 1432.88 2643.58 1432.88" stroke="#000000" stroke-width="2.29167" stroke-linejoin="round" stroke-miterlimit="10" fill="none" fill-rule="evenodd"/><path d="M560.457 664.027 560.457 1524.55" stroke="#000000" stroke-width="4.58333" stroke-linejoin="round" stroke-miterlimit="10" fill="none" fill-rule="evenodd"/><path d="M2641.29 664.027 2641.29 1524.55" stroke="#000000" stroke-width="4.58333" stroke-linejoin="round" stroke-miterlimit="10" fill="none" fill-rule="evenodd"/><path d="M558.166 666.319 2643.58 666.319" stroke="#000000" stroke-width="4.58333" stroke-linejoin="round" stroke-miterlimit="10" fill="none" fill-rule="evenodd"/><path d="M558.166 1522.26 2643.58 1522.26" stroke="#000000" stroke-width="4.58333" stroke-linejoin="round" stroke-miterlimit="10" fill="none" fill-rule="evenodd"/><text font-family="Century Gothic,Century Gothic_MSFontService,sans-serif" font-weight="700" font-size="64" transform="matrix(1 0 0 1 977.827 776)">DESCRIPCION<tspan font-size="55" x="1116.61" y="-43">VIGENCIA</tspan><tspan fill="#3333FF" font-size="64" x="903.776" y="41">2020</tspan><tspan fill="#3333FF" font-size="64" x="1178.78" y="41">2021</tspan><tspan fill="#3333FF" font-size="64" x="1453.78" y="41">2022</tspan></text><g clip-path="url(#clip1)"><text font-family="Century Gothic,Century Gothic_MSFontService,sans-serif" font-weight="400" font-size="64" transform="matrix(1 0 0 1 563.895 903)">PLAN IEC</text></g><g clip-path="url(#clip2)"><text font-family="Century Gothic,Century Gothic_MSFontService,sans-serif" font-weight="400" font-size="64" transform="matrix(1 0 0 1 2052.33 903)">0</text></g><g clip-path="url(#clip3)"><text font-family="Century Gothic,Century Gothic_MSFontService,sans-serif" font-weight="400" font-size="64" transform="matrix(1 0 0 1 2327.33 903)">1</text></g><g clip-path="url(#clip4)"><text font-family="Century Gothic,Century Gothic_MSFontService,sans-serif" font-weight="400" font-size="64" transform="matrix(1 0 0 1 2602.33 903)">1</text></g><g clip-path="url(#clip5)"><text font-family="Century Gothic,Century Gothic_MSFontService,sans-serif" font-weight="400" font-size="64" transform="matrix(1 0 0 1 563.895 989)">PLAN DE DEMANDA INDUCIDA</text></g><g clip-path="url(#clip6)"><text font-family="Century Gothic,Century Gothic_MSFontService,sans-serif" font-weight="400" font-size="64" transform="matrix(1 0 0 1 2052.33 989)">0</text></g><g clip-path="url(#clip7)"><text font-family="Century Gothic,Century Gothic_MSFontService,sans-serif" font-weight="400" font-size="64" transform="matrix(1 0 0 1 2327.33 989)">1</text></g><g clip-path="url(#clip8)"><text font-family="Century Gothic,Century Gothic_MSFontService,sans-serif" font-weight="400" font-size="64" transform="matrix(1 0 0 1 2602.33 989)">1</text></g><g clip-path="url(#clip9)"><text font-family="Century Gothic,Century Gothic_MSFontService,sans-serif" font-weight="400" font-size="64" transform="matrix(1 0 0 1 563.895 1075)">JORNADAS ESTAND DE SP</text></g><g clip-path="url(#clip10)"><text font-family="Century Gothic,Century Gothic_MSFontService,sans-serif" font-weight="400" font-size="64" transform="matrix(1 0 0 1 2052.33 1075)">0</text></g><g clip-path="url(#clip11)"><text font-family="Century Gothic,Century Gothic_MSFontService,sans-serif" font-weight="400" font-size="64" transform="matrix(1 0 0 1 2291.81 1075)">30</text></g><g clip-path="url(#clip12)"><text font-family="Century Gothic,Century Gothic_MSFontService,sans-serif" font-weight="400" font-size="64" transform="matrix(1 0 0 1 2566.81 1075)">50</text></g><g clip-path="url(#clip13)"><text font-family="Century Gothic,Century Gothic_MSFontService,sans-serif" font-weight="400" font-size="64" transform="matrix(1 0 0 1 563.895 1161)">TALLERES COMUNITARIOS</text></g><g clip-path="url(#clip14)"><text font-family="Century Gothic,Century Gothic_MSFontService,sans-serif" font-weight="400" font-size="64" transform="matrix(1 0 0 1 1981.29 1161)">239</text></g><g clip-path="url(#clip15)"><text font-family="Century Gothic,Century Gothic_MSFontService,sans-serif" font-weight="400" font-size="64" transform="matrix(1 0 0 1 2256.29 1161)">102</text></g><g clip-path="url(#clip16)"><text font-family="Century Gothic,Century Gothic_MSFontService,sans-serif" font-weight="400" font-size="64" transform="matrix(1 0 0 1 2531.29 1161)">449</text></g><g clip-path="url(#clip17)"><text font-family="Century Gothic,Century Gothic_MSFontService,sans-serif" font-weight="400" font-size="64" transform="matrix(1 0 0 1 563.895 1247)">FESTIVALES DE LA SALUD</text></g><g clip-path="url(#clip18)"><text font-family="Century Gothic,Century Gothic_MSFontService,sans-serif" font-weight="400" font-size="64" transform="matrix(1 0 0 1 2052.33 1247)">0</text></g><g clip-path="url(#clip19)"><text font-family="Century Gothic,Century Gothic_MSFontService,sans-serif" font-weight="400" font-size="64" transform="matrix(1 0 0 1 2327.33 1247)">0</text></g><g clip-path="url(#clip20)"><text font-family="Century Gothic,Century Gothic_MSFontService,sans-serif" font-weight="400" font-size="64" transform="matrix(1 0 0 1 2602.33 1247)">5</text></g><g clip-path="url(#clip21)"><text font-family="Century Gothic,Century Gothic_MSFontService,sans-serif" font-weight="400" font-size="64" transform="matrix(1 0 0 1 563.895 1333)">JORNADAS ATENCION DOM DE P Y  M</text></g><g clip-path="url(#clip22)"><text font-family="Century Gothic,Century Gothic_MSFontService,sans-serif" font-weight="400" font-size="64" transform="matrix(1 0 0 1 2052.33 1333)">0</text></g><g clip-path="url(#clip23)"><text font-family="Century Gothic,Century Gothic_MSFontService,sans-serif" font-weight="400" font-size="64" transform="matrix(1 0 0 1 2327.33 1333)">0</text></g><g clip-path="url(#clip24)"><text font-family="Century Gothic,Century Gothic_MSFontService,sans-serif" font-weight="400" font-size="64" transform="matrix(1 0 0 1 2602.33 1333)">6</text></g><g clip-path="url(#clip25)"><text font-family="Century Gothic,Century Gothic_MSFontService,sans-serif" font-weight="400" font-size="64" transform="matrix(1 0 0 1 563.895 1419)">VISITAS DOMICILIARIAS</text></g><g clip-path="url(#clip26)"><text font-family="Century Gothic,Century Gothic_MSFontService,sans-serif" font-weight="400" font-size="64" transform="matrix(1 0 0 1 1928.01 1419)">9.950</text></g><g clip-path="url(#clip27)"><text font-family="Century Gothic,Century Gothic_MSFontService,sans-serif" font-weight="400" font-size="64" transform="matrix(1 0 0 1 2167.49 1419)">12.448</text></g><g clip-path="url(#clip28)"><text font-family="Century Gothic,Century Gothic_MSFontService,sans-serif" font-weight="400" font-size="64" transform="matrix(1 0 0 1 2442.49 1419)">18.687</text></g><text font-family="Century Gothic,Century Gothic_MSFontService,sans-serif" font-weight="700" font-size="64" transform="matrix(1 0 0 1 1096.71 1508)">TOTAL</text><g clip-path="url(#clip29)"><text font-family="Century Gothic,Century Gothic_MSFontService,sans-serif" font-weight="700" font-size="64" transform="matrix(1 0 0 1 1889.62 1508)">10.189</text></g><g clip-path="url(#clip30)"><text font-family="Century Gothic,Century Gothic_MSFontService,sans-serif" font-weight="700" font-size="64" transform="matrix(1 0 0 1 2164.62 1508)">12.582</text></g><g clip-path="url(#clip31)"><text font-family="Century Gothic,Century Gothic_MSFontService,sans-serif" font-weight="700" font-size="64" transform="matrix(1 0 0 1 2439.62 1508)">19.199</text></g></g></svg>