<svg width="4149" height="1598" xmlns="http://www.w3.org/2000/svg" xmlns:xlink="http://www.w3.org/1999/xlink" overflow="hidden"><defs><clipPath id="clip0"><rect x="157" y="606" width="4149" height="1598"/></clipPath><clipPath id="clip1"><rect x="159" y="515" width="1207" height="463"/></clipPath><clipPath id="clip2"><rect x="1365" y="585" width="252" height="463"/></clipPath><clipPath id="clip3"><rect x="1616" y="585" width="382" height="463"/></clipPath><clipPath id="clip4"><rect x="1997" y="585" width="385" height="463"/></clipPath><clipPath id="clip5"><rect x="2381" y="585" width="211" height="463"/></clipPath><clipPath id="clip6"><rect x="2591" y="585" width="382" height="463"/></clipPath><clipPath id="clip7"><rect x="2972" y="585" width="385" height="463"/></clipPath><clipPath id="clip8"><rect x="3356" y="585" width="210" height="463"/></clipPath><clipPath id="clip9"><rect x="3565" y="585" width="382" height="463"/></clipPath><clipPath id="clip10"><rect x="159" y="296" width="1207" height="1387"/></clipPath><clipPath id="clip11"><rect x="159" y="296" width="1207" height="1387"/></clipPath><clipPath id="clip12"><rect x="159" y="296" width="1207" height="1387"/></clipPath><clipPath id="clip13"><rect x="159" y="702" width="1207" height="925"/></clipPath><clipPath id="clip14"><rect x="159" y="702" width="1207" height="925"/></clipPath><clipPath id="clip15"><rect x="159" y="1055" width="1207" height="463"/></clipPath><clipPath id="clip16"><rect x="159" y="1161" width="1207" height="463"/></clipPath><clipPath id="clip17"><rect x="159" y="1267" width="1207" height="463"/></clipPath><clipPath id="clip18"><rect x="159" y="1373" width="1207" height="463"/></clipPath><clipPath id="clip19"><rect x="159" y="1479" width="1207" height="463"/></clipPath><clipPath id="clip20"><rect x="159" y="1585" width="1207" height="463"/></clipPath><clipPath id="clip21"><rect x="159" y="1513" width="1207" height="925"/></clipPath><clipPath id="clip22"><rect x="159" y="1513" width="1207" height="925"/></clipPath><clipPath id="clip23"><rect x="159" y="1906" width="1207" height="463"/></clipPath></defs><g clip-path="url(#clip0)" transform="translate(-157 -606)"><path d="M159.31 608.793 1365.52 608.793 1365.52 882.069 159.31 882.069Z" fill="#92D050" fill-rule="evenodd"/><path d="M1365.52 608.793 2381.39 608.793 2381.39 747.15 1365.52 747.15Z" fill="#92D050" fill-rule="evenodd"/><path d="M2381.39 608.793 3356.11 608.793 3356.11 747.15 2381.39 747.15Z" fill="#92D050" fill-rule="evenodd"/><path d="M3356.11 608.793 4300.84 608.793 4300.84 747.15 3356.11 747.15Z" fill="#92D050" fill-rule="evenodd"/><path d="M1365.52 747.15 1616.4 747.15 1616.4 882.069 1365.52 882.069Z" fill="#FFFF00" fill-rule="evenodd"/><path d="M1616.4 747.15 1997.5 747.15 1997.5 882.069 1616.4 882.069Z" fill="#FFFF00" fill-rule="evenodd"/><path d="M1997.5 747.15 2381.39 747.15 2381.39 882.069 1997.5 882.069Z" fill="#FFFF00" fill-rule="evenodd"/><path d="M2381.39 747.15 2591.12 747.15 2591.12 882.069 2381.39 882.069Z" fill="#FFFF00" fill-rule="evenodd"/><path d="M2591.12 747.15 2972.22 747.15 2972.22 882.069 2591.12 882.069Z" fill="#FFFF00" fill-rule="evenodd"/><path d="M2972.22 747.15 3356.11 747.15 3356.11 882.069 2972.22 882.069Z" fill="#FFFF00" fill-rule="evenodd"/><path d="M3356.11 747.15 3565.84 747.15 3565.84 882.069 3356.11 882.069Z" fill="#FFFF00" fill-rule="evenodd"/><path d="M3565.84 747.15 3946.94 747.15 3946.94 882.069 3565.84 882.069Z" fill="#FFFF00" fill-rule="evenodd"/><path d="M3946.94 747.15 4300.84 747.15 4300.84 882.069 3946.94 882.069Z" fill="#FFFF00" fill-rule="evenodd"/><path d="M1365.52 882.069 1616.4 882.069 1616.4 1094.23 1365.52 1094.23Z" fill="#DDEBF7" fill-rule="evenodd"/><path d="M1616.4 882.069 1997.5 882.069 1997.5 1094.23 1616.4 1094.23Z" fill="#DDEBF7" fill-rule="evenodd"/><path d="M1997.5 882.069 2381.39 882.069 2381.39 1094.23 1997.5 1094.23Z" fill="#DDEBF7" fill-rule="evenodd"/><path d="M2381.39 882.069 2591.12 882.069 2591.12 1094.23 2381.39 1094.23Z" fill="#FFF2CC" fill-rule="evenodd"/><path d="M2591.12 882.069 2972.22 882.069 2972.22 1094.23 2591.12 1094.23Z" fill="#FFF2CC" fill-rule="evenodd"/><path d="M2972.22 882.069 3356.11 882.069 3356.11 1094.23 2972.22 1094.23Z" fill="#FFF2CC" fill-rule="evenodd"/><path d="M3356.11 882.069 3565.84 882.069 3565.84 1094.23 3356.11 1094.23Z" fill="#E2EFDA" fill-rule="evenodd"/><path d="M3565.84 882.069 3946.94 882.069 3946.94 1094.23 3565.84 1094.23Z" fill="#E2EFDA" fill-rule="evenodd"/><path d="M3946.94 882.069 4300.84 882.069 4300.84 1094.23 3946.94 1094.23Z" fill="#E2EFDA" fill-rule="evenodd"/><path d="M1365.52 1094.23 1616.4 1094.23 1616.4 1231.59 1365.52 1231.59Z" fill="#DDEBF7" fill-rule="evenodd"/><path d="M1616.4 1094.23 1997.5 1094.23 1997.5 1231.59 1616.4 1231.59Z" fill="#DDEBF7" fill-rule="evenodd"/><path d="M1997.5 1094.23 2381.39 1094.23 2381.39 1231.59 1997.5 1231.59Z" fill="#DDEBF7" fill-rule="evenodd"/><path d="M2381.39 1094.23 2591.12 1094.23 2591.12 1231.59 2381.39 1231.59Z" fill="#FFF2CC" fill-rule="evenodd"/><path d="M2591.12 1094.23 2972.22 1094.23 2972.22 1231.59 2591.12 1231.59Z" fill="#FFF2CC" fill-rule="evenodd"/><path d="M2972.22 1094.23 3356.11 1094.23 3356.11 1231.59 2972.22 1231.59Z" fill="#FFF2CC" fill-rule="evenodd"/><path d="M3356.11 1094.23 3565.84 1094.23 3565.84 1231.59 3356.11 1231.59Z" fill="#E2EFDA" fill-rule="evenodd"/><path d="M3565.84 1094.23 3946.94 1094.23 3946.94 1231.59 3565.84 1231.59Z" fill="#E2EFDA" fill-rule="evenodd"/><path d="M3946.94 1094.23 4300.84 1094.23 4300.84 1231.59 3946.94 1231.59Z" fill="#E2EFDA" fill-rule="evenodd"/><path d="M1365.52 1231.59 1616.4 1231.59 1616.4 1337.67 1365.52 1337.67Z" fill="#DDEBF7" fill-rule="evenodd"/><path d="M1616.4 1231.59 1997.5 1231.59 1997.5 1337.67 1616.4 1337.67Z" fill="#DDEBF7" fill-rule="evenodd"/><path d="M1997.5 1231.59 2381.39 1231.59 2381.39 1337.67 1997.5 1337.67Z" fill="#DDEBF7" fill-rule="evenodd"/><path d="M2381.39 1231.59 2591.12 1231.59 2591.12 1337.67 2381.39 1337.67Z" fill="#FFF2CC" fill-rule="evenodd"/><path d="M2591.12 1231.59 2972.22 1231.59 2972.22 1337.67 2591.12 1337.67Z" fill="#FFF2CC" fill-rule="evenodd"/><path d="M2972.22 1231.59 3356.11 1231.59 3356.11 1337.67 2972.22 1337.67Z" fill="#FFF2CC" fill-rule="evenodd"/><path d="M3356.11 1231.59 3565.84 1231.59 3565.84 1337.67 3356.11 1337.67Z" fill="#E2EFDA" fill-rule="evenodd"/><path d="M3565.84 1231.59 3946.94 1231.59 3946.94 1337.67 3565.84 1337.67Z" fill="#E2EFDA" fill-rule="evenodd"/><path d="M3946.94 1231.59 4300.84 1231.59 4300.84 1337.67 3946.94 1337.67Z" fill="#E2EFDA" fill-rule="evenodd"/><path d="M1365.52 1337.67 1616.4 1337.67 1616.4 1443.75 1365.52 1443.75Z" fill="#DDEBF7" fill-rule="evenodd"/><path d="M1616.4 1337.67 1997.5 1337.67 1997.5 1443.75 1616.4 1443.75Z" fill="#DDEBF7" fill-rule="evenodd"/><path d="M1997.5 1337.67 2381.39 1337.67 2381.39 1443.75 1997.5 1443.75Z" fill="#DDEBF7" fill-rule="evenodd"/><path d="M2381.39 1337.67 2591.12 1337.67 2591.12 1443.75 2381.39 1443.75Z" fill="#FFF2CC" fill-rule="evenodd"/><path d="M2591.12 1337.67 2972.22 1337.67 2972.22 1443.75 2591.12 1443.75Z" fill="#FFF2CC" fill-rule="evenodd"/><path d="M2972.22 1337.67 3356.11 1337.67 3356.11 1443.75 2972.22 1443.75Z" fill="#FFF2CC" fill-rule="evenodd"/><path d="M3356.11 1337.67 3565.84 1337.67 3565.84 1443.75 3356.11 1443.75Z" fill="#E2EFDA" fill-rule="evenodd"/><path d="M3565.84 1337.67 3946.94 1337.67 3946.94 1443.75 3565.84 1443.75Z" fill="#E2EFDA" fill-rule="evenodd"/><path d="M3946.94 1337.67 4300.84 1337.67 4300.84 1443.75 3946.94 1443.75Z" fill="#E2EFDA" fill-rule="evenodd"/><path d="M1365.52 1443.75 1616.4 1443.75 1616.4 1549.82 1365.52 1549.82Z" fill="#DDEBF7" fill-rule="evenodd"/><path d="M1616.4 1443.75 1997.5 1443.75 1997.5 1549.82 1616.4 1549.82Z" fill="#DDEBF7" fill-rule="evenodd"/><path d="M1997.5 1443.75 2381.39 1443.75 2381.39 1549.82 1997.5 1549.82Z" fill="#DDEBF7" fill-rule="evenodd"/><path d="M2381.39 1443.75 2591.12 1443.75 2591.12 1549.82 2381.39 1549.82Z" fill="#FFF2CC" fill-rule="evenodd"/><path d="M2591.12 1443.75 2972.22 1443.75 2972.22 1549.82 2591.12 1549.82Z" fill="#FFF2CC" fill-rule="evenodd"/><path d="M2972.22 1443.75 3356.11 1443.75 3356.11 1549.82 2972.22 1549.82Z" fill="#FFF2CC" fill-rule="evenodd"/><path d="M3356.11 1443.75 3565.84 1443.75 3565.84 1549.82 3356.11 1549.82Z" fill="#E2EFDA" fill-rule="evenodd"/><path d="M3565.84 1443.75 3946.94 1443.75 3946.94 1549.82 3565.84 1549.82Z" fill="#E2EFDA" fill-rule="evenodd"/><path d="M3946.94 1443.75 4300.84 1443.75 4300.84 1549.82 3946.94 1549.82Z" fill="#E2EFDA" fill-rule="evenodd"/><path d="M1365.52 1549.82 1616.4 1549.82 1616.4 1655.9 1365.52 1655.9Z" fill="#DDEBF7" fill-rule="evenodd"/><path d="M1616.4 1549.82 1997.5 1549.82 1997.5 1655.9 1616.4 1655.9Z" fill="#DDEBF7" fill-rule="evenodd"/><path d="M1997.5 1549.82 2381.39 1549.82 2381.39 1655.9 1997.5 1655.9Z" fill="#DDEBF7" fill-rule="evenodd"/><path d="M2381.39 1549.82 2591.12 1549.82 2591.12 1655.9 2381.39 1655.9Z" fill="#FFF2CC" fill-rule="evenodd"/><path d="M2591.12 1549.82 2972.22 1549.82 2972.22 1655.9 2591.12 1655.9Z" fill="#FFF2CC" fill-rule="evenodd"/><path d="M2972.22 1549.82 3356.11 1549.82 3356.11 1655.9 2972.22 1655.9Z" fill="#FFF2CC" fill-rule="evenodd"/><path d="M3356.11 1549.82 3565.84 1549.82 3565.84 1655.9 3356.11 1655.9Z" fill="#E2EFDA" fill-rule="evenodd"/><path d="M3565.84 1549.82 3946.94 1549.82 3946.94 1655.9 3565.84 1655.9Z" fill="#E2EFDA" fill-rule="evenodd"/><path d="M3946.94 1549.82 4300.84 1549.82 4300.84 1655.9 3946.94 1655.9Z" fill="#E2EFDA" fill-rule="evenodd"/><path d="M1365.52 1655.9 1616.4 1655.9 1616.4 1761.98 1365.52 1761.98Z" fill="#DDEBF7" fill-rule="evenodd"/><path d="M1616.4 1655.9 1997.5 1655.9 1997.5 1761.98 1616.4 1761.98Z" fill="#DDEBF7" fill-rule="evenodd"/><path d="M1997.5 1655.9 2381.39 1655.9 2381.39 1761.98 1997.5 1761.98Z" fill="#DDEBF7" fill-rule="evenodd"/><path d="M2381.39 1655.9 2591.12 1655.9 2591.12 1761.98 2381.39 1761.98Z" fill="#FFF2CC" fill-rule="evenodd"/><path d="M2591.12 1655.9 2972.22 1655.9 2972.22 1761.98 2591.12 1761.98Z" fill="#FFF2CC" fill-rule="evenodd"/><path d="M2972.22 1655.9 3356.11 1655.9 3356.11 1761.98 2972.22 1761.98Z" fill="#FFF2CC" fill-rule="evenodd"/><path d="M3356.11 1655.9 3565.84 1655.9 3565.84 1761.98 3356.11 1761.98Z" fill="#E2EFDA" fill-rule="evenodd"/><path d="M3565.84 1655.9 3946.94 1655.9 3946.94 1761.98 3565.84 1761.98Z" fill="#E2EFDA" fill-rule="evenodd"/><path d="M3946.94 1655.9 4300.84 1655.9 4300.84 1761.98 3946.94 1761.98Z" fill="#E2EFDA" fill-rule="evenodd"/><path d="M1365.52 1761.98 1616.4 1761.98 1616.4 1868.06 1365.52 1868.06Z" fill="#DDEBF7" fill-rule="evenodd"/><path d="M1616.4 1761.98 1997.5 1761.98 1997.5 1868.06 1616.4 1868.06Z" fill="#DDEBF7" fill-rule="evenodd"/><path d="M1997.5 1761.98 2381.39 1761.98 2381.39 1868.06 1997.5 1868.06Z" fill="#DDEBF7" fill-rule="evenodd"/><path d="M2381.39 1761.98 2591.12 1761.98 2591.12 1868.06 2381.39 1868.06Z" fill="#FFF2CC" fill-rule="evenodd"/><path d="M2591.12 1761.98 2972.22 1761.98 2972.22 1868.06 2591.12 1868.06Z" fill="#FFF2CC" fill-rule="evenodd"/><path d="M2972.22 1761.98 3356.11 1761.98 3356.11 1868.06 2972.22 1868.06Z" fill="#FFF2CC" fill-rule="evenodd"/><path d="M3356.11 1761.98 3565.84 1761.98 3565.84 1868.06 3356.11 1868.06Z" fill="#E2EFDA" fill-rule="evenodd"/><path d="M3565.84 1761.98 3946.94 1761.98 3946.94 1868.06 3565.84 1868.06Z" fill="#E2EFDA" fill-rule="evenodd"/><path d="M3946.94 1761.98 4300.84 1761.98 4300.84 1868.06 3946.94 1868.06Z" fill="#E2EFDA" fill-rule="evenodd"/><path d="M1365.52 1868.06 1616.4 1868.06 1616.4 2080.22 1365.52 2080.22Z" fill="#DDEBF7" fill-rule="evenodd"/><path d="M1616.4 1868.06 1997.5 1868.06 1997.5 2080.22 1616.4 2080.22Z" fill="#DDEBF7" fill-rule="evenodd"/><path d="M1997.5 1868.06 2381.39 1868.06 2381.39 2080.22 1997.5 2080.22Z" fill="#DDEBF7" fill-rule="evenodd"/><path d="M2381.39 1868.06 2591.12 1868.06 2591.12 2080.22 2381.39 2080.22Z" fill="#FFF2CC" fill-rule="evenodd"/><path d="M2591.12 1868.06 2972.22 1868.06 2972.22 2080.22 2591.12 2080.22Z" fill="#FFF2CC" fill-rule="evenodd"/><path d="M2972.22 1868.06 3356.11 1868.06 3356.11 2080.22 2972.22 2080.22Z" fill="#FFF2CC" fill-rule="evenodd"/><path d="M3356.11 1868.06 3565.84 1868.06 3565.84 2080.22 3356.11 2080.22Z" fill="#E2EFDA" fill-rule="evenodd"/><path d="M3565.84 1868.06 3946.94 1868.06 3946.94 2080.22 3565.84 2080.22Z" fill="#E2EFDA" fill-rule="evenodd"/><path d="M3946.94 1868.06 4300.84 1868.06 4300.84 2080.22 3946.94 2080.22Z" fill="#E2EFDA" fill-rule="evenodd"/><path d="M159.31 2080.22 1365.52 2080.22 1365.52 2190.91 159.31 2190.91Z" fill="#BFBFBF" fill-rule="evenodd"/><path d="M1365.52 2080.22 1616.4 2080.22 1616.4 2190.91 1365.52 2190.91Z" fill="#BFBFBF" fill-rule="evenodd"/><path d="M1616.4 2080.22 1997.5 2080.22 1997.5 2190.91 1616.4 2190.91Z" fill="#BFBFBF" fill-rule="evenodd"/><path d="M1997.5 2080.22 2381.39 2080.22 2381.39 2190.91 1997.5 2190.91Z" fill="#BFBFBF" fill-rule="evenodd"/><path d="M2381.39 2080.22 2591.12 2080.22 2591.12 2190.91 2381.39 2190.91Z" fill="#BFBFBF" fill-rule="evenodd"/><path d="M2591.12 2080.22 2972.22 2080.22 2972.22 2190.91 2591.12 2190.91Z" fill="#BFBFBF" fill-rule="evenodd"/><path d="M2972.22 2080.22 3356.11 2080.22 3356.11 2190.91 2972.22 2190.91Z" fill="#BFBFBF" fill-rule="evenodd"/><path d="M3356.11 2080.22 3565.84 2080.22 3565.84 2190.91 3356.11 2190.91Z" fill="#BFBFBF" fill-rule="evenodd"/><path d="M3565.84 2080.22 3946.94 2080.22 3946.94 2190.91 3565.84 2190.91Z" fill="#BFBFBF" fill-rule="evenodd"/><path d="M3946.94 2080.22 4300.84 2080.22 4300.84 2190.91 3946.94 2190.91Z" fill="#BFBFBF" fill-rule="evenodd"/><path d="M1365.52 606.501 1365.52 2193.2" stroke="#000000" stroke-width="4.58333" stroke-linejoin="round" stroke-miterlimit="10" fill="none" fill-rule="evenodd"/><path d="M1616.4 746.004 1616.4 2193.2" stroke="#000000" stroke-width="2.29167" stroke-linejoin="round" stroke-miterlimit="10" fill="none" fill-rule="evenodd"/><path d="M1997.5 746.004 1997.5 2193.2" stroke="#000000" stroke-width="2.29167" stroke-linejoin="round" stroke-miterlimit="10" fill="none" fill-rule="evenodd"/><path d="M2381.39 606.501 2381.39 2193.2" stroke="#000000" stroke-width="4.58333" stroke-linejoin="round" stroke-miterlimit="10" fill="none" fill-rule="evenodd"/><path d="M2591.12 746.004 2591.12 2193.2" stroke="#000000" stroke-width="2.29167" stroke-linejoin="round" stroke-miterlimit="10" fill="none" fill-rule="evenodd"/><path d="M2972.22 746.004 2972.22 2193.2" stroke="#000000" stroke-width="2.29167" stroke-linejoin="round" stroke-miterlimit="10" fill="none" fill-rule="evenodd"/><path d="M3356.11 606.501 3356.11 2193.2" stroke="#000000" stroke-width="4.58333" stroke-linejoin="round" stroke-miterlimit="10" fill="none" fill-rule="evenodd"/><path d="M3565.84 746.004 3565.84 2193.2" stroke="#000000" stroke-width="2.29167" stroke-linejoin="round" stroke-miterlimit="10" fill="none" fill-rule="evenodd"/><path d="M3946.94 746.004 3946.94 2193.2" stroke="#000000" stroke-width="2.29167" stroke-linejoin="round" stroke-miterlimit="10" fill="none" fill-rule="evenodd"/><path d="M1363.23 747.15 4303.13 747.15" stroke="#000000" stroke-width="2.29167" stroke-linejoin="round" stroke-miterlimit="10" fill="none" fill-rule="evenodd"/><path d="M157.018 882.069 4303.13 882.069" stroke="#000000" stroke-width="2.29167" stroke-linejoin="round" stroke-miterlimit="10" fill="none" fill-rule="evenodd"/><path d="M157.018 1094.23 4303.13 1094.23" stroke="#000000" stroke-width="2.29167" stroke-linejoin="round" stroke-miterlimit="10" fill="none" fill-rule="evenodd"/><path d="M157.018 1231.59 4303.13 1231.59" stroke="#000000" stroke-width="2.29167" stroke-linejoin="round" stroke-miterlimit="10" fill="none" fill-rule="evenodd"/><path d="M157.018 1337.67 4303.13 1337.67" stroke="#000000" stroke-width="2.29167" stroke-linejoin="round" stroke-miterlimit="10" fill="none" fill-rule="evenodd"/><path d="M157.018 1443.75 4303.13 1443.75" stroke="#000000" stroke-width="2.29167" stroke-linejoin="round" stroke-miterlimit="10" fill="none" fill-rule="evenodd"/><path d="M157.018 1549.82 4303.13 1549.82" stroke="#000000" stroke-width="2.29167" stroke-linejoin="round" stroke-miterlimit="10" fill="none" fill-rule="evenodd"/><path d="M157.018 1655.9 4303.13 1655.9" stroke="#000000" stroke-width="2.29167" stroke-linejoin="round" stroke-miterlimit="10" fill="none" fill-rule="evenodd"/><path d="M157.018 1761.98 4303.13 1761.98" stroke="#000000" stroke-width="2.29167" stroke-linejoin="round" stroke-miterlimit="10" fill="none" fill-rule="evenodd"/><path d="M157.018 1868.06 4303.13 1868.06" stroke="#000000" stroke-width="2.29167" stroke-linejoin="round" stroke-miterlimit="10" fill="none" fill-rule="evenodd"/><path d="M157.018 2080.22 4303.13 2080.22" stroke="#000000" stroke-width="2.29167" stroke-linejoin="round" stroke-miterlimit="10" fill="none" fill-rule="evenodd"/><path d="M159.31 606.501 159.31 2193.2" stroke="#000000" stroke-width="4.58333" stroke-linejoin="round" stroke-miterlimit="10" fill="none" fill-rule="evenodd"/><path d="M4300.84 606.501 4300.84 2193.2" stroke="#000000" stroke-width="4.58333" stroke-linejoin="round" stroke-miterlimit="10" fill="none" fill-rule="evenodd"/><path d="M157.018 608.793 4303.13 608.793" stroke="#000000" stroke-width="4.58333" stroke-linejoin="round" stroke-miterlimit="10" fill="none" fill-rule="evenodd"/><path d="M157.018 2190.91 4303.13 2190.91" stroke="#000000" stroke-width="4.58333" stroke-linejoin="round" stroke-miterlimit="10" fill="none" fill-rule="evenodd"/><g clip-path="url(#clip1)"><text font-family="Arial,Arial_MSFontService,sans-serif" font-weight="700" font-size="55" transform="matrix(1 0 0 1 162.229 766)">EVENTOS DE INTERES EN SALUD PUBLICA</text></g><text font-family="Arial,Arial_MSFontService,sans-serif" font-weight="700" font-size="55" transform="matrix(1 0 0 1 1810.71 696)">2020<tspan font-size="55" x="926.648" y="0">AÑO 2021</tspan><tspan font-size="55" x="1886.54" y="0">AÑO 2022</tspan></text><g clip-path="url(#clip2)"><text fill="#3333FF" font-family="Arial,Arial_MSFontService,sans-serif" font-weight="700" font-size="55" transform="matrix(1 0 0 1 1397.65 835)">VALOR</text></g><g clip-path="url(#clip3)"><text fill="#3333FF" font-family="Arial,Arial_MSFontService,sans-serif" font-weight="700" font-size="55" transform="matrix(1 0 0 1 1627.33 835)">FRECUENCIA</text></g><g clip-path="url(#clip4)"><text fill="#3333FF" font-family="Arial,Arial_MSFontService,sans-serif" font-weight="700" font-size="55" transform="matrix(1 0 0 1 2008.68 835)">TAS DE INCID</text></g><g clip-path="url(#clip5)"><text fill="#3333FF" font-family="Arial,Arial_MSFontService,sans-serif" font-weight="700" font-size="55" transform="matrix(1 0 0 1 2392.57 835)">VALOR</text></g><g clip-path="url(#clip6)"><text fill="#3333FF" font-family="Arial,Arial_MSFontService,sans-serif" font-weight="700" font-size="55" transform="matrix(1 0 0 1 2602.05 835)">FRECUENCIA</text></g><g clip-path="url(#clip7)"><text fill="#3333FF" font-family="Arial,Arial_MSFontService,sans-serif" font-weight="700" font-size="55" transform="matrix(1 0 0 1 2983.4 835)">TAS DE INCID</text></g><g clip-path="url(#clip8)"><text fill="#3333FF" font-family="Arial,Arial_MSFontService,sans-serif" font-weight="700" font-size="55" transform="matrix(1 0 0 1 3367.3 835)">VALOR</text></g><g clip-path="url(#clip9)"><text fill="#3333FF" font-family="Arial,Arial_MSFontService,sans-serif" font-weight="700" font-size="55" transform="matrix(1 0 0 1 3576.77 835)">FRECUENCIA</text></g><text fill="#3333FF" font-family="Arial,Arial_MSFontService,sans-serif" font-weight="700" font-size="55" transform="matrix(1 0 0 1 4025.02 802)">TAS DE <tspan font-size="55" x="25" y="66">INCID</tspan></text><g clip-path="url(#clip10)"><text font-family="Arial,Arial_MSFontService,sans-serif" font-weight="400" font-size="55" transform="matrix(1 0 0 1 162.229 941)">AGRESIÓN POR ANIMALES </text></g><g clip-path="url(#clip11)"><text font-family="Arial,Arial_MSFontService,sans-serif" font-weight="400" font-size="55" transform="matrix(1 0 0 1 162.229 1007)">POTENCIALMENTE TRASMISORES DE LA </text></g><g clip-path="url(#clip12)"><text font-family="Arial,Arial_MSFontService,sans-serif" font-weight="400" font-size="55" transform="matrix(1 0 0 1 162.229 1073)">RABIA</text></g><text font-family="Arial,Arial_MSFontService,sans-serif" font-weight="400" font-size="55" transform="matrix(1 0 0 1 1459.65 1007)">15<tspan font-size="55" x="268.666" y="0">5,58%</tspan><tspan font-size="55" x="660.017" y="0">2,344</tspan><tspan font-size="55" x="994.923" y="0">26</tspan><tspan font-size="55" x="1243.39" y="0">6,27%</tspan><tspan font-size="55" x="1634.74" y="0">4,063</tspan><tspan font-size="55" x="1969.64" y="0">23</tspan><tspan font-size="55" x="2202.12" y="0">10,60%</tspan><tspan font-size="55" x="2594.36" y="0">3,594</tspan></text><g clip-path="url(#clip13)"><text font-family="Arial,Arial_MSFontService,sans-serif" font-weight="400" font-size="55" transform="matrix(1 0 0 1 162.229 1148)">DESNUTRICIÓN AGUDA EN MENORES DE 5 </text></g><g clip-path="url(#clip14)"><text font-family="Arial,Arial_MSFontService,sans-serif" font-weight="400" font-size="55" transform="matrix(1 0 0 1 162.229 1214)">AÑOS</text></g><text font-family="Arial,Arial_MSFontService,sans-serif" font-weight="400" font-size="55" transform="matrix(1 0 0 1 1475.64 1181)">1<tspan font-size="55" x="252.677" y="0">0,37%</tspan><tspan font-size="55" x="644.028" y="0">0,156</tspan><tspan font-size="55" x="994.923" y="0">1</tspan><tspan font-size="55" x="1227.4" y="0">0,24%</tspan><tspan font-size="55" x="1618.75" y="0">0,156</tspan><tspan font-size="55" x="1969.64" y="0">0</tspan><tspan font-size="55" x="2202.12" y="0">0,00%</tspan><tspan font-size="55" x="2578.37" y="0">0,000</tspan></text><g clip-path="url(#clip15)"><text font-family="Arial,Arial_MSFontService,sans-serif" font-weight="400" font-size="55" transform="matrix(1 0 0 1 162.229 1303)">INTENTO DE SUICIDIO</text></g><text font-family="Arial,Arial_MSFontService,sans-serif" font-weight="400" font-size="55" transform="matrix(1 0 0 1 1475.64 1303)">5<tspan font-size="55" x="252.677" y="0">1,86%</tspan><tspan font-size="55" x="644.028" y="0">0,781</tspan><tspan font-size="55" x="994.923" y="0">1</tspan><tspan font-size="55" x="1227.4" y="0">0,24%</tspan><tspan font-size="55" x="1618.75" y="0">0,156</tspan><tspan font-size="55" x="1969.64" y="0">3</tspan><tspan font-size="55" x="2202.12" y="0">1,38%</tspan><tspan font-size="55" x="2578.37" y="0">0,469</tspan></text><g clip-path="url(#clip16)"><text font-family="Arial,Arial_MSFontService,sans-serif" font-weight="400" font-size="55" transform="matrix(1 0 0 1 162.229 1409)">INTOXICACIONES</text></g><text font-family="Arial,Arial_MSFontService,sans-serif" font-weight="400" font-size="55" transform="matrix(1 0 0 1 1475.64 1409)">0<tspan font-size="55" x="252.677" y="0">0,00%</tspan><tspan font-size="55" x="644.028" y="0">0,000</tspan><tspan font-size="55" x="994.923" y="0">2</tspan><tspan font-size="55" x="1227.4" y="0">0,48%</tspan><tspan font-size="55" x="1618.75" y="0">0,313</tspan><tspan font-size="55" x="1969.64" y="0">5</tspan><tspan font-size="55" x="2202.12" y="0">2,30%</tspan><tspan font-size="55" x="2578.37" y="0">0,781</tspan></text><g clip-path="url(#clip17)"><text font-family="Arial,Arial_MSFontService,sans-serif" font-weight="400" font-size="55" transform="matrix(1 0 0 1 162.229 1515)">IRAG INUSITADA</text></g><text font-family="Arial,Arial_MSFontService,sans-serif" font-weight="400" font-size="55" transform="matrix(1 0 0 1 1459.65 1515)">58<tspan font-size="55" x="252.677" y="0">21,56%</tspan><tspan font-size="55" x="660.017" y="0">9,063</tspan><tspan font-size="55" x="1010.91" y="0">0</tspan><tspan font-size="55" x="1243.39" y="0">0,00%</tspan><tspan font-size="55" x="1634.74" y="0">0,000</tspan><tspan font-size="55" x="1985.63" y="0">0</tspan><tspan font-size="55" x="2218.11" y="0">0,00%</tspan><tspan font-size="55" x="2594.36" y="0">0,000</tspan></text><g clip-path="url(#clip18)"><text font-family="Arial,Arial_MSFontService,sans-serif" font-weight="400" font-size="55" transform="matrix(1 0 0 1 162.229 1621)">IRA POR VIRUS NUEVO</text></g><text font-family="Arial,Arial_MSFontService,sans-serif" font-weight="400" font-size="55" transform="matrix(1 0 0 1 1444.64 1621)">180<tspan font-size="55" x="267.689" y="0">66,91%</tspan><tspan font-size="55" x="660.04" y="0">28,125</tspan><tspan font-size="55" x="994.923" y="0">378</tspan><tspan font-size="55" x="1242.41" y="0">91,08%</tspan><tspan font-size="55" x="1634.76" y="0">59,063</tspan><tspan font-size="55" x="1969.64" y="0">174</tspan><tspan font-size="55" x="2217.13" y="0">80,18%</tspan><tspan font-size="55" x="2594.38" y="0">27,188</tspan></text><g clip-path="url(#clip19)"><text font-family="Arial,Arial_MSFontService,sans-serif" font-weight="400" font-size="55" transform="matrix(1 0 0 1 162.229 1727)">SIFILIS GESTACIONAL</text></g><text font-family="Arial,Arial_MSFontService,sans-serif" font-weight="400" font-size="55" transform="matrix(1 0 0 1 1475.64 1727)">1<tspan font-size="55" x="252.677" y="0">0,37%</tspan><tspan font-size="55" x="644.028" y="0">0,156</tspan><tspan font-size="55" x="994.923" y="0">0</tspan><tspan font-size="55" x="1227.4" y="0">0,00%</tspan><tspan font-size="55" x="1618.75" y="0">0,000</tspan><tspan font-size="55" x="1969.64" y="0">0</tspan><tspan font-size="55" x="2202.12" y="0">0,00%</tspan><tspan font-size="55" x="2578.37" y="0">0,000</tspan></text><g clip-path="url(#clip20)"><text font-family="Arial,Arial_MSFontService,sans-serif" font-weight="400" font-size="55" transform="matrix(1 0 0 1 162.229 1833)">VARICELA INDIVIDUAL</text></g><text font-family="Arial,Arial_MSFontService,sans-serif" font-weight="400" font-size="55" transform="matrix(1 0 0 1 1475.64 1833)">0<tspan font-size="55" x="252.677" y="0">0,00%</tspan><tspan font-size="55" x="644.028" y="0">0,000</tspan><tspan font-size="55" x="994.923" y="0">2</tspan><tspan font-size="55" x="1227.4" y="0">0,48%</tspan><tspan font-size="55" x="1618.75" y="0">0,313</tspan><tspan font-size="55" x="1969.64" y="0">1</tspan><tspan font-size="55" x="2202.12" y="0">0,46%</tspan><tspan font-size="55" x="2578.37" y="0">0,156</tspan></text><g clip-path="url(#clip21)"><text font-family="Arial,Arial_MSFontService,sans-serif" font-weight="400" font-size="55" transform="matrix(1 0 0 1 162.229 1960)">VIGILANCIA EN SALUD PÚBLICA DE LA </text></g><g clip-path="url(#clip22)"><text font-family="Arial,Arial_MSFontService,sans-serif" font-weight="400" font-size="55" transform="matrix(1 0 0 1 162.229 2026)">VIOLENCIA DE GÉNERO E INTRAFAMILIAR</text></g><text font-family="Arial,Arial_MSFontService,sans-serif" font-weight="400" font-size="55" transform="matrix(1 0 0 1 1475.64 1993)">9<tspan font-size="55" x="252.677" y="0">3,35%</tspan><tspan font-size="55" x="644.028" y="0">1,406</tspan><tspan font-size="55" x="994.923" y="0">5</tspan><tspan font-size="55" x="1227.4" y="0">1,20%</tspan><tspan font-size="55" x="1618.75" y="0">0,781</tspan><tspan font-size="55" x="1955.66" y="0">11</tspan><tspan font-size="55" x="2202.12" y="0">5,07%</tspan><tspan font-size="55" x="2578.37" y="0">1,719</tspan></text><g clip-path="url(#clip23)"><text font-family="Arial,Arial_MSFontService,sans-serif" font-weight="700" font-size="55" transform="matrix(1 0 0 1 162.229 2154)">TOTAL</text></g><text font-family="Arial,Arial_MSFontService,sans-serif" font-weight="700" font-size="55" transform="matrix(1 0 0 1 1444.64 2154)">269<tspan font-size="55" x="252.677" y="0">100,00%</tspan><tspan font-size="55" x="660.04" y="0">42,031</tspan><tspan font-size="55" x="994.923" y="0">415</tspan><tspan font-size="55" x="1227.4" y="0">100,00%</tspan><tspan font-size="55" x="1634.76" y="0">64,844</tspan><tspan font-size="55" x="1969.64" y="0">217</tspan><tspan font-size="55" x="2202.12" y="0">100,00%</tspan><tspan font-size="55" x="2594.38" y="0">33,906</tspan></text></g></svg>