<svg width="787" height="248" xmlns="http://www.w3.org/2000/svg" xmlns:xlink="http://www.w3.org/1999/xlink" overflow="hidden"><defs><clipPath id="clip0"><rect x="1949" y="1851" width="787" height="248"/></clipPath></defs><g clip-path="url(#clip0)" transform="translate(-1949 -1851)"><path d="M1951.39 1869.9 2730.55 1869.9 2730.55 1962.71 1951.39 1962.71Z" fill="#FFFF00" fill-rule="evenodd"/><path d="M2335.82 1962.71 2730.55 1962.71 2730.55 2058.96 2335.82 2058.96Z" fill="#92D050" fill-rule="evenodd"/><path d="M2335.82 1961.57 2335.82 2061.25" stroke="#000000" stroke-width="2.29167" stroke-linejoin="round" stroke-miterlimit="10" fill="none" fill-rule="evenodd"/><path d="M1949.1 1962.71 2732.85 1962.71" stroke="#000000" stroke-width="2.29167" stroke-linejoin="round" stroke-miterlimit="10" fill="none" fill-rule="evenodd"/><path d="M1951.39 1867.61 1951.39 2061.25" stroke="#000000" stroke-width="4.58333" stroke-linejoin="round" stroke-miterlimit="10" fill="none" fill-rule="evenodd"/><path d="M2730.55 1867.61 2730.55 2061.25" stroke="#000000" stroke-width="4.58333" stroke-linejoin="round" stroke-miterlimit="10" fill="none" fill-rule="evenodd"/><path d="M1949.1 1869.9 2732.85 1869.9" stroke="#000000" stroke-width="4.58333" stroke-linejoin="round" stroke-miterlimit="10" fill="none" fill-rule="evenodd"/><path d="M1949.1 2058.96 2732.85 2058.96" stroke="#000000" stroke-width="4.58333" stroke-linejoin="round" stroke-miterlimit="10" fill="none" fill-rule="evenodd"/><text fill="#3333FF" font-family="Century Gothic,Century Gothic_MSFontService,sans-serif" font-weight="700" font-size="73" transform="matrix(1 0 0 1 2132.14 1946)">VARIACION<tspan fill="#000000" font-size="73" x="-65.8818" y="93">-</tspan><tspan fill="#000000" font-size="73" x="-34.9443" y="93">198</tspan><tspan fill="#000000" font-size="73" x="261.254" y="93">-</tspan><tspan fill="#000000" font-size="73" x="292.191" y="93">91,24%</tspan></text></g></svg>