<svg width="3495" height="356" xmlns="http://www.w3.org/2000/svg" xmlns:xlink="http://www.w3.org/1999/xlink" overflow="hidden"><defs><clipPath id="clip0"><rect x="678" y="971" width="3495" height="356"/></clipPath><clipPath id="clip1"><rect x="680" y="729" width="1660" height="617"/></clipPath></defs><g clip-path="url(#clip0)" transform="translate(-678 -971)"><path d="M680.801 975.368 2339.97 975.368 2339.97 1095.68 680.801 1095.68Z" fill="#92D050" fill-rule="evenodd"/><path d="M2339.97 975.368 2949.55 975.368 2949.55 1095.68 2339.97 1095.68Z" fill="#FFFF00" fill-rule="evenodd"/><path d="M2949.55 975.368 3559.13 975.368 3559.13 1095.68 2949.55 1095.68Z" fill="#FFFF00" fill-rule="evenodd"/><path d="M3559.13 975.368 4168.72 975.368 4168.72 1095.68 3559.13 1095.68Z" fill="#FFFF00" fill-rule="evenodd"/><path d="M2339.97 973.077 2339.97 1287.04" stroke="#000000" stroke-width="2.29167" stroke-linejoin="round" stroke-miterlimit="10" fill="none" fill-rule="evenodd"/><path d="M2949.55 973.077 2949.55 1287.04" stroke="#000000" stroke-width="2.29167" stroke-linejoin="round" stroke-miterlimit="10" fill="none" fill-rule="evenodd"/><path d="M3559.13 973.077 3559.13 1287.04" stroke="#000000" stroke-width="2.29167" stroke-linejoin="round" stroke-miterlimit="10" fill="none" fill-rule="evenodd"/><path d="M678.51 1095.68 4169.86 1095.68" stroke="#000000" stroke-width="2.29167" stroke-linejoin="round" stroke-miterlimit="10" fill="none" fill-rule="evenodd"/><path d="M678.51 1188.49 4169.86 1188.49" stroke="#000000" stroke-width="2.29167" stroke-linejoin="round" stroke-miterlimit="10" fill="none" fill-rule="evenodd"/><path d="M680.801 973.077 680.801 1287.04" stroke="#000000" stroke-width="4.58333" stroke-linejoin="round" stroke-miterlimit="10" fill="none" fill-rule="evenodd"/><path d="M4168.72 973.077 4168.72 1287.04" stroke="#000000" stroke-width="2.29167" stroke-linejoin="round" stroke-miterlimit="10" fill="none" fill-rule="evenodd"/><path d="M678.51 975.368 4169.86 975.368" stroke="#000000" stroke-width="4.58333" stroke-linejoin="round" stroke-miterlimit="10" fill="none" fill-rule="evenodd"/><path d="M678.51 1284.74 4169.86 1284.74" stroke="#000000" stroke-width="4.58333" stroke-linejoin="round" stroke-miterlimit="10" fill="none" fill-rule="evenodd"/><g clip-path="url(#clip1)"><text font-family="Century Gothic,Century Gothic_MSFontService,sans-serif" font-weight="700" font-size="73" transform="matrix(1 0 0 1 725.25 1065)">OPORTUNIDAD EN LA ASIGNACION DE CITAS </text></g><text fill="#3333FF" font-family="Century Gothic,Century Gothic_MSFontService,sans-serif" font-weight="700" font-size="73" transform="matrix(1 0 0 1 2562.41 1080)">2020<tspan font-size="73" x="609.583" y="0">2021</tspan><tspan font-size="73" x="1219.17" y="-15">2022</tspan><tspan fill="#000000" font-weight="400" font-size="73" x="-1407.17" y="91">MEDICINA GENERAL</tspan><tspan fill="#000000" font-size="73" x="11" y="92">0,59</tspan><tspan fill="#000000" font-size="73" x="620.583" y="92">0,32</tspan><tspan fill="#000000" font-size="73" x="1230.17" y="92">2,40</tspan><tspan fill="#000000" font-weight="400" font-size="73" x="-1332.17" y="185">ODONTOLOGIA</tspan><tspan fill="#000000" font-size="73" x="11" y="186">0,75</tspan><tspan fill="#000000" font-size="73" x="620.583" y="186">2,38</tspan><tspan fill="#000000" font-size="73" x="1230.17" y="186">2,47</tspan></text></g></svg>