<svg width="1374" height="647" xmlns="http://www.w3.org/2000/svg" xmlns:xlink="http://www.w3.org/1999/xlink" overflow="hidden"><defs><clipPath id="clip0"><rect x="2197" y="158" width="1374" height="647"/></clipPath><clipPath id="clip1"><rect x="3198" y="80" width="368" height="463"/></clipPath><clipPath id="clip2"><rect x="2199" y="194" width="595" height="463"/></clipPath><clipPath id="clip3"><rect x="2793" y="194" width="204" height="463"/></clipPath><clipPath id="clip4"><rect x="2996" y="194" width="203" height="463"/></clipPath><clipPath id="clip5"><rect x="3198" y="194" width="368" height="463"/></clipPath><clipPath id="clip6"><rect x="2199" y="273" width="595" height="463"/></clipPath><clipPath id="clip7"><rect x="2793" y="273" width="204" height="463"/></clipPath><clipPath id="clip8"><rect x="2996" y="273" width="203" height="463"/></clipPath><clipPath id="clip9"><rect x="3198" y="273" width="368" height="463"/></clipPath><clipPath id="clip10"><rect x="2199" y="352" width="595" height="463"/></clipPath><clipPath id="clip11"><rect x="2793" y="352" width="204" height="463"/></clipPath><clipPath id="clip12"><rect x="2996" y="352" width="203" height="463"/></clipPath><clipPath id="clip13"><rect x="3198" y="352" width="368" height="463"/></clipPath><clipPath id="clip14"><rect x="2199" y="431" width="595" height="463"/></clipPath><clipPath id="clip15"><rect x="2793" y="431" width="204" height="463"/></clipPath><clipPath id="clip16"><rect x="2996" y="431" width="203" height="463"/></clipPath><clipPath id="clip17"><rect x="3198" y="431" width="368" height="463"/></clipPath><clipPath id="clip18"><rect x="2199" y="507" width="595" height="463"/></clipPath><clipPath id="clip19"><rect x="2793" y="507" width="204" height="463"/></clipPath><clipPath id="clip20"><rect x="2996" y="507" width="203" height="463"/></clipPath><clipPath id="clip21"><rect x="3198" y="507" width="368" height="463"/></clipPath></defs><g clip-path="url(#clip0)" transform="translate(-2197 -158)"><path d="M2200 168.587 3565.83 168.587 3565.83 240.774 2200 240.774Z" fill="#00B050" fill-rule="evenodd"/><path d="M2200 240.774 2793.69 240.774 2793.69 379.649 2200 379.649Z" fill="#FFFF00" fill-rule="evenodd"/><path d="M2793.69 240.774 3198.64 240.774 3198.64 310.212 2793.69 310.212Z" fill="#FFFF00" fill-rule="evenodd"/><path d="M3198.64 240.774 3565.83 240.774 3565.83 379.649 3198.64 379.649Z" fill="#FFFF00" fill-rule="evenodd"/><path d="M2793.69 310.212 2996.16 310.212 2996.16 379.649 2793.69 379.649Z" fill="#FFFF00" fill-rule="evenodd"/><path d="M2996.16 310.212 3198.64 310.212 3198.64 379.649 2996.16 379.649Z" fill="#FFFF00" fill-rule="evenodd"/><path d="M2200 695.899 2793.69 695.899 2793.69 771.524 2200 771.524Z" fill="#D9D9D9" fill-rule="evenodd"/><path d="M2793.69 695.899 2996.16 695.899 2996.16 771.524 2793.69 771.524Z" fill="#D9D9D9" fill-rule="evenodd"/><path d="M2996.16 695.899 3198.64 695.899 3198.64 771.524 2996.16 771.524Z" fill="#D9D9D9" fill-rule="evenodd"/><path d="M3198.64 695.899 3565.83 695.899 3565.83 771.524 3198.64 771.524Z" fill="#D9D9D9" fill-rule="evenodd"/><path d="M2793.69 239.629 2793.69 773.816" stroke="#000000" stroke-width="2.29167" stroke-linejoin="round" stroke-miterlimit="10" fill="none" fill-rule="evenodd"/><path d="M2996.16 309.066 2996.16 773.816" stroke="#000000" stroke-width="2.29167" stroke-linejoin="round" stroke-miterlimit="10" fill="none" fill-rule="evenodd"/><path d="M3198.64 239.629 3198.64 773.816" stroke="#000000" stroke-width="2.29167" stroke-linejoin="round" stroke-miterlimit="10" fill="none" fill-rule="evenodd"/><path d="M2197.71 240.774 3568.13 240.774" stroke="#000000" stroke-width="2.29167" stroke-linejoin="round" stroke-miterlimit="10" fill="none" fill-rule="evenodd"/><path d="M2792.55 310.212 3199.78 310.212" stroke="#000000" stroke-width="2.29167" stroke-linejoin="round" stroke-miterlimit="10" fill="none" fill-rule="evenodd"/><path d="M2197.71 379.649 3568.13 379.649" stroke="#000000" stroke-width="2.29167" stroke-linejoin="round" stroke-miterlimit="10" fill="none" fill-rule="evenodd"/><path d="M2197.71 458.712 3568.13 458.712" stroke="#000000" stroke-width="2.29167" stroke-linejoin="round" stroke-miterlimit="10" fill="none" fill-rule="evenodd"/><path d="M2197.71 537.774 3568.13 537.774" stroke="#000000" stroke-width="2.29167" stroke-linejoin="round" stroke-miterlimit="10" fill="none" fill-rule="evenodd"/><path d="M2197.71 616.837 3568.13 616.837" stroke="#000000" stroke-width="2.29167" stroke-linejoin="round" stroke-miterlimit="10" fill="none" fill-rule="evenodd"/><path d="M2197.71 695.899 3568.13 695.899" stroke="#000000" stroke-width="2.29167" stroke-linejoin="round" stroke-miterlimit="10" fill="none" fill-rule="evenodd"/><path d="M2200 166.295 2200 773.816" stroke="#000000" stroke-width="4.58333" stroke-linejoin="round" stroke-miterlimit="10" fill="none" fill-rule="evenodd"/><path d="M3565.83 166.295 3565.83 773.816" stroke="#000000" stroke-width="4.58333" stroke-linejoin="round" stroke-miterlimit="10" fill="none" fill-rule="evenodd"/><path d="M2197.71 168.587 3568.13 168.587" stroke="#000000" stroke-width="4.58333" stroke-linejoin="round" stroke-miterlimit="10" fill="none" fill-rule="evenodd"/><path d="M2197.71 771.524 3568.13 771.524" stroke="#000000" stroke-width="4.58333" stroke-linejoin="round" stroke-miterlimit="10" fill="none" fill-rule="evenodd"/><text font-family="Century Gothic,Century Gothic_MSFontService,sans-serif" font-weight="700" font-size="55" transform="matrix(1 0 0 1 2523.44 229)">AGINACION DE CITAS 2022<tspan fill="#3333FF" font-size="55" x="-150.914" y="104">SERVICIO</tspan><tspan fill="#3333FF" font-size="55" x="319.924" y="69">ASISTENCIA</tspan></text><g clip-path="url(#clip1)"><text fill="#3333FF" font-family="Century Gothic,Century Gothic_MSFontService,sans-serif" font-weight="700" font-size="55" transform="matrix(1 0 0 1 3221.35 333)">ASIGNADAS</text></g><text fill="#3333FF" font-family="Century Gothic,Century Gothic_MSFontService,sans-serif" font-weight="700" font-size="55" transform="matrix(1 0 0 1 2872.25 368)">SI<tspan font-size="55" x="181.484" y="0">NO</tspan></text><g clip-path="url(#clip2)"><text font-family="Century Gothic,Century Gothic_MSFontService,sans-serif" font-weight="400" font-size="55" transform="matrix(1 0 0 1 2203.44 447)">ENFERMERIA</text></g><g clip-path="url(#clip3)"><text font-family="Century Gothic,Century Gothic_MSFontService,sans-serif" font-weight="400" font-size="55" transform="matrix(1 0 0 1 2902.13 447)">785</text></g><g clip-path="url(#clip4)"><text font-family="Century Gothic,Century Gothic_MSFontService,sans-serif" font-weight="400" font-size="55" transform="matrix(1 0 0 1 3134.6 447)">72</text></g><g clip-path="url(#clip5)"><text font-family="Century Gothic,Century Gothic_MSFontService,sans-serif" font-weight="400" font-size="55" transform="matrix(1 0 0 1 3472.07 447)">857</text></g><g clip-path="url(#clip6)"><text font-family="Century Gothic,Century Gothic_MSFontService,sans-serif" font-weight="400" font-size="55" transform="matrix(1 0 0 1 2203.44 526)">MEDICINA GENERAL</text></g><g clip-path="url(#clip7)"><text font-family="Century Gothic,Century Gothic_MSFontService,sans-serif" font-weight="400" font-size="55" transform="matrix(1 0 0 1 2872.13 526)">4162</text></g><g clip-path="url(#clip8)"><text font-family="Century Gothic,Century Gothic_MSFontService,sans-serif" font-weight="400" font-size="55" transform="matrix(1 0 0 1 3104.6 526)">664</text></g><g clip-path="url(#clip9)"><text font-family="Century Gothic,Century Gothic_MSFontService,sans-serif" font-weight="400" font-size="55" transform="matrix(1 0 0 1 3442.07 526)">4826</text></g><g clip-path="url(#clip10)"><text font-family="Century Gothic,Century Gothic_MSFontService,sans-serif" font-weight="400" font-size="55" transform="matrix(1 0 0 1 2203.44 605)">ODONTOLOGIA</text></g><g clip-path="url(#clip11)"><text font-family="Century Gothic,Century Gothic_MSFontService,sans-serif" font-weight="400" font-size="55" transform="matrix(1 0 0 1 2872.13 605)">2328</text></g><g clip-path="url(#clip12)"><text font-family="Century Gothic,Century Gothic_MSFontService,sans-serif" font-weight="400" font-size="55" transform="matrix(1 0 0 1 3104.6 605)">522</text></g><g clip-path="url(#clip13)"><text font-family="Century Gothic,Century Gothic_MSFontService,sans-serif" font-weight="400" font-size="55" transform="matrix(1 0 0 1 3442.07 605)">2850</text></g><g clip-path="url(#clip14)"><text font-family="Century Gothic,Century Gothic_MSFontService,sans-serif" font-weight="400" font-size="55" transform="matrix(1 0 0 1 2203.44 684)">PSICOLOGIA</text></g><g clip-path="url(#clip15)"><text font-family="Century Gothic,Century Gothic_MSFontService,sans-serif" font-weight="400" font-size="55" transform="matrix(1 0 0 1 2902.13 684)">228</text></g><g clip-path="url(#clip16)"><text font-family="Century Gothic,Century Gothic_MSFontService,sans-serif" font-weight="400" font-size="55" transform="matrix(1 0 0 1 3104.6 684)">137</text></g><g clip-path="url(#clip17)"><text font-family="Century Gothic,Century Gothic_MSFontService,sans-serif" font-weight="400" font-size="55" transform="matrix(1 0 0 1 3472.07 684)">365</text></g><g clip-path="url(#clip18)"><text font-family="Century Gothic,Century Gothic_MSFontService,sans-serif" font-weight="700" font-size="55" transform="matrix(1 0 0 1 2203.44 760)">TOTAL</text></g><g clip-path="url(#clip19)"><text font-family="Century Gothic,Century Gothic_MSFontService,sans-serif" font-weight="700" font-size="55" transform="matrix(1 0 0 1 2868.13 760)">7503</text></g><g clip-path="url(#clip20)"><text font-family="Century Gothic,Century Gothic_MSFontService,sans-serif" font-weight="700" font-size="55" transform="matrix(1 0 0 1 3070.6 760)">1395</text></g><g clip-path="url(#clip21)"><text font-family="Century Gothic,Century Gothic_MSFontService,sans-serif" font-weight="700" font-size="55" transform="matrix(1 0 0 1 3438.07 760)">8898</text></g></g></svg>