<svg width="3014" height="249" xmlns="http://www.w3.org/2000/svg" xmlns:xlink="http://www.w3.org/1999/xlink" overflow="hidden"><defs><clipPath id="clip0"><rect x="1159" y="701" width="3014" height="249"/></clipPath><clipPath id="clip1"><rect x="1162" y="507" width="1179" height="617"/></clipPath></defs><g clip-path="url(#clip0)" transform="translate(-1159 -701)"><path d="M1162.05 719.321 2340.66 719.321 2340.66 908.383 1162.05 908.383Z" fill="#92D050" fill-rule="evenodd"/><path d="M2340.66 719.321 2950.02 719.321 2950.02 812.133 2340.66 812.133Z" fill="#FFFF00" fill-rule="evenodd"/><path d="M2950.02 719.321 3559.37 719.321 3559.37 812.133 2950.02 812.133Z" fill="#FFFF00" fill-rule="evenodd"/><path d="M3559.37 719.321 4168.72 719.321 4168.72 812.133 3559.37 812.133Z" fill="#FFFF00" fill-rule="evenodd"/><path d="M2340.66 717.029 2340.66 910.675" stroke="#000000" stroke-width="2.29167" stroke-linejoin="round" stroke-miterlimit="10" fill="none" fill-rule="evenodd"/><path d="M2950.02 717.029 2950.02 910.675" stroke="#000000" stroke-width="2.29167" stroke-linejoin="round" stroke-miterlimit="10" fill="none" fill-rule="evenodd"/><path d="M3559.37 717.029 3559.37 910.675" stroke="#000000" stroke-width="2.29167" stroke-linejoin="round" stroke-miterlimit="10" fill="none" fill-rule="evenodd"/><path d="M2339.52 812.133 4169.86 812.133" stroke="#000000" stroke-width="2.29167" stroke-linejoin="round" stroke-miterlimit="10" fill="none" fill-rule="evenodd"/><path d="M1162.05 717.029 1162.05 910.675" stroke="#000000" stroke-width="4.58333" stroke-linejoin="round" stroke-miterlimit="10" fill="none" fill-rule="evenodd"/><path d="M4168.72 717.029 4168.72 910.675" stroke="#000000" stroke-width="2.29167" stroke-linejoin="round" stroke-miterlimit="10" fill="none" fill-rule="evenodd"/><path d="M1159.76 719.321 4169.86 719.321" stroke="#000000" stroke-width="4.58333" stroke-linejoin="round" stroke-miterlimit="10" fill="none" fill-rule="evenodd"/><path d="M1159.76 908.383 4169.86 908.383" stroke="#000000" stroke-width="4.58333" stroke-linejoin="round" stroke-miterlimit="10" fill="none" fill-rule="evenodd"/><g clip-path="url(#clip1)"><text font-family="Century Gothic,Century Gothic_MSFontService,sans-serif" font-weight="700" font-size="73" transform="matrix(1 0 0 1 1183.55 844)">TASA DE SATISFACCION GLOBAL</text></g><text fill="#3333FF" font-family="Century Gothic,Century Gothic_MSFontService,sans-serif" font-weight="700" font-size="73" transform="matrix(1 0 0 1 2563.28 796)">2020<tspan font-size="73" x="609.351" y="0">2021</tspan><tspan font-size="73" x="1218.7" y="-1">2022</tspan><tspan fill="#000000" font-size="73" x="9" y="94">87%</tspan><tspan fill="#000000" font-size="73" x="618.351" y="94">96%</tspan><tspan fill="#000000" font-size="73" x="1227.7" y="94">98%</tspan></text></g></svg>