<svg width="2212" height="531" xmlns="http://www.w3.org/2000/svg" xmlns:xlink="http://www.w3.org/1999/xlink" overflow="hidden"><defs><clipPath id="clip0"><rect x="750" y="915" width="2212" height="531"/></clipPath><clipPath id="clip1"><rect x="752" y="675" width="1408" height="617"/></clipPath><clipPath id="clip2"><rect x="2159" y="675" width="249" height="617"/></clipPath><clipPath id="clip3"><rect x="752" y="769" width="1408" height="617"/></clipPath><clipPath id="clip4"><rect x="2159" y="769" width="249" height="617"/></clipPath><clipPath id="clip5"><rect x="752" y="862" width="1408" height="617"/></clipPath><clipPath id="clip6"><rect x="2159" y="955" width="249" height="617"/></clipPath><clipPath id="clip7"><rect x="2407" y="955" width="276" height="617"/></clipPath><clipPath id="clip8"><rect x="2682" y="955" width="276" height="617"/></clipPath></defs><g clip-path="url(#clip0)" transform="translate(-750 -915)"><path d="M752.439 935.097 2159.52 935.097 2159.52 1031.35 752.439 1031.35Z" fill="#D9D9D9" fill-rule="evenodd"/><path d="M2159.52 935.097 2407.02 935.097 2407.02 1031.35 2159.52 1031.35Z" fill="#D9D9D9" fill-rule="evenodd"/><path d="M2407.02 935.097 2682.02 935.097 2682.02 1031.35 2407.02 1031.35Z" fill="#D9D9D9" fill-rule="evenodd"/><path d="M2682.02 935.097 2957.02 935.097 2957.02 1031.35 2682.02 1031.35Z" fill="#D9D9D9" fill-rule="evenodd"/><path d="M752.439 1216.97 2159.52 1216.97 2159.52 1309.78 752.439 1309.78Z" fill="#D9D9D9" fill-rule="evenodd"/><path d="M2159.52 1216.97 2407.02 1216.97 2407.02 1309.78 2159.52 1309.78Z" fill="#D9D9D9" fill-rule="evenodd"/><path d="M2407.02 1216.97 2682.02 1216.97 2682.02 1309.78 2407.02 1309.78Z" fill="#D9D9D9" fill-rule="evenodd"/><path d="M2682.02 1216.97 2957.02 1216.97 2957.02 1309.78 2682.02 1309.78Z" fill="#D9D9D9" fill-rule="evenodd"/><path d="M752.439 1309.78 2159.52 1309.78 2159.52 1406.03 752.439 1406.03Z" fill="#D9D9D9" fill-rule="evenodd"/><path d="M2159.52 1309.78 2407.02 1309.78 2407.02 1406.03 2159.52 1406.03Z" fill="#D9D9D9" fill-rule="evenodd"/><path d="M2407.02 1309.78 2682.02 1309.78 2682.02 1406.03 2407.02 1406.03Z" fill="#D9D9D9" fill-rule="evenodd"/><path d="M2682.02 1309.78 2957.02 1309.78 2957.02 1406.03 2682.02 1406.03Z" fill="#D9D9D9" fill-rule="evenodd"/><path d="M2159.52 932.805 2159.52 1408.33" stroke="#000000" stroke-width="2.29167" stroke-linejoin="round" stroke-miterlimit="10" fill="none" fill-rule="evenodd"/><path d="M2407.02 932.805 2407.02 1408.33" stroke="#000000" stroke-width="2.29167" stroke-linejoin="round" stroke-miterlimit="10" fill="none" fill-rule="evenodd"/><path d="M2682.02 932.805 2682.02 1408.33" stroke="#000000" stroke-width="2.29167" stroke-linejoin="round" stroke-miterlimit="10" fill="none" fill-rule="evenodd"/><path d="M750.147 1031.35 2959.31 1031.35" stroke="#000000" stroke-width="2.29167" stroke-linejoin="round" stroke-miterlimit="10" fill="none" fill-rule="evenodd"/><path d="M750.147 1124.16 2959.31 1124.16" stroke="#000000" stroke-width="2.29167" stroke-linejoin="round" stroke-miterlimit="10" fill="none" fill-rule="evenodd"/><path d="M750.147 1216.97 2959.31 1216.97" stroke="#000000" stroke-width="4.58333" stroke-linejoin="round" stroke-miterlimit="10" fill="none" fill-rule="evenodd"/><path d="M750.147 1309.78 2959.31 1309.78" stroke="#000000" stroke-width="2.29167" stroke-linejoin="round" stroke-miterlimit="10" fill="none" fill-rule="evenodd"/><path d="M752.439 932.805 752.439 1408.33" stroke="#000000" stroke-width="4.58333" stroke-linejoin="round" stroke-miterlimit="10" fill="none" fill-rule="evenodd"/><path d="M2957.02 932.805 2957.02 1408.33" stroke="#000000" stroke-width="4.58333" stroke-linejoin="round" stroke-miterlimit="10" fill="none" fill-rule="evenodd"/><path d="M750.147 935.097 2959.31 935.097" stroke="#000000" stroke-width="4.58333" stroke-linejoin="round" stroke-miterlimit="10" fill="none" fill-rule="evenodd"/><path d="M750.147 1406.03 2959.31 1406.03" stroke="#000000" stroke-width="4.58333" stroke-linejoin="round" stroke-miterlimit="10" fill="none" fill-rule="evenodd"/><g clip-path="url(#clip1)"><text fill="#FF0000" font-family="Century Gothic,Century Gothic_MSFontService,sans-serif" font-weight="700" font-size="73" transform="matrix(1 0 0 1 752.439 1009)">DESCRIPCION</text></g><g clip-path="url(#clip2)"><text fill="#FF0000" font-family="Century Gothic,Century Gothic_MSFontService,sans-serif" font-weight="700" font-size="73" transform="matrix(1 0 0 1 2200.77 1011)">2020</text></g><text fill="#FF0000" font-family="Century Gothic,Century Gothic_MSFontService,sans-serif" font-weight="700" font-size="73" transform="matrix(1 0 0 1 2462.02 1011)">2021<tspan font-size="73" x="275" y="0">2022</tspan></text><g clip-path="url(#clip3)"><text font-family="Century Gothic,Century Gothic_MSFontService,sans-serif" font-weight="400" font-size="73" transform="matrix(1 0 0 1 752.439 1106)">PACIENTES ATENDIDOS URGENCIAS</text></g><g clip-path="url(#clip4)"><text font-family="Century Gothic,Century Gothic_MSFontService,sans-serif" font-weight="400" font-size="73" transform="matrix(1 0 0 1 2201.92 1106)">2027</text></g><text font-family="Century Gothic,Century Gothic_MSFontService,sans-serif" font-weight="400" font-size="73" transform="matrix(1 0 0 1 2463.17 1106)">2815<tspan font-size="73" x="275" y="0">3873</tspan></text><g clip-path="url(#clip5)"><text font-family="Century Gothic,Century Gothic_MSFontService,sans-serif" font-weight="400" font-size="73" transform="matrix(1 0 0 1 752.439 1199)">PACIENTES REMITIDOS</text></g><text font-family="Century Gothic,Century Gothic_MSFontService,sans-serif" font-weight="400" font-size="73" transform="matrix(1 0 0 1 2222.26 1199)">258<tspan font-size="73" x="261.25" y="0">437</tspan><tspan font-size="73" x="536.25" y="0">181</tspan><tspan fill="#FF0000" font-weight="700" font-size="73" x="-964.792" y="92">RESULTADO</tspan></text><g clip-path="url(#clip6)"><text fill="#FF0000" font-family="Century Gothic,Century Gothic_MSFontService,sans-serif" font-weight="700" font-size="73" transform="matrix(1 0 0 1 2231.71 1291)">0,13 </text></g><g clip-path="url(#clip7)"><text fill="#FF0000" font-family="Century Gothic,Century Gothic_MSFontService,sans-serif" font-weight="700" font-size="73" transform="matrix(1 0 0 1 2513.58 1291)">0,16 </text></g><g clip-path="url(#clip8)"><text fill="#FF0000" font-family="Century Gothic,Century Gothic_MSFontService,sans-serif" font-weight="700" font-size="73" transform="matrix(1 0 0 1 2788.58 1291)">0,05 </text></g><text fill="#FF0000" font-family="Century Gothic,Century Gothic_MSFontService,sans-serif" font-weight="700" font-size="73" transform="matrix(1 0 0 1 1185.28 1386)">RESOLUTIVIDAD<tspan font-size="73" x="1025.23" y="0">87%</tspan><tspan font-size="73" x="1286.48" y="0">84%</tspan><tspan font-size="73" x="1561.48" y="0">95%</tspan></text></g></svg>