<svg width="1048" height="307" xmlns="http://www.w3.org/2000/svg" xmlns:xlink="http://www.w3.org/1999/xlink" overflow="hidden"><defs><clipPath id="clip0"><rect x="1243" y="1551" width="1048" height="307"/></clipPath><clipPath id="clip1"><rect x="1245" y="1249" width="499" height="771"/></clipPath><clipPath id="clip2"><rect x="1743" y="1249" width="543" height="771"/></clipPath></defs><g clip-path="url(#clip0)" transform="translate(-1243 -1551)"><path d="M1245.63 1575.66 1743.5 1575.66 1743.5 1689.1 1245.63 1689.1Z" fill="#FFFF00" fill-rule="evenodd"/><path d="M1743.5 1575.66 2285.98 1575.66 2285.98 1689.1 1743.5 1689.1Z" fill="#FFFF00" fill-rule="evenodd"/><path d="M1743.5 1689.1 2285.98 1689.1 2285.98 1802.54 1743.5 1802.54Z" fill="#92D050" fill-rule="evenodd"/><path d="M1743.5 1573.37 1743.5 1804.83" stroke="#000000" stroke-width="2.29167" stroke-linejoin="round" stroke-miterlimit="10" fill="none" fill-rule="evenodd"/><path d="M1243.34 1689.1 2288.27 1689.1" stroke="#000000" stroke-width="2.29167" stroke-linejoin="round" stroke-miterlimit="10" fill="none" fill-rule="evenodd"/><path d="M1245.63 1573.37 1245.63 1804.83" stroke="#000000" stroke-width="4.58333" stroke-linejoin="round" stroke-miterlimit="10" fill="none" fill-rule="evenodd"/><path d="M2285.98 1573.37 2285.98 1804.83" stroke="#000000" stroke-width="4.58333" stroke-linejoin="round" stroke-miterlimit="10" fill="none" fill-rule="evenodd"/><path d="M1243.34 1575.66 2288.27 1575.66" stroke="#000000" stroke-width="4.58333" stroke-linejoin="round" stroke-miterlimit="10" fill="none" fill-rule="evenodd"/><path d="M1243.34 1802.54 2288.27 1802.54" stroke="#000000" stroke-width="4.58333" stroke-linejoin="round" stroke-miterlimit="10" fill="none" fill-rule="evenodd"/><g clip-path="url(#clip1)"><text fill="#3333FF" font-family="Century Gothic,Century Gothic_MSFontService,sans-serif" font-weight="700" font-size="92" transform="matrix(1 0 0 1 1261.96 1669)">PACIENTES</text></g><g clip-path="url(#clip2)"><text fill="#3333FF" font-family="Century Gothic,Century Gothic_MSFontService,sans-serif" font-weight="700" font-size="92" transform="matrix(1 0 0 1 1754.64 1669)">VARIACION </text></g><text font-family="Century Gothic,Century Gothic_MSFontService,sans-serif" font-weight="700" font-size="92" transform="matrix(1 0 0 1 1391.44 1783)">1058<tspan font-size="92" x="532.206" y="0">27%</tspan></text></g></svg>