<svg width="3477" height="1591" xmlns="http://www.w3.org/2000/svg" xmlns:xlink="http://www.w3.org/1999/xlink" overflow="hidden"><defs><clipPath id="clip0"><rect x="498" y="626" width="3477" height="1591"/></clipPath><clipPath id="clip1"><rect x="2781" y="503" width="402" height="617"/></clipPath><clipPath id="clip2"><rect x="3182" y="503" width="473" height="617"/></clipPath><clipPath id="clip3"><rect x="499" y="599" width="319" height="617"/></clipPath><clipPath id="clip4"><rect x="817" y="599" width="1965" height="617"/></clipPath><clipPath id="clip5"><rect x="2781" y="599" width="402" height="617"/></clipPath><clipPath id="clip6"><rect x="3182" y="599" width="473" height="617"/></clipPath><clipPath id="clip7"><rect x="3654" y="599" width="319" height="617"/></clipPath><clipPath id="clip8"><rect x="499" y="695" width="319" height="617"/></clipPath><clipPath id="clip9"><rect x="817" y="431" width="1965" height="1233"/></clipPath><clipPath id="clip10"><rect x="817" y="431" width="1965" height="1233"/></clipPath><clipPath id="clip11"><rect x="2781" y="695" width="402" height="617"/></clipPath><clipPath id="clip12"><rect x="3182" y="695" width="473" height="617"/></clipPath><clipPath id="clip13"><rect x="3654" y="695" width="319" height="617"/></clipPath><clipPath id="clip14"><rect x="499" y="874" width="319" height="617"/></clipPath><clipPath id="clip15"><rect x="817" y="610" width="1965" height="1233"/></clipPath><clipPath id="clip16"><rect x="817" y="610" width="1965" height="1233"/></clipPath><clipPath id="clip17"><rect x="2781" y="874" width="402" height="617"/></clipPath><clipPath id="clip18"><rect x="3182" y="874" width="473" height="617"/></clipPath><clipPath id="clip19"><rect x="3654" y="874" width="319" height="617"/></clipPath><clipPath id="clip20"><rect x="499" y="1054" width="319" height="617"/></clipPath><clipPath id="clip21"><rect x="817" y="1054" width="1965" height="617"/></clipPath><clipPath id="clip22"><rect x="2781" y="1054" width="402" height="617"/></clipPath><clipPath id="clip23"><rect x="3182" y="1054" width="473" height="617"/></clipPath><clipPath id="clip24"><rect x="3654" y="1054" width="319" height="617"/></clipPath><clipPath id="clip25"><rect x="499" y="1149" width="319" height="617"/></clipPath><clipPath id="clip26"><rect x="817" y="1149" width="1965" height="617"/></clipPath><clipPath id="clip27"><rect x="2781" y="1149" width="402" height="617"/></clipPath><clipPath id="clip28"><rect x="3182" y="1149" width="473" height="617"/></clipPath><clipPath id="clip29"><rect x="3654" y="1149" width="319" height="617"/></clipPath><clipPath id="clip30"><rect x="499" y="1245" width="319" height="617"/></clipPath><clipPath id="clip31"><rect x="817" y="1245" width="1965" height="617"/></clipPath><clipPath id="clip32"><rect x="2781" y="1245" width="402" height="617"/></clipPath><clipPath id="clip33"><rect x="3182" y="1245" width="473" height="617"/></clipPath><clipPath id="clip34"><rect x="3654" y="1245" width="319" height="617"/></clipPath><clipPath id="clip35"><rect x="499" y="1341" width="319" height="617"/></clipPath><clipPath id="clip36"><rect x="817" y="1341" width="1965" height="617"/></clipPath><clipPath id="clip37"><rect x="2781" y="1341" width="402" height="617"/></clipPath><clipPath id="clip38"><rect x="3182" y="1341" width="473" height="617"/></clipPath><clipPath id="clip39"><rect x="3654" y="1341" width="319" height="617"/></clipPath><clipPath id="clip40"><rect x="499" y="1437" width="319" height="617"/></clipPath><clipPath id="clip41"><rect x="817" y="1437" width="1965" height="617"/></clipPath><clipPath id="clip42"><rect x="2781" y="1437" width="402" height="617"/></clipPath><clipPath id="clip43"><rect x="3182" y="1437" width="473" height="617"/></clipPath><clipPath id="clip44"><rect x="3654" y="1437" width="319" height="617"/></clipPath><clipPath id="clip45"><rect x="499" y="1533" width="319" height="617"/></clipPath><clipPath id="clip46"><rect x="817" y="1533" width="1965" height="617"/></clipPath><clipPath id="clip47"><rect x="2781" y="1533" width="402" height="617"/></clipPath><clipPath id="clip48"><rect x="3182" y="1533" width="473" height="617"/></clipPath><clipPath id="clip49"><rect x="3654" y="1533" width="319" height="617"/></clipPath><clipPath id="clip50"><rect x="499" y="1628" width="319" height="617"/></clipPath><clipPath id="clip51"><rect x="817" y="1628" width="1965" height="617"/></clipPath><clipPath id="clip52"><rect x="2781" y="1628" width="402" height="617"/></clipPath><clipPath id="clip53"><rect x="3182" y="1628" width="473" height="617"/></clipPath><clipPath id="clip54"><rect x="3654" y="1628" width="319" height="617"/></clipPath><clipPath id="clip55"><rect x="817" y="1724" width="1965" height="617"/></clipPath><clipPath id="clip56"><rect x="2781" y="1724" width="402" height="617"/></clipPath><clipPath id="clip57"><rect x="3182" y="1724" width="473" height="617"/></clipPath><clipPath id="clip58"><rect x="3654" y="1724" width="319" height="617"/></clipPath><clipPath id="clip59"><rect x="2781" y="1820" width="402" height="617"/></clipPath><clipPath id="clip60"><rect x="3182" y="1820" width="473" height="617"/></clipPath><clipPath id="clip61"><rect x="3654" y="1820" width="319" height="617"/></clipPath></defs><g clip-path="url(#clip0)" transform="translate(-498 -626)"><path d="M499.806 650.839 3972.23 650.839 3972.23 764.277 499.806 764.277Z" fill="#92D050" fill-rule="evenodd"/><path d="M499.806 764.277 817.241 764.277 817.241 860.052 499.806 860.052Z" fill="#FFFF00" fill-rule="evenodd"/><path d="M817.241 764.277 2781.37 764.277 2781.37 860.052 817.241 860.052Z" fill="#FFFF00" fill-rule="evenodd"/><path d="M2781.37 764.277 3182.14 764.277 3182.14 860.052 2781.37 860.052Z" fill="#FFFF00" fill-rule="evenodd"/><path d="M3182.14 764.277 3654.79 764.277 3654.79 860.052 3182.14 860.052Z" fill="#FFFF00" fill-rule="evenodd"/><path d="M3654.79 764.277 3972.23 764.277 3972.23 860.052 3654.79 860.052Z" fill="#FFFF00" fill-rule="evenodd"/><path d="M499.806 2080.91 2781.37 2080.91 2781.37 2176.69 499.806 2176.69Z" fill="#D9D9D9" fill-rule="evenodd"/><path d="M2781.37 2080.91 3182.14 2080.91 3182.14 2176.69 2781.37 2176.69Z" fill="#D9D9D9" fill-rule="evenodd"/><path d="M3182.14 2080.91 3654.79 2080.91 3654.79 2176.69 3182.14 2176.69Z" fill="#D9D9D9" fill-rule="evenodd"/><path d="M3654.79 2080.91 3972.23 2080.91 3972.23 2176.69 3654.79 2176.69Z" fill="#D9D9D9" fill-rule="evenodd"/><path d="M817.241 763.131 817.241 2082.06" stroke="#000000" stroke-width="2.29167" stroke-linejoin="round" stroke-miterlimit="10" fill="none" fill-rule="evenodd"/><path d="M2781.37 763.131 2781.37 2177.83" stroke="#000000" stroke-width="2.29167" stroke-linejoin="round" stroke-miterlimit="10" fill="none" fill-rule="evenodd"/><path d="M3182.14 763.131 3182.14 2177.83" stroke="#000000" stroke-width="2.29167" stroke-linejoin="round" stroke-miterlimit="10" fill="none" fill-rule="evenodd"/><path d="M3654.79 763.131 3654.79 2177.83" stroke="#000000" stroke-width="2.29167" stroke-linejoin="round" stroke-miterlimit="10" fill="none" fill-rule="evenodd"/><path d="M498.66 764.277 3973.37 764.277" stroke="#000000" stroke-width="2.29167" stroke-linejoin="round" stroke-miterlimit="10" fill="none" fill-rule="evenodd"/><path d="M498.66 860.052 3973.37 860.052" stroke="#000000" stroke-width="2.29167" stroke-linejoin="round" stroke-miterlimit="10" fill="none" fill-rule="evenodd"/><path d="M498.66 955.828 3973.37 955.828" stroke="#000000" stroke-width="2.29167" stroke-linejoin="round" stroke-miterlimit="10" fill="none" fill-rule="evenodd"/><path d="M498.66 1135.27 3973.37 1135.27" stroke="#000000" stroke-width="2.29167" stroke-linejoin="round" stroke-miterlimit="10" fill="none" fill-rule="evenodd"/><path d="M498.66 1314.7 3973.37 1314.7" stroke="#000000" stroke-width="2.29167" stroke-linejoin="round" stroke-miterlimit="10" fill="none" fill-rule="evenodd"/><path d="M498.66 1410.48 3973.37 1410.48" stroke="#000000" stroke-width="2.29167" stroke-linejoin="round" stroke-miterlimit="10" fill="none" fill-rule="evenodd"/><path d="M498.66 1506.25 3973.37 1506.25" stroke="#000000" stroke-width="2.29167" stroke-linejoin="round" stroke-miterlimit="10" fill="none" fill-rule="evenodd"/><path d="M498.66 1602.03 3973.37 1602.03" stroke="#000000" stroke-width="2.29167" stroke-linejoin="round" stroke-miterlimit="10" fill="none" fill-rule="evenodd"/><path d="M498.66 1697.81 3973.37 1697.81" stroke="#000000" stroke-width="2.29167" stroke-linejoin="round" stroke-miterlimit="10" fill="none" fill-rule="evenodd"/><path d="M498.66 1793.58 3973.37 1793.58" stroke="#000000" stroke-width="2.29167" stroke-linejoin="round" stroke-miterlimit="10" fill="none" fill-rule="evenodd"/><path d="M498.66 1889.36 3973.37 1889.36" stroke="#000000" stroke-width="2.29167" stroke-linejoin="round" stroke-miterlimit="10" fill="none" fill-rule="evenodd"/><path d="M498.66 1985.13 3973.37 1985.13" stroke="#000000" stroke-width="2.29167" stroke-linejoin="round" stroke-miterlimit="10" fill="none" fill-rule="evenodd"/><path d="M498.66 2080.91 3973.37 2080.91" stroke="#000000" stroke-width="2.29167" stroke-linejoin="round" stroke-miterlimit="10" fill="none" fill-rule="evenodd"/><path d="M499.806 649.693 499.806 2177.83" stroke="#000000" stroke-width="2.29167" stroke-linejoin="round" stroke-miterlimit="10" fill="none" fill-rule="evenodd"/><path d="M3972.23 649.693 3972.23 2177.83" stroke="#000000" stroke-width="2.29167" stroke-linejoin="round" stroke-miterlimit="10" fill="none" fill-rule="evenodd"/><path d="M498.66 650.839 3973.37 650.839" stroke="#000000" stroke-width="2.29167" stroke-linejoin="round" stroke-miterlimit="10" fill="none" fill-rule="evenodd"/><path d="M498.66 2176.69 3973.37 2176.69" stroke="#000000" stroke-width="2.29167" stroke-linejoin="round" stroke-miterlimit="10" fill="none" fill-rule="evenodd"/><text font-family="Century Gothic,Century Gothic_MSFontService,sans-serif" font-weight="700" font-size="92" transform="matrix(1 0 0 1 1348 745)">MOTIVOS DE REMISIÓN URGENCIAS 2022<tspan fill="#3333FF" font-size="73" x="-740.175" y="96">DX</tspan><tspan fill="#3333FF" font-size="73" x="209.254" y="96">DESCRIPCIÓN</tspan></text><g clip-path="url(#clip1)"><text fill="#3333FF" font-family="Century Gothic,Century Gothic_MSFontService,sans-serif" font-weight="700" font-size="73" transform="matrix(1 0 0 1 2794.12 841)">CANTIDAD</text></g><g clip-path="url(#clip2)"><text fill="#3333FF" font-family="Century Gothic,Century Gothic_MSFontService,sans-serif" font-weight="700" font-size="73" transform="matrix(1 0 0 1 3195.88 841)">FRECUENCIA</text></g><text fill="#3333FF" font-family="Century Gothic,Century Gothic_MSFontService,sans-serif" font-weight="700" font-size="73" transform="matrix(1 0 0 1 3724.42 841)">TASA</text><g clip-path="url(#clip3)"><text font-family="Century Gothic,Century Gothic_MSFontService,sans-serif" font-weight="400" font-size="73" transform="matrix(1 0 0 1 503.243 934)">K37X</text></g><g clip-path="url(#clip4)"><text font-family="Century Gothic,Century Gothic_MSFontService,sans-serif" font-weight="400" font-size="73" transform="matrix(1 0 0 1 820.678 934)">APENDICITIS</text></g><text font-family="Century Gothic,Century Gothic_MSFontService,sans-serif" font-weight="400" font-size="73" transform="matrix(1 0 0 1 1244.64 934)">-<tspan font-size="73" x="44.6875" y="0">NO ESPECIFICADA</tspan></text><g clip-path="url(#clip5)"><text font-family="Century Gothic,Century Gothic_MSFontService,sans-serif" font-weight="400" font-size="73" transform="matrix(1 0 0 1 3097.05 934)">14</text></g><g clip-path="url(#clip6)"><text font-family="Century Gothic,Century Gothic_MSFontService,sans-serif" font-weight="400" font-size="73" transform="matrix(1 0 0 1 3451.98 934)">7,73%</text></g><g clip-path="url(#clip7)"><text font-family="Century Gothic,Century Gothic_MSFontService,sans-serif" font-weight="400" font-size="73" transform="matrix(1 0 0 1 3826.67 934)">2,59</text></g><g clip-path="url(#clip8)"><text font-family="Century Gothic,Century Gothic_MSFontService,sans-serif" font-weight="400" font-size="73" transform="matrix(1 0 0 1 503.243 1030)">R104</text></g><g clip-path="url(#clip9)"><text font-family="Century Gothic,Century Gothic_MSFontService,sans-serif" font-weight="400" font-size="73" transform="matrix(1 0 0 1 820.678 1030)">OTROS DOLORES ABDOMINALES Y LOS NO </text></g><g clip-path="url(#clip10)"><text font-family="Century Gothic,Century Gothic_MSFontService,sans-serif" font-weight="400" font-size="73" transform="matrix(1 0 0 1 820.678 1118)">ESPECIFICADOS</text></g><g clip-path="url(#clip11)"><text font-family="Century Gothic,Century Gothic_MSFontService,sans-serif" font-weight="400" font-size="73" transform="matrix(1 0 0 1 3097.05 1030)">12</text></g><g clip-path="url(#clip12)"><text font-family="Century Gothic,Century Gothic_MSFontService,sans-serif" font-weight="400" font-size="73" transform="matrix(1 0 0 1 3451.98 1030)">6,63%</text></g><g clip-path="url(#clip13)"><text font-family="Century Gothic,Century Gothic_MSFontService,sans-serif" font-weight="400" font-size="73" transform="matrix(1 0 0 1 3826.67 1030)">2,22</text></g><g clip-path="url(#clip14)"><text font-family="Century Gothic,Century Gothic_MSFontService,sans-serif" font-weight="400" font-size="73" transform="matrix(1 0 0 1 503.243 1210)">R103</text></g><g clip-path="url(#clip15)"><text font-family="Century Gothic,Century Gothic_MSFontService,sans-serif" font-weight="400" font-size="73" transform="matrix(1 0 0 1 820.678 1210)">DOLOR LOCALIZADO EN OTRAS PARTES INFERIORES DEL </text></g><g clip-path="url(#clip16)"><text font-family="Century Gothic,Century Gothic_MSFontService,sans-serif" font-weight="400" font-size="73" transform="matrix(1 0 0 1 820.678 1298)">ABDOMEN</text></g><g clip-path="url(#clip17)"><text font-family="Century Gothic,Century Gothic_MSFontService,sans-serif" font-weight="400" font-size="73" transform="matrix(1 0 0 1 3137.73 1210)">9</text></g><g clip-path="url(#clip18)"><text font-family="Century Gothic,Century Gothic_MSFontService,sans-serif" font-weight="400" font-size="73" transform="matrix(1 0 0 1 3451.98 1210)">4,97%</text></g><g clip-path="url(#clip19)"><text font-family="Century Gothic,Century Gothic_MSFontService,sans-serif" font-weight="400" font-size="73" transform="matrix(1 0 0 1 3826.67 1210)">1,67</text></g><g clip-path="url(#clip20)"><text font-family="Century Gothic,Century Gothic_MSFontService,sans-serif" font-weight="400" font-size="73" transform="matrix(1 0 0 1 503.243 1389)">J189</text></g><g clip-path="url(#clip21)"><text font-family="Century Gothic,Century Gothic_MSFontService,sans-serif" font-weight="400" font-size="73" transform="matrix(1 0 0 1 820.678 1389)">NEUMONIA, NO ESPECIFICADA</text></g><g clip-path="url(#clip22)"><text font-family="Century Gothic,Century Gothic_MSFontService,sans-serif" font-weight="400" font-size="73" transform="matrix(1 0 0 1 3137.73 1389)">8</text></g><g clip-path="url(#clip23)"><text font-family="Century Gothic,Century Gothic_MSFontService,sans-serif" font-weight="400" font-size="73" transform="matrix(1 0 0 1 3451.98 1389)">4,42%</text></g><g clip-path="url(#clip24)"><text font-family="Century Gothic,Century Gothic_MSFontService,sans-serif" font-weight="400" font-size="73" transform="matrix(1 0 0 1 3826.67 1389)">1,48</text></g><g clip-path="url(#clip25)"><text font-family="Century Gothic,Century Gothic_MSFontService,sans-serif" font-weight="400" font-size="73" transform="matrix(1 0 0 1 503.243 1485)">J159</text></g><g clip-path="url(#clip26)"><text font-family="Century Gothic,Century Gothic_MSFontService,sans-serif" font-weight="400" font-size="73" transform="matrix(1 0 0 1 820.678 1485)">NEUMONIA BACTERIANA, NO ESPECIFICADA</text></g><g clip-path="url(#clip27)"><text font-family="Century Gothic,Century Gothic_MSFontService,sans-serif" font-weight="400" font-size="73" transform="matrix(1 0 0 1 3137.73 1485)">6</text></g><g clip-path="url(#clip28)"><text font-family="Century Gothic,Century Gothic_MSFontService,sans-serif" font-weight="400" font-size="73" transform="matrix(1 0 0 1 3451.98 1485)">3,31%</text></g><g clip-path="url(#clip29)"><text font-family="Century Gothic,Century Gothic_MSFontService,sans-serif" font-weight="400" font-size="73" transform="matrix(1 0 0 1 3826.67 1485)">1,11</text></g><g clip-path="url(#clip30)"><text font-family="Century Gothic,Century Gothic_MSFontService,sans-serif" font-weight="400" font-size="73" transform="matrix(1 0 0 1 503.243 1581)">K810</text></g><g clip-path="url(#clip31)"><text font-family="Century Gothic,Century Gothic_MSFontService,sans-serif" font-weight="400" font-size="73" transform="matrix(1 0 0 1 820.678 1581)">COLECISTITIS AGUDA</text></g><g clip-path="url(#clip32)"><text font-family="Century Gothic,Century Gothic_MSFontService,sans-serif" font-weight="400" font-size="73" transform="matrix(1 0 0 1 3137.73 1581)">6</text></g><g clip-path="url(#clip33)"><text font-family="Century Gothic,Century Gothic_MSFontService,sans-serif" font-weight="400" font-size="73" transform="matrix(1 0 0 1 3451.98 1581)">3,31%</text></g><g clip-path="url(#clip34)"><text font-family="Century Gothic,Century Gothic_MSFontService,sans-serif" font-weight="400" font-size="73" transform="matrix(1 0 0 1 3826.67 1581)">1,11</text></g><g clip-path="url(#clip35)"><text font-family="Century Gothic,Century Gothic_MSFontService,sans-serif" font-weight="400" font-size="73" transform="matrix(1 0 0 1 503.243 1676)">O200</text></g><g clip-path="url(#clip36)"><text font-family="Century Gothic,Century Gothic_MSFontService,sans-serif" font-weight="400" font-size="73" transform="matrix(1 0 0 1 820.678 1676)">AMENAZA DE ABORTO</text></g><g clip-path="url(#clip37)"><text font-family="Century Gothic,Century Gothic_MSFontService,sans-serif" font-weight="400" font-size="73" transform="matrix(1 0 0 1 3137.73 1676)">5</text></g><g clip-path="url(#clip38)"><text font-family="Century Gothic,Century Gothic_MSFontService,sans-serif" font-weight="400" font-size="73" transform="matrix(1 0 0 1 3451.98 1676)">2,76%</text></g><g clip-path="url(#clip39)"><text font-family="Century Gothic,Century Gothic_MSFontService,sans-serif" font-weight="400" font-size="73" transform="matrix(1 0 0 1 3826.67 1676)">0,93</text></g><g clip-path="url(#clip40)"><text font-family="Century Gothic,Century Gothic_MSFontService,sans-serif" font-weight="400" font-size="73" transform="matrix(1 0 0 1 503.243 1772)">G819</text></g><g clip-path="url(#clip41)"><text font-family="Century Gothic,Century Gothic_MSFontService,sans-serif" font-weight="400" font-size="73" transform="matrix(1 0 0 1 820.678 1772)">HEMIPLEJIA</text></g><text font-family="Century Gothic,Century Gothic_MSFontService,sans-serif" font-weight="400" font-size="73" transform="matrix(1 0 0 1 1217.71 1772)">-<tspan font-size="73" x="44.6875" y="0">NO ESPECIFICADA</tspan></text><g clip-path="url(#clip42)"><text font-family="Century Gothic,Century Gothic_MSFontService,sans-serif" font-weight="400" font-size="73" transform="matrix(1 0 0 1 3137.73 1772)">4</text></g><g clip-path="url(#clip43)"><text font-family="Century Gothic,Century Gothic_MSFontService,sans-serif" font-weight="400" font-size="73" transform="matrix(1 0 0 1 3451.98 1772)">2,21%</text></g><g clip-path="url(#clip44)"><text font-family="Century Gothic,Century Gothic_MSFontService,sans-serif" font-weight="400" font-size="73" transform="matrix(1 0 0 1 3826.67 1772)">0,74</text></g><g clip-path="url(#clip45)"><text font-family="Century Gothic,Century Gothic_MSFontService,sans-serif" font-weight="400" font-size="73" transform="matrix(1 0 0 1 503.243 1868)">J039</text></g><g clip-path="url(#clip46)"><text font-family="Century Gothic,Century Gothic_MSFontService,sans-serif" font-weight="400" font-size="73" transform="matrix(1 0 0 1 820.678 1868)">AMIGDALITIS AGUDA, NO ESPECIFICADA</text></g><g clip-path="url(#clip47)"><text font-family="Century Gothic,Century Gothic_MSFontService,sans-serif" font-weight="400" font-size="73" transform="matrix(1 0 0 1 3137.73 1868)">4</text></g><g clip-path="url(#clip48)"><text font-family="Century Gothic,Century Gothic_MSFontService,sans-serif" font-weight="400" font-size="73" transform="matrix(1 0 0 1 3451.98 1868)">2,21%</text></g><g clip-path="url(#clip49)"><text font-family="Century Gothic,Century Gothic_MSFontService,sans-serif" font-weight="400" font-size="73" transform="matrix(1 0 0 1 3826.67 1868)">0,74</text></g><g clip-path="url(#clip50)"><text font-family="Century Gothic,Century Gothic_MSFontService,sans-serif" font-weight="400" font-size="73" transform="matrix(1 0 0 1 503.243 1964)">R072</text></g><g clip-path="url(#clip51)"><text font-family="Century Gothic,Century Gothic_MSFontService,sans-serif" font-weight="400" font-size="73" transform="matrix(1 0 0 1 820.678 1964)">DOLOR PRECORDIAL</text></g><g clip-path="url(#clip52)"><text font-family="Century Gothic,Century Gothic_MSFontService,sans-serif" font-weight="400" font-size="73" transform="matrix(1 0 0 1 3137.73 1964)">4</text></g><g clip-path="url(#clip53)"><text font-family="Century Gothic,Century Gothic_MSFontService,sans-serif" font-weight="400" font-size="73" transform="matrix(1 0 0 1 3451.98 1964)">2,21%</text></g><g clip-path="url(#clip54)"><text font-family="Century Gothic,Century Gothic_MSFontService,sans-serif" font-weight="400" font-size="73" transform="matrix(1 0 0 1 3826.67 1964)">0,74</text></g><g clip-path="url(#clip55)"><text font-family="Century Gothic,Century Gothic_MSFontService,sans-serif" font-weight="400" font-size="73" transform="matrix(1 0 0 1 820.678 2060)">OTROS</text></g><g clip-path="url(#clip56)"><text font-family="Century Gothic,Century Gothic_MSFontService,sans-serif" font-weight="400" font-size="73" transform="matrix(1 0 0 1 3056.37 2060)">109</text></g><g clip-path="url(#clip57)"><text font-family="Century Gothic,Century Gothic_MSFontService,sans-serif" font-weight="400" font-size="73" transform="matrix(1 0 0 1 3411.3 2060)">60,22%</text></g><g clip-path="url(#clip58)"><text font-family="Century Gothic,Century Gothic_MSFontService,sans-serif" font-weight="400" font-size="73" transform="matrix(1 0 0 1 3785.99 2060)">20,19</text></g><text font-family="Century Gothic,Century Gothic_MSFontService,sans-serif" font-weight="700" font-size="73" transform="matrix(1 0 0 1 1535.46 2157)">TOTAL</text><g clip-path="url(#clip59)"><text font-family="Century Gothic,Century Gothic_MSFontService,sans-serif" font-weight="700" font-size="73" transform="matrix(1 0 0 1 3054.65 2157)">181</text></g><g clip-path="url(#clip60)"><text font-family="Century Gothic,Century Gothic_MSFontService,sans-serif" font-weight="700" font-size="73" transform="matrix(1 0 0 1 3360.88 2157)">100,00%</text></g><g clip-path="url(#clip61)"><text font-family="Century Gothic,Century Gothic_MSFontService,sans-serif" font-weight="700" font-size="73" transform="matrix(1 0 0 1 3783.12 2157)">33,52</text></g></g></svg>