<svg width="1758" height="1623" xmlns="http://www.w3.org/2000/svg" xmlns:xlink="http://www.w3.org/1999/xlink" overflow="hidden"><defs><clipPath id="clip0"><rect x="2197" y="214" width="1758" height="1623"/></clipPath><clipPath id="clip1"><rect x="2199" y="92" width="1005" height="502"/></clipPath><clipPath id="clip2"><rect x="3203" y="92" width="250" height="502"/></clipPath><clipPath id="clip3"><rect x="3452" y="92" width="250" height="502"/></clipPath><clipPath id="clip4"><rect x="3701" y="92" width="249" height="502"/></clipPath><clipPath id="clip5"><rect x="2199" y="167" width="1005" height="501"/></clipPath><clipPath id="clip6"><rect x="3203" y="167" width="250" height="501"/></clipPath><clipPath id="clip7"><rect x="3452" y="167" width="250" height="501"/></clipPath><clipPath id="clip8"><rect x="3701" y="167" width="249" height="501"/></clipPath><clipPath id="clip9"><rect x="2199" y="241" width="1005" height="502"/></clipPath><clipPath id="clip10"><rect x="3203" y="241" width="250" height="502"/></clipPath><clipPath id="clip11"><rect x="3452" y="241" width="250" height="502"/></clipPath><clipPath id="clip12"><rect x="3701" y="241" width="249" height="502"/></clipPath><clipPath id="clip13"><rect x="2199" y="316" width="1005" height="501"/></clipPath><clipPath id="clip14"><rect x="3203" y="316" width="250" height="501"/></clipPath><clipPath id="clip15"><rect x="3452" y="316" width="250" height="501"/></clipPath><clipPath id="clip16"><rect x="3701" y="316" width="249" height="501"/></clipPath><clipPath id="clip17"><rect x="2199" y="391" width="1005" height="501"/></clipPath><clipPath id="clip18"><rect x="3203" y="391" width="250" height="501"/></clipPath><clipPath id="clip19"><rect x="3452" y="391" width="250" height="501"/></clipPath><clipPath id="clip20"><rect x="3701" y="391" width="249" height="501"/></clipPath><clipPath id="clip21"><rect x="2199" y="465" width="1005" height="502"/></clipPath><clipPath id="clip22"><rect x="3203" y="465" width="250" height="502"/></clipPath><clipPath id="clip23"><rect x="3452" y="465" width="250" height="502"/></clipPath><clipPath id="clip24"><rect x="3701" y="465" width="249" height="502"/></clipPath><clipPath id="clip25"><rect x="2199" y="540" width="1005" height="501"/></clipPath><clipPath id="clip26"><rect x="3203" y="540" width="250" height="501"/></clipPath><clipPath id="clip27"><rect x="3452" y="540" width="250" height="501"/></clipPath><clipPath id="clip28"><rect x="3701" y="540" width="249" height="501"/></clipPath><clipPath id="clip29"><rect x="2199" y="614" width="1005" height="502"/></clipPath><clipPath id="clip30"><rect x="3203" y="614" width="250" height="502"/></clipPath><clipPath id="clip31"><rect x="3452" y="614" width="250" height="502"/></clipPath><clipPath id="clip32"><rect x="3701" y="614" width="249" height="502"/></clipPath><clipPath id="clip33"><rect x="2199" y="689" width="1005" height="502"/></clipPath><clipPath id="clip34"><rect x="3203" y="689" width="250" height="502"/></clipPath><clipPath id="clip35"><rect x="3452" y="689" width="250" height="502"/></clipPath><clipPath id="clip36"><rect x="3701" y="689" width="249" height="502"/></clipPath><clipPath id="clip37"><rect x="2199" y="764" width="1005" height="501"/></clipPath><clipPath id="clip38"><rect x="3203" y="764" width="250" height="501"/></clipPath><clipPath id="clip39"><rect x="3452" y="764" width="250" height="501"/></clipPath><clipPath id="clip40"><rect x="3701" y="764" width="249" height="501"/></clipPath><clipPath id="clip41"><rect x="2199" y="838" width="1005" height="502"/></clipPath><clipPath id="clip42"><rect x="3203" y="838" width="250" height="502"/></clipPath><clipPath id="clip43"><rect x="3452" y="838" width="250" height="502"/></clipPath><clipPath id="clip44"><rect x="3701" y="838" width="249" height="502"/></clipPath><clipPath id="clip45"><rect x="2199" y="913" width="1005" height="501"/></clipPath><clipPath id="clip46"><rect x="3203" y="913" width="250" height="502"/></clipPath><clipPath id="clip47"><rect x="3452" y="913" width="250" height="502"/></clipPath><clipPath id="clip48"><rect x="3701" y="913" width="249" height="501"/></clipPath><clipPath id="clip49"><rect x="2199" y="988" width="1005" height="501"/></clipPath><clipPath id="clip50"><rect x="3203" y="988" width="250" height="501"/></clipPath><clipPath id="clip51"><rect x="3452" y="988" width="250" height="501"/></clipPath><clipPath id="clip52"><rect x="3701" y="988" width="249" height="501"/></clipPath><clipPath id="clip53"><rect x="2199" y="1062" width="1005" height="502"/></clipPath><clipPath id="clip54"><rect x="3203" y="1062" width="250" height="502"/></clipPath><clipPath id="clip55"><rect x="3452" y="1062" width="250" height="502"/></clipPath><clipPath id="clip56"><rect x="3701" y="1062" width="249" height="502"/></clipPath><clipPath id="clip57"><rect x="2199" y="1137" width="1005" height="501"/></clipPath><clipPath id="clip58"><rect x="3203" y="1137" width="250" height="501"/></clipPath><clipPath id="clip59"><rect x="3452" y="1137" width="250" height="501"/></clipPath><clipPath id="clip60"><rect x="3701" y="1137" width="249" height="501"/></clipPath><clipPath id="clip61"><rect x="2199" y="1212" width="1005" height="501"/></clipPath><clipPath id="clip62"><rect x="3701" y="1212" width="249" height="501"/></clipPath><clipPath id="clip63"><rect x="2199" y="1286" width="1005" height="502"/></clipPath><clipPath id="clip64"><rect x="3701" y="1286" width="249" height="502"/></clipPath><clipPath id="clip65"><rect x="2199" y="1361" width="1005" height="501"/></clipPath><clipPath id="clip66"><rect x="3203" y="1361" width="250" height="501"/></clipPath><clipPath id="clip67"><rect x="3452" y="1361" width="250" height="501"/></clipPath><clipPath id="clip68"><rect x="3701" y="1361" width="249" height="501"/></clipPath><clipPath id="clip69"><rect x="2199" y="1435" width="1005" height="502"/></clipPath><clipPath id="clip70"><rect x="3203" y="1435" width="250" height="502"/></clipPath><clipPath id="clip71"><rect x="3452" y="1435" width="250" height="502"/></clipPath><clipPath id="clip72"><rect x="3701" y="1435" width="249" height="502"/></clipPath><clipPath id="clip73"><rect x="3203" y="1513" width="250" height="502"/></clipPath><clipPath id="clip74"><rect x="3452" y="1513" width="250" height="502"/></clipPath><clipPath id="clip75"><rect x="3701" y="1513" width="249" height="502"/></clipPath></defs><g clip-path="url(#clip0)" transform="translate(-2197 -214)"><path d="M2200 229.335 3203.82 229.335 3203.82 303.945 2200 303.945Z" fill="#FFFF00" fill-rule="evenodd"/><path d="M3203.82 229.335 3452.44 229.335 3452.44 303.945 3203.82 303.945Z" fill="#FFFF00" fill-rule="evenodd"/><path d="M3452.44 229.335 3701.06 229.335 3701.06 303.945 3452.44 303.945Z" fill="#FFFF00" fill-rule="evenodd"/><path d="M3701.06 229.335 3949.69 229.335 3949.69 303.945 3701.06 303.945Z" fill="#FFFF00" fill-rule="evenodd"/><path d="M2200 1721.94 3203.82 1721.94 3203.82 1799.68 2200 1799.68Z" fill="#D9D9D9" fill-rule="evenodd"/><path d="M3203.82 1721.94 3452.44 1721.94 3452.44 1799.68 3203.82 1799.68Z" fill="#D9D9D9" fill-rule="evenodd"/><path d="M3452.44 1721.94 3701.06 1721.94 3701.06 1799.68 3452.44 1799.68Z" fill="#D9D9D9" fill-rule="evenodd"/><path d="M3701.06 1721.94 3949.69 1721.94 3949.69 1799.68 3701.06 1799.68Z" fill="#D9D9D9" fill-rule="evenodd"/><path d="M3203.82 227.043 3203.82 1801.97" stroke="#000000" stroke-width="2.29167" stroke-linejoin="round" stroke-miterlimit="10" fill="none" fill-rule="evenodd"/><path d="M3452.44 227.043 3452.44 1801.97" stroke="#000000" stroke-width="2.29167" stroke-linejoin="round" stroke-miterlimit="10" fill="none" fill-rule="evenodd"/><path d="M3701.06 227.043 3701.06 1801.97" stroke="#000000" stroke-width="2.29167" stroke-linejoin="round" stroke-miterlimit="10" fill="none" fill-rule="evenodd"/><path d="M2197.71 303.945 3951.98 303.945" stroke="#000000" stroke-width="2.29167" stroke-linejoin="round" stroke-miterlimit="10" fill="none" fill-rule="evenodd"/><path d="M2197.71 378.576 3951.98 378.576" stroke="#000000" stroke-width="2.29167" stroke-linejoin="round" stroke-miterlimit="10" fill="none" fill-rule="evenodd"/><path d="M2197.71 453.207 3951.98 453.207" stroke="#000000" stroke-width="2.29167" stroke-linejoin="round" stroke-miterlimit="10" fill="none" fill-rule="evenodd"/><path d="M2197.71 527.838 3951.98 527.838" stroke="#000000" stroke-width="2.29167" stroke-linejoin="round" stroke-miterlimit="10" fill="none" fill-rule="evenodd"/><path d="M2197.71 602.469 3951.98 602.469" stroke="#000000" stroke-width="2.29167" stroke-linejoin="round" stroke-miterlimit="10" fill="none" fill-rule="evenodd"/><path d="M2197.71 677.1 3951.98 677.1" stroke="#000000" stroke-width="2.29167" stroke-linejoin="round" stroke-miterlimit="10" fill="none" fill-rule="evenodd"/><path d="M2197.71 751.731 3951.98 751.731" stroke="#000000" stroke-width="2.29167" stroke-linejoin="round" stroke-miterlimit="10" fill="none" fill-rule="evenodd"/><path d="M2197.71 826.362 3951.98 826.362" stroke="#000000" stroke-width="2.29167" stroke-linejoin="round" stroke-miterlimit="10" fill="none" fill-rule="evenodd"/><path d="M2197.71 900.993 3951.98 900.993" stroke="#000000" stroke-width="2.29167" stroke-linejoin="round" stroke-miterlimit="10" fill="none" fill-rule="evenodd"/><path d="M2197.71 975.625 3951.98 975.625" stroke="#000000" stroke-width="2.29167" stroke-linejoin="round" stroke-miterlimit="10" fill="none" fill-rule="evenodd"/><path d="M2197.71 1050.26 3951.98 1050.26" stroke="#000000" stroke-width="2.29167" stroke-linejoin="round" stroke-miterlimit="10" fill="none" fill-rule="evenodd"/><path d="M2197.71 1124.89 3951.98 1124.89" stroke="#000000" stroke-width="2.29167" stroke-linejoin="round" stroke-miterlimit="10" fill="none" fill-rule="evenodd"/><path d="M2197.71 1199.52 3951.98 1199.52" stroke="#000000" stroke-width="2.29167" stroke-linejoin="round" stroke-miterlimit="10" fill="none" fill-rule="evenodd"/><path d="M2197.71 1274.15 3951.98 1274.15" stroke="#000000" stroke-width="2.29167" stroke-linejoin="round" stroke-miterlimit="10" fill="none" fill-rule="evenodd"/><path d="M2197.71 1348.78 3951.98 1348.78" stroke="#000000" stroke-width="2.29167" stroke-linejoin="round" stroke-miterlimit="10" fill="none" fill-rule="evenodd"/><path d="M2197.71 1423.41 3951.98 1423.41" stroke="#000000" stroke-width="2.29167" stroke-linejoin="round" stroke-miterlimit="10" fill="none" fill-rule="evenodd"/><path d="M2197.71 1498.04 3951.98 1498.04" stroke="#000000" stroke-width="2.29167" stroke-linejoin="round" stroke-miterlimit="10" fill="none" fill-rule="evenodd"/><path d="M2197.71 1572.67 3951.98 1572.67" stroke="#000000" stroke-width="2.29167" stroke-linejoin="round" stroke-miterlimit="10" fill="none" fill-rule="evenodd"/><path d="M2197.71 1647.3 3951.98 1647.3" stroke="#000000" stroke-width="2.29167" stroke-linejoin="round" stroke-miterlimit="10" fill="none" fill-rule="evenodd"/><path d="M2197.71 1721.94 3951.98 1721.94" stroke="#000000" stroke-width="2.29167" stroke-linejoin="round" stroke-miterlimit="10" fill="none" fill-rule="evenodd"/><path d="M2200 227.043 2200 1801.97" stroke="#000000" stroke-width="4.58333" stroke-linejoin="round" stroke-miterlimit="10" fill="none" fill-rule="evenodd"/><path d="M3949.69 227.043 3949.69 1801.97" stroke="#000000" stroke-width="4.58333" stroke-linejoin="round" stroke-miterlimit="10" fill="none" fill-rule="evenodd"/><path d="M2197.71 229.335 3951.98 229.335" stroke="#000000" stroke-width="4.58333" stroke-linejoin="round" stroke-miterlimit="10" fill="none" fill-rule="evenodd"/><path d="M2197.71 1799.68 3951.98 1799.68" stroke="#000000" stroke-width="4.58333" stroke-linejoin="round" stroke-miterlimit="10" fill="none" fill-rule="evenodd"/><text fill="#3333FF" font-family="Century Gothic,Century Gothic_MSFontService,sans-serif" font-weight="700" font-size="60" transform="matrix(1 0 0 1 2508.26 291)">BIOLOGICOS<tspan font-size="60" x="753.407" y="-1">2020</tspan><tspan font-size="60" x="1002.03" y="-1">2021</tspan><tspan font-size="60" x="1250.65" y="0">2022</tspan></text><g clip-path="url(#clip1)"><text font-family="Century Gothic,Century Gothic_MSFontService,sans-serif" font-weight="400" font-size="60" transform="matrix(1 0 0 1 2203.11 365)">BCG</text></g><g clip-path="url(#clip2)"><text font-family="Century Gothic,Century Gothic_MSFontService,sans-serif" font-weight="400" font-size="60" transform="matrix(1 0 0 1 3416.04 365)">4</text></g><g clip-path="url(#clip3)"><text font-family="Century Gothic,Century Gothic_MSFontService,sans-serif" font-weight="400" font-size="60" transform="matrix(1 0 0 1 3664.66 365)">2</text></g><g clip-path="url(#clip4)"><text font-family="Century Gothic,Century Gothic_MSFontService,sans-serif" font-weight="400" font-size="60" transform="matrix(1 0 0 1 3913.29 365)">2</text></g><g clip-path="url(#clip5)"><text font-family="Century Gothic,Century Gothic_MSFontService,sans-serif" font-weight="400" font-size="60" transform="matrix(1 0 0 1 2203.11 440)">Vacuna Inyectable de Polio (VIP)</text></g><g clip-path="url(#clip6)"><text font-family="Century Gothic,Century Gothic_MSFontService,sans-serif" font-weight="400" font-size="60" transform="matrix(1 0 0 1 3349.58 440)">185</text></g><g clip-path="url(#clip7)"><text font-family="Century Gothic,Century Gothic_MSFontService,sans-serif" font-weight="400" font-size="60" transform="matrix(1 0 0 1 3598.21 440)">196</text></g><g clip-path="url(#clip8)"><text font-family="Century Gothic,Century Gothic_MSFontService,sans-serif" font-weight="400" font-size="60" transform="matrix(1 0 0 1 3846.83 440)">213</text></g><g clip-path="url(#clip9)"><text font-family="Century Gothic,Century Gothic_MSFontService,sans-serif" font-weight="400" font-size="60" transform="matrix(1 0 0 1 2203.11 514)">Vacuna Oral de Polio (VOP)</text></g><g clip-path="url(#clip10)"><text font-family="Century Gothic,Century Gothic_MSFontService,sans-serif" font-weight="400" font-size="60" transform="matrix(1 0 0 1 3349.58 514)">131</text></g><g clip-path="url(#clip11)"><text font-family="Century Gothic,Century Gothic_MSFontService,sans-serif" font-weight="400" font-size="60" transform="matrix(1 0 0 1 3598.21 514)">130</text></g><g clip-path="url(#clip12)"><text font-family="Century Gothic,Century Gothic_MSFontService,sans-serif" font-weight="400" font-size="60" transform="matrix(1 0 0 1 3880.06 514)">87</text></g><g clip-path="url(#clip13)"><text font-family="Century Gothic,Century Gothic_MSFontService,sans-serif" font-weight="400" font-size="60" transform="matrix(1 0 0 1 2203.11 589)">Pentavalente</text></g><g clip-path="url(#clip14)"><text font-family="Century Gothic,Century Gothic_MSFontService,sans-serif" font-weight="400" font-size="60" transform="matrix(1 0 0 1 3349.58 589)">177</text></g><g clip-path="url(#clip15)"><text font-family="Century Gothic,Century Gothic_MSFontService,sans-serif" font-weight="400" font-size="60" transform="matrix(1 0 0 1 3598.21 589)">192</text></g><g clip-path="url(#clip16)"><text font-family="Century Gothic,Century Gothic_MSFontService,sans-serif" font-weight="400" font-size="60" transform="matrix(1 0 0 1 3846.83 589)">169</text></g><g clip-path="url(#clip17)"><text font-family="Century Gothic,Century Gothic_MSFontService,sans-serif" font-weight="400" font-size="60" transform="matrix(1 0 0 1 2203.11 664)">Difteria, Tos ferina y Tétanos (DPT)</text></g><g clip-path="url(#clip18)"><text font-family="Century Gothic,Century Gothic_MSFontService,sans-serif" font-weight="400" font-size="60" transform="matrix(1 0 0 1 3349.58 664)">139</text></g><g clip-path="url(#clip19)"><text font-family="Century Gothic,Century Gothic_MSFontService,sans-serif" font-weight="400" font-size="60" transform="matrix(1 0 0 1 3598.21 664)">130</text></g><g clip-path="url(#clip20)"><text font-family="Century Gothic,Century Gothic_MSFontService,sans-serif" font-weight="400" font-size="60" transform="matrix(1 0 0 1 3846.83 664)">136</text></g><g clip-path="url(#clip21)"><text font-family="Century Gothic,Century Gothic_MSFontService,sans-serif" font-weight="400" font-size="60" transform="matrix(1 0 0 1 2203.11 738)">Hepatitis B</text></g><g clip-path="url(#clip22)"><text font-family="Century Gothic,Century Gothic_MSFontService,sans-serif" font-weight="400" font-size="60" transform="matrix(1 0 0 1 3416.04 738)">4</text></g><g clip-path="url(#clip23)"><text font-family="Century Gothic,Century Gothic_MSFontService,sans-serif" font-weight="400" font-size="60" transform="matrix(1 0 0 1 3664.66 738)">2</text></g><g clip-path="url(#clip24)"><text font-family="Century Gothic,Century Gothic_MSFontService,sans-serif" font-weight="400" font-size="60" transform="matrix(1 0 0 1 3913.29 738)">2</text></g><g clip-path="url(#clip25)"><text font-family="Century Gothic,Century Gothic_MSFontService,sans-serif" font-weight="400" font-size="60" transform="matrix(1 0 0 1 2203.11 813)">Rotavirus</text></g><g clip-path="url(#clip26)"><text font-family="Century Gothic,Century Gothic_MSFontService,sans-serif" font-weight="400" font-size="60" transform="matrix(1 0 0 1 3349.58 813)">120</text></g><g clip-path="url(#clip27)"><text font-family="Century Gothic,Century Gothic_MSFontService,sans-serif" font-weight="400" font-size="60" transform="matrix(1 0 0 1 3598.21 813)">133</text></g><g clip-path="url(#clip28)"><text font-family="Century Gothic,Century Gothic_MSFontService,sans-serif" font-weight="400" font-size="60" transform="matrix(1 0 0 1 3846.83 813)">113</text></g><g clip-path="url(#clip29)"><text font-family="Century Gothic,Century Gothic_MSFontService,sans-serif" font-weight="400" font-size="60" transform="matrix(1 0 0 1 2203.11 887)">Neumococo </text></g><g clip-path="url(#clip30)"><text font-family="Century Gothic,Century Gothic_MSFontService,sans-serif" font-weight="400" font-size="60" transform="matrix(1 0 0 1 3349.58 887)">189</text></g><g clip-path="url(#clip31)"><text font-family="Century Gothic,Century Gothic_MSFontService,sans-serif" font-weight="400" font-size="60" transform="matrix(1 0 0 1 3598.21 887)">168</text></g><g clip-path="url(#clip32)"><text font-family="Century Gothic,Century Gothic_MSFontService,sans-serif" font-weight="400" font-size="60" transform="matrix(1 0 0 1 3846.83 887)">185</text></g><g clip-path="url(#clip33)"><text font-family="Century Gothic,Century Gothic_MSFontService,sans-serif" font-weight="400" font-size="60" transform="matrix(1 0 0 1 2203.11 962)">Triple viral (SRP)</text></g><g clip-path="url(#clip34)"><text font-family="Century Gothic,Century Gothic_MSFontService,sans-serif" font-weight="400" font-size="60" transform="matrix(1 0 0 1 3349.58 962)">153</text></g><g clip-path="url(#clip35)"><text font-family="Century Gothic,Century Gothic_MSFontService,sans-serif" font-weight="400" font-size="60" transform="matrix(1 0 0 1 3598.21 962)">129</text></g><g clip-path="url(#clip36)"><text font-family="Century Gothic,Century Gothic_MSFontService,sans-serif" font-weight="400" font-size="60" transform="matrix(1 0 0 1 3846.83 962)">142</text></g><g clip-path="url(#clip37)"><text font-family="Century Gothic,Century Gothic_MSFontService,sans-serif" font-weight="400" font-size="60" transform="matrix(1 0 0 1 2203.11 1037)">Sarampión, Rubeola (SR)</text></g><g clip-path="url(#clip38)"><text font-family="Century Gothic,Century Gothic_MSFontService,sans-serif" font-weight="400" font-size="60" transform="matrix(1 0 0 1 3416.04 1037)">0</text></g><g clip-path="url(#clip39)"><text font-family="Century Gothic,Century Gothic_MSFontService,sans-serif" font-weight="400" font-size="60" transform="matrix(1 0 0 1 3598.21 1037)">829</text></g><g clip-path="url(#clip40)"><text font-family="Century Gothic,Century Gothic_MSFontService,sans-serif" font-weight="400" font-size="60" transform="matrix(1 0 0 1 3846.83 1037)">150</text></g><g clip-path="url(#clip41)"><text font-family="Century Gothic,Century Gothic_MSFontService,sans-serif" font-weight="400" font-size="60" transform="matrix(1 0 0 1 2203.11 1111)">Varicela</text></g><g clip-path="url(#clip42)"><text font-family="Century Gothic,Century Gothic_MSFontService,sans-serif" font-weight="400" font-size="60" transform="matrix(1 0 0 1 3349.58 1111)">148</text></g><g clip-path="url(#clip43)"><text font-family="Century Gothic,Century Gothic_MSFontService,sans-serif" font-weight="400" font-size="60" transform="matrix(1 0 0 1 3598.21 1111)">130</text></g><g clip-path="url(#clip44)"><text font-family="Century Gothic,Century Gothic_MSFontService,sans-serif" font-weight="400" font-size="60" transform="matrix(1 0 0 1 3846.83 1111)">128</text></g><g clip-path="url(#clip45)"><text font-family="Century Gothic,Century Gothic_MSFontService,sans-serif" font-weight="400" font-size="60" transform="matrix(1 0 0 1 2203.11 1186)">Antiamarílica</text></g><g clip-path="url(#clip46)"><text font-family="Century Gothic,Century Gothic_MSFontService,sans-serif" font-weight="400" font-size="60" transform="matrix(1 0 0 1 3349.58 1186)">102</text></g><g clip-path="url(#clip47)"><text font-family="Century Gothic,Century Gothic_MSFontService,sans-serif" font-weight="400" font-size="60" transform="matrix(1 0 0 1 3631.44 1186)">64</text></g><g clip-path="url(#clip48)"><text font-family="Century Gothic,Century Gothic_MSFontService,sans-serif" font-weight="400" font-size="60" transform="matrix(1 0 0 1 3846.83 1186)">125</text></g><g clip-path="url(#clip49)"><text font-family="Century Gothic,Century Gothic_MSFontService,sans-serif" font-weight="400" font-size="60" transform="matrix(1 0 0 1 2203.11 1261)">Hepatitis A</text></g><g clip-path="url(#clip50)"><text font-family="Century Gothic,Century Gothic_MSFontService,sans-serif" font-weight="400" font-size="60" transform="matrix(1 0 0 1 3382.81 1261)">77</text></g><g clip-path="url(#clip51)"><text font-family="Century Gothic,Century Gothic_MSFontService,sans-serif" font-weight="400" font-size="60" transform="matrix(1 0 0 1 3631.44 1261)">62</text></g><g clip-path="url(#clip52)"><text font-family="Century Gothic,Century Gothic_MSFontService,sans-serif" font-weight="400" font-size="60" transform="matrix(1 0 0 1 3880.06 1261)">64</text></g><g clip-path="url(#clip53)"><text font-family="Century Gothic,Century Gothic_MSFontService,sans-serif" font-weight="400" font-size="60" transform="matrix(1 0 0 1 2203.11 1335)">Td Adulto</text></g><g clip-path="url(#clip54)"><text font-family="Century Gothic,Century Gothic_MSFontService,sans-serif" font-weight="400" font-size="60" transform="matrix(1 0 0 1 3349.58 1335)">113</text></g><g clip-path="url(#clip55)"><text font-family="Century Gothic,Century Gothic_MSFontService,sans-serif" font-weight="400" font-size="60" transform="matrix(1 0 0 1 3631.44 1335)">91</text></g><g clip-path="url(#clip56)"><text font-family="Century Gothic,Century Gothic_MSFontService,sans-serif" font-weight="400" font-size="60" transform="matrix(1 0 0 1 3846.83 1335)">127</text></g><g clip-path="url(#clip57)"><text font-family="Century Gothic,Century Gothic_MSFontService,sans-serif" font-weight="400" font-size="60" transform="matrix(1 0 0 1 2203.11 1410)">DPT Acelular Gestantes</text></g><g clip-path="url(#clip58)"><text font-family="Century Gothic,Century Gothic_MSFontService,sans-serif" font-weight="400" font-size="60" transform="matrix(1 0 0 1 3382.81 1410)">50</text></g><g clip-path="url(#clip59)"><text font-family="Century Gothic,Century Gothic_MSFontService,sans-serif" font-weight="400" font-size="60" transform="matrix(1 0 0 1 3631.44 1410)">57</text></g><g clip-path="url(#clip60)"><text font-family="Century Gothic,Century Gothic_MSFontService,sans-serif" font-weight="400" font-size="60" transform="matrix(1 0 0 1 3880.06 1410)">47</text></g><g clip-path="url(#clip61)"><text font-family="Century Gothic,Century Gothic_MSFontService,sans-serif" font-weight="400" font-size="60" transform="matrix(1 0 0 1 2203.11 1485)">Influenza niños</text></g><g clip-path="url(#clip62)"><text font-family="Century Gothic,Century Gothic_MSFontService,sans-serif" font-weight="400" font-size="60" transform="matrix(1 0 0 1 3846.83 1485)">280</text></g><g clip-path="url(#clip63)"><text font-family="Century Gothic,Century Gothic_MSFontService,sans-serif" font-weight="400" font-size="60" transform="matrix(1 0 0 1 2203.11 1559)">Influenza adulto</text></g><g clip-path="url(#clip64)"><text font-family="Century Gothic,Century Gothic_MSFontService,sans-serif" font-weight="400" font-size="60" transform="matrix(1 0 0 1 3813.6 1559)">1100</text></g><g clip-path="url(#clip65)"><text font-family="Century Gothic,Century Gothic_MSFontService,sans-serif" font-weight="400" font-size="60" transform="matrix(1 0 0 1 2203.11 1634)">Virus del Papiloma Humano VPH</text></g><g clip-path="url(#clip66)"><text font-family="Century Gothic,Century Gothic_MSFontService,sans-serif" font-weight="400" font-size="60" transform="matrix(1 0 0 1 3382.81 1634)">91</text></g><g clip-path="url(#clip67)"><text font-family="Century Gothic,Century Gothic_MSFontService,sans-serif" font-weight="400" font-size="60" transform="matrix(1 0 0 1 3631.44 1634)">90</text></g><g clip-path="url(#clip68)"><text font-family="Century Gothic,Century Gothic_MSFontService,sans-serif" font-weight="400" font-size="60" transform="matrix(1 0 0 1 3880.06 1634)">93</text></g><g clip-path="url(#clip69)"><text font-family="Century Gothic,Century Gothic_MSFontService,sans-serif" font-weight="400" font-size="60" transform="matrix(1 0 0 1 2203.11 1708)">Vacuna Antirrábica</text></g><text font-family="Century Gothic,Century Gothic_MSFontService,sans-serif" font-weight="400" font-size="60" transform="matrix(1 0 0 1 2806.96 1708)">Humana</text><g clip-path="url(#clip70)"><text font-family="Century Gothic,Century Gothic_MSFontService,sans-serif" font-weight="400" font-size="60" transform="matrix(1 0 0 1 3416.04 1708)">2</text></g><g clip-path="url(#clip71)"><text font-family="Century Gothic,Century Gothic_MSFontService,sans-serif" font-weight="400" font-size="60" transform="matrix(1 0 0 1 3664.66 1708)">4</text></g><g clip-path="url(#clip72)"><text font-family="Century Gothic,Century Gothic_MSFontService,sans-serif" font-weight="400" font-size="60" transform="matrix(1 0 0 1 3913.29 1708)">8</text></g><text font-family="Century Gothic,Century Gothic_MSFontService,sans-serif" font-weight="700" font-size="60" transform="matrix(1 0 0 1 2616.54 1784)">TOTAL</text><g clip-path="url(#clip73)"><text font-family="Century Gothic,Century Gothic_MSFontService,sans-serif" font-weight="700" font-size="60" transform="matrix(1 0 0 1 3316.35 1786)">1685</text></g><g clip-path="url(#clip74)"><text font-family="Century Gothic,Century Gothic_MSFontService,sans-serif" font-weight="700" font-size="60" transform="matrix(1 0 0 1 3564.98 1786)">2409</text></g><g clip-path="url(#clip75)"><text font-family="Century Gothic,Century Gothic_MSFontService,sans-serif" font-weight="700" font-size="60" transform="matrix(1 0 0 1 3813.6 1786)">3171</text></g></g></svg>