<svg width="558" height="276" xmlns="http://www.w3.org/2000/svg" xmlns:xlink="http://www.w3.org/1999/xlink" overflow="hidden"><defs><clipPath id="clip0"><rect x="2925" y="1867" width="558" height="276"/></clipPath><clipPath id="clip1"><rect x="2927" y="1594" width="551" height="694"/></clipPath></defs><g clip-path="url(#clip0)" transform="translate(-2925 -1867)"><path d="M2927.82 1888.46 3477.82 1888.46 3477.82 1990.9 2927.82 1990.9Z" fill="#FFFF00" fill-rule="evenodd"/><path d="M3202.82 1990.9 3477.82 1990.9 3477.82 2093.33 3202.82 2093.33Z" fill="#92D050" fill-rule="evenodd"/><path d="M3202.82 1989.75 3202.82 2095.63" stroke="#000000" stroke-width="2.29167" stroke-linejoin="round" stroke-miterlimit="10" fill="none" fill-rule="evenodd"/><path d="M2925.52 1990.9 3480.11 1990.9" stroke="#000000" stroke-width="2.29167" stroke-linejoin="round" stroke-miterlimit="10" fill="none" fill-rule="evenodd"/><path d="M2927.82 1886.17 2927.82 2095.63" stroke="#000000" stroke-width="4.58333" stroke-linejoin="round" stroke-miterlimit="10" fill="none" fill-rule="evenodd"/><path d="M3477.82 1886.17 3477.82 2095.63" stroke="#000000" stroke-width="4.58333" stroke-linejoin="round" stroke-miterlimit="10" fill="none" fill-rule="evenodd"/><path d="M2925.52 1888.46 3480.11 1888.46" stroke="#000000" stroke-width="4.58333" stroke-linejoin="round" stroke-miterlimit="10" fill="none" fill-rule="evenodd"/><path d="M2925.52 2093.33 3480.11 2093.33" stroke="#000000" stroke-width="4.58333" stroke-linejoin="round" stroke-miterlimit="10" fill="none" fill-rule="evenodd"/><g clip-path="url(#clip1)"><text fill="#3333FF" font-family="Century Gothic,Century Gothic_MSFontService,sans-serif" font-weight="700" font-size="83" transform="matrix(1 0 0 1 2968.21 1974)">VARIACION</text></g><text font-family="Century Gothic,Century Gothic_MSFontService,sans-serif" font-weight="700" font-size="83" transform="matrix(1 0 0 1 2995.71 2076)">762<tspan font-size="83" x="262.682" y="0">24%</tspan></text></g></svg>