<?xml version="1.0" standalone="no"?>
<!DOCTYPE svg PUBLIC "-//W3C//DTD SVG 20010904//EN"
 "http://www.w3.org/TR/2001/REC-SVG-20010904/DTD/svg10.dtd">
<svg version="1.0" xmlns="http://www.w3.org/2000/svg"
 width="1139.000000pt" height="343.000000pt" viewBox="0 0 1139.000000 343.000000"
 preserveAspectRatio="xMidYMid meet">

<g transform="translate(0.000000,343.000000) scale(0.100000,-0.100000)"
fill="#000000" stroke="none">
<path d="M2030 3200 c-475 -38 -926 -302 -1189 -695 -358 -536 -358 -1204 1
-1742 136 -204 378 -418 591 -523 37 -18 67 -38 67 -44 0 -6 -9 -35 -21 -65
-36 -95 11 -91 68 6 l24 42 50 -19 c69 -28 229 -67 329 -80 107 -15 318 -15
432 -1 268 35 554 155 770 324 732 571 813 1641 175 2304 -344 356 -806 532
-1297 493z m435 -110 c542 -114 970 -495 1133 -1010 53 -167 66 -256 66 -450
-1 -140 -5 -195 -22 -276 -85 -396 -303 -724 -627 -944 -38 -26 -89 -57 -113
-69 l-43 -22 -53 113 c-30 62 -53 114 -52 116 2 1 17 -3 35 -9 51 -18 147 -7
174 20 47 47 20 237 -74 516 -77 225 -84 233 -239 254 -47 7 -116 18 -155 26
-38 7 -87 16 -108 20 -37 6 -41 10 -77 88 -41 86 -40 97 11 97 92 0 176 56
269 179 62 82 84 88 156 46 41 -24 42 -26 33 -57 -5 -18 -9 -54 -9 -80 0 -34
-4 -46 -12 -43 -20 7 -33 -7 -52 -58 -10 -27 -25 -51 -34 -54 -8 -4 -38 1 -65
11 -27 10 -51 15 -54 12 -9 -8 17 -35 48 -52 63 -32 110 -10 143 69 10 26 21
37 36 37 26 0 28 8 32 100 l3 75 28 -3 c39 -5 77 22 77 54 0 59 -82 167 -148
197 -145 63 -366 -88 -426 -290 -8 -29 -12 -53 -8 -53 4 1 27 33 51 71 60 97
142 183 203 213 62 31 135 34 180 9 27 -17 108 -124 108 -144 0 -19 -50 -8
-114 26 -95 50 -120 47 -176 -17 -104 -120 -170 -177 -245 -214 -41 -20 -77
-35 -79 -33 -2 2 -15 27 -28 54 -24 47 -25 56 -18 145 9 113 37 182 104 257
90 99 216 149 361 141 99 -5 156 -31 224 -103 90 -95 121 -195 101 -322 -14
-90 -53 -170 -133 -273 -36 -47 -62 -87 -56 -88 17 -6 110 70 162 132 129 155
152 333 65 506 -84 168 -265 257 -473 230 -209 -27 -357 -155 -406 -352 -14
-57 -33 -62 -56 -13 -9 19 -20 35 -24 35 -10 0 -18 -39 -8 -42 5 -2 11 -18 15
-35 5 -27 3 -33 -10 -33 -9 0 -24 12 -33 28 -8 15 -27 36 -41 46 -14 11 -22
14 -18 8 4 -7 -5 -25 -23 -43 -17 -17 -31 -34 -31 -39 0 -5 -16 -6 -35 -3 -30
5 -42 0 -82 -31 -57 -44 -154 -137 -217 -207 -78 -86 -68 -105 136 -257 167
-125 244 -215 313 -368 20 -43 45 -88 56 -100 19 -21 19 -21 -2 -40 -30 -27
-46 -61 -95 -207 -41 -124 -122 -287 -180 -363 l-25 -33 -52 15 c-49 15 -138
45 -145 50 -2 1 21 69 51 151 49 134 108 319 136 430 29 109 36 313 11 313 -4
0 -13 -35 -19 -78 -19 -128 -154 -607 -180 -634 -3 -4 -7 34 -9 85 -9 310
-130 698 -298 960 -106 163 -122 230 -84 347 42 131 119 212 248 260 139 53
237 23 370 -114 45 -46 82 -82 82 -79 0 10 -76 122 -111 164 -166 199 -514
107 -629 -166 -29 -68 -34 -92 -34 -160 -1 -93 14 -131 113 -292 152 -248 253
-553 282 -851 9 -97 6 -221 -8 -279 l-5 -22 -57 29 c-192 96 -429 308 -550
489 -167 253 -251 527 -251 826 0 401 147 754 434 1041 257 256 518 380 921
438 75 11 343 -4 440 -24z m-446 -1296 c10 -54 76 -72 118 -32 20 19 25 20 33
8 18 -29 11 -69 -15 -86 -20 -13 -40 -15 -87 -11 -55 5 -65 9 -89 38 l-27 33
19 39 c21 40 41 45 48 11z m-85 -129 l46 -60 -70 -68 c-71 -68 -80 -86 -57
-105 7 -6 95 -22 197 -36 103 -15 189 -31 196 -38 25 -27 210 -406 193 -395
-13 8 -22 7 -34 -3 -14 -12 -16 -25 -11 -72 l6 -58 -60 0 c-32 0 -82 5 -110
11 -60 13 -76 32 -143 169 -55 113 -137 212 -238 290 -173 132 -219 171 -219
184 0 16 238 248 251 244 4 -2 28 -30 53 -63z m242 -146 c30 -61 53 -113 51
-116 -4 -3 -104 20 -250 58 l-39 10 56 59 c31 32 56 68 56 79 0 17 6 21 35 21
34 0 36 -1 91 -111z m412 -230 c191 -49 171 -29 245 -249 60 -180 90 -302 91
-375 l1 -60 -65 1 c-43 0 -81 8 -112 22 -42 19 -51 28 -77 86 l-30 66 26 29
26 30 55 -50 c55 -50 76 -59 85 -35 9 22 -20 68 -70 114 -48 42 -87 54 -110
31 -8 -8 -18 -1 -38 25 -15 19 -36 38 -47 42 -14 4 -47 61 -109 189 -49 101
-89 186 -89 189 0 3 12 1 28 -4 15 -4 100 -27 190 -51z m-142 -384 c20 -19 83
-19 110 0 19 13 23 12 49 -15 33 -34 29 -51 -18 -73 -66 -32 -141 -11 -153 41
-3 15 -8 35 -11 45 -5 21 3 22 23 2z m-13 -172 c2 -38 10 -117 17 -176 11 -87
11 -131 2 -220 -6 -61 -17 -117 -24 -124 -11 -10 -306 -46 -316 -38 -2 2 12
25 31 52 67 94 124 234 162 399 37 156 46 174 89 174 l34 0 5 -67z m-183 -76
c-34 -144 -56 -204 -137 -369 l-58 -117 -94 0 c-103 -1 -99 -7 -45 61 42 52
123 226 165 352 52 159 78 194 147 198 26 2 48 3 50 2 1 -1 -11 -58 -28 -127z
m430 -133 c66 -130 119 -238 117 -240 -2 -2 -59 -15 -128 -29 -68 -14 -137
-29 -153 -32 -26 -5 -28 -4 -22 13 22 52 29 201 16 319 -7 66 -15 139 -17 163
l-5 42 35 0 35 0 122 -236z"/>
<path d="M2052 2881 c-46 -32 -110 -43 -218 -39 -78 3 -94 -9 -94 -70 0 -28
-6 -52 -17 -64 -15 -17 -15 -21 1 -56 16 -34 21 -38 47 -34 17 2 36 13 42 23
7 11 22 19 35 19 12 0 25 6 28 14 3 8 19 19 35 25 16 5 29 16 29 24 0 8 11 18
25 21 16 4 25 13 25 25 0 11 9 21 23 24 23 6 87 82 87 104 0 17 2 17 -48 -16z"/>
<path d="M1586 2829 c-16 -24 -12 -45 13 -59 10 -5 51 -79 92 -164 41 -86 80
-156 87 -156 6 0 12 4 12 9 0 5 -31 79 -70 165 -39 87 -67 162 -64 171 7 17
-22 55 -42 55 -7 0 -20 -10 -28 -21z"/>
<path d="M1462 2679 c-99 -116 -147 -158 -190 -165 -82 -13 -35 -39 53 -29 28
3 61 6 75 6 14 0 32 3 40 6 8 3 26 8 40 9 54 6 90 17 101 30 6 8 24 14 39 14
15 0 35 8 44 19 16 17 16 21 0 55 -13 25 -24 36 -40 36 -12 0 -35 11 -51 24
-52 44 -70 43 -111 -5z"/>
<path d="M1915 2610 c-57 -13 -102 -38 -108 -59 -4 -17 -1 -21 17 -21 13 0 31
9 42 21 29 32 74 53 87 40 16 -16 -10 -57 -57 -92 l-40 -29 32 0 c28 0 37 7
62 47 17 26 30 55 30 65 0 24 -29 36 -65 28z"/>
<path d="M1620 2479 c-47 -29 -80 -60 -80 -76 0 -8 17 -21 37 -30 47 -19 106
-13 210 22 64 22 83 25 106 16 38 -15 43 -35 18 -76 -19 -32 -19 -35 -3 -35
23 0 52 50 52 87 0 17 -9 38 -20 48 -26 24 -115 16 -191 -16 -66 -29 -172 -34
-177 -8 -3 18 37 39 77 39 15 0 36 8 45 19 15 17 15 19 1 25 -26 10 -38 7 -75
-15z"/>
<path d="M1855 2363 c18 -43 23 -49 32 -40 9 9 -24 77 -37 77 -6 0 -4 -15 5
-37z"/>
<path d="M1800 2385 c0 -2 10 -24 22 -49 13 -27 26 -42 34 -39 17 6 -24 93
-43 93 -7 0 -13 -2 -13 -5z"/>
<path d="M1777 2358 c-7 -20 14 -68 29 -68 17 0 17 3 0 45 -16 38 -22 42 -29
23z"/>
<path d="M1705 2347 c-13 -10 -16 -21 -11 -41 10 -39 58 -56 160 -56 79 0 87
-2 101 -24 12 -17 13 -30 6 -49 -7 -17 -7 -28 -1 -32 11 -7 30 35 30 66 0 11
-11 31 -25 44 -22 23 -32 25 -113 25 -75 0 -92 3 -106 19 -14 15 -15 24 -6 40
13 25 -5 29 -35 8z"/>
<path d="M1870 2237 c0 -2 10 -23 23 -47 33 -62 51 -63 25 -1 -11 28 -27 51
-34 51 -8 0 -14 -2 -14 -3z"/>
<path d="M1816 2205 c-13 -50 28 -86 114 -100 65 -11 80 -21 80 -56 0 -18 4
-28 10 -24 6 3 10 19 10 35 0 37 -28 56 -93 65 -76 11 -119 59 -85 93 9 9 7
12 -9 12 -14 0 -23 -8 -27 -25z"/>
<path d="M1920 2223 c0 -5 7 -18 15 -29 15 -18 15 -18 13 5 -3 23 -28 44 -28
24z"/>
<path d="M1860 2194 c0 -12 7 -27 15 -34 19 -16 19 -3 0 30 -13 24 -14 24 -15
4z"/>
<path d="M1907 2068 c-10 -35 17 -65 70 -80 35 -10 54 -23 72 -48 l24 -35 -7
30 c-10 41 -26 55 -83 74 -43 14 -48 19 -51 49 -4 37 -17 42 -25 10z"/>
<path d="M1950 2071 c0 -10 39 -59 40 -49 0 17 -20 58 -30 58 -5 0 -10 -4 -10
-9z"/>
<path d="M2040 2011 c0 -6 4 -13 10 -16 6 -3 7 1 4 9 -7 18 -14 21 -14 7z"/>
<path d="M1980 1949 c0 -21 35 -66 63 -80 18 -9 17 -6 -5 13 -14 12 -33 37
-42 53 -9 17 -15 23 -16 14z"/>
<path d="M2010 1953 c0 -5 9 -21 20 -38 24 -36 26 -26 5 15 -15 29 -25 38 -25
23z"/>
<path d="M2065 1830 c3 -5 8 -10 11 -10 2 0 4 5 4 10 0 6 -5 10 -11 10 -5 0
-7 -4 -4 -10z"/>
<path d="M2676 1735 c-6 -16 29 -39 44 -30 16 10 11 21 -14 33 -19 9 -25 8
-30 -3z"/>
<path d="M5305 2663 c-27 -7 -55 -33 -66 -60 -14 -37 9 -78 72 -133 44 -38 59
-58 57 -74 -4 -31 -61 -35 -82 -5 -14 21 -16 21 -41 5 -24 -16 -25 -19 -12
-39 7 -12 31 -30 51 -41 32 -16 44 -17 77 -7 48 14 69 44 69 95 0 37 -6 46
-66 102 -47 43 -65 67 -61 78 8 21 36 20 59 -1 18 -16 20 -16 40 5 19 18 20
23 7 38 -12 15 -72 46 -81 43 -2 -1 -12 -4 -23 -6z"/>
<path d="M6294 2660 c-163 -36 -196 -259 -51 -337 21 -11 54 -17 94 -17 50 0
69 6 102 27 46 31 49 37 22 61 -18 16 -21 16 -52 -3 -22 -14 -51 -21 -82 -21
-40 0 -54 5 -77 28 -104 105 30 259 157 181 33 -20 35 -20 53 -4 28 25 26 31
-22 58 -49 28 -99 37 -144 27z"/>
<path d="M7795 2665 c-5 -2 -22 -6 -37 -9 -41 -9 -95 -61 -114 -111 -52 -136
74 -273 215 -235 129 35 175 196 83 293 -40 42 -112 72 -147 62z m74 -80 c30
-15 61 -69 61 -105 0 -29 -26 -76 -52 -94 -13 -9 -43 -16 -69 -16 -39 0 -53 5
-77 30 -96 95 17 248 137 185z"/>
<path d="M8990 2663 c-37 -11 -60 -28 -71 -54 -17 -42 2 -79 73 -141 43 -37
58 -57 56 -72 -4 -30 -53 -34 -83 -6 -22 21 -22 21 -46 1 l-24 -19 29 -31 c35
-36 74 -46 121 -31 42 14 65 44 65 85 -1 41 -16 64 -82 124 -36 33 -55 57 -51
67 7 19 42 18 65 -3 18 -16 20 -15 41 5 l21 22 -20 20 c-22 22 -71 39 -94 33z"/>
<path d="M4860 2485 l0 -175 95 0 95 0 0 30 0 30 -65 0 -65 0 0 50 0 50 65 0
65 0 0 30 0 30 -65 0 -65 0 0 30 c0 29 1 29 63 32 62 3 62 3 62 33 l0 30 -92
3 -93 3 0 -176z"/>
<path d="M5640 2485 l0 -175 95 0 95 0 0 30 c0 29 -1 29 -62 32 l-63 3 0 45 0
45 63 3 c61 3 62 3 62 32 l0 30 -65 0 -65 0 0 30 c0 29 1 29 63 32 62 3 62 3
65 36 l3 32 -95 0 -96 0 0 -175z"/>
<path d="M6550 2485 l0 -175 95 0 95 0 0 30 0 30 -65 0 -65 0 0 50 0 50 65 0
65 0 0 30 0 30 -65 0 -65 0 0 30 c0 29 1 29 63 32 62 3 62 3 62 33 l0 30 -92
3 -93 3 0 -176z"/>
<path d="M6800 2485 l0 -175 30 0 30 0 0 110 c0 61 3 110 8 110 4 -1 38 -50
76 -110 66 -104 72 -110 103 -110 l33 0 0 175 0 175 -35 0 -34 0 -3 -112 -3
-113 -72 113 c-66 102 -75 112 -103 112 l-30 0 0 -175z"/>
<path d="M7130 2625 c0 -32 2 -35 30 -35 l30 0 0 -140 0 -140 30 0 30 0 0 139
0 140 33 3 c28 3 32 7 35 36 l3 32 -95 0 -96 0 0 -35z"/>
<path d="M7370 2486 l0 -176 30 0 30 0 0 70 c0 39 4 70 8 70 4 0 25 -31 46
-70 35 -66 39 -70 73 -70 l35 0 -42 77 c-31 58 -38 78 -28 84 7 5 17 9 21 9
15 0 37 69 31 99 -11 53 -44 73 -129 79 l-75 5 0 -177z m135 69 c0 -27 -3 -30
-37 -33 -38 -3 -38 -3 -38 33 0 36 0 36 38 33 34 -3 37 -6 37 -33z"/>
<path d="M8190 2486 l0 -176 75 0 c42 0 90 6 108 14 89 38 120 148 72 249 -26
56 -69 77 -169 84 l-86 6 0 -177z m181 75 c24 -25 29 -38 29 -80 0 -68 -28
-101 -93 -108 l-47 -6 0 112 0 111 41 0 c31 0 47 -6 70 -29z"/>
<path d="M8540 2485 l0 -175 95 0 95 0 0 30 0 30 -65 0 -65 0 0 50 0 50 65 0
65 0 0 30 0 30 -65 0 -65 0 0 30 c0 29 1 29 63 32 62 3 62 3 62 33 l0 30 -92
3 -93 3 0 -176z"/>
<path d="M9286 2652 c-9 -15 -126 -324 -126 -333 0 -5 13 -9 30 -9 25 0 32 6
44 35 l15 35 74 0 74 0 9 -32 c8 -27 15 -34 42 -36 22 -2 32 1 31 10 0 7 -28
85 -63 173 -61 156 -63 160 -93 163 -17 2 -34 -1 -37 -6z m61 -147 l21 -55
-44 0 c-24 0 -44 3 -44 6 0 13 35 104 40 104 3 0 15 -25 27 -55z"/>
<path d="M9540 2485 l0 -175 80 0 80 0 0 29 c0 28 -2 30 -47 33 l-48 3 -3 143
-3 142 -29 0 -30 0 0 -175z"/>
<path d="M9754 2645 c-4 -9 -5 -74 -2 -145 4 -129 4 -131 34 -160 38 -38 89
-48 135 -26 57 27 63 45 67 204 l4 142 -36 0 -36 0 0 -133 c0 -143 -5 -157
-50 -157 -45 0 -50 14 -50 157 l0 133 -30 0 c-18 0 -33 -6 -36 -15z"/>
<path d="M10070 2485 l0 -175 78 0 c94 0 137 19 169 76 41 70 24 184 -33 236
-26 23 -89 38 -156 38 l-58 0 0 -175z m153 94 c34 -15 52 -54 51 -106 -1 -59
-32 -90 -97 -99 l-47 -7 0 112 0 111 35 0 c19 0 45 -5 58 -11z"/>
<path d="M5112 2358 c-16 -16 -15 -23 4 -42 19 -20 29 -20 48 0 12 12 13 20 6
35 -12 21 -40 25 -58 7z"/>
<path d="M5494 2348 c-7 -22 19 -52 40 -45 17 6 29 34 23 51 -10 24 -54 21
-63 -6z"/>
<path d="M5891 2357 c-22 -27 10 -64 45 -50 23 9 14 57 -12 61 -11 2 -26 -3
-33 -11z"/>
<path d="M4223 2216 c-58 -19 -99 -51 -127 -99 -73 -125 -33 -220 165 -389
131 -112 158 -151 139 -198 -15 -36 -71 -64 -112 -56 -40 8 -82 39 -108 81
l-21 34 -68 -42 -69 -42 15 -29 c25 -48 92 -114 141 -137 34 -17 64 -23 122
-23 66 -1 85 3 136 29 135 69 173 231 85 359 -16 23 -84 89 -151 146 -67 57
-128 116 -136 132 -14 26 -14 32 0 54 33 50 95 44 159 -15 l42 -39 60 54 60
54 -50 47 c-85 79 -191 109 -282 79z"/>
<path d="M8650 2219 c-139 -24 -272 -127 -333 -256 -27 -59 -32 -81 -35 -168
-4 -110 14 -187 65 -268 139 -226 483 -285 684 -118 81 68 149 209 149 312 l0
49 -220 0 -220 0 0 -75 0 -75 125 0 c145 0 150 -4 83 -74 -108 -112 -311 -97
-428 31 -135 147 -92 372 88 460 113 55 264 32 363 -55 l36 -31 57 58 57 58
-39 35 c-109 99 -278 144 -432 117z"/>
<path d="M4983 2173 c-8 -21 -81 -207 -160 -413 -80 -206 -149 -385 -154 -398
l-9 -23 87 3 87 3 35 88 34 87 178 0 177 0 31 -81 c17 -44 31 -85 31 -90 0 -5
40 -9 90 -9 l90 0 -17 43 c-10 23 -85 218 -168 432 l-150 390 -83 3 -83 3 -16
-38z m155 -340 c29 -76 52 -141 52 -145 0 -10 -220 -10 -220 -1 0 14 105 283
110 283 3 0 29 -62 58 -137z"/>
<path d="M5640 2203 c0 -5 -1 -200 -2 -436 l-3 -427 82 0 83 0 2 280 3 281
182 -278 181 -278 81 -3 81 -3 0 436 0 435 -80 0 -80 0 -2 -287 -3 -287 -189
287 -188 287 -74 0 c-41 0 -74 -3 -74 -7z"/>
<path d="M6966 2202 c-3 -5 -37 -193 -76 -418 -39 -225 -73 -417 -76 -426 -5
-16 3 -18 75 -18 45 0 81 1 82 3 0 1 22 123 48 272 26 148 50 265 53 260 3 -6
45 -128 92 -272 l88 -263 73 0 73 0 69 203 c39 111 80 233 93 270 12 38 23 67
25 65 2 -2 21 -113 44 -248 23 -135 44 -255 46 -267 5 -21 11 -23 84 -23 l78
0 -73 433 c-41 237 -74 433 -74 435 0 1 -34 2 -75 2 -61 0 -76 -3 -84 -18 -5
-9 -53 -147 -107 -307 l-98 -289 -101 305 -102 304 -75 3 c-42 2 -79 -1 -82
-6z"/>
<path d="M7967 2204 c-4 -4 -7 -200 -7 -436 l0 -428 85 0 85 0 -2 433 -3 432
-75 3 c-42 1 -79 0 -83 -4z"/>
<path d="M9334 2195 c-4 -8 -4 -158 -1 -333 5 -366 9 -391 79 -459 63 -61 126
-86 218 -86 119 0 211 51 263 148 21 39 22 53 25 393 l3 352 -81 0 -80 0 -1
-312 c0 -336 -4 -366 -50 -400 -37 -28 -99 -34 -140 -14 -64 30 -63 28 -69
391 l-5 330 -78 3 c-63 2 -78 0 -83 -13z"/>
<path d="M10120 1775 l0 -435 240 0 240 0 0 75 0 74 -157 3 -158 3 -3 118 -3
117 161 0 161 0 -3 78 -3 77 -158 3 -158 3 3 77 3 77 158 3 158 3 -3 77 -3 77
-237 3 -238 2 0 -435z"/>
<path d="M10760 2208 c0 -2 -1 -198 -3 -436 l-2 -432 203 0 202 0 0 75 0 75
-120 0 -120 0 0 360 0 360 -80 0 c-44 0 -80 -1 -80 -2z"/>
<path d="M4731 1187 c-14 -17 3 -41 23 -34 9 4 16 13 16 21 0 19 -26 28 -39
13z"/>
<path d="M6623 1184 c-8 -21 13 -42 28 -27 13 13 5 43 -11 43 -6 0 -13 -7 -17
-16z"/>
<path d="M10303 1184 c-8 -21 13 -42 28 -27 13 13 5 43 -11 43 -6 0 -13 -7
-17 -16z"/>
<path d="M4136 1178 c-5 -15 -26 -177 -26 -196 0 -8 8 -12 18 -10 12 2 18 16
22 48 5 44 6 45 44 48 l39 3 -5 -50 c-4 -45 -3 -51 13 -51 11 0 19 3 19 8 0 4
4 34 9 67 23 153 23 145 1 145 -14 0 -20 -7 -20 -22 0 -55 -10 -68 -51 -68
l-39 0 7 45 c5 38 3 45 -11 45 -9 0 -18 -6 -20 -12z"/>
<path d="M6080 1181 c0 -16 -20 -164 -25 -188 -4 -18 -1 -23 13 -23 17 0 21
13 31 93 7 50 15 100 17 110 4 12 0 17 -15 17 -12 0 -21 -4 -21 -9z"/>
<path d="M6456 1150 c-6 -36 -8 -39 -26 -30 -31 16 -59 12 -85 -15 -31 -30
-34 -93 -7 -118 22 -20 63 -22 80 -5 9 9 12 9 12 0 0 -7 8 -12 18 -12 16 0 20
16 33 110 14 102 14 110 -2 110 -12 0 -18 -12 -23 -40z m-27 -59 c17 -11 18
-56 1 -76 -15 -18 -51 -20 -68 -3 -39 39 20 109 67 79z"/>
<path d="M6880 1164 c0 -14 -7 -33 -16 -41 -11 -12 -12 -18 -4 -23 9 -5 10
-26 5 -69 -6 -50 -4 -61 8 -61 16 0 27 29 27 77 0 17 7 38 15 47 18 17 20 36
4 36 -7 0 -8 11 -4 30 6 26 4 30 -14 30 -16 0 -21 -6 -21 -26z"/>
<path d="M7665 1178 c-2 -7 -6 -38 -9 -68 -4 -30 -9 -74 -12 -97 -5 -35 -3
-43 9 -43 10 0 18 12 22 33 6 37 25 168 25 180 0 12 -30 8 -35 -5z"/>
<path d="M9262 1101 c-15 -114 -15 -131 2 -131 10 0 17 16 22 48 7 48 27 82
50 82 21 0 25 -16 16 -74 -8 -50 -7 -56 8 -56 12 0 19 11 24 38 16 97 1 129
-55 118 -31 -6 -31 -6 -25 29 6 30 4 35 -12 35 -16 0 -20 -13 -30 -89z"/>
<path d="M10840 1156 c0 -35 -13 -55 -25 -36 -12 19 -65 11 -90 -15 -31 -30
-34 -86 -6 -114 15 -15 32 -19 75 -18 31 1 56 4 56 7 0 3 4 32 9 65 23 153 23
145 1 145 -16 0 -20 -7 -20 -34z m-26 -72 c20 -19 20 -34 0 -62 -19 -27 -60
-29 -74 -3 -14 28 -13 38 10 61 24 24 43 25 64 4z"/>
<path d="M4344 1106 c-21 -17 -28 -33 -28 -59 0 -56 25 -76 94 -75 l58 1 7 65
c4 36 9 71 12 79 3 8 -3 13 -16 13 -12 0 -21 -5 -21 -10 0 -7 -6 -7 -19 0 -31
16 -58 12 -87 -14z m89 -27 c16 -26 0 -68 -28 -75 -48 -12 -73 39 -38 78 19
22 51 20 66 -3z"/>
<path d="M4545 1105 c-34 -33 -35 -97 -3 -119 27 -19 74 -20 106 -2 19 10 21
15 10 24 -9 7 -19 8 -28 2 -22 -14 -56 -12 -70 5 -31 37 28 104 69 78 11 -7
23 -8 32 -2 12 8 11 12 -5 24 -31 23 -83 19 -111 -10z"/>
<path d="M4715 1068 c-3 -35 -9 -71 -11 -80 -4 -13 0 -18 14 -18 16 0 21 9 27
58 3 31 9 67 12 80 4 17 1 22 -15 22 -17 0 -21 -9 -27 -62z"/>
<path d="M4809 1101 c-34 -35 -37 -68 -8 -105 18 -23 26 -26 77 -23 l57 2 7
45 c11 78 9 110 -7 110 -8 0 -15 -5 -15 -10 0 -7 -6 -7 -19 0 -33 17 -61 11
-92 -19z m94 -22 c16 -26 0 -68 -28 -75 -31 -8 -55 10 -55 42 0 47 59 71 83
33z"/>
<path d="M5086 1093 c-10 -63 -7 -89 12 -106 21 -19 54 -22 82 -7 34 18 56
150 26 150 -9 0 -17 -19 -22 -56 -10 -64 -33 -89 -58 -64 -10 11 -12 28 -7 68
6 45 5 52 -9 52 -12 0 -19 -11 -24 -37z"/>
<path d="M5265 1062 c-4 -36 -9 -71 -12 -79 -3 -8 2 -13 15 -13 17 0 21 9 27
50 7 52 25 80 51 80 8 0 14 -6 15 -12 2 -25 -2 -83 -7 -100 -4 -13 0 -18 15
-18 17 0 20 9 26 65 9 83 1 94 -70 93 l-53 -1 -7 -65z"/>
<path d="M5465 1105 c-29 -28 -33 -79 -10 -112 13 -18 25 -22 74 -21 l59 1 7
46 c3 25 9 61 12 79 4 28 2 32 -16 32 -11 0 -21 -5 -21 -12 0 -9 -3 -9 -12 0
-20 20 -67 14 -93 -13z m89 -21 c20 -19 20 -34 0 -62 -37 -53 -106 -2 -70 53
19 28 47 32 70 9z"/>
<path d="M5742 1118 c-19 -19 -14 -40 20 -75 27 -28 29 -33 15 -39 -10 -3 -23
-1 -31 5 -10 8 -16 8 -25 -3 -10 -12 -8 -17 8 -25 26 -15 64 -14 79 1 20 20
14 55 -13 76 -25 20 -33 42 -16 42 6 0 13 -5 16 -10 5 -8 11 -7 21 1 11 9 11
15 3 25 -14 17 -61 18 -77 2z"/>
<path d="M5885 1105 c-29 -28 -33 -79 -10 -112 13 -19 24 -22 75 -20 66 1 59
-8 76 110 5 37 3 47 -8 47 -8 0 -19 -5 -25 -11 -8 -8 -13 -8 -17 0 -13 20 -66
12 -91 -14z m89 -21 c20 -19 20 -34 0 -62 -19 -27 -60 -29 -74 -3 -14 28 -13
38 10 61 24 24 43 25 64 4z"/>
<path d="M6146 1093 c-14 -89 3 -123 61 -123 38 0 60 24 68 75 3 22 8 50 11
63 3 17 0 22 -15 22 -16 0 -21 -10 -26 -55 -8 -58 -24 -81 -51 -71 -13 5 -16
17 -12 66 4 51 2 60 -13 60 -11 0 -18 -11 -23 -37z"/>
<path d="M6616 1122 c-2 -4 -8 -40 -11 -80 -6 -61 -5 -72 8 -72 10 0 17 15 21
48 4 26 10 62 13 80 4 25 2 32 -10 32 -9 0 -18 -3 -21 -8z"/>
<path d="M6683 1049 c-8 -73 -7 -79 9 -79 12 0 18 8 18 23 0 45 20 96 42 102
35 12 40 -11 22 -102 -3 -18 0 -23 15 -23 16 0 20 10 26 65 9 83 1 93 -69 93
l-53 -1 -10 -78z"/>
<path d="M6979 1101 c-70 -70 4 -168 92 -120 30 16 12 30 -31 23 -32 -5 -40
-3 -49 15 -11 20 -10 21 54 21 63 0 65 1 65 25 0 64 -80 86 -131 36z m91 -16
c11 -13 6 -15 -35 -15 -41 0 -46 2 -35 15 7 8 23 15 35 15 12 0 28 -7 35 -15z"/>
<path d="M7177 1110 c-14 -11 -28 -34 -32 -51 -13 -57 45 -106 94 -79 25 13
28 -2 4 -25 -12 -12 -25 -15 -50 -10 -44 8 -63 -4 -32 -21 35 -19 73 -17 101
6 21 16 28 34 37 95 14 98 14 105 -4 105 -8 0 -15 -5 -15 -10 0 -7 -6 -7 -19
0 -29 15 -56 12 -84 -10z m81 -22 c20 -20 14 -56 -14 -75 -32 -20 -58 -8 -62
29 -5 44 46 76 76 46z"/>
<path d="M7345 1063 c-4 -36 -9 -72 -12 -80 -3 -8 2 -13 15 -13 16 0 20 9 25
52 5 39 13 58 33 77 28 25 17 44 -11 21 -11 -9 -15 -9 -15 -1 0 6 -6 11 -14
11 -10 0 -16 -20 -21 -67z"/>
<path d="M7476 1108 c-37 -32 -43 -76 -16 -111 23 -29 66 -37 88 -15 9 9 12 9
12 0 0 -16 27 -15 33 1 3 8 8 44 12 80 6 57 5 67 -8 67 -8 0 -17 -6 -20 -12
-4 -10 -7 -10 -18 0 -20 19 -55 14 -83 -10z m87 -29 c16 -26 0 -68 -28 -75
-31 -8 -55 10 -55 42 0 47 59 71 83 33z"/>
<path d="M7906 1114 c-23 -23 -20 -39 14 -67 17 -14 30 -30 30 -36 0 -15 -33
-14 -48 1 -9 9 -13 7 -18 -6 -8 -21 10 -36 47 -36 52 0 67 54 24 88 -32 26
-33 46 -1 38 28 -7 40 2 25 21 -15 18 -54 17 -73 -3z"/>
<path d="M8049 1101 c-73 -74 9 -169 101 -116 27 15 22 17 -45 19 -29 1 -40 6
-43 19 -3 15 5 17 57 17 58 0 61 1 61 25 0 64 -80 86 -131 36z m91 -16 c11
-13 6 -15 -36 -15 -45 1 -48 2 -30 15 25 19 50 19 66 0z"/>
<path d="M8245 1105 c-36 -35 -35 -98 1 -122 21 -13 32 -15 55 -6 23 9 29 9
29 -3 0 -21 -37 -35 -75 -28 -39 7 -48 -8 -16 -26 44 -23 105 -3 120 41 5 16
13 60 17 99 6 61 4 70 -10 70 -9 0 -16 -5 -16 -12 0 -9 -3 -9 -12 0 -20 20
-67 14 -93 -13z m79 -11 c32 -12 10 -94 -25 -94 -44 0 -63 48 -32 82 17 19 31
22 57 12z"/>
<path d="M8436 1118 c-15 -48 -15 -102 -1 -124 19 -30 74 -33 99 -5 15 17 41
129 31 139 -13 13 -35 -11 -36 -40 -2 -60 -13 -83 -39 -83 -24 0 -25 2 -23 63
1 48 -2 62 -13 62 -8 0 -16 -6 -18 -12z"/>
<path d="M8606 1103 c-3 -16 -8 -52 -11 -80 -6 -44 -4 -53 9 -53 15 0 19 9 31
80 3 19 15 43 28 52 12 9 19 20 15 24 -4 4 -14 1 -23 -6 -10 -8 -15 -9 -15 -1
0 23 -29 10 -34 -16z"/>
<path d="M8725 1105 c-29 -28 -33 -79 -10 -112 13 -19 24 -22 75 -20 l59 1 6
51 c3 27 8 62 11 78 6 29 -12 37 -33 16 -8 -8 -13 -8 -17 0 -13 20 -66 12 -91
-14z m89 -21 c20 -19 20 -34 0 -62 -25 -36 -84 -24 -84 18 0 25 29 60 50 60
10 0 26 -7 34 -16z"/>
<path d="M8983 1118 c2 -7 13 -39 23 -72 l18 -58 -22 -39 c-21 -37 -22 -39 -4
-39 14 0 37 30 81 106 33 58 61 108 61 110 0 2 -8 4 -18 4 -10 0 -27 -18 -42
-45 -14 -25 -27 -45 -31 -45 -4 0 -12 20 -19 45 -9 34 -17 45 -32 45 -12 0
-18 -5 -15 -12z"/>
<path d="M9445 1097 c-4 -18 -5 -51 -3 -72 2 -32 8 -41 29 -49 33 -11 76 -1
88 22 5 9 12 43 16 75 6 48 5 57 -8 57 -11 0 -18 -13 -22 -37 -11 -73 -19 -88
-45 -88 -24 0 -25 2 -22 63 3 50 1 62 -12 62 -9 0 -17 -13 -21 -33z"/>
<path d="M9625 1081 c-3 -25 -9 -61 -12 -78 -4 -28 -2 -33 15 -33 16 0 20 8
24 51 6 56 27 85 54 75 14 -5 16 -16 11 -66 -5 -54 -3 -60 14 -60 14 0 19 7
19 29 0 44 20 90 42 97 35 11 40 -13 22 -103 -3 -18 0 -23 15 -23 16 0 21 9
26 54 9 66 5 86 -17 100 -13 8 -26 7 -49 -1 -19 -8 -37 -9 -43 -4 -6 5 -34 9
-63 8 l-51 -1 -7 -45z"/>
<path d="M9925 1105 c-29 -28 -33 -79 -10 -112 13 -18 25 -22 74 -21 l59 1 7
46 c3 25 9 61 12 79 4 28 2 32 -16 32 -11 0 -21 -5 -21 -12 0 -9 -3 -9 -12 0
-20 20 -67 14 -93 -13z m89 -21 c20 -19 20 -34 0 -62 -37 -53 -106 -2 -70 53
19 28 47 32 70 9z"/>
<path d="M10116 1111 c-3 -9 -8 -44 -11 -78 -6 -52 -4 -63 8 -63 18 0 27 21
27 60 0 37 31 75 54 67 16 -6 17 -15 11 -67 -6 -51 -5 -60 9 -60 14 0 17 10
31 100 6 46 -10 59 -70 58 -40 -1 -56 -6 -59 -17z"/>
<path d="M10296 1122 c-2 -4 -8 -40 -11 -80 -7 -61 -5 -72 8 -72 10 0 17 13
21 40 3 22 9 58 12 80 5 32 3 40 -10 40 -8 0 -17 -3 -20 -8z"/>
<path d="M10356 1115 c-4 -11 2 -15 24 -15 37 0 37 -10 2 -63 -16 -23 -32 -48
-36 -54 -5 -10 9 -13 58 -13 52 0 66 3 66 15 0 10 -10 15 -28 15 -41 0 -44 8
-18 44 13 17 31 43 41 59 l17 27 -60 0 c-44 0 -61 -4 -66 -15z"/>
<path d="M10525 1105 c-29 -28 -33 -79 -10 -112 13 -18 25 -22 74 -21 l59 1 7
46 c3 25 9 61 12 79 4 28 2 32 -16 32 -11 0 -21 -5 -21 -12 0 -9 -3 -9 -12 0
-20 20 -67 14 -93 -13z m89 -21 c20 -19 20 -34 0 -62 -37 -53 -106 -2 -70 53
19 28 47 32 70 9z"/>
<path d="M10939 1117 c-41 -32 -51 -95 -19 -127 15 -15 32 -19 74 -18 61 2 59
-1 71 101 6 47 5 57 -8 57 -8 0 -17 -6 -20 -12 -4 -10 -7 -10 -18 0 -16 15
-59 15 -80 -1z m85 -40 c8 -13 7 -24 -4 -45 -27 -47 -82 -38 -82 14 0 49 61
71 86 31z"/>
<path d="M7712 975 c-15 -32 2 -42 22 -13 20 27 20 38 3 38 -8 0 -19 -11 -25
-25z"/>
</g>
</svg>
