<?xml version="1.0" standalone="no"?>
<!DOCTYPE svg PUBLIC "-//W3C//DTD SVG 20010904//EN"
 "http://www.w3.org/TR/2001/REC-SVG-20010904/DTD/svg10.dtd">
<svg version="1.0" xmlns="http://www.w3.org/2000/svg"
 width="2080.000000pt" height="2188.000000pt" viewBox="0 0 2080.000000 2188.000000"
 preserveAspectRatio="xMidYMid meet">

<g transform="translate(0.000000,2188.000000) scale(0.100000,-0.100000)"
fill="#000000" stroke="none">
<path d="M9820 20820 c-107 -5 -233 -13 -280 -19 -47 -6 -114 -14 -150 -17
-216 -17 -656 -93 -925 -161 -77 -19 -151 -37 -165 -40 -14 -3 -52 -13 -85
-23 -33 -9 -96 -28 -140 -40 -44 -13 -145 -45 -225 -71 -192 -63 -207 -69
-260 -89 -25 -10 -72 -27 -105 -40 -212 -77 -638 -271 -815 -370 -36 -20 -90
-50 -120 -67 -67 -37 -125 -70 -165 -94 -16 -10 -46 -28 -65 -39 -19 -11 -44
-26 -54 -33 -65 -41 -132 -83 -141 -87 -12 -6 -187 -124 -270 -181 -33 -23
-61 -46 -63 -51 -2 -4 -8 -8 -12 -8 -21 0 -419 -312 -556 -435 -276 -249 -521
-496 -738 -745 -29 -34 -282 -351 -356 -447 -22 -28 -40 -56 -40 -61 0 -5 -6
-15 -14 -21 -17 -15 -272 -396 -312 -466 -6 -11 -19 -34 -30 -52 -170 -284
-380 -703 -475 -945 -11 -27 -28 -70 -39 -98 -69 -172 -78 -198 -148 -410 -47
-140 -65 -197 -107 -340 -81 -271 -158 -640 -204 -985 -52 -390 -56 -454 -56
-985 0 -531 4 -610 56 -995 25 -191 86 -532 109 -610 4 -16 14 -55 21 -85 35
-158 105 -401 181 -630 69 -211 79 -237 148 -410 11 -27 28 -71 39 -97 59
-152 271 -591 350 -728 13 -22 39 -69 59 -105 19 -36 41 -72 48 -81 8 -8 14
-18 14 -21 0 -20 253 -405 380 -578 22 -30 48 -66 57 -80 9 -14 22 -29 28 -35
6 -5 36 -44 66 -85 66 -89 251 -312 323 -390 154 -164 188 -201 267 -279 110
-111 270 -262 345 -327 32 -28 93 -80 134 -116 65 -56 191 -156 387 -308 28
-22 54 -40 58 -40 3 0 28 -17 55 -37 75 -58 287 -203 295 -203 2 0 30 -17 62
-37 81 -52 93 -60 133 -83 19 -11 51 -30 70 -42 19 -11 60 -34 90 -51 30 -16
60 -33 65 -38 6 -4 107 -55 225 -114 118 -58 232 -114 252 -125 20 -11 45 -20
54 -20 13 0 16 -7 11 -33 -5 -32 -16 -63 -144 -406 -43 -116 -62 -182 -58
-198 16 -64 83 -81 147 -38 70 47 230 263 316 425 28 52 55 96 61 98 5 2 40
-9 78 -23 37 -15 93 -36 123 -47 30 -11 75 -29 100 -39 25 -9 77 -28 115 -40
39 -12 92 -30 119 -41 27 -10 57 -18 68 -18 11 0 27 -4 37 -10 17 -9 175 -52
240 -66 43 -9 46 -9 56 -15 6 -4 35 -12 65 -19 30 -6 72 -16 93 -21 21 -6 60
-13 85 -15 26 -3 53 -7 61 -10 42 -14 346 -67 531 -93 654 -91 1411 -91 2070
0 214 30 440 69 515 89 17 5 55 11 85 14 30 3 69 9 85 14 17 5 55 15 85 22 30
7 60 15 65 19 13 7 20 9 75 20 55 10 287 76 355 100 17 5 68 23 115 40 121 41
149 51 200 71 25 10 72 27 105 40 83 30 127 48 301 124 83 36 156 66 161 66 5
0 30 11 54 24 24 14 112 59 194 101 83 41 170 87 195 102 25 14 74 41 110 61
36 19 72 40 80 46 8 7 26 18 40 24 46 22 135 74 151 88 8 8 18 14 22 14 7 0
304 199 387 260 30 22 71 51 90 64 58 39 356 277 445 356 28 25 87 76 131 115
177 156 579 570 673 695 19 25 39 50 45 55 62 57 385 487 471 627 5 9 25 37
43 63 17 25 32 48 32 49 0 2 26 44 58 93 70 108 69 107 132 218 28 50 55 97
60 105 28 44 214 412 261 516 79 175 166 385 218 524 111 298 256 820 320
1150 90 466 126 868 126 1390 0 578 -47 1028 -166 1575 -50 229 -167 642 -239
840 -10 28 -28 77 -40 110 -12 33 -31 83 -42 110 -11 28 -29 73 -40 100 -42
105 -61 151 -79 190 -10 22 -35 78 -56 125 -61 136 -254 515 -264 518 -5 2 -9
8 -9 13 0 5 -23 48 -51 97 -65 112 -64 111 -131 215 -32 49 -58 91 -58 93 0 3
-33 52 -72 111 -40 58 -77 113 -83 122 -5 9 -22 32 -36 51 -14 19 -59 80 -100
135 -97 132 -226 296 -247 315 -9 8 -33 35 -52 60 -120 155 -541 584 -739 755
-161 139 -504 415 -516 415 -3 0 -13 7 -22 15 -42 36 -436 305 -447 305 -2 0
-31 17 -63 38 -83 53 -131 81 -338 198 -169 95 -576 287 -795 374 -25 10 -67
27 -95 38 -27 11 -77 30 -110 42 -33 12 -83 30 -110 41 -28 10 -55 19 -61 19
-6 0 -33 8 -60 19 -66 25 -244 79 -399 121 -44 12 -109 30 -145 40 -240 66
-755 160 -990 180 -52 5 -158 15 -235 24 -171 18 -752 27 -1025 16z m735 -420
c2268 -112 4317 -1267 5572 -3141 255 -380 520 -889 690 -1324 559 -1431 632
-2994 208 -4465 -423 -1465 -1307 -2743 -2540 -3670 -172 -129 -464 -325 -640
-427 -205 -120 -348 -194 -356 -186 -4 4 -41 80 -82 168 -76 162 -210 446
-331 700 -37 77 -74 155 -83 173 -9 18 -13 35 -10 38 3 3 23 -4 44 -14 103
-53 271 -82 480 -82 227 0 355 30 458 108 90 68 125 174 132 397 11 342 -81
825 -295 1550 -83 279 -288 881 -370 1085 -184 459 -273 548 -602 599 -74 12
-162 26 -195 31 -33 5 -136 21 -230 35 -93 14 -199 30 -235 36 -78 11 -262 38
-345 49 -33 4 -74 15 -91 24 -34 18 -135 39 -269 56 -49 6 -112 15 -140 20
-27 5 -92 14 -144 21 l-94 13 -37 81 c-21 44 -72 152 -115 240 -153 317 -225
468 -225 474 0 7 286 55 390 65 159 16 370 94 512 189 200 134 368 314 662
712 140 190 157 209 215 246 76 49 177 37 342 -40 68 -31 297 -159 318 -178 3
-2 -3 -20 -13 -41 -45 -93 -48 -118 -53 -404 l-5 -277 -88 2 c-124 3 -133 -5
-187 -164 -60 -175 -81 -224 -126 -302 -73 -125 -117 -127 -372 -19 -152 64
-281 100 -298 83 -18 -18 17 -76 98 -157 58 -59 88 -80 175 -122 123 -59 231
-87 297 -78 60 8 139 45 185 85 62 54 137 194 196 368 l37 108 86 6 c67 4 93
11 118 28 64 46 64 50 72 445 5 201 12 363 17 368 6 6 18 6 31 -2 12 -6 59
-14 106 -17 149 -11 280 49 334 152 21 42 25 62 25 136 0 85 -1 90 -51 191
-92 185 -266 432 -379 538 -89 83 -133 114 -235 165 -157 79 -287 103 -466 86
-153 -16 -245 -34 -370 -76 -242 -81 -421 -203 -674 -462 -229 -234 -389 -470
-489 -723 -45 -111 -106 -340 -112 -412 -3 -37 0 -43 18 -46 17 -2 33 19 93
125 87 153 245 392 370 560 257 348 487 561 739 688 303 153 618 165 840 33
133 -79 336 -329 451 -553 69 -135 52 -194 -54 -181 -79 9 -142 35 -310 131
-271 154 -395 204 -530 212 -204 13 -309 -59 -535 -367 -218 -297 -301 -387
-512 -552 -214 -167 -346 -253 -533 -346 -96 -47 -332 -142 -355 -142 -6 0
-72 123 -145 273 l-134 272 36 72 c51 103 64 214 38 326 -30 131 -29 136 42
416 109 433 411 851 801 1111 473 315 1080 431 1647 315 267 -55 484 -183 736
-435 290 -290 433 -567 488 -950 32 -219 11 -576 -48 -800 -72 -275 -127 -414
-231 -581 -108 -172 -273 -397 -517 -702 -79 -99 -143 -183 -143 -188 0 -21
49 -59 67 -52 31 10 205 128 293 199 124 99 391 370 501 509 237 298 353 507
428 768 65 230 80 344 76 597 -1 113 -8 232 -14 265 -6 33 -16 87 -22 120
-104 555 -435 1070 -877 1366 -259 174 -523 265 -917 320 -119 17 -543 17
-660 0 -453 -63 -804 -200 -1125 -439 -107 -80 -315 -291 -397 -402 -203 -276
-350 -610 -408 -929 -24 -130 -20 -123 -69 -116 -32 5 -45 3 -55 -9 -8 -9 -19
-16 -25 -16 -7 0 -36 53 -66 118 -29 64 -81 176 -115 247 -34 72 -65 137 -68
145 -4 8 -4 -3 0 -25 5 -22 8 -89 8 -149 0 -102 -1 -110 -22 -124 -35 -22 -29
-49 17 -72 38 -19 60 -56 46 -78 -3 -5 3 -34 14 -65 25 -70 26 -149 4 -168 -9
-7 -32 -13 -51 -13 -28 0 -42 8 -68 35 -46 50 -105 155 -105 187 -1 23 -12 33
-81 72 -60 33 -101 65 -156 125 l-75 80 51 -102 c54 -110 59 -123 38 -123 -29
0 -137 -62 -166 -95 -16 -19 -58 -87 -92 -150 l-61 -116 -34 39 c-70 83 -165
95 -271 37 -287 -158 -1113 -923 -1354 -1255 -101 -139 -113 -161 -117 -221
-3 -35 2 -79 12 -115 16 -54 26 -68 124 -164 123 -120 247 -219 697 -555 460
-344 543 -411 705 -574 274 -275 499 -567 660 -857 32 -59 91 -188 131 -288
40 -99 93 -224 119 -276 55 -110 156 -255 212 -306 l39 -35 -63 -58 c-91 -84
-170 -193 -227 -312 -45 -94 -132 -340 -175 -494 -28 -100 -115 -361 -172
-520 -30 -82 -62 -170 -71 -195 -20 -56 -223 -455 -333 -655 -119 -218 -205
-355 -301 -485 -47 -63 -100 -136 -118 -162 -18 -27 -40 -48 -50 -48 -71 0
-896 264 -934 299 -4 4 6 36 22 72 39 86 181 453 281 729 102 279 330 973 415
1265 78 267 169 593 191 685 14 58 29 123 34 145 14 59 48 253 55 310 3 28 11
82 17 120 8 44 12 189 12 390 -1 424 -16 525 -80 525 -30 0 -50 -39 -59 -121
-3 -30 -10 -81 -15 -114 -5 -33 -14 -96 -20 -140 -11 -80 -19 -131 -41 -280
-28 -192 -192 -833 -344 -1350 -138 -469 -447 -1399 -473 -1427 -4 -4 -8 124
-9 284 -2 268 -9 380 -44 718 -12 117 -44 355 -59 443 -6 31 -14 83 -20 115
-13 74 -38 205 -51 262 -6 25 -14 63 -19 85 -164 743 -380 1404 -667 2043
-134 299 -381 756 -541 1004 -362 561 -468 791 -502 1096 -26 238 49 552 212
885 111 226 215 375 354 507 225 213 464 344 819 448 216 63 241 67 445 66
165 -1 195 -4 280 -26 388 -104 660 -324 1262 -1022 46 -54 42 -20 -10 72
-139 246 -269 450 -381 597 -106 141 -336 368 -441 437 -450 297 -1069 290
-1687 -21 -407 -204 -679 -482 -892 -911 -173 -349 -251 -641 -251 -934 1
-251 50 -451 179 -721 76 -158 116 -227 291 -505 178 -282 222 -355 317 -529
413 -750 722 -1596 932 -2546 29 -132 74 -361 90 -465 33 -210 52 -366 82
-695 17 -176 16 -747 0 -900 -24 -227 -53 -410 -66 -423 -8 -9 -300 139 -510
259 -1107 631 -2041 1573 -2657 2679 -873 1567 -1110 3382 -668 5115 583 2291
2295 4137 4552 4910 835 286 1760 418 2633 375z m-1063 -6157 c14 -12 18 -31
18 -76 0 -111 90 -237 200 -278 69 -26 176 -22 265 12 69 26 150 100 181 166
10 23 22 43 25 43 6 0 76 -104 98 -147 6 -12 11 -55 11 -95 0 -124 -50 -197
-179 -262 -108 -56 -257 -69 -406 -36 -55 12 -133 26 -172 32 l-73 11 -87 106
c-49 58 -103 125 -121 148 l-32 42 79 160 c44 88 90 166 103 175 29 21 67 20
90 -1z m-483 -556 c60 -84 157 -214 215 -291 l107 -138 -26 -37 c-32 -48 -198
-208 -340 -331 -164 -142 -252 -228 -269 -265 -9 -18 -16 -57 -16 -87 0 -48 4
-59 36 -96 41 -49 89 -66 229 -82 104 -11 210 -25 345 -45 52 -8 133 -19 180
-25 103 -13 184 -25 310 -44 52 -8 124 -17 160 -21 36 -4 103 -13 150 -20 47
-7 114 -17 150 -20 99 -10 259 -44 320 -68 l55 -21 337 -676 c185 -371 412
-820 503 -998 92 -178 165 -326 162 -329 -3 -3 -18 15 -32 39 -58 93 -115 134
-172 125 -48 -8 -88 -41 -113 -91 -43 -90 -36 -326 14 -490 13 -41 21 -78 18
-81 -10 -9 -455 -5 -542 5 -182 22 -411 74 -472 107 -57 31 -155 131 -208 215
-49 75 -106 195 -165 343 -161 408 -440 815 -834 1218 -183 187 -213 211 -767
628 -214 160 -409 308 -434 328 -103 82 -242 204 -247 217 -16 42 300 388 647
708 268 247 563 491 581 480 5 -2 58 -73 118 -157z m821 -341 c14 0 62 3 107
7 78 7 82 6 89 -15 3 -12 44 -100 90 -196 46 -96 84 -175 84 -177 0 -2 28 -60
218 -458 109 -225 106 -206 30 -200 -35 3 -148 27 -253 54 -568 147 -774 200
-902 230 -79 19 -142 37 -140 41 1 3 65 64 141 135 178 163 286 286 328 371
29 59 33 76 32 145 l-1 78 76 -8 c42 -4 87 -7 101 -7z m1520 -1362 c74 -20
158 -40 185 -46 72 -14 234 -54 355 -88 121 -34 759 -205 930 -249 107 -27
118 -32 152 -70 97 -110 269 -556 523 -1361 97 -307 219 -778 265 -1025 12
-60 25 -132 31 -160 30 -156 33 -372 7 -431 -34 -74 -280 -84 -518 -22 -151
39 -332 110 -472 185 l-66 36 -104 216 c-56 118 -121 253 -144 300 l-40 84
133 135 133 135 126 -119 c304 -288 364 -334 440 -334 63 0 89 34 88 114 -1
50 -8 78 -39 142 -34 73 -53 95 -244 285 -222 223 -267 255 -392 281 -71 15
-125 -3 -194 -64 -25 -22 -50 -37 -54 -32 -4 5 -23 29 -41 54 -121 160 -272
295 -359 322 l-45 13 -76 160 c-43 88 -135 279 -205 425 -70 146 -149 310
-175 365 -26 55 -112 233 -190 395 -78 162 -153 319 -167 349 l-24 54 23 -7
c13 -4 84 -23 158 -42z m149 -2010 c24 -31 57 -64 73 -74 48 -29 137 -43 250
-38 131 6 199 31 267 97 l50 48 119 -123 c65 -67 130 -128 145 -135 15 -7 27
-18 27 -24 0 -19 -151 -158 -200 -183 -102 -54 -238 -92 -325 -92 -61 0 -174
27 -231 55 -124 61 -190 159 -218 323 -17 97 -21 202 -8 201 4 0 27 -25 51
-55z m-35 -569 c14 -21 15 -32 6 -63 -23 -75 -20 -298 5 -462 3 -19 10 -69 15
-110 6 -41 15 -93 21 -115 9 -37 44 -305 70 -540 10 -93 6 -619 -6 -735 -9
-86 -28 -305 -31 -345 -3 -54 -70 -365 -81 -375 -8 -9 -177 -39 -253 -46 -25
-2 -74 -8 -110 -14 -36 -5 -164 -19 -285 -30 -121 -12 -247 -25 -280 -30 -135
-21 -575 -49 -575 -37 0 8 216 333 251 378 27 34 52 79 155 279 52 101 124
255 124 265 0 4 16 40 35 81 19 40 35 76 35 79 0 3 8 25 18 48 11 23 36 87 56
142 21 55 44 115 53 134 24 56 63 184 63 208 0 12 15 68 34 125 31 95 79 282
105 403 5 28 17 79 25 115 8 36 22 108 31 160 9 52 27 131 40 175 13 44 26 95
30 113 7 35 73 174 98 207 14 18 30 21 159 25 78 3 150 2 159 -2 9 -4 24 -19
33 -33z m-714 -41 c0 -9 -13 -56 -30 -106 -16 -49 -30 -100 -30 -114 0 -14 -4
-33 -10 -43 -9 -18 -23 -79 -54 -246 -40 -208 -141 -603 -187 -730 -171 -470
-375 -919 -536 -1181 -44 -73 -92 -156 -106 -185 -75 -161 -81 -175 -81 -226
l0 -51 -46 -8 c-45 -7 -452 -7 -520 0 -19 2 -97 7 -172 11 -76 5 -138 11 -138
14 0 14 42 73 119 165 106 127 176 232 296 442 112 196 287 543 332 659 104
265 222 604 275 790 46 164 115 364 156 456 40 88 105 169 209 263 l88 79 150
3 c83 2 173 8 200 13 75 13 85 13 85 -5z m1500 -481 c175 -349 244 -483 440
-858 301 -576 387 -738 449 -852 39 -73 71 -139 71 -147 0 -9 -22 -18 -62 -26
-35 -6 -71 -16 -81 -21 -9 -6 -57 -14 -105 -20 -48 -5 -107 -16 -132 -24 -25
-7 -70 -17 -100 -21 -30 -3 -66 -11 -79 -16 -13 -4 -42 -11 -65 -13 -42 -5
-93 -17 -246 -56 -47 -12 -120 -27 -162 -34 -42 -7 -82 -16 -87 -20 -18 -11
-319 -61 -325 -54 -6 6 20 126 39 179 8 24 16 56 17 70 0 14 7 65 15 113 14
88 26 211 39 397 14 196 9 579 -9 750 -30 284 -46 394 -88 605 -23 119 -39
294 -33 365 l6 75 151 -1 152 -2 195 -389z"/>
<path d="M9853 19415 c-17 -7 -58 -38 -90 -67 -116 -107 -225 -162 -388 -198
-113 -24 -316 -39 -450 -34 -49 3 -187 5 -305 7 -189 1 -222 -1 -274 -17 -48
-16 -65 -28 -89 -63 -61 -86 -69 -120 -72 -320 -4 -220 -12 -242 -105 -288
-19 -10 -36 -19 -38 -20 -4 -3 82 -200 137 -316 46 -98 27 -92 191 -63 115 21
161 49 194 118 14 30 26 59 26 64 0 5 46 11 103 14 143 7 190 34 204 121 4 27
11 38 27 41 195 38 228 61 244 175 l7 44 61 13 c136 27 181 83 150 185 -7 25
-6 26 55 38 76 15 178 63 214 101 23 24 25 31 15 50 -13 24 -11 26 40 54 38
21 125 117 150 167 23 44 50 130 50 160 0 8 -6 23 -12 32 -11 14 -17 14 -45 2z"/>
<path d="M7552 19122 c-70 -21 -132 -110 -132 -192 0 -88 71 -182 147 -196 37
-7 29 8 420 -799 91 -187 168 -344 172 -350 4 -5 45 -90 91 -187 45 -98 85
-178 87 -178 7 0 138 43 142 46 7 6 -52 138 -254 579 -41 88 -95 207 -120 265
-84 190 -172 383 -215 475 -23 50 -55 122 -71 161 -28 67 -29 72 -14 107 30
73 10 173 -46 224 -50 45 -138 64 -207 45z"/>
<path d="M7017 18480 c-53 -36 -133 -128 -312 -360 -206 -266 -363 -414 -525
-499 -84 -44 -124 -56 -245 -76 -149 -24 -178 -56 -95 -107 95 -58 267 -75
362 -34 48 20 47 21 58 -9 11 -30 36 -32 106 -8 53 17 107 49 165 94 20 16 39
29 42 29 3 0 15 -15 26 -34 44 -70 116 -67 220 9 l62 45 34 -26 c72 -55 154
-39 252 50 l53 48 26 -21 c64 -50 164 -11 243 94 23 30 45 55 50 55 5 0 28 -7
51 -15 51 -18 99 -19 137 -3 29 13 108 71 177 132 l40 34 -39 84 c-21 45 -65
136 -97 201 l-58 117 -40 -20 c-46 -23 -97 -26 -144 -6 -18 7 -77 52 -132 100
-125 109 -203 149 -299 154 -65 3 -73 1 -118 -28z"/>
<path d="M9061 18025 c-35 -8 -89 -23 -120 -34 -191 -67 -263 -96 -316 -125
-50 -27 -64 -42 -88 -87 -37 -73 -45 -139 -21 -163 14 -14 28 -17 64 -13 93
11 133 29 185 86 114 122 145 148 235 194 108 55 163 62 198 25 11 -13 24 -36
27 -51 16 -65 -97 -222 -248 -346 -77 -62 -239 -171 -255 -171 -5 0 -16 -8
-23 -17 -12 -15 -12 -16 6 -9 11 5 83 10 160 12 l140 4 71 69 c179 173 283
367 271 503 -4 47 -11 66 -32 88 -47 49 -134 61 -254 35z"/>
<path d="M7830 17491 c-82 -27 -337 -174 -431 -247 -129 -102 -168 -201 -111
-281 72 -101 321 -160 567 -134 185 20 275 45 580 161 100 38 210 74 245 79
136 22 247 8 321 -42 124 -84 103 -231 -60 -411 -28 -31 -51 -65 -51 -75 0
-17 9 -20 78 -23 91 -5 88 -6 182 135 208 310 139 558 -169 608 -148 25 -434
-28 -647 -117 -266 -112 -357 -142 -508 -169 -105 -18 -283 -20 -338 -3 -54
16 -90 60 -86 106 4 47 53 85 168 132 76 30 98 34 210 39 121 6 127 7 177 39
29 19 66 50 83 69 28 32 30 37 17 56 -34 53 -167 98 -227 78z"/>
<path d="M8689 17013 c-14 -3 -13 -12 11 -71 15 -37 51 -116 80 -177 29 -60
56 -121 61 -134 l10 -24 44 43 c25 24 45 49 45 55 0 25 -133 243 -170 278 -38
36 -47 39 -81 30z"/>
<path d="M8539 16964 l-67 -25 100 -207 c55 -114 104 -211 109 -216 8 -9 129
-9 138 -1 5 6 -13 51 -94 230 -40 88 -81 179 -90 203 -10 23 -21 42 -24 41 -3
0 -36 -11 -72 -25z"/>
<path d="M8393 16883 c-14 -21 -18 -47 -18 -118 1 -86 3 -94 45 -180 l45 -90
63 -3 c34 -2 68 1 76 5 12 6 -5 49 -84 211 -54 111 -101 202 -104 202 -3 0
-14 -12 -23 -27z"/>
<path d="M8230 16848 c-30 -11 -89 -29 -130 -39 -41 -11 -81 -27 -88 -36 -41
-55 -49 -202 -15 -268 64 -122 230 -198 462 -212 56 -3 189 0 294 7 295 21
412 -6 478 -108 29 -44 30 -52 26 -127 -2 -56 -12 -100 -31 -147 l-27 -67 21
-40 c17 -33 26 -41 49 -41 25 0 31 7 59 68 103 224 75 430 -71 531 -107 73
-231 96 -439 81 -233 -18 -405 -16 -463 4 -106 38 -156 93 -163 182 -5 65 15
125 64 190 19 24 33 44 31 43 -1 0 -27 -10 -57 -21z"/>
<path d="M8834 16242 c-19 -7 -14 -20 85 -222 l106 -215 45 -8 c99 -17 98 -23
9 173 -45 96 -92 199 -105 228 l-24 52 -47 -1 c-27 -1 -57 -4 -69 -7z"/>
<path d="M8672 16232 c-62 -3 -62 -3 -83 -44 -74 -145 -46 -317 68 -417 98
-87 220 -133 405 -156 133 -16 279 -53 327 -83 50 -30 91 -76 97 -108 3 -18
-2 -57 -11 -91 -16 -58 -16 -61 4 -100 28 -56 47 -61 66 -17 67 161 59 293
-23 377 -69 72 -142 99 -327 123 -240 31 -364 73 -440 148 -74 75 -82 162 -24
272 46 88 39 101 -59 96z"/>
<path d="M9034 16208 c53 -125 123 -270 130 -272 18 -3 42 111 37 181 -3 49
-98 122 -158 123 -22 0 -22 -1 -9 -32z"/>
<path d="M8768 16084 c-48 -109 6 -197 154 -253 l26 -10 -34 75 c-45 99 -115
234 -120 234 -3 0 -14 -21 -26 -46z"/>
<path d="M9362 15770 c-7 -11 -8 -20 -3 -20 5 0 16 -3 25 -6 19 -7 21 6 4 29
-12 16 -14 16 -26 -3z"/>
<path d="M8900 15576 c0 -11 30 -66 36 -66 5 0 26 51 22 56 -7 7 -58 15 -58
10z"/>
<path d="M9007 15523 c-44 -87 -45 -205 -1 -280 54 -92 149 -143 363 -194 186
-45 244 -88 302 -228 15 -36 41 -95 57 -131 l31 -65 0 79 c1 126 -37 245 -104
323 -49 58 -131 96 -285 132 -74 17 -155 42 -180 55 -81 41 -106 105 -79 210
9 38 8 49 -10 85 -18 34 -26 41 -51 41 -22 0 -33 -7 -43 -27z"/>
<path d="M9160 15530 c0 -12 127 -271 139 -283 9 -9 113 -38 118 -33 2 1 -13
35 -32 75 -19 39 -35 76 -35 81 0 5 -15 39 -32 75 -28 57 -37 67 -68 74 -78
20 -90 21 -90 11z"/>
<path d="M9394 15416 c12 -32 24 -49 28 -42 13 19 9 42 -13 70 -32 41 -38 31
-15 -28z"/>
<path d="M9160 15340 c0 -17 9 -39 20 -50 35 -35 41 -22 15 30 -14 28 -28 50
-30 50 -3 0 -5 -13 -5 -30z"/>
<path d="M9608 15218 c-24 -58 -23 -63 16 -87 19 -12 50 -39 70 -61 20 -22 36
-37 35 -33 0 5 -24 57 -52 116 l-52 108 -17 -43z"/>
<path d="M9218 14916 c65 -132 83 -160 62 -99 -6 17 -12 67 -13 112 l-2 82
-55 19 c-30 11 -56 19 -57 20 -1 0 28 -60 65 -134z"/>
<path d="M9325 14959 c-11 -48 4 -118 40 -194 61 -126 170 -226 314 -286 111
-45 119 -43 36 11 -99 65 -213 179 -244 245 -13 28 -46 96 -72 153 -27 56 -53
102 -58 102 -5 0 -12 -14 -16 -31z"/>
<path d="M9431 14963 c2 -6 33 -67 68 -137 56 -112 73 -135 135 -193 39 -35
72 -61 74 -55 1 5 -32 81 -75 168 -67 137 -84 163 -118 186 -44 29 -90 46 -84
31z"/>
<path d="M9710 14394 c0 -24 94 -164 110 -164 13 0 13 44 -2 94 -6 22 -13 42
-14 44 -4 6 -94 31 -94 26z"/>
<path d="M12636 13899 c-20 -23 -26 -42 -26 -78 l0 -47 89 -42 c49 -23 96 -42
104 -42 37 0 91 109 71 141 -7 12 -186 99 -202 99 -6 0 -22 -14 -36 -31z"/>
<path d="M4142 5452 c-82 -30 -134 -82 -157 -159 -37 -121 14 -208 223 -381
104 -87 142 -132 142 -171 0 -71 -95 -115 -168 -77 -31 16 -74 61 -91 93 -11
23 -12 22 -84 -23 -39 -26 -74 -48 -76 -50 -2 -2 10 -25 27 -51 72 -113 151
-157 277 -157 101 0 169 28 225 92 46 51 60 93 60 175 0 110 -30 153 -215 312
-74 63 -139 124 -145 134 -27 52 6 101 68 101 43 0 88 -25 123 -67 l24 -30 63
55 c34 31 62 61 62 68 0 19 -100 105 -147 126 -63 28 -148 32 -211 10z"/>
<path d="M6905 5463 c-59 -8 -155 -45 -212 -82 -60 -39 -134 -115 -160 -165
-102 -196 -67 -453 81 -602 170 -169 467 -189 672 -45 113 80 112 75 44 149
l-59 63 -54 -44 c-81 -66 -153 -90 -253 -85 -98 5 -173 38 -229 100 -60 66
-80 120 -80 218 0 73 4 93 28 142 32 65 90 121 156 151 36 17 66 22 136 22
109 0 164 -19 242 -82 l56 -45 61 62 61 61 -50 45 c-116 104 -287 157 -440
137z"/>
<path d="M10930 5459 c-70 -12 -161 -55 -226 -107 -191 -151 -232 -457 -90
-664 173 -254 532 -289 750 -73 100 99 146 210 146 350 0 137 -46 251 -142
351 -70 73 -152 120 -245 139 -76 16 -112 17 -193 4z m204 -190 c70 -26 139
-92 173 -166 20 -44 26 -71 26 -133 0 -127 -58 -226 -165 -286 -48 -26 -62
-29 -148 -29 -80 0 -102 4 -138 23 -66 35 -119 88 -149 150 -24 49 -28 69 -28
143 1 72 5 94 28 142 34 69 109 138 174 160 69 23 161 21 227 -4z"/>
<path d="M14217 5460 c-57 -15 -90 -35 -131 -80 -45 -50 -57 -80 -58 -145 -1
-101 45 -166 223 -316 117 -98 149 -137 149 -179 0 -53 -50 -90 -122 -90 -39
0 -47 5 -100 61 l-58 61 -68 -43 c-37 -23 -69 -43 -71 -45 -2 -2 10 -25 27
-51 72 -113 151 -157 277 -157 101 0 169 28 225 92 46 51 60 93 60 175 0 107
-33 156 -207 304 -67 57 -131 116 -143 130 -41 53 -12 113 56 113 44 0 68 -12
116 -57 l36 -36 61 54 c34 29 61 59 61 65 0 18 -98 101 -147 124 -51 24 -134
33 -186 20z"/>
<path d="M2940 4970 l0 -480 260 0 260 0 0 90 0 90 -170 0 -170 0 0 125 0 125
170 0 170 0 0 90 0 90 -170 0 -170 0 0 85 0 85 170 0 170 0 0 90 0 90 -260 0
-260 0 0 -480z"/>
<path d="M5080 4970 l0 -480 260 0 260 0 0 90 0 90 -170 0 -170 0 0 125 0 125
170 0 170 0 0 90 0 90 -170 0 -170 0 0 85 0 85 170 0 170 0 0 90 0 90 -260 0
-260 0 0 -480z"/>
<path d="M7560 4970 l0 -480 260 0 260 0 0 90 0 90 -170 0 -170 0 0 125 0 125
170 0 170 0 0 90 0 90 -170 0 -170 0 0 85 0 85 170 0 170 0 0 90 0 90 -260 0
-260 0 0 -480z"/>
<path d="M8250 4970 l0 -480 90 0 90 0 2 314 3 315 204 -315 203 -314 84 0 84
0 0 480 0 480 -85 0 -85 0 0 -316 c0 -173 -4 -313 -8 -310 -5 3 -98 145 -208
315 l-199 310 -87 1 -88 0 0 -480z"/>
<path d="M9150 5360 l0 -90 85 0 85 0 0 -390 0 -390 90 0 90 0 0 390 0 390 85
0 85 0 0 90 0 90 -260 0 -260 0 0 -90z"/>
<path d="M9810 4971 l0 -481 90 0 90 0 0 201 c0 155 3 200 12 197 7 -3 60 -93
118 -201 l105 -197 98 0 97 0 -19 38 c-10 20 -60 113 -110 205 -50 93 -91 172
-91 177 0 4 10 10 23 14 13 3 44 24 70 46 58 52 82 111 81 205 -1 85 -25 146
-79 198 -57 55 -111 68 -312 74 l-173 6 0 -482z m363 271 c32 -30 40 -74 23
-116 -17 -41 -55 -56 -142 -56 l-64 0 0 101 0 101 79 -3 c66 -3 84 -8 104 -27z"/>
<path d="M12060 4970 l0 -483 208 6 c220 6 280 17 351 61 82 52 156 162 180
267 6 24 11 87 11 139 0 159 -43 274 -139 370 -88 87 -166 109 -423 117 l-188
6 0 -483z m411 277 c86 -38 140 -112 159 -216 26 -144 -25 -282 -123 -333 -34
-18 -63 -23 -154 -26 l-113 -4 0 302 0 303 98 -6 c55 -2 113 -12 133 -20z"/>
<path d="M13000 4970 l0 -480 260 0 260 0 0 90 0 90 -170 0 -170 0 0 125 0
125 170 0 170 0 0 90 0 90 -170 0 -170 0 0 85 0 85 170 0 170 0 0 90 0 90
-260 0 -260 0 0 -480z"/>
<path d="M15045 5438 c-6 -16 -274 -719 -321 -841 -19 -49 -34 -93 -34 -98 0
-5 40 -9 89 -9 l89 0 39 98 39 97 196 3 197 2 38 -100 38 -100 92 0 92 0 -27
73 c-15 40 -97 256 -182 480 l-155 407 -93 0 c-65 0 -94 -4 -97 -12z m164
-405 c27 -70 53 -136 56 -145 7 -17 -3 -18 -119 -18 -69 0 -126 3 -126 7 0 7
109 294 117 307 8 12 17 -6 72 -151z"/>
<path d="M15740 4970 l0 -480 220 0 220 0 0 90 0 90 -130 0 -130 0 0 390 0
390 -90 0 -90 0 0 -480z"/>
<path d="M16332 5068 c3 -377 3 -384 26 -430 28 -56 88 -113 151 -141 61 -28
216 -30 275 -3 57 26 131 100 157 159 24 51 24 58 27 425 l4 372 -91 0 -90 0
-3 -353 c-3 -320 -5 -355 -21 -380 -57 -87 -191 -89 -242 -4 -19 30 -20 55
-23 385 l-3 352 -85 0 -85 0 3 -382z"/>
<path d="M17180 4970 l0 -480 168 0 c92 0 199 5 237 10 214 31 348 205 349
455 1 110 -15 179 -62 268 -43 84 -122 158 -197 186 -71 27 -196 41 -362 41
l-133 0 0 -480z m360 289 c73 -16 137 -63 174 -129 26 -47 31 -67 34 -145 5
-105 -6 -154 -48 -217 -46 -69 -97 -91 -232 -96 l-108 -5 0 302 0 301 65 0
c35 0 87 -5 115 -11z"/>
<path d="M3668 4655 c-34 -19 -48 -44 -48 -85 0 -42 15 -67 52 -86 66 -34 141
11 141 87 0 73 -81 120 -145 84z"/>
<path d="M4728 4655 c-34 -19 -48 -44 -48 -85 0 -42 15 -67 52 -86 66 -34 141
11 141 87 0 73 -81 120 -145 84z"/>
<path d="M5798 4655 c-34 -19 -48 -44 -48 -85 0 -42 15 -67 52 -86 66 -34 141
11 141 87 0 73 -81 120 -145 84z"/>
<path d="M1298 4260 c-285 -48 -507 -281 -525 -550 -8 -123 22 -238 98 -368
48 -80 289 -319 504 -499 99 -83 204 -176 233 -207 146 -155 133 -316 -33
-404 -43 -23 -63 -27 -135 -27 -73 0 -93 4 -142 28 -71 35 -154 117 -214 213
-30 46 -51 71 -59 66 -6 -4 -91 -56 -188 -115 -97 -60 -177 -112 -177 -116 0
-4 22 -45 50 -90 146 -244 320 -373 560 -417 285 -51 571 39 733 231 106 126
150 252 150 430 0 132 -18 208 -75 318 -62 119 -151 213 -433 455 -387 332
-425 373 -425 463 0 60 30 103 96 135 128 62 282 1 419 -168 l46 -57 165 147
c90 81 164 151 164 156 0 18 -206 213 -270 256 -158 106 -359 151 -542 120z"/>
<path d="M13405 4260 c-297 -34 -544 -150 -746 -349 -179 -178 -293 -384 -345
-621 -15 -66 -19 -126 -19 -270 1 -167 3 -195 28 -293 102 -406 362 -717 723
-864 332 -135 763 -133 1058 6 400 187 666 615 666 1074 l0 87 -600 0 -600 0
0 -220 0 -220 346 0 346 0 -27 -47 c-73 -126 -164 -215 -280 -272 -112 -54
-173 -65 -355 -66 -142 0 -176 3 -243 23 -290 83 -525 320 -594 597 -24 98
-24 316 1 404 70 256 273 473 517 555 115 38 198 49 333 43 145 -6 220 -25
344 -83 107 -50 171 -94 260 -178 l63 -60 160 160 160 159 -73 68 c-214 200
-419 304 -698 353 -108 18 -321 25 -425 14z"/>
<path d="M3282 4108 c-126 -324 -795 -2058 -858 -2225 l-24 -63 234 0 234 0
102 255 102 255 483 0 483 0 17 -42 c9 -24 48 -126 86 -228 39 -102 75 -197
81 -212 l10 -28 234 0 c129 0 234 4 234 8 0 4 -24 68 -53 142 -29 74 -235 609
-457 1188 l-404 1052 -232 0 -232 0 -40 -102z m434 -934 c80 -208 148 -385
151 -391 4 -10 -62 -13 -312 -13 -250 0 -316 3 -312 13 14 33 272 699 289 746
15 39 23 50 29 39 4 -8 74 -185 155 -394z"/>
<path d="M5070 3015 l0 -1195 225 0 225 0 2 782 3 782 401 -615 c220 -338 450
-689 510 -781 l108 -168 218 0 218 0 0 1195 0 1195 -225 0 -225 0 -2 -787 -3
-787 -514 787 -513 787 -214 0 -214 0 0 -1195z"/>
<path d="M8695 4198 c-2 -7 -92 -526 -200 -1153 -108 -627 -200 -1159 -205
-1183 l-7 -42 220 2 221 3 117 675 c64 371 122 708 129 748 7 41 16 70 20 65
4 -4 119 -342 255 -750 l247 -743 198 0 198 0 151 448 c83 246 197 583 253
749 56 167 105 299 109 295 3 -4 61 -333 128 -732 68 -399 125 -733 127 -742
5 -16 24 -18 220 -18 120 0 214 4 214 9 0 11 -388 2326 -395 2359 -5 22 -5 22
-223 22 l-217 0 -279 -831 c-153 -456 -282 -826 -286 -822 -4 4 -131 378 -281
831 l-274 822 -218 0 c-165 0 -219 -3 -222 -12z"/>
<path d="M11430 3015 l0 -1195 225 0 225 0 0 1195 0 1195 -225 0 -225 0 0
-1195z"/>
<path d="M15183 3348 c3 -751 5 -875 20 -954 26 -140 53 -217 108 -298 157
-236 449 -360 771 -328 184 19 313 68 436 169 98 81 201 233 235 350 30 102
37 280 40 1101 l2 822 -227 0 -228 0 0 -822 c0 -494 -4 -851 -10 -893 -26
-180 -141 -283 -326 -293 -178 -9 -299 66 -350 219 -17 50 -19 118 -22 922
l-3 867 -225 0 -225 0 4 -862z"/>
<path d="M17330 3015 l0 -1195 650 0 650 0 0 220 0 220 -430 0 -430 0 0 320 0
320 430 0 430 0 0 220 0 220 -425 0 -425 0 0 215 0 215 425 0 425 0 0 220 0
220 -650 0 -650 0 0 -1195z"/>
<path d="M19060 3015 l0 -1195 560 0 560 0 0 220 0 220 -330 0 -330 0 0 975 0
975 -230 0 -230 0 0 -1195z"/>
<path d="M2602 1434 c-16 -11 -22 -25 -22 -54 0 -62 54 -90 101 -52 44 37 16
122 -40 122 -9 0 -27 -7 -39 -16z"/>
<path d="M7770 1430 c-38 -38 -13 -120 38 -120 36 0 62 29 62 70 0 62 -58 92
-100 50z"/>
<path d="M17832 1434 c-16 -11 -22 -25 -22 -54 0 -62 54 -90 101 -52 44 37 16
122 -40 122 -9 0 -27 -7 -39 -16z"/>
<path d="M6286 1403 c-6 -29 -76 -559 -76 -574 0 -5 22 -9 50 -9 48 0 49 1 55
33 6 35 75 557 75 570 0 4 -22 7 -49 7 -46 0 -50 -2 -55 -27z"/>
<path d="M7310 1315 c-7 -63 -15 -115 -17 -115 -3 0 -20 13 -39 30 -45 39 -90
46 -158 25 -104 -33 -165 -119 -166 -233 0 -168 150 -262 283 -176 l37 24 0
-25 c0 -23 3 -25 48 -25 l48 0 38 288 c20 158 40 295 42 305 5 15 -2 17 -49
17 l-54 0 -13 -115z m-81 -159 c75 -39 63 -181 -19 -229 -31 -19 -101 -22
-131 -7 -47 25 -63 113 -32 177 30 65 116 93 182 59z"/>
<path d="M8476 1368 c-11 -97 -15 -108 -41 -108 -26 0 -35 -17 -35 -66 0 -29
3 -34 24 -34 22 0 24 -3 20 -32 -3 -18 -13 -95 -23 -170 l-18 -138 52 0 51 0
18 148 c24 199 22 192 61 192 30 0 33 3 39 38 10 60 9 62 -30 62 -27 0 -35 4
-31 14 3 8 9 46 13 85 l7 71 -50 0 -50 0 -7 -62z"/>
<path d="M10620 1428 c0 -2 -18 -136 -40 -298 -22 -162 -40 -298 -40 -302 0
-5 22 -8 49 -8 49 0 49 0 55 38 6 35 76 560 76 568 0 4 -100 6 -100 2z"/>
<path d="M15010 1418 c0 -16 -67 -520 -75 -565 l-6 -33 53 0 53 0 17 125 c9
68 24 140 34 160 39 82 155 87 154 7 0 -15 -9 -87 -19 -159 l-18 -133 52 0 52
0 19 138 c30 224 22 267 -54 299 -42 18 -88 12 -143 -16 -46 -24 -44 -31 -25
102 l12 87 -53 0 c-36 0 -53 -4 -53 -12z"/>
<path d="M19290 1320 c-12 -107 -22 -136 -34 -105 -7 18 -81 54 -112 55 -47 0
-122 -31 -159 -67 -52 -51 -75 -105 -75 -182 0 -171 153 -265 286 -175 l37 25
-5 -25 c-5 -25 -4 -26 48 -26 38 0 54 4 54 13 0 16 67 515 75 565 l6 32 -54 0
-54 0 -13 -110z m-64 -184 c26 -26 34 -42 34 -70 0 -84 -61 -156 -131 -156
-77 0 -119 41 -119 118 0 79 61 142 139 142 36 0 49 -6 77 -34z"/>
<path d="M965 1388 c-2 -18 -19 -139 -35 -268 -17 -129 -33 -250 -36 -267 l-6
-33 55 0 55 0 17 135 18 135 103 0 c120 0 111 15 89 -135 -21 -144 -24 -135
38 -135 l52 0 38 288 c21 158 37 293 37 300 0 9 -15 12 -52 10 l-53 -3 -14
-112 -14 -113 -104 0 c-83 0 -103 3 -103 14 0 19 19 165 25 194 5 21 2 22 -49
22 -54 0 -55 0 -61 -32z"/>
<path d="M1619 1255 c-54 -17 -114 -72 -140 -129 -29 -64 -26 -156 8 -217 35
-66 81 -93 153 -94 46 0 65 6 100 29 l43 28 -7 -26 c-6 -26 -6 -26 47 -26 l54
0 27 203 c15 111 30 210 32 220 5 15 -2 17 -50 17 -53 0 -56 -1 -56 -25 0 -26
-14 -33 -26 -14 -10 17 -86 49 -114 48 -14 0 -46 -7 -71 -14z m150 -111 c58
-48 51 -146 -14 -203 -29 -25 -45 -31 -81 -31 -39 0 -51 5 -80 34 -28 28 -34
42 -34 75 0 120 126 195 209 125z"/>
<path d="M2187 1256 c-102 -28 -177 -128 -177 -238 0 -34 7 -74 16 -94 54
-113 218 -147 345 -71 29 18 54 37 56 42 1 6 -14 22 -35 37 l-37 26 -29 -21
c-19 -14 -49 -22 -87 -25 -56 -4 -60 -3 -94 31 -28 28 -35 43 -35 74 0 119
124 191 230 132 l37 -21 44 22 44 23 -43 37 c-63 57 -139 71 -235 46z"/>
<path d="M2899 1255 c-54 -17 -114 -72 -140 -129 -29 -64 -26 -156 8 -217 35
-66 81 -93 153 -94 46 0 65 6 100 29 l43 28 -7 -26 c-6 -26 -6 -26 47 -26 l54
0 27 203 c15 111 30 210 32 220 5 15 -2 17 -50 17 -53 0 -56 -1 -56 -25 0 -26
-14 -33 -26 -14 -10 17 -86 49 -114 48 -14 0 -46 -7 -71 -14z m150 -111 c58
-48 51 -146 -14 -203 -29 -25 -45 -31 -81 -31 -39 0 -51 5 -80 34 -28 28 -34
42 -34 75 0 120 126 195 209 125z"/>
<path d="M4270 1264 c-8 -3 -32 -15 -52 -25 -38 -18 -38 -18 -38 1 0 17 -7 20
-49 20 -57 0 -49 23 -81 -225 -11 -88 -23 -172 -26 -187 -6 -28 -5 -28 48 -28
l53 0 17 125 c9 68 24 139 33 158 39 83 156 90 155 9 0 -15 -9 -87 -19 -159
l-18 -133 54 0 c38 0 53 4 53 13 0 8 9 81 20 164 23 168 18 209 -31 245 -26
20 -92 32 -119 22z"/>
<path d="M4689 1255 c-54 -17 -114 -72 -140 -129 -29 -64 -26 -156 8 -217 35
-66 81 -93 153 -94 46 0 65 6 100 29 l43 28 -7 -26 c-6 -26 -6 -26 47 -26 l54
0 27 203 c15 111 30 210 32 220 5 15 -2 17 -50 17 -53 0 -56 -1 -56 -25 0 -26
-14 -33 -26 -14 -10 17 -86 49 -114 48 -14 0 -46 -7 -71 -14z m150 -111 c58
-48 51 -146 -14 -203 -29 -25 -45 -31 -81 -31 -39 0 -51 5 -80 34 -28 28 -34
42 -34 75 0 120 126 195 209 125z"/>
<path d="M5404 1256 c-79 -35 -99 -126 -42 -191 17 -20 51 -50 75 -66 30 -21
43 -37 43 -53 0 -43 -57 -49 -111 -12 l-36 25 -32 -33 -32 -33 35 -31 c35 -30
90 -52 133 -52 43 0 102 31 123 66 45 71 24 133 -67 205 -68 54 -79 82 -32 87
17 2 37 -6 57 -23 l31 -26 25 38 24 38 -26 28 c-41 44 -111 57 -168 33z"/>
<path d="M5839 1255 c-54 -17 -114 -72 -140 -129 -29 -64 -26 -156 8 -217 35
-66 81 -93 153 -94 46 0 65 6 100 29 l43 28 -7 -26 c-6 -26 -6 -26 47 -26 l54
0 27 203 c15 111 30 210 32 220 5 15 -2 17 -50 17 -53 0 -56 -1 -56 -25 0 -26
-14 -33 -26 -14 -10 17 -86 49 -114 48 -14 0 -46 -7 -71 -14z m150 -111 c58
-48 51 -146 -14 -203 -29 -25 -45 -31 -81 -31 -39 0 -51 5 -80 34 -28 28 -34
42 -34 75 0 120 126 195 209 125z"/>
<path d="M8130 1254 c-19 -8 -42 -22 -52 -31 -17 -15 -18 -14 -18 10 0 26 -3
27 -49 27 -57 0 -48 28 -81 -235 -11 -88 -23 -170 -25 -183 -5 -22 -3 -23 47
-20 l52 3 16 115 c9 63 22 132 29 152 15 47 58 78 105 78 58 0 63 -24 43 -183
-23 -180 -26 -167 31 -167 l48 0 19 143 c28 222 22 257 -50 291 -41 20 -70 20
-115 0z"/>
<path d="M8830 1255 c-164 -53 -226 -269 -112 -388 59 -62 190 -71 285 -20 74
41 76 49 24 74 -43 21 -47 21 -80 6 -19 -10 -56 -17 -82 -17 -38 0 -52 5 -76
29 -16 16 -29 39 -29 50 0 20 4 21 176 21 l176 0 -4 64 c-3 48 -10 74 -31 105
-48 73 -155 106 -247 76z m129 -99 c15 -8 32 -26 39 -40 l12 -26 -115 0 c-63
0 -115 3 -115 6 0 3 5 14 10 24 24 46 114 64 169 36z"/>
<path d="M9370 1261 c-174 -53 -242 -275 -119 -386 65 -59 142 -67 218 -24 18
11 36 18 38 15 13 -13 -22 -79 -51 -97 -41 -25 -121 -25 -161 0 -29 18 -31 17
-72 -3 -24 -11 -43 -23 -43 -27 0 -18 67 -60 118 -75 73 -22 165 -9 223 31 69
48 72 61 135 523 l6 42 -51 0 c-48 0 -51 -2 -51 -25 0 -30 -11 -32 -35 -5 -30
33 -101 47 -155 31z m139 -120 c26 -25 31 -36 31 -78 0 -89 -55 -143 -145
-143 -38 0 -52 5 -76 29 -53 53 -35 160 34 201 50 31 117 27 156 -9z"/>
<path d="M9903 1251 c-17 -11 -36 -28 -42 -38 -9 -15 -10 -13 -11 15 0 31 -1
32 -43 32 l-42 0 -28 -212 c-15 -117 -27 -216 -27 -220 0 -5 22 -8 49 -8 l48
0 12 93 c20 150 31 195 58 227 13 17 35 30 47 30 17 0 26 10 38 44 23 61 3 74
-59 37z"/>
<path d="M10190 1261 c-72 -22 -138 -79 -164 -143 -21 -50 -20 -143 3 -193 24
-54 80 -101 129 -110 41 -7 117 8 127 25 3 6 15 15 27 21 19 10 20 9 16 -15
-5 -25 -4 -26 47 -26 l52 0 7 58 c4 31 17 130 30 220 l22 162 -53 0 c-52 0
-53 0 -53 -30 0 -32 -14 -40 -24 -15 -7 20 -83 55 -116 54 -14 0 -36 -4 -50
-8z m113 -102 c55 -25 72 -102 37 -174 -24 -50 -65 -75 -122 -75 -91 1 -136
92 -91 187 29 62 112 91 176 62z"/>
<path d="M11323 1259 c-48 -14 -83 -62 -83 -113 0 -52 20 -81 97 -137 45 -34
54 -45 51 -67 -3 -23 -8 -27 -38 -30 -25 -2 -47 4 -72 22 l-36 24 -26 -27
c-14 -15 -26 -32 -26 -39 0 -20 78 -70 119 -77 92 -15 181 46 181 126 0 55
-20 85 -91 139 -43 32 -59 51 -57 65 5 31 57 32 90 2 l27 -25 25 38 25 38 -22
20 c-26 25 -89 52 -114 51 -10 0 -32 -5 -50 -10z"/>
<path d="M11760 1255 c-164 -53 -226 -269 -112 -388 59 -62 190 -71 285 -20
74 41 76 49 24 74 -43 21 -47 21 -80 6 -19 -10 -56 -17 -82 -17 -38 0 -52 5
-76 29 -16 16 -29 39 -29 50 0 20 4 21 176 21 l176 0 -4 64 c-3 48 -10 74 -31
105 -48 73 -155 106 -247 76z m129 -99 c15 -8 32 -26 39 -40 l12 -26 -115 0
c-63 0 -115 3 -115 6 0 3 5 14 10 24 24 46 114 64 169 36z"/>
<path d="M12300 1261 c-174 -53 -242 -275 -119 -386 65 -59 142 -67 218 -24
18 11 36 18 38 15 13 -13 -22 -79 -51 -97 -41 -25 -121 -25 -161 0 -29 18 -31
17 -72 -3 -24 -11 -43 -23 -43 -27 0 -18 67 -60 118 -75 73 -22 165 -9 223 31
69 48 72 61 135 523 l6 42 -51 0 c-48 0 -51 -2 -51 -25 0 -30 -11 -32 -35 -5
-30 33 -101 47 -155 31z m139 -120 c26 -25 31 -36 31 -78 0 -89 -55 -143 -145
-143 -66 0 -105 39 -105 105 0 89 54 145 141 145 38 0 53 -6 78 -29z"/>
<path d="M13333 1251 c-17 -11 -36 -28 -42 -38 -9 -15 -10 -13 -11 15 0 31 -1
32 -43 32 l-42 0 -28 -212 c-15 -117 -27 -216 -27 -220 0 -5 22 -8 49 -8 l48
0 12 93 c20 150 31 195 58 227 13 17 35 30 47 30 17 0 26 10 38 44 23 61 3 74
-59 37z"/>
<path d="M13620 1261 c-72 -22 -138 -79 -164 -143 -21 -50 -20 -143 3 -193 24
-54 80 -101 129 -110 41 -7 117 8 127 25 3 6 15 15 27 21 19 10 20 9 16 -15
-5 -25 -4 -26 47 -26 l52 0 7 58 c4 31 17 130 30 220 l22 162 -53 0 c-52 0
-53 0 -53 -30 0 -32 -14 -40 -24 -15 -7 20 -83 55 -116 54 -14 0 -36 -4 -50
-8z m113 -102 c55 -25 72 -102 37 -174 -24 -50 -65 -75 -122 -75 -91 1 -136
92 -91 187 29 62 112 91 176 62z"/>
<path d="M16169 1260 c-14 -4 -38 -15 -52 -25 -26 -17 -27 -17 -27 4 0 19 -6
21 -49 21 -58 0 -51 19 -81 -215 -11 -88 -23 -175 -27 -193 l-5 -33 53 3 53 3
18 128 c19 138 38 184 83 205 62 29 105 2 105 -64 0 -21 -7 -84 -15 -139 -21
-144 -23 -135 35 -135 56 0 49 -14 70 145 14 104 35 160 70 185 56 40 120 16
120 -46 -1 -16 -9 -86 -19 -156 l-17 -128 51 0 52 0 22 163 c24 181 20 221
-25 256 -55 43 -146 35 -207 -18 l-32 -29 -19 25 c-33 44 -97 62 -157 43z"/>
<path d="M16879 1255 c-54 -17 -114 -72 -140 -129 -29 -64 -26 -156 8 -217 35
-66 81 -93 153 -94 46 0 65 6 100 29 l43 28 -7 -26 c-6 -26 -6 -26 47 -26 l54
0 27 203 c15 111 30 210 32 220 5 15 -2 17 -50 17 -53 0 -56 -1 -56 -25 0 -26
-14 -33 -26 -14 -10 17 -86 49 -114 48 -14 0 -46 -7 -71 -14z m150 -111 c58
-48 51 -146 -14 -203 -29 -25 -45 -31 -81 -31 -39 0 -51 5 -80 34 -28 28 -34
42 -34 75 0 120 126 195 209 125z"/>
<path d="M17510 1264 c-8 -3 -32 -15 -52 -25 -38 -18 -38 -18 -38 1 0 17 -7
20 -49 20 -57 0 -49 23 -81 -225 -11 -88 -23 -172 -26 -187 -6 -28 -5 -28 48
-28 l53 0 17 125 c9 68 24 139 33 158 39 83 156 90 155 9 0 -15 -9 -87 -19
-159 l-18 -133 54 0 c38 0 53 4 53 13 0 8 9 81 20 164 23 168 18 209 -31 245
-26 20 -92 32 -119 22z"/>
<path d="M18519 1255 c-54 -17 -114 -72 -140 -129 -29 -64 -26 -156 8 -217 35
-66 81 -93 153 -94 46 0 65 6 100 29 l43 28 -7 -26 c-6 -26 -6 -26 47 -26 l54
0 27 203 c15 111 30 210 32 220 5 15 -2 17 -50 17 -53 0 -56 -1 -56 -25 0 -26
-14 -33 -26 -14 -10 17 -86 49 -114 48 -14 0 -46 -7 -71 -14z m150 -111 c58
-48 51 -146 -14 -203 -29 -25 -45 -31 -81 -31 -39 0 -51 5 -80 34 -28 28 -34
42 -34 75 0 120 126 195 209 125z"/>
<path d="M19619 1255 c-54 -17 -114 -72 -140 -129 -29 -64 -26 -156 8 -217 35
-66 81 -93 153 -94 46 0 65 6 100 29 l43 28 -7 -26 c-6 -26 -6 -26 47 -26 l54
0 27 203 c15 111 30 210 32 220 5 15 -2 17 -50 17 -53 0 -56 -1 -56 -25 0 -26
-14 -33 -26 -14 -10 17 -86 49 -114 48 -14 0 -46 -7 -71 -14z m150 -111 c58
-48 51 -146 -14 -203 -29 -25 -45 -31 -81 -31 -39 0 -51 5 -80 34 -28 28 -34
42 -34 75 0 120 126 195 209 125z"/>
<path d="M2547 1048 c-15 -117 -27 -216 -27 -220 0 -5 22 -8 50 -8 57 0 48
-24 80 220 11 85 23 170 25 188 l6 32 -53 0 -53 0 -28 -212z"/>
<path d="M3580 1253 c0 -5 -7 -51 -15 -103 -35 -228 -8 -306 116 -331 102 -21
193 27 223 119 9 26 24 109 34 185 l18 137 -52 0 -51 0 -18 -132 c-19 -145
-33 -191 -63 -207 -35 -19 -77 -13 -102 14 l-24 26 17 137 c10 75 17 143 17
150 0 13 -100 18 -100 5z"/>
<path d="M6480 1253 c0 -5 -7 -51 -15 -103 -35 -228 -8 -306 116 -331 102 -21
193 27 223 119 9 26 24 109 34 185 l18 137 -52 0 -51 0 -18 -132 c-19 -145
-33 -191 -63 -207 -35 -19 -77 -13 -102 14 l-24 26 17 137 c10 75 17 143 17
150 0 13 -100 18 -100 5z"/>
<path d="M7746 1248 c-4 -12 -56 -405 -56 -420 0 -5 23 -8 50 -8 28 0 50 2 50
4 0 8 50 382 55 409 4 26 4 27 -46 27 -31 0 -51 -5 -53 -12z"/>
<path d="M12710 1183 c-22 -146 -23 -244 -3 -283 53 -102 210 -118 294 -30 41
43 53 82 74 243 21 157 23 147 -33 147 l-49 0 -12 -102 c-25 -208 -43 -248
-112 -248 -51 0 -79 27 -79 78 0 20 7 82 15 137 21 144 23 135 -34 135 l-49 0
-12 -77z"/>
<path d="M14235 1183 c14 -43 40 -125 60 -182 19 -58 35 -110 35 -117 0 -7
-27 -59 -60 -116 l-59 -103 51 -3 c28 -2 54 0 59 5 9 10 339 582 339 588 0 3
-24 5 -54 5 l-53 0 -76 -132 c-46 -81 -78 -127 -82 -118 -3 8 -22 67 -43 130
l-39 115 -51 3 -51 3 24 -78z"/>
<path d="M15490 1253 c0 -5 -7 -51 -15 -103 -35 -228 -8 -306 116 -331 102
-21 193 27 223 119 9 26 24 109 34 185 l18 137 -52 0 -51 0 -18 -132 c-19
-145 -33 -191 -63 -207 -35 -19 -77 -13 -102 14 l-24 26 17 137 c10 75 17 143
17 150 0 13 -100 18 -100 5z"/>
<path d="M17777 1048 c-15 -117 -27 -216 -27 -220 0 -5 22 -8 50 -8 57 0 48
-24 80 220 11 85 23 170 25 188 l6 32 -53 0 -53 0 -28 -212z"/>
<path d="M17976 1244 c-3 -9 -6 -31 -6 -50 l0 -34 85 0 85 0 -110 -165 c-60
-90 -110 -167 -110 -170 0 -3 83 -5 184 -5 l184 0 6 31 c14 70 16 68 -94 71
l-100 3 93 140 c52 77 102 152 111 168 l18 27 -170 0 c-146 0 -171 -2 -176
-16z"/>
<path d="M10751 841 l-40 -78 25 -13 c15 -8 28 -10 33 -4 4 5 29 37 54 71 l47
61 -36 21 c-19 12 -37 21 -39 21 -3 0 -23 -35 -44 -79z"/>
</g>
</svg>
